<svg id="Layer_1" data-name="Layer 1" xmlns="http://www.w3.org/2000/svg" xmlns:xlink="http://www.w3.org/1999/xlink" width="1920" height="1080" viewBox="0 0 1920 1080"><defs><style>.cls-1,.cls-26,.cls-27,.cls-38,.cls-40,.cls-42,.cls-43{fill:none;}.cls-2{clip-path:url(#clip-path);}.cls-3{clip-path:url(#clip-path-2);}.cls-4{clip-path:url(#clip-path-3);}.cls-5{fill:#56b0e2;}.cls-6{fill:#011c26;}.cls-7{fill:#f4912d;}.cls-8{fill:#031923;}.cls-9{fill:#d8d8d8;}.cls-10{fill:#af6409;}.cls-11{fill:#093a47;}.cls-12{clip-path:url(#clip-path-4);}.cls-13{clip-path:url(#clip-path-5);}.cls-14{clip-path:url(#clip-path-6);}.cls-15{clip-path:url(#clip-path-7);}.cls-16{clip-path:url(#clip-path-8);}.cls-17{clip-path:url(#clip-path-9);}.cls-18{clip-path:url(#clip-path-10);}.cls-19{clip-path:url(#clip-path-11);}.cls-20{clip-path:url(#clip-path-12);}.cls-21{clip-path:url(#clip-path-13);}.cls-22{clip-path:url(#clip-path-14);}.cls-23{clip-path:url(#clip-path-15);}.cls-24{fill:#72a9b7;}.cls-25{fill:#1d1d1b;}.cls-26{stroke:#fff;}.cls-26,.cls-27,.cls-38,.cls-40,.cls-42,.cls-43{stroke-miterlimit:10;}.cls-26,.cls-27,.cls-43{stroke-width:2px;}.cls-27{stroke:#fafafa;}.cls-28{fill:#fff;}.cls-29{clip-path:url(#clip-path-16);}.cls-30{clip-path:url(#clip-path-17);}.cls-31{clip-path:url(#clip-path-18);}.cls-32{clip-path:url(#clip-path-19);}.cls-33{clip-path:url(#clip-path-20);}.cls-34{fill:#f3912e;}.cls-35{fill:#cce9f5;}.cls-36{fill:#89cde5;}.cls-37{fill:#5f7c3e;}.cls-38{stroke:#5f7c3e;stroke-width:7px;}.cls-39{fill:#cec4e2;}.cls-40{stroke:#dedc00;}.cls-41{fill:#14212f;}.cls-42{stroke:#29235c;stroke-width:4px;}.cls-43{stroke:#312783;}.cls-44{fill:#e5d438;}.cls-45{clip-path:url(#clip-path-21);}</style><clipPath id="clip-path"><polygon class="cls-1" points="229.44 -57 -0.91 -57 -116.09 142.49 -0.91 341.98 229.44 341.98 344.61 142.49 229.44 -57"/></clipPath><clipPath id="clip-path-2"><polygon class="cls-1" points="574.06 -257 343.71 -257 228.53 -57.51 343.71 141.98 574.06 141.98 689.24 -57.51 574.06 -257"/></clipPath><clipPath id="clip-path-3"><polygon class="cls-1" points="574.06 143.01 343.71 143.01 228.53 342.5 343.71 541.99 574.06 541.99 689.24 342.5 574.06 143.01"/></clipPath><clipPath id="clip-path-4"><polygon class="cls-1" points="918.44 344.01 688.09 344.01 572.91 543.5 688.09 742.99 918.44 742.99 1033.61 543.5 918.44 344.01"/></clipPath><clipPath id="clip-path-5"><polygon class="cls-1" points="229.44 741.99 -0.91 741.99 -116.09 941.48 -0.91 1140.97 229.44 1140.97 344.61 941.48 229.44 741.99"/></clipPath><clipPath id="clip-path-6"><polygon class="cls-1" points="574.06 541.99 343.71 541.99 228.53 741.48 343.71 940.97 574.06 940.97 689.24 741.48 574.06 541.99"/></clipPath><clipPath id="clip-path-7"><polygon class="cls-1" points="574.06 941.99 343.71 941.99 228.53 1141.48 343.71 1340.97 574.06 1340.97 689.24 1141.48 574.06 941.99"/></clipPath><clipPath id="clip-path-8"><polygon class="cls-1" points="918.68 -55.97 688.33 -55.97 573.15 143.52 688.33 343.01 918.68 343.01 1033.86 143.52 918.68 -55.97"/></clipPath><clipPath id="clip-path-9"><polygon class="cls-1" points="1263.3 -255.97 1032.95 -255.97 917.77 -56.48 1032.95 143.01 1263.3 143.01 1378.48 -56.48 1263.3 -255.97"/></clipPath><clipPath id="clip-path-10"><polygon class="cls-1" points="1263.3 144.03 1032.95 144.03 917.77 343.52 1032.95 543.01 1263.3 543.01 1378.48 343.52 1263.3 144.03"/></clipPath><clipPath id="clip-path-11"><polygon class="cls-1" points="229.68 340.04 -0.67 340.04 -115.85 539.53 -0.67 739.02 229.68 739.02 344.86 539.53 229.68 340.04"/></clipPath><clipPath id="clip-path-12"><polygon class="cls-1" points="918.68 743.02 688.33 743.02 573.15 942.51 688.33 1142 918.68 1142 1033.86 942.51 918.68 743.02"/></clipPath><clipPath id="clip-path-13"><polygon class="cls-1" points="1263.3 543.01 1032.95 543.01 917.77 742.5 1032.95 941.99 1263.3 941.99 1378.48 742.5 1263.3 543.01"/></clipPath><clipPath id="clip-path-14"><polygon class="cls-1" points="1263.3 943.02 1032.95 943.02 917.77 1142.51 1032.95 1342 1263.3 1342 1378.48 1142.51 1263.3 943.02"/></clipPath><clipPath id="clip-path-15"><polygon class="cls-1" points="1607.92 -57 1377.57 -57 1262.39 142.49 1377.57 341.98 1607.92 341.98 1723.1 142.49 1607.92 -57"/></clipPath><clipPath id="clip-path-16"><polygon class="cls-1" points="1952.54 -257 1722.19 -257 1607.02 -57.51 1722.19 141.98 1952.54 141.98 2067.72 -57.51 1952.54 -257"/></clipPath><clipPath id="clip-path-17"><polygon class="cls-1" points="1952.54 143.01 1722.19 143.01 1607.02 342.5 1722.19 541.99 1952.54 541.99 2067.72 342.5 1952.54 143.01"/></clipPath><clipPath id="clip-path-18"><polygon class="cls-1" points="1607.92 343.01 1377.57 343.01 1262.39 542.5 1377.57 741.99 1607.92 741.99 1723.1 542.5 1607.92 343.01"/></clipPath><clipPath id="clip-path-19"><polygon class="cls-1" points="1607.92 741.99 1377.57 741.99 1262.39 941.48 1377.57 1140.97 1607.92 1140.97 1723.1 941.48 1607.92 741.99"/></clipPath><clipPath id="clip-path-20"><polygon class="cls-1" points="1952.54 541.99 1722.19 541.99 1607.02 741.48 1722.19 940.97 1952.54 940.97 2067.72 741.48 1952.54 541.99"/></clipPath><clipPath id="clip-path-21"><polygon class="cls-1" points="1952.54 941.99 1722.19 941.99 1607.02 1141.48 1722.19 1340.97 1952.54 1340.97 2067.72 1141.48 1952.54 941.99"/></clipPath></defs><title>baggrund</title><g class="cls-2"><image width="768" height="1024" transform="translate(-195 -170)" xlink:href="../../01-web/04-responsive/01_04_02_responsive_site_v2/pics/tablet_portrait.png"/></g><g class="cls-3"><image width="789" height="669" transform="translate(182 -227) scale(0.6)" xlink:href="../../03-animation/Dokumentation/Illustrator/Form%20givning2.PNG"/></g><g class="cls-4"><rect class="cls-1" x="179.34" y="112" width="500" height="900"/><path class="cls-5" d="M459.86,319.15h0a43,43,0,0,1-32.67-51.29l11.91-53.7a30.1,30.1,0,0,1,35.79-22.79L500.27,197a30.09,30.09,0,0,1,22.79,35.79l-11.91,53.68a43,43,0,0,1-51.28,32.69Z"/><path class="cls-6" d="M540.22,198.31l-8.66-.27-4-.12-3.29-.11a11.37,11.37,0,0,1-3.11-.51l-36-11a69.84,69.84,0,0,0-19.56-2.51l-7.74.33c-7.31.3-16.73,5.45-20.94,11.43l-1.55,2.21a59.87,59.87,0,0,0-7.92,18l-11,49.71a10,10,0,0,0,7.6,11.93h0l11.72,2.6a14.29,14.29,0,0,0,14.64-6.53l25.9-46.33A14.65,14.65,0,0,1,491,220.35l29.43,5.91a10.27,10.27,0,0,0,11.78-7.13l3.64-7.55,1.74-3.6,3.77-7.8a1.21,1.21,0,0,0-1.14-1.87Z"/><rect class="cls-5" x="441.72" y="312.97" width="33" height="27" transform="translate(42.69 705.79) rotate(-77.86)"/><path class="cls-7" d="M513.34,554h-126V400.13A63.15,63.15,0,0,1,450.47,337h0a62.87,62.87,0,0,1,62.87,62.87Z"/><path class="cls-8" d="M591.79,503.81l-7.15-20.94a3.48,3.48,0,0,1,.11-2.52L614,418.47c1.22-2.77,5.81-4.78,7-2l6.85,11.1a10.07,10.07,0,0,1,0,7.95l-29.6,68.54a3.46,3.46,0,0,1-6.46-.25Z"/><path class="cls-9" d="M594.14,491.62l-3.34-15.39a3,3,0,0,1,.22-1.85l22.43-45.5c.95-2,4-3.51,4.61-1.46l3.74,8.16a8.4,8.4,0,0,1-.48,5.84l-23.05,50.39C597.29,494,594.62,493.83,594.14,491.62Z"/><path class="cls-5" d="M604,486.47h0c-5.13,8.2-15.8,7.13-24,2L435.7,406.09A17.52,17.52,0,0,1,430.15,382l4.07-6.51a17.51,17.51,0,0,1,24.13-5.55h0L598,462.47C606.2,467.6,609.13,478.27,604,486.47Z"/><path class="cls-10" d="M416.15,369.1h0A28.79,28.79,0,0,1,455.83,360h0l42.56,26.64h0L468,435.25h0l-42.73-26.74A28.59,28.59,0,0,1,416.15,369.1Z"/><polygon class="cls-6" points="517 896.47 485 898.47 488 736.47 535 755.47 517 896.47"/><polygon class="cls-6" points="535 755 498 779 387 554 513 554 535 755"/><path class="cls-11" d="M423,754l-43-15,7-185H513L436,751C434,754,428,753,423,754Z"/><path class="cls-11" d="M255.22,872.05l-19.59-19.43L387.37,726.85,433.43,746a3.8,3.8,0,0,1,1.11,7Z"/><path d="M218.48,864l31.64-24.48h0l43.81,56.62a19.41,19.41,0,0,1-3.48,27.23h0a20.58,20.58,0,0,1-28.88-3.69h0L218.48,864Z"/><path d="M487.72,938l-3.13-39.88h0L556,892.53a19.41,19.41,0,0,1,20.87,17.83h0a20.59,20.59,0,0,1-18.92,22.14h0L487.72,938Z"/><path class="cls-5" d="M961.36,318.27h0A43,43,0,0,1,928.69,267l11.91-53.7a30.1,30.1,0,0,1,35.79-22.81l25.38,5.63a30.09,30.09,0,0,1,22.79,35.79l-11.91,53.69a43,43,0,0,1-51.28,32.7Z"/><path class="cls-6" d="M1041.72,197.47l-8.66-.27-4-.12-3.29-.11a11.37,11.37,0,0,1-3.11-.51l-35.95-11a70.2,70.2,0,0,0-19.56-2.5l-7.74.32c-7.31.31-16.73,5.46-20.94,11.44l-1.55,2.21a59.87,59.87,0,0,0-7.92,18l-11,49.78a10,10,0,0,0,7.6,11.93h0l11.72,2.6A14.29,14.29,0,0,0,952,272.68l25.9-46.34a14.67,14.67,0,0,1,14.63-6.87l29.43,5.91a10.27,10.27,0,0,0,11.78-7.13l3.64-7.55,1.74-3.6,3.77-7.8a1.21,1.21,0,0,0-1.13-1.83Z"/><rect class="cls-5" x="943.22" y="312.09" width="33" height="27" transform="translate(439.58 1195.38) rotate(-77.86)"/><path class="cls-7" d="M1013.34,554h-126V400.13A63.13,63.13,0,0,1,950.47,337h0a62.87,62.87,0,0,1,62.87,62.87h0Z"/><path class="cls-8" d="M1092.22,502.92,1085.08,482a3.48,3.48,0,0,1,.11-2.52l29.25-61.88c1.22-2.77,5.8-4.78,7-2l6.85,11.1a10.16,10.16,0,0,1,0,7.95l-29.6,68.54a3.46,3.46,0,0,1-6.47-.26Z"/><path class="cls-9" d="M1094.58,490.74l-3.34-15.4a2.92,2.92,0,0,1,.22-1.84l22.43-45.5c1-2,4-3.51,4.61-1.47l3.74,8.17a8.46,8.46,0,0,1-.48,5.84l-23,50.39C1097.73,493.07,1095.06,493,1094.58,490.74Z"/><path class="cls-5" d="M1104.44,485.59h0c-5.14,8.2-15.8,7.13-24,2l-144.3-82.38a17.52,17.52,0,0,1-5.56-24.13h0l4.07-6.51A17.51,17.51,0,0,1,958.79,369h0l139.64,92.58C1106.64,466.72,1109.57,477.39,1104.44,485.59Z"/><path class="cls-10" d="M916.58,368.24h0a28.78,28.78,0,0,1,39.67-9.13l42.57,26.63h0l-30.43,48.62h0l-42.73-26.74A28.59,28.59,0,0,1,916.58,368.24Z"/><polygon class="cls-6" points="1000.44 896.59 967.44 898.59 988.44 735.59 1035.44 754.59 1000.44 896.59"/><polygon class="cls-6" points="1035.44 755 991.44 761 887.44 554 1013.44 554 1035.44 755"/><path class="cls-11" d="M939.44,760l-42-21-10-185h126l-63,203C948.44,760,944.44,759,939.44,760Z"/><path class="cls-11" d="M769.66,877.17l-19.59-19.43L901.81,732l46.05,19.13a3.8,3.8,0,0,1,2.92,4.51,3.74,3.74,0,0,1-1.8,2.49Z"/><path d="M742.9,861.16l31.64-24.48h0l43.81,56.62a19.42,19.42,0,0,1-3.47,27.23h0A20.6,20.6,0,0,1,786,916.85h0L742.9,861.16Z"/><path d="M970.17,938.1l-3.12-39.87h0l71.37-5.6a19.42,19.42,0,0,1,20.87,17.84h0a20.59,20.59,0,0,1-18.92,22.13h0l-70.17,5.49Z"/><rect class="cls-1" x="679.34" y="112" width="500" height="900"/><path class="cls-5" d="M1460.25,321h0a43,43,0,0,1-32.66-51.29h0L1439.5,216a30.08,30.08,0,0,1,35.78-22.79l25.39,5.63a30.1,30.1,0,0,1,22.79,35.78l-11.91,53.7A43,43,0,0,1,1460.26,321Z"/><path class="cls-6" d="M1540.61,200.18l-8.66-.27-4-.13-3.29-.1a11.69,11.69,0,0,1-3.1-.51l-36-11a70.56,70.56,0,0,0-19.55-2.51l-7.75.33c-7.3.31-16.72,5.46-20.93,11.44l-1.56,2.21a60,60,0,0,0-7.92,17.94l-11,49.79a10,10,0,0,0,7.6,11.93h0l11.71,2.6a14.29,14.29,0,0,0,14.64-6.56L1476.7,229a14.68,14.68,0,0,1,14.69-6.76l29.42,5.91A10.26,10.26,0,0,0,1532.6,221l3.64-7.54,1.74-3.6,3.76-7.8a1.19,1.19,0,0,0-.29-1.68A1.24,1.24,0,0,0,1540.61,200.18Z"/><rect class="cls-5" x="1443.11" y="314.84" width="33" height="27" transform="translate(831.65 1686.25) rotate(-77.86)"/><path class="cls-7" d="M1516.34,556h-126V402.13A63.15,63.15,0,0,1,1453.47,339h0a62.87,62.87,0,0,1,62.87,62.87Z"/><path class="cls-8" d="M1591.18,501.67,1584,480.73a3.46,3.46,0,0,1,.11-2.51l29.24-61.88c1.22-2.78,5.81-4.79,7-2l6.86,11.09a10.11,10.11,0,0,1,0,8L1597.62,502a3.46,3.46,0,0,1-6.44-.31Z"/><path class="cls-9" d="M1593.54,489.47l-3.34-15.4a3,3,0,0,1,.22-1.85l22.43-45.49c.94-2,4-3.52,4.61-1.47l3.74,8.16a8.49,8.49,0,0,1-.48,5.85l-23,50.39C1596.69,491.82,1594,491.69,1593.54,489.47Z"/><path class="cls-5" d="M1604,484.47h0c-5.13,8.2-15.8,7.13-24,2l-144.3-82.38a17.52,17.52,0,0,1-5.55-24.14l4.07-6.51a17.51,17.51,0,0,1,24.13-5.55h0L1598,460.47C1606.2,465.6,1609.13,476.27,1604,484.47Z"/><path class="cls-10" d="M1420.55,372h0a28.79,28.79,0,0,1,39.68-9.13h0l42.56,26.63h0l-30.44,48.64h0l-42.73-26.74A28.6,28.6,0,0,1,1420.55,372Z"/><polygon class="cls-6" points="1503.39 897 1471.39 897 1491.39 738 1538.39 757 1503.39 897"/><polygon class="cls-6" points="1538.39 757 1501.39 762 1390.39 556 1516.39 556 1538.39 757"/><path class="cls-11" d="M1499.39,769l-35-36-74-177h126l-10,208C1506.39,767,1504.39,768,1499.39,769Z"/><path class="cls-11" d="M1290.79,820,1279,795l185.56-66.39,36.76,33.7a3.8,3.8,0,0,1-1.34,7Z"/><path d="M1250,805.91l37.5-13.92h0l24.91,67.12a19.41,19.41,0,0,1-11.44,24.95h0a20.59,20.59,0,0,1-26.47-12.14l-24.5-66Z"/><path d="M1471.34,937V897H1543a19.41,19.41,0,0,1,19.41,19.41h0A20.59,20.59,0,0,1,1541.79,937Z"/><rect class="cls-1" x="1179.34" y="112" width="500" height="900"/><path class="cls-6" d="M2041.61,201.18l-8.66-.27-4-.13-3.29-.1a11.69,11.69,0,0,1-3.1-.51l-36-11a70.56,70.56,0,0,0-19.55-2.51l-7.75.33c-7.3.31-16.72,5.46-20.93,11.44l-1.56,2.21a60,60,0,0,0-7.92,17.94l-11,49.79a10,10,0,0,0,7.6,11.93h0l11.71,2.6a14.29,14.29,0,0,0,14.64-6.56L1977.7,230a14.68,14.68,0,0,1,14.69-6.76l29.42,5.91A10.26,10.26,0,0,0,2033.6,222l3.64-7.54,1.74-3.6,3.76-7.8a1.19,1.19,0,0,0-.29-1.68A1.24,1.24,0,0,0,2041.61,201.18Z"/><path class="cls-7" d="M2014.34,557h-126V403.13A63.13,63.13,0,0,1,1951.47,340h0a62.86,62.86,0,0,1,62.86,62.86Z"/><path class="cls-10" d="M1917.55,373.94h0a28.8,28.8,0,0,1,39.68-9.13h0l42.56,26.64h0l-30.44,48.64h0l-42.73-26.74A28.59,28.59,0,0,1,1917.55,373.94Z"/><polygon class="cls-6" points="2018.39 758 1964.39 767 1888.39 557 2014.39 557 2018.39 758"/><path class="cls-11" d="M1997.39,770l-35-36-74-177h126l-10,208C2004.39,768,2002.39,769,1997.39,770Z"/><path class="cls-11" d="M1788.79,821,1777,796l185.56-66.39,36.76,33.7a3.8,3.8,0,0,1-1.34,7Z"/><path d="M1748,806.88l37.5-13.91h0l24.91,67.11A19.41,19.41,0,0,1,1798.91,885h0a20.57,20.57,0,0,1-26.46-12.14l-24.5-66Z"/><rect class="cls-1" x="1679.34" y="112" width="500" height="900"/></g><g class="cls-12"><image width="626" height="548" transform="translate(564 331) scale(0.76)" xlink:href="../../03-animation/Dokumentation/Illustrator/Form%20givning3.PNG"/></g><g class="cls-13"><image width="1208" height="1500" transform="translate(-32 743) scale(0.37)" xlink:href="../../../../Pictures/81L8-mjNlrL._SL1500_.jpg"/></g><g class="cls-14"><image width="720" height="960" transform="translate(238 403) scale(0.7)" xlink:href="../../03-animation/Dokumentation/Skitser/44686428_275999123046180_8163368885521743872_n.jpg"/></g><g class="cls-15"><image width="375" height="227" transform="translate(168 914) scale(1.46)" xlink:href="../../02-content/02-redesign/02_02_06_redesign/billeder/thumbnail.jpg"/></g><g class="cls-16"><image width="720" height="960" transform="translate(485 -295) scale(0.89)" xlink:href="../../03-animation/Dokumentation/Skitser/44807370_245912716084018_3618696554619076608_n.jpg"/></g><g class="cls-17"><image width="355" height="182" transform="translate(950 -58) scale(1.21)" xlink:href="../../../../Pictures/1213.JPG"/></g><g class="cls-18"><image width="1306" height="739" transform="translate(804 141) scale(0.54)" xlink:href="../../03-animation/Dokumentation/Illustrator/45.PNG"/></g><g class="cls-19"><image width="455" height="815" transform="translate(-112 332)" xlink:href="../../../../Pictures/2.JPG"/></g><g class="cls-20"><image width="1142" height="642" transform="translate(345 641) scale(0.68)" xlink:href="../../03-animation/Dokumentation/Illustrator/42.PNG"/></g><g class="cls-21"><image width="338" height="444" transform="translate(915 415) scale(1.38)" xlink:href="../../../../Pictures/1212.JPG"/></g><g class="cls-22"><image width="500" height="616" transform="translate(934 845) scale(0.86)" xlink:href="../../01-web/02-html/01_02_02_visitkort/Vietnam.jpg"/></g><g class="cls-23"><g id="spilltittel_1" data-name="spilltittel 1"><path class="cls-24" d="M1533.52,169.13c-90.46-1.5-181-6.08-271.48-13.23Q1268.49,105,1275,54c81.84-6.45,163.76-10.63,245.62-12Z"/><path class="cls-24" d="M1822.09,279.76c-166.12,10.36-332.25,16.06-498.38,16q9.57-77.52,19.16-155c153.32,0,306.74,5.19,460.06,14.74Q1812.52,217.66,1822.09,279.76Z"/><path class="cls-25" d="M1289.55,147.19c-2.75,0-4-1.23-4-4V70.9c0-2.74,1.24-4,4-4h37.66c18.77,0,27.53,7.24,27.53,22.75v34.8c0,15.51-8.71,22.75-27.53,22.75Zm22.27-20.77h12.91c3.46,0,5.09-1.71,5.09-5.61V93.13c0-3.76-1.63-5.47-5.09-5.47h-12.91Z"/><path class="cls-25" d="M1376,148.25c-2.77.14-4.15-1-4.25-3.84L1368,71.66c-.13-2.76,1-4.15,3.84-4.25l52.09-2.64c2.77-.14,4.16,1,4.25,3.84l.67,13.13c.14,2.77-1,4.16-3.85,4.24l-31,1.58.43,8.64,21.89-1.11c2.77-.14,4.15,1,4.25,3.83l.61,12c.13,2.77-1,4.15-3.84,4.25l-21.89,1.11L1396,126l31-1.57c2.77-.15,4.15,1,4.25,3.84l.67,13.12c.13,2.77-1,4.16-3.84,4.25Z"/><path class="cls-25" d="M1452.28,142.71c-2.77.18-4.15-1-4.32-3.76l-5-72.67c-.19-2.77,1-4.15,3.76-4.31l17.38-1.2c2.77-.19,4.16.95,4.31,3.77l3.82,55.49,15.37-1,2.77-18.45c-.2-2.77,3-4.26,5.8-4.46l6.06-.41c2.77-.2,4.15,1,4.32,3.76l6.56,35c.2,2.77-.95,4.16-3.76,4.32Z"/><path class="cls-26" d="M1290.85,136.8c-1.95-.46-2.58-1.68-2-4l14-60c.54-2.31,1.63-3.13,3.6-2.69l26.4,6.15c13.16,3.06,17.88,10.51,14.89,23.38l-6.72,28.9c-3,12.87-10.51,17.47-23.68,14.41Zm20.7-21.08,9.33,2.17c2.5.58,4-.53,4.73-3.68l5.23-22.51c.72-3-.13-4.71-2.64-5.31l-9.33-2.16Z"/><path class="cls-26" d="M1380.76,139.58c-2-.09-2.76-1.19-2.76-3.57l3.29-61.52c.13-2.38,1.07-3.38,3.07-3.27l37.27,2c2,.11,2.77,1.2,2.77,3.57l-.6,11.07c-.12,2.38-1.06,3.38-3.07,3.27L1398.58,90l-.39,7.31,15.68.83c2,.11,2.76,1.21,2.76,3.57l-.55,10.17c-.12,2.38-1.07,3.37-3.07,3.26l-15.66-.83-.44,8.16,22.15,1.19c2,.11,2.77,1.2,2.77,3.57l-.6,11.07c-.12,2.38-1.07,3.38-3.07,3.27Z"/><path class="cls-26" d="M1464.17,138.29c-2,.48-3.06-.34-3.61-2.68l-14.34-60.39c-.56-2.32.07-3.56,2-4l12.13-2.88c2-.47,3.06.34,3.61,2.68l10.92,46.13,10.73-2.55-.75-15.78c-.55-2.32,1.5-3.89,3.45-4.36l4.24-1c2-.47,3.06.35,3.61,2.68l9.82,28.68c.55,2.33,0,3.56-2,4Z"/><path class="cls-25" d="M1808.11,268.61c-157,8.95-314.14,13.54-471.16,12.62q9-61.26,18.12-122.5c144.93-.79,290,3.36,434.92,11.67Q1799,219.5,1808.11,268.61Z"/><path class="cls-27" d="M1808.11,268.61c-157,8.95-314.14,13.54-471.16,12.62q9-61.26,18.12-122.5c144.93-.79,290,3.36,434.92,11.67Q1799,219.5,1808.11,268.61Z"/><path class="cls-24" d="M1367.54,258.35c-2.77-.11-4-1.39-3.87-4.15l2.77-72.78c.11-2.77,1.38-4,4.15-3.89l11.68.46a7.68,7.68,0,0,1,6.51,3.29l20.77,25.79.94-23.92c.11-2.77,1.38-4,4.15-3.89l16.85.66c2.77.11,4,1.39,3.89,4.16l-2.85,72.77c-.11,2.77-1.39,4-4.16,3.89l-16.84-.66c-2.77-.11-4-1.39-3.89-4.15l.54-13.85-18.13-24-1.38,37.07c-.11,2.77-1.39,4-4.15,3.88Z"/><path class="cls-24" d="M1479.12,263.29c-28.08-.14-34.9-9.39-34.83-23.09l4.16-18.8-4-19.53c0-13.71,6.92-23,35.06-22.87s34.81,9.49,34.74,23.21l-4.16,19.49,4,18.83C1514,254.25,1507.23,263.43,1479.12,263.29Zm.12-21.69c8.2,0,9.45-2.2,9.46-5.24l6.21-14.74-6.05-15.49c0-2.92-1.22-5.18-9.42-5.22s-9.45,2.2-9.47,5.14l-4.15,15.43,4,14.79c0,3,1.31,5.3,9.4,5.33Z"/><path class="cls-24" d="M1560.62,258.87c-2.77-.23-3.91-1.57-3.68-4.37l6.15-72.57c.23-2.77,1.56-3.93,4.37-3.7l37.74,3.24c18.81,1.6,26.94,9.61,25.61,25.19l-3,34.94c-1.31,15.56-10.67,22.15-29.48,20.51Zm23.19-19.38,13.33,1.12c3.59.31,5.4-1.23,5.73-5l2.3-27.22c.32-3.7-1.22-5.54-4.8-5.82L1587,201.41Z"/><path class="cls-24" d="M1651,263.48c-2.77.23-4.16-.91-4.35-3.72l-5.54-72.62c-.2-2.77.93-4.16,3.73-4.34l52-4c2.77-.21,4.16.93,4.35,3.73l1,13.12c.22,2.77-.93,4.15-3.72,4.33l-30.93,2.38.65,8.63,21.86-1.68c2.77-.22,4.15.93,4.35,3.73l.91,12c.22,2.77-.91,4.15-3.72,4.34l-21.85,1.68.74,9.69,30.92-2.37c2.77-.22,4.16.93,4.35,3.73l1,13.11c.21,2.76-.93,4.15-3.72,4.34Z"/><path class="cls-24" d="M1721.56,254.26c-2.77-.29-3.89-1.66-3.59-4.44l7.71-72.43c.29-2.77,1.65-3.89,4.45-3.6l17.33,1.86c2.77.29,3.89,1.64,3.58,4.44l-6,55.37,15.31,1.64,6-17.67c.29-2.77,1.65-3.9,4.44-3.6l8.09.86c2.77.31,3.89,1.66,3.58,4.46l.32,35.63c-.29,2.77-1.66,3.89-4.46,3.6Z"/><path class="cls-25" d="M1585.81,118.69c-.79,16.16-6.66,19.84-15.09,19.38L1547.18,137c-8.43-.39-14-4.61-13.18-20.76s6.73-19.77,15.23-19.38l23.53,1.1C1581.13,98.41,1586.59,102.56,1585.81,118.69Zm-13.35-.63c.24-4.73-1.11-5.54-3-5.54l-18.59-.89c-1.8-.08-3.21.57-3.45,5.29s1.11,5.54,2.91,5.54l18.59.87C1570.81,123.43,1572.24,122.72,1572.46,118.06Z"/><path class="cls-25" d="M1585,91.68c0,1.68-.86,2.4-2.65,2.34L1536,92.64c-1.78,0-2.55-.82-2.5-2.49l-2.09-22.26c.3-10,8-14.42,15.1-14.19l3.28.09a8.83,8.83,0,0,1,8,5.39c.72-4.86,4.6-8,10.61-7.77l15,4.75c1.79,0,2.55.82,2.51,2.49v1.79c0,1.66-.87,2.38-2.66,2.32l-11.07,3.95c-2.15-.07-3.1.58-3.16,2.45l-.28,9.36,14,.43c1.79,0,2.55.81,2.5,2.49Zm-28-19.12.15-5c0-2.34-1.38-3-3.27-3l-2.43-.09c-1.93,0-3.38.5-3.45,2.84l-.15,5Z"/><path class="cls-28" d="M1820.5,132.09c.35-.22-.13-.58-.14-.69C1819.9,131.93,1820.61,132.2,1820.5,132.09Z"/><polygon class="cls-28" points="1816.04 137.37 1815.99 137.1 1815.57 138.18 1816.04 137.37"/><path class="cls-28" d="M1811.09,140.87c1.09.39,1.68-1.56,2.76-2h.28l-.1-.94C1813.08,139,1812,140.47,1811.09,140.87Z"/><path class="cls-28" d="M1807.15,142.05c.41.17-.36.72.7-.4h-.18A3.42,3.42,0,0,1,1807.15,142.05Z"/><path class="cls-28" d="M1805.37,143.49l.47-.82c-.29,0-.93.39-.8,0C1804.39,143.46,1804.73,143.51,1805.37,143.49Z"/><path class="cls-28" d="M1805.16,144.57l.28-.41C1805.31,144.1,1805.19,144.19,1805.16,144.57Z"/><path class="cls-28" d="M1806,143.32l-.55.84c.19,0,.4.3.27-.36C1805.77,144.1,1805.77,143.75,1806,143.32Z"/><path class="cls-28" d="M1806.52,143.1c.51-.14,1.09-.43.62.39C1808.37,142.32,1807.74,141.94,1806.52,143.1Z"/><path class="cls-28" d="M1811.47,142.32l.7-.19.23-.61C1812.29,141.83,1811.31,142.1,1811.47,142.32Z"/><path class="cls-28" d="M1800.77,146.52c.1.19.58.25.8.41l.36-.59C1801.62,146.44,1801,146.73,1800.77,146.52Z"/><path class="cls-28" d="M1801.62,146.93l-.53.89C1801.74,147.31,1801.77,147.09,1801.62,146.93Z"/><polygon class="cls-28" points="1805.73 145.52 1806.5 143.93 1805.49 145.72 1805.73 145.52"/><polygon class="cls-28" points="1797.87 148.82 1797.99 148.1 1797.68 149.27 1797.87 148.82"/><path class="cls-28" d="M1796,150.42c.07-.57-.86-.18-.68-.65a4.39,4.39,0,0,0-.92,1.68A2.51,2.51,0,0,1,1796,150.42Z"/><path class="cls-28" d="M1794,152.4a5.7,5.7,0,0,0,.38-.88A2.64,2.64,0,0,0,1794,152.4Z"/><path class="cls-28" d="M1799.69,148.77a1.12,1.12,0,0,0-1,0l.68.23Z"/><path class="cls-28" d="M1799.4,149h0l-.66.48Z"/><path class="cls-28" d="M1799.76,148.57h-.07S1799.78,148.65,1799.76,148.57Z"/><path class="cls-28" d="M1803.42,146.7c-.25.61-1,1.63.26,1.38C1803.75,147.43,1803,147.63,1803.42,146.7Z"/><path class="cls-28" d="M1800.59,149l.9-.54c-.12-.11-.4-.17-.29-.47Z"/><polygon class="cls-28" points="1800.32 149.47 1800.59 149 1800.26 149.2 1800.32 149.47"/><path class="cls-28" d="M1795.75,151.67a3.33,3.33,0,0,1-1,1.17,8.67,8.67,0,0,0,1.51-1C1796.23,151.67,1796.22,151.25,1795.75,151.67Z"/><path class="cls-28" d="M1797.56,150.42l-.07.09C1797.57,150.51,1797.63,150.49,1797.56,150.42Z"/><path class="cls-28" d="M1790.69,156.88h.13v-.1Z"/><path class="cls-28" d="M1796.42,151.89a1.07,1.07,0,0,0,.63-.78,5.38,5.38,0,0,1-.76.75C1796.3,152,1796.34,152,1796.42,151.89Z"/><path class="cls-28" d="M1793,153.5a4.55,4.55,0,0,0,.8-.23C1793.52,153.27,1793,153.33,1793,153.5Z"/><path class="cls-28" d="M1797.28,150.48Z"/><path class="cls-28" d="M1797.28,150.48a2.38,2.38,0,0,0-.23.63,2.9,2.9,0,0,0,.44-.6Z"/><path class="cls-28" d="M1791.65,160.22c-.29-.48.3-1.6,1.47-1.77.51-.94-1.13-1.94-2.44-2.19.14.21.28.38-.32,1.26.46,0,2.2-.85,1.84,0-.87,1.07-1,.56-1.67.74.86.18-.72,1.85.14,2.45l.69-1C1791.48,159.85,1791.3,160.32,1791.65,160.22Z"/><path class="cls-28" d="M1792.23,155.09l.29-.32a3.63,3.63,0,0,1-1.59.33c-.39.65-.37.9-.29,1.07l1.66-1.23Z"/><path class="cls-28" d="M1793.7,153.06c.12.66-.51,1.49.37,1.62.94-.81.36-.93.78-1.6-1.46,1.39.23-.62-1.1,0a6.05,6.05,0,0,1,.74-.78,9.16,9.16,0,0,1-1,.42h.07a1.09,1.09,0,0,1,.07.24c-.53.26-.17,0-.07-.24v-.08h0l-1.39,1.5A7.62,7.62,0,0,0,1793.7,153.06Z"/><path class="cls-28" d="M1803.65,150h-.14S1803.46,150.14,1803.65,150Z"/><path class="cls-28" d="M1802.79,149.91a.66.66,0,0,1,.4-.66c.41-.24.18.22.32.36.13-.31.52-1-.36-.63l-.07.15c-.74.34-2,.41-1.95.25A4,4,0,0,0,1802.79,149.91Z"/><path class="cls-28" d="M1798.45,151.9l-1.13,1.26,1-.12-.22-.21C1798.85,152.4,1798.5,152.17,1798.45,151.9Z"/><polygon class="cls-28" points="1790.22 156.13 1790 155.49 1789.81 156.79 1790.22 156.13"/><polygon class="cls-28" points="1788.59 157.52 1788.3 157.05 1788.06 157.66 1788.59 157.52"/><path class="cls-28" d="M1698,238.93l-.27.41A1.62,1.62,0,0,0,1698,238.93Z"/><path class="cls-28" d="M1700.81,236.74l-.11-.26C1700.67,236.7,1700.68,236.85,1700.81,236.74Z"/><path class="cls-28" d="M1747.36,190.69c-.87,0-2-.08-1.53.35l.54.33A2,2,0,0,1,1747.36,190.69Z"/><path class="cls-28" d="M1721.32,216.41h.28v-.75A4.14,4.14,0,0,1,1721.32,216.41Z"/><path class="cls-28" d="M1722.51,218.42l-1,.28A3.6,3.6,0,0,0,1722.51,218.42Z"/><path class="cls-28" d="M1682.84,251.47v.83C1683.47,251.74,1683,251.74,1682.84,251.47Z"/><path class="cls-28" d="M1771.52,171.51a5.69,5.69,0,0,0-1.38.67C1770.88,172,1771.67,172,1771.52,171.51Z"/><path class="cls-28" d="M1695.12,233.08c-.17.27-.18.45-.1.54C1695.2,233.35,1695.27,233.15,1695.12,233.08Z"/><path class="cls-28" d="M1768.72,173.29l.34-.09a5,5,0,0,1,1-1A1.68,1.68,0,0,0,1768.72,173.29Z"/><path class="cls-28" d="M1628.57,295.32h-.17C1628.49,295.51,1628.57,295.4,1628.57,295.32Z"/><path class="cls-28" d="M1609,302.81a8.27,8.27,0,0,1,.63-.55A2.09,2.09,0,0,0,1609,302.81Z"/><path class="cls-28" d="M1784.88,163.21a.4.4,0,0,0,0,.34A.5.5,0,0,1,1784.88,163.21Z"/><path class="cls-28" d="M1767.51,179.05Z"/><path class="cls-28" d="M1782.37,162.54a2.41,2.41,0,0,0-.56.22A3.83,3.83,0,0,0,1782.37,162.54Z"/><path class="cls-28" d="M1782.12,162.37l.35-.21C1782.44,162.09,1782.37,162.09,1782.12,162.37Z"/><path class="cls-28" d="M1781.18,162.83a3,3,0,0,1,.63-.41h-.16Z"/><path class="cls-28" d="M1656.8,270.4h-.11C1656.48,271,1656.62,270.78,1656.8,270.4Z"/><path class="cls-28" d="M1741,204.37c.07-1,.45-1.19,1-1.38l-1.51-1Z"/><path class="cls-28" d="M1691,244.48l1.26-.3c-.53,1.56-1.52,2-.2,1.87-1.06-1.57,3.4-3,2.34-4.52l.85-.16c-.18.12-.14.22-.32.34,1.72-.22,0-1.74,1.65-2.77.62-.3,1.16-.37.94.09l.87-1.29c.35-.25.48.07.13.32l1.67-1.54h0a9.5,9.5,0,0,1,.51-1.62c.61-.14-.1.33.17.43l.68-1.13c.71,0,.2,1.08-.53,1.56,2.1.73.52-1,3.19-1.74l-.78.92c1.27.36,1.74-.52,3.21-.83-.47-.08-3.16.36-2.38-.86a1.86,1.86,0,0,0,1.16-1.13c.43.51.88,0,1.56-.65l.51.73c.59-.8.25-1.11.45-1.77a1.71,1.71,0,0,1,2.06,0c1.39-1-1.62-.11-.13-1.51a7.32,7.32,0,0,0,2.91-3c1-.4.21.53.64.5l.25-1.11c.18-.12.26.1.31.19.41-.67-.51-.72.26-1.64-.36-1,2.78-.4,3.24-2.18.45,0,.21.53.5.72a11.76,11.76,0,0,0,1.69-3.26l1.47-.43c-1.22.12-.7-1.3-.19-2.54a11.42,11.42,0,0,0-1.17,0l1.15-1.3c.27,0,.32.33.32.81a1.42,1.42,0,0,1,.13-.38c.72-.15.78.46.71,1.14h-.85a2.21,2.21,0,0,0,.42,1.77,1.37,1.37,0,0,1,.32-.56c0,.18,0,.34.12.38s.13-.25.22-.61l1,.51-.17-.37,2.28-1c.71-1.84,1-3.91,2.86-5.95-.09,1,.62,1,1.14,1.72-1.16-.25-1.39,1.62-2.65,2.35.64-.39.77,0,.71.26l1.46-2.21c.41.58.76,0,1.4-.11-1.27-.78.89-1.9,1.39-2.88.34.33.44.86-.6,1.55,1.74,0,.36-2.4,2-2.55-.24.21-.41.25-.35.51.29-.77,1.86-1.6,1.8-1l-.23.2c1.69-1.15,4.84-3.86,4.34-5a8.08,8.08,0,0,1,.74,1.54l.35-5.36c.39,1,2.85,2.11,1.89,3.6a3,3,0,0,0,1.63-1.38c-.35.09-1.57-.63-1.27-1a9.36,9.36,0,0,0,2.79-.28c-.52.14-1.09-1.38-.45-1.9,0,.27,1,1.2.92,1.5l.54-2.44c-.21.53.77,1.1,1.39,1.17-.35-.11,1.39-1,1.64-1.48l-.86.23c1.87-1.19.32-3.06,2.07-4.36,0,.41.74,2,1.73,1.38-.1-.94-.65-4.4.47-6.07l.57.12.84-1.38a30.29,30.29,0,0,1-.7,6.77c.88-.24.53.27,1.46-.53.62,0-.12.93-.39,1.16l2.42-1.58c-.68-.63,1.13-2.09.56-2.63l-1.84,2.77c-.68-.65-.25-3.18,1.4-4.32.64,0,.73,1.53,1,1.75,0-.42,1.12-1.69,1.39-1.62l-.39.84c1.1-.44.67-2.11,2.29-2.27.41-.25,1.85,0,1.56-.43a7.3,7.3,0,0,1-3.55-3.75,16.31,16.31,0,0,1,3.32-.68c1.12.17.34,2.27,1.3,2.43a1.37,1.37,0,0,1,.07-.92c.53-.14.35.74,1.1,0-.44-.84,1.77-1.28-.1-.92.66-.88,1-.56,1.94-1.39-.7-.22-.45-2.3.21-3.17.09.22.47.32.65.36,1.74-1.27,2.91-1.66,4.48-2.91.29,0,1.23-.32,1.16.25a2,2,0,0,1,.59-1.12c1.4-.11-1,1,.32,1.15-.27-.47.78-1.58,1.26-2.39-.75-.5-1.7,1.13-2.17,2-.74-.9-.31-2.77,1-4.54,1.13-1.28,1,.13,1.17-.18,2.58-1.79.8-3.26,3.36-4.16,1.28,0,1,1.12,1.48,1.39-.89,1.06-1.93.93-2.63,1.52l1.12-.43a2.56,2.56,0,0,1-1.3,1.39c1.1,0,4.18-3.2,6.49-4.16.18-.45.6-1.12.12-1.13l-.53.55c-.91,0,.6-1.55-.33-1.16a5.54,5.54,0,0,1,2.37-2.77l.73.5c-.18-.18-1,.19-1.21.65.24-.68,2.45-.49,2.27-1.76l-1.15.17c.52-1,1-2.47,2.12-3.06-1-.29-.16.26-1.5,0,1.39.47-2.59,2-.79,2.21-1.39-.3-1.56.64-3.12.64.2.19.67.14-.25.7a1,1,0,0,1,0,.35h0a1.38,1.38,0,0,1,.7,0c0,.83-1.39,1.88-1.6,2.51-.59.29,0-.43-.45-.45l-.36.93c-.46-.43-2,.25-1-1l-1.07.82a3.77,3.77,0,0,0-2.14,1.38c-.59.29-.84,1.54-.7.82l-1.39,1.62-.11-.11c-1.69,1.24-2.71,3.49-5.29,4.15a6,6,0,0,1-1.92,1.76l-.51-.28c-.6.72-2.47,1.28-2.41,2-1.68-.52-3.63,2.49-5,3.28l.41.58a14.79,14.79,0,0,0-2.47,2.53l.46.43c-.6,1.14-2.63,1.54-4,2.77,0-.26.36-.51.71-.61-2.62.29-3,3.71-5.22,4.15a1.3,1.3,0,0,1-1,.75.31.31,0,0,0,.09-.11l-.17.12q-.37.07-.75.18a2.19,2.19,0,0,0,.67-.11,6.92,6.92,0,0,0-1.06,1.17l-.61-.38-.09.1c-.59.17-.15.53.39.73a2.88,2.88,0,0,0-.33.79c-1-.55-.95,1.22-2.16.71,0,.68-2,2.13-1.49,3.24-.11-.11-.29,0,0-.26a2.56,2.56,0,0,0-1.39,1.2l-.73-.5-.38,1.77c-1,.13-1.39.11-1.2-.92-1,2-1,1.38-1.78,3.17l-.28-.47c-.47.4-.77,1.57-1.39,1.46-1.74,0-5.42,4.16-8.8,5.54,1.54.83-1.74.46-1.08,1.52-.4-.16-.91,0-.68-.65-1.17,1.39-2.5,1.23-2.78,2.77-.4-.17,0-.68-.33-.73-.07.15-.25.62-.55.55s0-.41.13-.72c-1.39,1.21-.81,2.24-.21,3.19-1.07.18-1.39.52-1.46,1.5-.47-.08-1.14,0-.32-.84-.54.36-3.42,2-2.92,2.77-.29,0-.74.51-.81.7a22.42,22.42,0,0,0-2.38,1.83l.4-.12c.24,1.17-.77.91-1.58,1.73v-.08c-2.47,1-.64,1-3.14,1.88l.51.42c.69,1.24-2.26.76-3.07,2.1h.63c-.32.86-2.93-.08-3.67.28-.21,0,.1-.32.23-.54-2.16.68.32.83-.78,2-.52-.17-.43-1.13-1.36-.54-.65,0-1.46,3.09-3.14,3.31.48,0,.94.15.53.81-.78.8-3.18.85-3.28,2.35a.39.39,0,0,1-.34-.09c-.48.76-1.86,2.11-1.88,2.91-2-1.26-3.46,4.17-4.75,2.55l-2,1.64-.08-.21a3.35,3.35,0,0,0-1.71,2.47c-.38.13-.28-.21-.32-.3a5.4,5.4,0,0,0-3.28,3.52l-.58-.39c-.19.66-3.44,1.35-4.83,3.53a.47.47,0,0,1,0-.4c-1.62,2.31-6.22,2.61-5.41,5.13l-1,1.6c1.93-1.36.39,1,1.36.76-.63.69-2.31.9-1.51.1h.29c-.52-1.37-2.74,1.58-3.29.8-3.82,3.16-8.08,5.57-11.8,8.45l1.09.5-1.29,1c-.49.07-1-.3,0-1-.86-.09-1.2,1.62-1.08,1.83-2,1.06-.09-1.47-.65-1.12l-.69.65h-.12c-.3.79-.07,1.19-1.11,2-.77.37-.71-.23-1,0,0,0-.15,0-.41.3l-1.54,1.16,1.1.16c-.41.85-1.37,1.12-.18,1.28-1.86-.29-5.85,4.19-6.72,4.35a7.32,7.32,0,0,1-2.65,2.84c.38-.1,1.11.49.08,1.21-.81-1.78-2.28.83-3.9.41,1.25.13-2.62,2.48-.74,2.56-.91.56-.48-.51-1.38-.35-1.46,2.17-4.53,3.15-6.76,5.33.12.23.75.2.46.91h-2c-.39.48.44,1.49-.94,1.52.24,0,.62.16.35.48-5.4,2.93-8.93,8.72-15.1,10.87.94-.16.54.24,0,.66.39-.18.37.49.63.7l-2.55.91c.21,1-2.09,1.82-1.76,2.7l.54-.65c-.19,1.52,2.59.86,3.29,2,.21-1.72,3.56-.65,4-3.28.51,0,0,.58.36.68,0-.78.42-1.27,1.45-1.79v.2c2.35-2.15,3.75-2.58,6.73-4.55l-.6-.36a2.8,2.8,0,0,1,1.27-.47c0-1.42-1.7,1.34-1.76,0,1.61.43,4.12-3.44,5.65-2.67.92-.74-.73-.38.18-1.12l.49.12-.1-.62a1.22,1.22,0,0,1,1.51,0c-.16.08-.35.42-.49.57,1.08-.26,2.09-1.94,2.44-2l-1,.53c2.24-2.37,5.61-4.45,7.49-7.11l-.37-.08c1.47-2,1.67-1,3.51-2.85v-.24a3.53,3.53,0,0,1,1.25-1.53c-.29.69,1.39-.23,1,.62,1.61-2.08.68-1.16,1.29-3.13l.63.17a2.5,2.5,0,0,1,1-1.87c-.55,1,1.15.09.58,1.3,2.85-.83,2.46-3.42,4.46-2.92.1-1.9-2.34.86-2,.18-.76,0,.13-1.47.9-1.9s2.3.5,4-.9c-.18.14-.12.22-.29.36.86-.23,1-1.38,2.1-1.55-.1-1,1.06-.79.5-1.74l-1.39,1.38c.71-.93.74-2.6,2.6-3.28a3,3,0,0,1-.43,1.2c.64-.09.7-.83,1.39-.92.56.95-1.76,1.71-2.18,3.13.75,0,1.31-2.07,1.57-.77-.26-1.71,1.81-1.19,2.24-3l.33.56a3,3,0,0,1,.66-1l-.07,1.15c.47-1.39,2.21-1,2.87-2-1.88,1.52-.94-.28-2,0,1.79-2.55,2.43.26,4.83-2.06-.29.36-1.57.76-1.21.08a4.84,4.84,0,0,1,1.92-.6c1.64-1.49-.69-.31-.21-1.21,1.1.15.64-.93,1.24-1.75l.43.53c2.24-1.25-.36-1.51,1.74-2.52l-.17,1.38.78-.93.28.75a3.93,3.93,0,0,1,2.19-2c-.53-.18-.64-1.05.22-1.75.83-.17.07.76,1.24-.31,0,.56,0,1.21-.92,1.16.08.21,0,.54.07.75.93-.15,1.67-1.2,2.11-1.56a1.39,1.39,0,0,1-.58.26l1.21-2.14c.44,0,.35.3.25.63.32-.34.38-.79.88-1.26.19.54.58.94,0,1.75l1.39-1.83c.26.1,1.28-.19,1.18.14,1.16-.51,1.66-2.67,3.19-3.35a1,1,0,0,1,.28-.6c1.25-.84,2.78-1.15,3.64-2.85l1.39.12c1-1.05-1.83-.09-.25-1.84,1.1-1.27,1,.27,1.63.11.33-.88.82-2.56,2.5-2.89C1691.73,244,1691.36,244.14,1691,244.48Zm14-11.22c-.17.32-.42,1.08-.86.92-.18-.87.28-.78.86-1Zm19.38-17.63c0,.31-.42.48-.92.55a1.83,1.83,0,0,1,.92-.6Zm53.71-49.38h0C1777.35,166.62,1777.61,166.54,1778.08,166.25Zm1.66-.74c.07-.16,0-.23-.11-.26,0,.19-.25.41-.58.62.21.13.44.1.69-.3ZM1650.17,269h.34c-.4.58-.36.32-.33.06Z"/><path class="cls-28" d="M1722.39,218.15a.65.65,0,0,1-.35-.2C1722,218.13,1722.08,218.23,1722.39,218.15Z"/><path class="cls-28" d="M1682.84,251.32h0a.24.24,0,0,0,0,.12Z"/><path class="cls-28" d="M1764.35,185a1.29,1.29,0,0,1-.69.13C1763.74,185.23,1764,185.24,1764.35,185Z"/><path class="cls-28" d="M1785.16,159.56l-.67.75a1.53,1.53,0,0,1,.83-.39C1785.21,159.81,1784.92,159.75,1785.16,159.56Z"/><path class="cls-28" d="M1794.45,157.4c.06-.15.23-.21.29-.36l-.23-.21C1794,157.23,1793.86,157.69,1794.45,157.4Z"/><path class="cls-28" d="M1787.26,160.71c.42.39.78-.15,1.26-.67l-.1.09C1788.09,159.32,1787.68,160,1787.26,160.71Z"/><path class="cls-28" d="M1788.63,159.93a3.23,3.23,0,0,1,.49-.41C1789,159.23,1788.88,159.63,1788.63,159.93Z"/><path class="cls-28" d="M1780.85,164c.35-.09-.29-.69,0-.62C1780.62,162.63,1779.6,165.47,1780.85,164Z"/><polygon class="cls-28" points="1788.87 161.8 1788.23 161.41 1788.29 162.09 1788.87 161.8"/><path class="cls-28" d="M1784.27,164.86l1-.54c-.08-.08,0-.22.09-.37C1784.8,164.32,1784.12,164.68,1784.27,164.86Z"/><path class="cls-28" d="M1785.34,163.92a1.76,1.76,0,0,0,.62-.65A3.82,3.82,0,0,0,1785.34,163.92Z"/><polygon class="cls-28" points="1787.81 162.91 1787.47 163.01 1786.82 163.45 1787.81 162.91"/><path class="cls-28" d="M1774.9,172.18l-.82.92c0,.26.4.16.69-.2S1775.19,172.25,1774.9,172.18Z"/><path class="cls-28" d="M1778.94,171.38a1.29,1.29,0,0,1-.75-.08l.51.69Z"/><path class="cls-28" d="M1776.31,173.74c0,.26-.94,1.63.22.63C1776.48,174.11,1777.31,173.17,1776.31,173.74Z"/><polygon class="cls-28" points="1761.41 184.3 1761.65 184.1 1760.74 183.02 1761.41 184.3"/><path class="cls-28" d="M1751,197c1.39-.62-.27-.89,1-1.39,0-.47-1,.41-1,0C1750.59,196.38,1750.1,196.51,1751,197Z"/><path class="cls-28" d="M1751,195.57a3.68,3.68,0,0,0,.21-.45A1.54,1.54,0,0,0,1751,195.57Z"/><polygon class="cls-28" points="1605.85 304.66 1604.94 305.01 1605.7 305.01 1605.85 304.66"/><path class="cls-28" d="M1605.12,306.26l-.74-.57.09,1C1604.61,306.51,1604.87,306.21,1605.12,306.26Z"/><path class="cls-28" d="M1707.84,233l-.08-.21c-.25-.1-.43,0-.79.26Z"/><polygon class="cls-28" points="1697.68 240.34 1697.86 240.21 1697.03 239.82 1697.68 240.34"/><path class="cls-28" d="M1690.15,247.7c.34-.23.62-.69,1-.94C1690.49,247.47,1689.48,247,1690.15,247.7Z"/><path class="cls-28" d="M1774.12,288.53c.22.37.58-.1.71-.11C1774.29,287.91,1774,288.62,1774.12,288.53Z"/><polygon class="cls-28" points="1768.74 283.49 1769 283.45 1767.89 282.95 1768.74 283.49"/><path class="cls-28" d="M1765.26,278.12c-.41,1.11,1.59,1.88,2,3.06v.29h1C1767.21,280.34,1765.65,279.12,1765.26,278.12Z"/><path class="cls-28" d="M1764.24,273.87c-.18.41-.74-.43.4.76a.67.67,0,0,1,0-.2A3.17,3.17,0,0,1,1764.24,273.87Z"/><path class="cls-28" d="M1762.51,271.93l.84.55c0-.3-.4-1-.08-.84C1762.55,271,1762.48,271.26,1762.51,271.93Z"/><path class="cls-28" d="M1761.47,271.64l.41.3C1761.83,271.82,1761.79,271.69,1761.47,271.64Z"/><path class="cls-28" d="M1762.67,272.59l-.85-.65c0,.21-.31.42.36.32C1761.9,272.37,1762.24,272.37,1762.67,272.59Z"/><path class="cls-28" d="M1762.85,273.15c.16.55.45,1.19-.38.63C1763.68,275.14,1764.09,274.52,1762.85,273.15Z"/><path class="cls-28" d="M1763.67,278.38l.19.73.63.29C1764.24,279.27,1763.89,278.16,1763.67,278.38Z"/><path class="cls-28" d="M1759.43,266.92c-.2.08-.26.59-.44.81l.61.41C1759.5,267.78,1759.21,267.15,1759.43,266.92Z"/><path class="cls-28" d="M1759,267.73l-.91-.62C1758.6,267.89,1758.84,267.91,1759,267.73Z"/><polygon class="cls-28" points="1760.42 272.17 1762.05 273.08 1760.22 271.9 1760.42 272.17"/><polygon class="cls-28" points="1757.08 263.72 1757.83 263.9 1756.61 263.5 1757.08 263.72"/><path class="cls-28" d="M1755.45,261.66c.58.11.19-.89.66-.67a5.18,5.18,0,0,0-1.7-1.06A3.05,3.05,0,0,1,1755.45,261.66Z"/><path class="cls-28" d="M1753.5,259.46a5.58,5.58,0,0,0,.91.47A3,3,0,0,0,1753.5,259.46Z"/><path class="cls-28" d="M1757.11,265.63a1.12,1.12,0,0,0,0-1l-.24.68Z"/><path class="cls-28" d="M1756.87,265.31h0l-.5-.73Z"/><path class="cls-28" d="M1757.59,265.71v-.08C1757.52,265.7,1757.51,265.73,1757.59,265.71Z"/><path class="cls-28" d="M1759.23,269.66c-.64-.29-1.68-1.11-1.39.19C1758.47,270,1758.27,269.22,1759.23,269.66Z"/><path class="cls-28" d="M1756.87,266.56l.56,1c.11-.11.18-.4.48-.27Z"/><polygon class="cls-28" points="1756.4 266.24 1756.89 266.56 1756.68 266.2 1756.4 266.24"/><path class="cls-28" d="M1754.17,261.31a3.87,3.87,0,0,1-1.2-1.08,9.37,9.37,0,0,0,1,1.63C1754.16,261.77,1754.55,261.84,1754.17,261.31Z"/><path class="cls-28" d="M1755.45,263.48h-.1S1755.36,263.54,1755.45,263.48Z"/><path class="cls-28" d="M1749.51,255a.33.33,0,0,1,0,.14h.1Z"/><path class="cls-28" d="M1753.94,262a1.15,1.15,0,0,0,.79.71,5.57,5.57,0,0,1-.76-.85C1753.87,261.88,1753.83,261.91,1753.94,262Z"/><path class="cls-28" d="M1752.3,258.32a5.2,5.2,0,0,0,.23.86C1752.54,258.87,1752.48,258.31,1752.3,258.32Z"/><path class="cls-28" d="M1755.39,263h0C1755.46,262.83,1755.42,262.89,1755.39,263Z"/><path class="cls-28" d="M1755.39,263a2.29,2.29,0,0,0-.66-.29,4.31,4.31,0,0,0,.62.51A.57.57,0,0,1,1755.39,263Z"/><path class="cls-28" d="M1745.41,256.42c.5-.26,1.65.45,1.81,1.67,1,.59,2-1,2.26-2.39-.21.13-.39.25-1.3-.42,0,.48.89,2.35,0,1.91-1.08-1-.54-1.06-.73-1.8-.2.88-1.9-.88-2.51,0l1,.8C1745.8,256.23,1745.33,256.06,1745.41,256.42Z"/><path class="cls-28" d="M1750.67,257.41l.33.32a4.28,4.28,0,0,1-.33-1.69c-.66-.45-.91-.45-1.09-.38l1.26,1.83Z"/><path class="cls-28" d="M1751.72,259.42c-.69.07-1.53-.64-1.66.28.82,1,.94.44,1.62.91-1.38-1.61.64.29,0-1.14a6.51,6.51,0,0,1,.82.84,10.37,10.37,0,0,1-.44-1.06v.07h-.24c-.28-.57.07-.18.24,0h.08l-1.52-1.52A8.11,8.11,0,0,0,1751.72,259.42Z"/><path class="cls-28" d="M1756.18,269.7a.13.13,0,0,1,.07-.14C1756.1,269.49,1756,269.48,1756.18,269.7Z"/><path class="cls-28" d="M1755.93,268.79a.87.87,0,0,1,.68.47c.11.45-.24.16-.37.3.3.15,1,.6.63-.33l-.15-.08c-.35-.81-.41-2.14-.25-2.07A4,4,0,0,0,1755.93,268.79Z"/><path class="cls-28" d="M1753.91,264.11l-1.29-1.25.13,1,.22-.23C1753.47,264.54,1753.65,264.15,1753.91,264.11Z"/><polygon class="cls-28" points="1749.63 255.23 1750.27 255.04 1748.95 254.75 1749.63 255.23"/><polygon class="cls-28" points="1748.19 253.42 1748.69 253.17 1748.06 252.88 1748.19 253.42"/><path class="cls-28" d="M1665.19,153.18l-.45-.32A2.14,2.14,0,0,0,1665.19,153.18Z"/><path class="cls-28" d="M1667.4,156.22l.28-.08C1667.44,156.08,1667.33,156.1,1667.4,156.22Z"/><path class="cls-28" d="M1714.4,208.07c0-.92.1-2.06-.35-1.62l-.34.54A2.22,2.22,0,0,1,1714.4,208.07Z"/><path class="cls-28" d="M1688.37,178.74V179h.78Z"/><path class="cls-28" d="M1686.08,180.17l-.28-1A4.1,4.1,0,0,0,1686.08,180.17Z"/><path class="cls-28" d="M1652.38,137l-.86-.13C1652.1,137.67,1652.1,137.17,1652.38,137Z"/><path class="cls-28" d="M1733.93,234.63a5.36,5.36,0,0,0-.67-1.53C1733.45,233.94,1733.42,234.76,1733.93,234.63Z"/><path class="cls-28" d="M1671.18,150.56c-.28-.18-.46-.22-.55-.14C1670.9,150.63,1671.1,150.71,1671.18,150.56Z"/><path class="cls-28" d="M1732.12,231.59a1.78,1.78,0,0,0,.1.36,5.42,5.42,0,0,1,1,1.15A1.89,1.89,0,0,0,1732.12,231.59Z"/><path class="cls-28" d="M1608.22,76.8a.54.54,0,0,1,0-.18C1608.09,76.66,1608.14,76.73,1608.22,76.8Z"/><path class="cls-28" d="M1600.09,55.73a7.56,7.56,0,0,1,.58.69A2.4,2.4,0,0,0,1600.09,55.73Z"/><path class="cls-28" d="M1742.39,249.16a.38.38,0,0,0-.36,0A.45.45,0,0,1,1742.39,249.16Z"/><path class="cls-28" d="M1726.22,229.93h0C1726.2,230.07,1726.2,230,1726.22,229.93Z"/><path class="cls-28" d="M1743.1,246.54a3.51,3.51,0,0,0-.24-.61A3.51,3.51,0,0,0,1743.1,246.54Z"/><path class="cls-28" d="M1743.26,246.33c.09.15.14.28.21.39S1743.61,246.62,1743.26,246.33Z"/><path class="cls-28" d="M1742,245.31a3.8,3.8,0,0,1,.41.66v-.14Z"/><path class="cls-28" d="M1633,108v-.12C1632.49,107.59,1632.65,107.74,1633,108Z"/><path class="cls-28" d="M1700.39,200.44c1,.17,1.23.55,1.38,1.11l1-1.51Z"/><path class="cls-28" d="M1659.65,146l.3,1.32c-1.59-.67-2-1.72-1.91-.33,1.61-1,3,3.73,4.63,2.77l.16.9c-.12-.21-.23-.17-.36-.36.22,1.79,1.8.12,2.77,1.92.31.65.37,1.22-.08.95l1.31,1c.24.39-.08.49-.33.1l1.57,1.85h0a10.92,10.92,0,0,1,1.64.64c.15.66-.34-.12-.43.14l1.17.8c-.07.74-1.11.13-1.61-.65-.76,2.12,1,.6,1.77,3.42l-1-.87c-.36,1.29.52,1.84.84,3.38.08-.47-.36-3.28.89-2.4a2.06,2.06,0,0,0,1.16,1.27c-.53.42,0,.93.67,1.68l-.77.47c.83.68,1.14.35,1.83.6a1.79,1.79,0,0,1-.1,2.13c1,1.56.13-1.68,1.55,0a8.42,8.42,0,0,0,3,3.2c.4,1-.54.16-.53.63l1.14.33c.12.2-.09.27-.2.31.69.48.75-.47,1.69.39,1-.31.4,2.93,2.22,3.51,0,.46-.54.18-.75.47a13.22,13.22,0,0,0,3.35,2l.43,1.53c-.13-1.27,1.38-.62,1.23,0v-1.2l2.93,1.3c0,.28-.34.29-.83.26l.39.16c.15.76-1.11.66-1.11.66v-1c-.72-.07-1.48-.08-1.83.3a1.88,1.88,0,0,1,.58.38c-.2,0-.35,0-.38.1s.24.16.61.29l-.53.94.39-.15,1,2.44c1.9.88,4,1.29,6.13,3.39-1-.15-1,.59-1.76,1.06.26-1.18-1.67-1.58-2.43-2.91.39.69,0,.8-.28.72l2.29,1.68c-.6.37-.08.77.12,1.51.79-1.25,2,1.06,3,1.69-.34.33-.88.4-1.59-.74,0,1.81,2.45.56,2.61,2.26-.2-.26-.25-.44-.52-.4.8.36,1.65,2.05,1.06,1.94l-.21-.25c1.18,1.85,4,5.31,5.11,4.87a6.9,6.9,0,0,1-1.59.65l5.59.75c-1,.33-2.19,2.77-3.73,1.72a3.36,3.36,0,0,0,1.4,1.77c-.1-.37.65-1.58,1-1.24a10.69,10.69,0,0,0,.27,3c-.14-.56,1.49-1,2-.33-.27,0-1.22,1-1.54.84l2.51.75c-.54-.25-1.13.71-1.2,1.39.11-.36,1.06,1.45,1.51,1.81l-.24-.93c1.23,2,3.17.56,4.51,2.49-.43,0-2,.62-1.46,1.69,1,0,4.54-.38,6.28.91l-.14.6,1.4,1a33.21,33.21,0,0,1-7-1.39c.23.91-.28.51.54,1.54,0,.64-1-.18-1.21-.49l1.62,2.64c.67-.67,2.16,1.38,2.72.76l-2.79-2.09c.67-.67,3.29,0,4.47,1.8,0,.66-1.6.66-1.82.89.43,0,1.73,1.29,1.68,1.58l-1-.45c.45,1.18,2.19.85,2.35,2.54.25.44-.07,1.93.42,1.66a7,7,0,0,1,3.91-3.42,18.1,18.1,0,0,1,.68,3.49c-.18,1.17-2.36.2-2.51,1.18a1.16,1.16,0,0,1,.95.16c.14.55-.77.29,0,1.13.88-.4,1.39,1.93,1,0,.9.75.56,1.08,1.4,2.11.24-.71,2.39-.29,3.28.44-.24.1-.34.49-.38.67,1.32,1.89,1.71,3.13,3,4.85-.07.31.32,1.29-.26,1.18a2.27,2.27,0,0,1,1.16.71c.11,1.51-1-1.11-1.19.26.49-.26,1.63.92,2.47,1.46.52-.74-1.17-1.83-2-2.39.94-.7,2.92-.12,4.69,1.39,1.31,1.25-.14,1.07.18,1.21,1.85,2.77,3.36,1.06,4.35,3.79,0,1.39-1.18.93-1.4,1.39-1.09-1-.95-2.06-1.56-2.84l.44,1.18a2.77,2.77,0,0,1-1.39-1.39c0,1.14,3.28,4.6,4.33,7,.48.2,1.17.69,1.18.2l-.57-.58c0-1,1.59.74,1.2-.26a6.36,6.36,0,0,1,2.92,2.65l-.52.73c.19-.17-.19-1.11-.67-1.3.7.29.51,2.59,1.82,2.48l-.17-1.21c1,.63,2.54,1.17,3.16,2.43.29-1-.27-.19,0-1.57-.49,1.39-2.07-2.77-2.29-1,.32-1.48-.65-1.68-.65-3.3-.19.21-.15.7-.72-.3h-.35v-.09a.08.08,0,0,0,0,.07h0a1.26,1.26,0,0,1,0,.72c-.85-.07-1.94-1.54-2.57-1.83-.31-.62.42,0,.45-.44l-1-.44c.45-.45-.23-2.07,1-1l-.85-1.18a4.27,4.27,0,0,0-1.4-2.33c-.3-.62-1.59-1-.85-.78l-1.66-1.58.11-.11c-1.27-1.83-3.59-3.06-4.19-5.78A6.88,6.88,0,0,1,1731,230l.28-.51c-.73-.66-1.3-2.65-2-2.65.56-1.69-2.54-3.94-3.37-5.45l-.6.38a15.57,15.57,0,0,0-2.6-2.78l-.44.43c-1.18-.69-1.58-2.77-2.8-4.38.28,0,.54.4.63.78-.28-2.77-3.81-3.38-4.27-5.71a1.55,1.55,0,0,1-.78-1l.11.08-.13-.18a2.71,2.71,0,0,0-.18-.79,2.31,2.31,0,0,0,.11.69,8.63,8.63,0,0,0-1.18-1.16l.37-.61a.29.29,0,0,0-.09-.1c-.17-.64-.55-.21-.76.35a3.43,3.43,0,0,0-.81-.41c.57-1-1.27-1.06-.74-2.28-.7,0-2.18-2.22-3.34-1.78.11-.11.07-.29.28,0a2.86,2.86,0,0,0-1.24-1.54l.52-.75-1.82-.51c-.12-1-.11-1.51,1-1.18-2.11-1.13-1.4-1.18-3.27-2.06l.49-.27c-.4-.51-1.63-.91-1.51-1.51,0-1.8-4.26-5.93-5.75-9.55-.87,1.55-.48-1.85-1.58-1.21.18-.41,0-1,.67-.66-1.47-1.39-1.26-2.69-2.9-3.14.18-.4.69,0,.76-.29-.16-.08-.64-.3-.57-.6s.43,0,.74.18c-1.23-1.53-2.3-1-3.28-.45-.18-1.11-.54-1.47-1.56-1.63.08-.48,0-1.17.88-.27-.37-.58-2.1-3.69-2.8-3.22,0-.3-.53-.82-.72-.9a22.87,22.87,0,0,0-1.89-2.59l.14.41c-1.23.15-1-.87-1.79-1.77h.13c-1.06-2.81-1-.76-2-3.53l-.45.51c-1.32.66-.8-2.49-2.22-3.47v.7c-.92-.42.1-3.17-.29-4,0-.24.35.12.59.28-.72-2.39-.9.28-2.09-1,.18-.55,1.2-.4.59-1.41,0-.7-3.27-1.8-3.49-3.63-.09.51-.17,1-.87.52-.84-.92-.9-3.52-2.48-3.73a.39.39,0,0,1,.1-.35c-.82-.57-2.25-2.17-3.09-2.25,1.4-2.09-4.41-4.05-2.68-5.32l-2-2.43h1.34a3.83,3.83,0,0,0-2.69-2c-.15-.43.22-.3.33-.33a6.46,6.46,0,0,0-3.85-3.75l.43-.6c-.72-.26-1.52-3.76-3.84-5.4a.63.63,0,0,1,.43,0c-2.52-1.89-2.82-6.82-5.61-6.2l-1.74-1.2c1.45,2.14-1.14.34-.84,1.38-.75-.7-1-2.5-.1-1.6v.22c1.38-.42-1.56-2.77-.78-3.27-3.16-4-5.6-8.31-8.45-12.06l-.52,1-1-1.38c0-.49.3-.93,1,0,.1-.83-1.63-1.28-1.83-1.18-1.07-2.06,1.55,0,1.13-.57l-.65-.7v2.78c-.8-.4-1.19-.18-2-1.45-.38-.87.22-.77,0-1.09,0,0,0-.16-.31-.46l-1.14-1.61-.16,1.18c-.86-.52-1.13-1.65-1.28-.29.29-2-4.18-6.74-4.35-7.72a8.81,8.81,0,0,1-2.88-3.12c.1.44-.48,1.19-1.2,0,1.79-.74-.82-2.56-.4-4.35-.13,1.37-2.47-3.07-2.57-1-.55-1,.52-.49.37-1.45-2.19-1.78-3.16-5.22-5.33-7.84-.24.11-.2.81-.92.43V74.45c-.49-.46-1.51.38-1.54-1.14,0,.26-.16.66-.49.35-2.91-6.17-8.71-10.47-10.85-17.4.16,1-.23.57-.65,0,.16.44-.5.36-.71.64l-.91-2.9c-1,.14-1.83-2.44-2.71-2.13l.66.64c-1.54-.34-.89,2.78-2.07,3.47,1.73.35.65,4,3.28,4.69,0,.56-.58-.08-.68.33.78.1,1.27.57,1.8,1.74h-.2c2.14,2.75,2.56,4.35,4.55,7.76l.35-.66a3.38,3.38,0,0,1,.46,1.45c1.39.16-1.4-2,0-1.94-.43,1.75,3.44,4.86,2.66,6.42.74,1.06.39-.78,1.13.28l-.12.53H1609a1.25,1.25,0,0,1,0,1.51c-.08-.17-.4-.38-.54-.53.24,1.1,1.84,2.22,1.93,2.65l-.49-1.07c2.25,2.4,4.22,5.92,6.74,7.93l.09-.37c1.88,1.61.9,1.74,2.65,3.73h.13a5.49,5.49,0,0,1,1.58,1.24c-.72-.35.22,1.48-.65,1,2.13,1.83,1.19.8,3.2,1.57l-.17.65a2.73,2.73,0,0,1,1.91,1.13c-1-.65-.1,1.18-1.38.51.83,3,3.49,2.77,3,4.85,1.94.22-.87-2.49-.18-2.08,0-.79,1.52.25,2,1.07s-.52,2.35.9,4.22c-.14-.19-.23-.15-.36-.33.22.91,1.39,1.08,1.58,2.3,1.05,0,.79,1.15,1.77.62l-1.48-1.56c1,.8,2.67,1,3.36,2.93a3.54,3.54,0,0,1-1.23-.53c.08.66.85.78.94,1.46-1,.52-1.74-1.95-3.19-2.49,0,.77,2.1,1.51.76,1.69,1.77-.16,1.23,2,3.1,2.54l-.6.31a3.18,3.18,0,0,1,1.22.74l-1.18-.15c1.39.6,1,2.36,2,3.12-1.55-2.07.29-.94,0-2.11,2.6,2-.29,2.49,2.09,5.17-.36-.34-.76-1.69-.07-1.28a5.41,5.41,0,0,1,.6,2c1.52,1.81.33-.69,1.24-.13-.15,1.12,1,.74,1.79,1.39l-.54.4c1.26,2.41,1.54-.26,2.57,2l-1.38-.27.94.87-.76.25a4.37,4.37,0,0,1,2,2.39c.19-.52,1.08-.58,1.79.36.17.89-.77,0,.31,1.39-.55,0-1.23-.09-1.18-1.26H1645c.15,1.19,1.23,2,1.59,2.53a2,2,0,0,1-.26-.62l2.2,1.38c0,.46-.32.33-.65.21.34.35.8.44,1.27,1-.54.16-1,.54-1.79-.14l1.87,1.51c-.09.26.2,1.38-.13,1.21.51,1.24,2.76,1.93,3.41,3.55a1.23,1.23,0,0,1,.6.33c.86,1.39,1.18,2.91,2.92,4l-.14,1.39c1.07,1.06.11-1.9,1.89-.13,1.3,1.22-.28,1-.13,1.68.91.41,2.63,1,3,2.77C1660.15,146.86,1660,146.39,1659.65,146ZM1671,160.56c-.32-.21-1.1-.52-.93-1C1670.9,159.46,1670.81,159.93,1671,160.56Zm18,21.5c-.33-.09-.5-.48-.56-1A2,2,0,0,1,1689,182.06Zm50.34,59.8h0C1738.93,241,1739,241.35,1739.32,241.86Zm.75.85c.18.08.23,0,.27-.1-.2,0-.44-.27-.65-.65-.14.21-.11.45.31.75ZM1634.38,101.08v.38C1633.84,101,1634.11,101,1634.38,101.08Z"/><path class="cls-28" d="M1686.35,180.09a.66.66,0,0,1,.21-.35C1686.38,179.67,1686.27,179.74,1686.35,180.09Z"/><path class="cls-28" d="M1720.17,226.19a1.41,1.41,0,0,1-.11-.73C1719.94,225.54,1719.94,225.77,1720.17,226.19Z"/><path class="cls-28" d="M1746.13,249.71l-.76-.75a1.7,1.7,0,0,1,.39.9C1745.87,249.75,1745.92,249.45,1746.13,249.71Z"/><path class="cls-28" d="M1748.3,259.55c.16,0,.2.25.36.34l.23-.23C1748.47,259.15,1748,259,1748.3,259.55Z"/><path class="cls-28" d="M1744.94,251.83c-.4.4.15.81.68,1.38,0,0-.07,0-.08-.09C1746.24,252.78,1745.62,252.3,1744.94,251.83Z"/><path class="cls-28" d="M1745.73,253.31a2.41,2.41,0,0,1,.41.54C1746.45,253.72,1746,253.59,1745.73,253.31Z"/><path class="cls-28" d="M1741.55,244.82c.09.36.7-.25.63,0C1743,244.75,1740.09,243.49,1741.55,244.82Z"/><polygon class="cls-28" points="1743.82 253.02 1744.21 252.4 1743.51 252.4 1743.82 253.02"/><path class="cls-28" d="M1740.7,248.41l.56,1.06c.07-.08.22,0,.37.12C1741.24,249,1740.87,248.26,1740.7,248.41Z"/><path class="cls-28" d="M1741.66,249.59a2.07,2.07,0,0,0,.66.69A5.38,5.38,0,0,0,1741.66,249.59Z"/><polygon class="cls-28" points="1742.68 252.23 1742.59 251.87 1742.13 251.16 1742.68 252.23"/><path class="cls-28" d="M1733.23,238.11l-.93-.93c-.26,0-.18.42.19.74S1733.17,238.4,1733.23,238.11Z"/><path class="cls-28" d="M1734,242.39a1.15,1.15,0,0,1,.09-.78l-.72.49Z"/><path class="cls-28" d="M1731.64,239.47c-.28,0-1.68-1.1-.65.19C1731.25,239.62,1732.18,240.55,1731.64,239.47Z"/><polygon class="cls-28" points="1720.88 223.19 1721.09 223.43 1722.18 222.56 1720.88 223.19"/><path class="cls-28" d="M1707.92,211.42c.64,1.38.92-.24,1.39,1.13.48.09-.41-1.12,0-1C1708.54,211,1708.41,210.55,1707.92,211.42Z"/><path class="cls-28" d="M1709.38,211.56a3.25,3.25,0,0,0,.45.25A1.66,1.66,0,0,0,1709.38,211.56Z"/><polygon class="cls-28" points="1598.75 52.38 1598.39 51.41 1598.39 52.2 1598.75 52.38"/><path class="cls-28" d="M1596.58,51l.59-.72h-1C1596.33,50.45,1596.64,50.75,1596.58,51Z"/><path class="cls-28" d="M1671.17,163.84l.22-.07c.09-.27,0-.46-.28-.86Z"/><polygon class="cls-28" points="1663.73 152.71 1663.86 152.9 1664.26 152.07 1663.73 152.71"/><path class="cls-28" d="M1656.26,144.33c.23.37.7.71,1,1.09C1656.45,144.7,1657,143.62,1656.26,144.33Z"/></g></g><g class="cls-29"><image width="329" height="394" transform="translate(1451 -56) scale(1.43)" xlink:href="../../04-ux/app/Dokumentation/mit%20foreslag.JPG"/></g><g class="cls-30"><image width="5184" height="3456" transform="translate(1403 -75) scale(0.18)" xlink:href="../../02-content/02-redesign/02_02_06_redesign/nyebilleder/gran.jpg"/></g><g class="cls-31"><image width="742" height="960" transform="translate(1178 -199)" xlink:href="../../../../Pictures/frim%C3%A6rke3.jpg"/></g><g class="cls-32"><image width="787" height="552" transform="translate(1253 725) scale(0.66)" xlink:href="../../03-animation/Dokumentation/Illustrator/Form%20givning.PNG"/></g><g class="cls-33"><g id="strandliv"><path class="cls-34" d="M1968,763V640H1470.41a4.5,4.5,0,0,1-2.41,2.07V1097h500V796.14a4,4,0,0,1,0-.69V763"/><rect id="himmel" class="cls-35" x="1468" y="397" width="500" height="165"/><g id="hav"><rect class="cls-24" x="1469" y="558" width="499" height="70"/><path class="cls-36" d="M1468,592v34.93c.62,4.7,1.4,9.38,2,14.07h498V592Z"/><path class="cls-36" d="M1470.91,591.89a89.54,89.54,0,0,1,62.59-41.26c-7.93.62-12.79,10.31-10.61,18s9.27,13,16.69,15.85c3.68,1.42,8.07,2.31,11.4.17,2.45-1.57,3.71-4.4,5.19-6.91,7.46-12.59,24.18-18.8,38-14.15-2.89-2.37-7.66-.92-9.67,2.24s-1.77,7.28-.56,10.82a23,23,0,0,0,23.09,14.94c13.56-1.24,22.61-13.86,31.68-24s24-19.19,35.48-11.81c-8.24,3.91-12.61,14.49-9.51,23.07s13.22,13.94,22.06,11.68c7.84-2,13.39-8.74,19.9-13.55a45.73,45.73,0,0,1,32.57-8.52c-5-2.38-11.24,2.31-11.71,7.79s3.46,10.61,8.32,13.2a21.65,21.65,0,0,0,24.5-3.41c3.34-3.21,5.52-7.42,8.24-11.18,4.61-6.35,10.76-11.4,16.85-16.35,6.94-5.64,17.24-11.3,24-5.4-5.14,3.42-5.67,11.18-2.82,16.65s8.13,9.19,13.21,12.69c4,2.77,8.83,5.67,13.47,4.16,2.68-.86,4.68-3,6.62-5.08,9.25-9.72,21.91-18.58,35.08-16a13.87,13.87,0,0,0,7.77,25c10.38.41,17.29-10,24.86-17.11a47.93,47.93,0,0,1,34.83-12.81,18.62,18.62,0,0,0,14.22,30.52"/></g><g id="solstol"><path class="cls-37" d="M1698.56,890.61c-30.85-18.66-59.75-44.69-84-77.13-6.19-8.36-5.35-16.65,1.34-18.12,57.09-13.2,109.61-39.56,159.35-72.15,5.86-3.8,16.32-3.89,23.41-.7,27.69,12.73,56.62,18.46,83.91,16.62,7-.52,8,3.92,2.48,10.44-47.29,54.59-99.17,102.89-159.08,141.19C1718.94,895.32,1706.46,895.46,1698.56,890.61Z"/><path class="cls-37" d="M1806,613.19q47.38-4.5,90.81-12.85c8-1.57,12.7,3.78,10.75,11.92Q1890.7,682.69,1877.85,746c-1.51,7.32-7.57,11.7-13.55,9.77q-33-10.32-66.73-22.74c-6.11-2.33-11.36-8.33-11.54-13.35a835.13,835.13,0,0,1,3.16-94.51C1789.7,619.41,1797.3,614.06,1806,613.19Z"/><rect class="cls-37" x="1766.75" y="804.92" width="66.74" height="11.03" transform="translate(-2.9 1614.4) rotate(-48.27)"/><rect class="cls-37" x="1708" y="888" width="13" height="44"/><rect class="cls-37" x="1868" y="756" width="10" height="50"/><line class="cls-38" x1="1616.8" y1="810.44" x2="1617.91" y2="852.41"/></g><polygon class="cls-39" points="1859.4 728.66 1847.49 678.56 1863.99 676.06 1867.86 727.38 1859.4 728.66"/><polygon class="cls-39" points="1774.11 686.53 1805.05 645.36 1817.51 656.46 1783.25 694.66 1774.11 686.53"/><polygon class="cls-39" points="1816.83 734.38 1863.62 712.86 1869.31 728.55 1819.76 742.43 1816.83 734.38"/><polygon class="cls-39" points="1755.81 733.38 1774.34 686.62 1784.99 690.4 1763.41 737.16 1755.81 733.38"/><polygon class="cls-39" points="1696.66 790.37 1689.88 773.63 1763.03 731.17 1777.15 766.03 1696.66 790.37"/><circle class="cls-39" cx="1691.9" cy="780.33" r="9.08"/><polygon class="cls-39" points="1670.5 845.47 1661.2 844.49 1683.32 777.67 1700.2 783.77 1670.5 845.47"/><polygon class="cls-39" points="1696.86 877.19 1689.88 870.97 1783.55 752.04 1809.53 770.81 1696.86 877.19"/><ellipse class="cls-39" cx="1779.54" cy="752.93" rx="12.3" ry="30.35" transform="translate(33.14 1579.82) rotate(-48.27)"/><path class="cls-39" d="M1764.32,732.72c3.21,0,3.22-5,0-5S1761.09,732.72,1764.32,732.72Z"/><path class="cls-39" d="M1808.92,762.76l-40.79-19.1c-4.22-2-5.78-7.61-3.48-12.52l31.19-31.75,6.86-49.53c2.29-4.91,7.62-7.31,11.84-5.34l40.79,19.1c4.22,2,5.78,7.61,3.48,12.52l-30,38.67-8,42.61C1818.47,762.33,1813.14,764.73,1808.92,762.76Z"/><circle class="cls-34" cx="1835.37" cy="682.91" r="10.24"/><circle class="cls-34" cx="1812.84" cy="672.75" r="10.24"/><path class="cls-39" d="M1694.24,878.48l3.64-2.14-4.76-8.06c-3.21-1.83-15.68,5.29-12.73,7.52,3.45,2.62,11.44,21.91,16.65,28.23Z"/><path class="cls-39" d="M1660.75,848.68l.45-4.19,9.3,1c3,2.16,1.7,16.46-1.56,14.71-3.82-2.06-24.68-1.33-32.59-3.45Z"/><ellipse class="cls-39" cx="1858.78" cy="674.96" rx="5.24" ry="9.64"/><ellipse class="cls-39" cx="1805.03" cy="756" rx="15.83" ry="14.67"/><path class="cls-34" d="M1821,681.51l5.59,2a5,5,0,0,0,6.15-3.49h0a5.13,5.13,0,0,0-3.49-6.15l-5.59-2a5,5,0,0,0-6.15,3.49h0a5.12,5.12,0,0,0,3.49,6.15Z"/><path class="cls-34" d="M1817.81,662.72q2.88-6.13,5.41-12.42c1.2-3-3.63-4.27-4.82-1.32q-2.3,5.67-4.91,11.22c-1.36,2.89,3,5.43,4.32,2.52Z"/><path class="cls-34" d="M1804.49,674.16a5.38,5.38,0,0,0-5.58,2.24,2.5,2.5,0,0,0,.89,3.42,2.58,2.58,0,0,0,3.43-.89c-.24.29-.27.34-.1.14s.15-.15-.14.09a1.75,1.75,0,0,1,.27-.16h0c-.18.1-.21.09,0,0s.21-.06-.2,0h.12a2.5,2.5,0,0,0,3.08-1.77,2.56,2.56,0,0,0-1.42-2.89Z"/><path class="cls-34" d="M1843.46,674.89a34.05,34.05,0,0,1,5.79-12.4c1.9-2.6-2.43-5.09-4.32-2.52a38.1,38.1,0,0,0-6.3,13.59C1837.88,676.69,1842.7,678,1843.46,674.89Z"/><path class="cls-34" d="M1840.7,693.16l1.11,1.11a2.5,2.5,0,1,0,3.59-3.48l-.06-.06-1.1-1.1a2.5,2.5,0,0,0-3.54,3.53Z"/><path class="cls-34" d="M1770,730.64c4.8,1.58,8,5.69,11.88,8.72a55.72,55.72,0,0,0,10.95,6.62c8.21,3.8,17,6,25.75,8.14,3.13.76,4.46-4.06,1.33-4.82-9.35-2.27-18.91-4.56-27.48-9.08-7.56-4-13-11.76-21.11-14.43-3.06-1-4.37,3.82-1.32,4.82Z"/><path class="cls-34" d="M1776,734.47c1,9.13,1.81,19.36-4,26.53-.8,1-1.59,2.69-.45,3.25a1.79,1.79,0,0,0,1,.1c5.07-.62,8.88-4.82,13.53-7a33.56,33.56,0,0,1,4.8-1.65l17.32-5"/><g id="ansikt"><rect class="cls-39" x="1829" y="642" width="11" height="20" rx="5"/><path class="cls-39" d="M1852.11,623.24c0,16.7-7.89,25.4-17.64,25.4s-17.64-8.7-17.64-25.4,8.63-21.49,18.38-21.49S1852.11,606.54,1852.11,623.24Z"/><g id="hr"><circle class="cls-40" cx="1825.79" cy="604.36" r="3.19"/><circle class="cls-40" cx="1822.42" cy="604.8" r="3.19"/><circle class="cls-40" cx="1818.25" cy="615.93" r="3.19"/><circle class="cls-40" cx="1849.91" cy="615.01" r="3.19"/><circle class="cls-40" cx="1847.52" cy="610.41" r="3.19"/><circle class="cls-40" cx="1846.68" cy="614.93" r="3.19"/><circle class="cls-40" cx="1851.21" cy="606.7" r="3.19"/><circle class="cls-40" cx="1851.71" cy="611.27" r="3.19"/><circle class="cls-40" cx="1847.16" cy="614.7" r="3.19"/><circle class="cls-40" cx="1849.32" cy="612.07" r="3.19"/><circle class="cls-40" cx="1844.73" cy="601.1" r="3.19"/><circle class="cls-40" cx="1850.19" cy="613.45" r="3.19"/><circle class="cls-40" cx="1850.7" cy="618.03" r="3.19"/><circle class="cls-40" cx="1843.72" cy="607.85" r="3.19"/><circle class="cls-40" cx="1848.53" cy="603.66" r="3.19"/><circle class="cls-40" cx="1847.69" cy="608.17" r="3.19"/><circle class="cls-40" cx="1823.61" cy="611.7" r="3.19"/><circle class="cls-40" cx="1817.23" cy="611.46" r="3.19"/><circle class="cls-40" cx="1820.94" cy="608.75" r="3.19"/><circle class="cls-40" cx="1817.37" cy="607.41" r="3.19"/><circle class="cls-40" cx="1820.13" cy="603.73" r="3.19"/><circle class="cls-40" cx="1826.31" cy="604.52" r="3.19"/><circle class="cls-40" cx="1822.73" cy="603.18" r="3.19"/><circle class="cls-40" cx="1825.5" cy="599.5" r="3.19"/><circle class="cls-40" cx="1831.16" cy="600.13" r="3.19"/><circle class="cls-40" cx="1827.79" cy="600.57" r="3.19"/><circle class="cls-40" cx="1836.09" cy="599.72" r="3.19"/><circle class="cls-40" cx="1837.49" cy="605.24" r="3.19"/><circle class="cls-40" cx="1835.9" cy="602.24" r="3.19"/><circle class="cls-40" cx="1824.01" cy="602.24" r="3.19"/><circle class="cls-40" cx="1822.6" cy="607.23" r="3.19"/><circle class="cls-40" cx="1844.9" cy="601.84" r="3.19"/><circle class="cls-40" cx="1833.01" cy="601.84" r="3.19"/><circle class="cls-40" cx="1827.84" cy="599.72" r="3.19"/><circle class="cls-40" cx="1831.67" cy="602.24" r="3.19"/><circle class="cls-40" cx="1831.67" cy="598.43" r="3.19"/><circle class="cls-40" cx="1836.84" cy="599.32" r="3.19"/><circle class="cls-40" cx="1840.68" cy="601.84" r="3.19"/><circle class="cls-40" cx="1840.68" cy="598.02" r="3.19"/><circle class="cls-40" cx="1845.09" cy="599.32" r="3.19"/><circle class="cls-40" cx="1846.5" cy="604.84" r="3.19"/></g><g id="hatt"><path class="cls-41" d="M1822.3,599.3c0-4.4,6.32-8,14.1-8s14.1,3.57,14.1,8"/><line class="cls-42" x1="1816" y1="599" x2="1858" y2="599.52"/></g><g id="solbrille"><circle class="cls-41" cx="1820.95" cy="622.79" r="6.65"/><circle class="cls-41" cx="1839.16" cy="623.53" r="6.65"/><line class="cls-43" x1="1845.81" y1="623.53" x2="1850.7" y2="618.03"/><line class="cls-43" x1="1825" y1="624" x2="1839" y2="624"/></g></g><circle id="sol" class="cls-44" cx="1556.47" cy="464.36" r="42.5"/></g></g><g class="cls-45"><image width="234" height="63" transform="translate(1573 938) scale(2.26)" xlink:href="../../../../Pictures/fkjaw.JPG"/></g></svg>
