<svg xmlns="http://www.w3.org/2000/svg" xmlns:xlink="http://www.w3.org/1999/xlink" width="1006" height="429" viewBox="0 0 1006 429"><defs><style>.cls-1{isolation:isolate;}.cls-2{opacity:0.75;mix-blend-mode:screen;}.cls-3,.cls-5{fill:#2d12b2;}.cls-4{fill:#ff7c19;}.cls-4,.cls-6{stroke:#000;stroke-miterlimit:10;stroke-width:2px;}.cls-5{filter:url(#AI_Shadow_1);}.cls-6{fill:#fff;}</style><filter id="AI_Shadow_1" name="AI_Shadow_1"><feGaussianBlur result="blur" stdDeviation="2" in="SourceAlpha"/><feOffset result="offsetBlurredAlpha" dx="4" dy="4" in="blur"/><feMerge><feMergeNode in="offsetBlurredAlpha"/><feMergeNode in="SourceGraphic"/></feMerge></filter></defs><title>forside_titel</title><g class="cls-1"><g id="Layer_1" data-name="Layer 1"><image class="cls-2" width="219" height="141" transform="translate(750 282)" xlink:href="forside_titel1.png"/><rect class="cls-3" x="765.8" y="297.7" width="187.22" height="109.56" rx="25.34"/><path class="cls-4" d="M150.52,212.36q0,5.23-.33,10.44t-.76,10.44l-18.83.88q.84-6.37,1.52-12.77a121.67,121.67,0,0,0,.68-12.8c0-.26,0-.73,0-1.41s-.06-1.43-.13-2.28-.14-1.74-.25-2.66a23.2,23.2,0,0,0-.44-2.53,7.38,7.38,0,0,0-.68-1.88c-.27-.49-.58-.73-.95-.73a2.38,2.38,0,0,0-2,1,6.72,6.72,0,0,0-1.08,2.32,14.26,14.26,0,0,0-.42,2.77c-.05.94-.07,1.7-.07,2.28,0,1,0,2.06.07,3.08s.08,2.08.08,3.15q0,5.69-.28,11.32t-.68,11.31l-17.35.66q.84-6.37,1.48-12.72a126.38,126.38,0,0,0,.64-12.77c0-.27,0-.75,0-1.46s-.06-1.5-.12-2.38-.16-1.8-.28-2.75a24.84,24.84,0,0,0-.46-2.62,8.74,8.74,0,0,0-.67-2c-.27-.51-.6-.77-1-.77a2,2,0,0,0-1.54.72,5.43,5.43,0,0,0-1,1.85,14.26,14.26,0,0,0-.58,2.51c-.14.91-.24,1.81-.3,2.69s-.1,1.69-.11,2.43,0,1.3,0,1.67l-.81,26.73H85.27q.58-6.18,1.19-12.41t1.06-12.43q.45-6.21.75-12.44t.29-12.45l17.43-.73-.07,4.25a24.26,24.26,0,0,1,1.83-2.07,16,16,0,0,1,2.18-1.87,11.93,11.93,0,0,1,2.45-1.34,7.34,7.34,0,0,1,2.69-.51,16.61,16.61,0,0,1,3.23.28,8.26,8.26,0,0,1,2.58.93,6.68,6.68,0,0,1,2,1.81,11.32,11.32,0,0,1,1.54,2.91c.78-.85,1.57-1.64,2.36-2.38a14.8,14.8,0,0,1,2.51-1.88,11.6,11.6,0,0,1,2.86-1.23,13.79,13.79,0,0,1,9.45.93,12.66,12.66,0,0,1,4.15,3.65,17.85,17.85,0,0,1,2.6,5.2,39.87,39.87,0,0,1,1.41,6.08,58.39,58.39,0,0,1,.61,6.26C150.48,208.73,150.52,210.63,150.52,212.36Z"/><path class="cls-4" d="M200,234l-18.17,2.35-2.2-8.28h-8.35l-1.83,8.28-18.67-1.83,14.57-48.78,20.36-1ZM178.36,216.9l-2.79-12.74-2.71,12.74Z"/><path class="cls-4" d="M235.08,185.56l-.36,15.52-10.92.44-1.32,34-15.45.8-1.39-34-10.91.58.44-17.28Z"/><path class="cls-4" d="M280.64,235.73l-18.31.88-.15-15.46h-8.42l-.51,16H236.84l1.39-51.49,17.43.81-1.1,26.29h8.13l.08-27.54,16.7.44Z"/><path class="cls-4" d="M303.23,185.63l-2.56,49.88-15.45.8-1.47-49.66Z"/><path class="cls-4" d="M351.83,234l-18.16,2.35-2.2-8.28h-8.35l-1.83,8.28-18.68-1.83,14.58-48.78,20.36-1ZM330.15,216.9l-2.78-12.74-2.71,12.74Z"/><path class="cls-4" d="M390.14,218.44a19.91,19.91,0,0,1-1.74,8.66,16.63,16.63,0,0,1-4.76,6,20.16,20.16,0,0,1-7.07,3.48,32.8,32.8,0,0,1-8.7,1.11,18.07,18.07,0,0,1-3.94-.47c-1.43-.32-2.87-.72-4.34-1.19s-2.87-1-4.23-1.54-2.55-1.07-3.6-1.56l1.61-14.35a25.88,25.88,0,0,0,6.9,2.84,30.31,30.31,0,0,0,7.45,1c.47,0,1,0,1.69-.06a7.19,7.19,0,0,0,1.88-.33,4,4,0,0,0,1.52-.82,2,2,0,0,0,.63-1.58,1.75,1.75,0,0,0-.44-1.19,3.33,3.33,0,0,0-1.14-.8,6.89,6.89,0,0,0-1.57-.48c-.59-.11-1.16-.19-1.72-.24s-1.09-.07-1.58-.07h-1.17a15.88,15.88,0,0,1-5.73-1,12.73,12.73,0,0,1-4.43-2.8,12.56,12.56,0,0,1-2.88-4.39,15.55,15.55,0,0,1-1-5.74,16.83,16.83,0,0,1,1.74-7.74,18.09,18.09,0,0,1,4.65-5.82,21,21,0,0,1,6.68-3.68,23.9,23.9,0,0,1,7.8-1.29c1.2,0,2.43.05,3.7.13a37.32,37.32,0,0,1,3.79.46,36.46,36.46,0,0,1,3.68.84,22,22,0,0,1,3.41,1.28L385.81,202a45.64,45.64,0,0,0-5.21-1.41,26.07,26.07,0,0,0-5.33-.57L374,200c-.5,0-1,.05-1.57.11a16.63,16.63,0,0,0-1.67.28,6.77,6.77,0,0,0-1.5.49,2.77,2.77,0,0,0-1.06.83,1.74,1.74,0,0,0-.37,1.2,1.59,1.59,0,0,0,.6,1.25,3.68,3.68,0,0,0,1.47.64,8.74,8.74,0,0,0,2,.2c.72,0,1.43,0,2.14-.05l2-.11a11.06,11.06,0,0,1,1.5,0,15,15,0,0,1,5.27,1.24,12.37,12.37,0,0,1,4,2.82,12.17,12.17,0,0,1,2.49,4.2A16.07,16.07,0,0,1,390.14,218.44Z"/><path class="cls-4" d="M434,208.11a29.74,29.74,0,0,1-1.32,9.2A24.05,24.05,0,0,1,429,224.5a23.15,23.15,0,0,1-5.62,5.33,32.33,32.33,0,0,1-7.14,3.61,42.86,42.86,0,0,1-8.26,2.07,60.2,60.2,0,0,1-9,.66c-1.15,0-2.27,0-3.37-.1s-2.22-.15-3.37-.27l1-47.68a46,46,0,0,1,8.29-1.81,67.51,67.51,0,0,1,8.48-.53,30.2,30.2,0,0,1,9.63,1.46,21.47,21.47,0,0,1,7.58,4.3,19.43,19.43,0,0,1,5,7A24.06,24.06,0,0,1,434,208.11Zm-24.9,14.07a11.83,11.83,0,0,0,7.14-3.83,10.61,10.61,0,0,0,2-3.37,11.14,11.14,0,0,0,.72-4,16.7,16.7,0,0,0-.44-3.9,8.75,8.75,0,0,0-1.43-3.15,7,7,0,0,0-2.6-2.12,9.61,9.61,0,0,0-4-.86Z"/><path class="cls-4" d="M480.52,234l-18.17,2.35-2.19-8.28h-8.35L450,236.39l-18.67-1.83,14.57-48.78,20.36-1ZM458.84,216.9l-2.79-12.74-2.71,12.74Z"/><path class="cls-4" d="M523.62,185.63q-1.65,12.88-2.82,25.65T518.57,237l-15,1.1.66-5.64a8.29,8.29,0,0,1-1.7,1.47,9.88,9.88,0,0,1-2.07,1,11.57,11.57,0,0,1-2.27.55,13.36,13.36,0,0,1-2.24.13,12.24,12.24,0,0,1-4.68-1,15.4,15.4,0,0,1-4-2.49,19.82,19.82,0,0,1-3.3-3.63,25,25,0,0,1-2.47-4.35,26.05,26.05,0,0,1-1.54-4.67,21.49,21.49,0,0,1-.53-4.62q0-3.28.13-6.83c.08-2.35.24-4.71.46-7.08s.5-4.71.86-7,.8-4.55,1.33-6.67q4.47.22,9,.4c3,.13,6,.16,9,.11q-.84,3.19-1.67,6.39T497,200.59q-.66,3.24-1.06,6.5a53.36,53.36,0,0,0-.41,6.59c0,.51,0,1.25.08,2.2a16.77,16.77,0,0,0,.38,2.82,8.06,8.06,0,0,0,.95,2.43,2,2,0,0,0,1.82,1.05,3.35,3.35,0,0,0,2.49-1.19,10.92,10.92,0,0,0,1.94-3.21,28.47,28.47,0,0,0,1.44-4.65c.41-1.76.75-3.59,1-5.51s.51-3.85.68-5.8.3-3.79.38-5.52.15-3.26.19-4.63.05-2.43.05-3.18c0-.49,0-1,0-1.43s-.06-.94-.11-1.43c1.59.05,3.17.09,4.73.11s3.13,0,4.72,0l3.68,0C521.13,185.75,522.37,185.7,523.62,185.63Z"/><path class="cls-4" d="M569.54,229a17.05,17.05,0,0,1-4.25,3.77,27,27,0,0,1-5.42,2.67,34.37,34.37,0,0,1-5.93,1.6,33.94,33.94,0,0,1-5.78.53,26,26,0,0,1-9.78-1.8,22.51,22.51,0,0,1-12.78-12.63,25.08,25.08,0,0,1-1.83-9.67,32.76,32.76,0,0,1,.91-7.76,31.27,31.27,0,0,1,2.62-7.07,28.58,28.58,0,0,1,4.16-6,26,26,0,0,1,12.39-7.78,28.17,28.17,0,0,1,7.89-1.08c1,0,2.18,0,3.37.12s2.39.24,3.57.44a26.11,26.11,0,0,1,3.46.86,16,16,0,0,1,3.08,1.36l-1,14a18.71,18.71,0,0,0-4.23-1.05,34.85,34.85,0,0,0-4.27-.27,18.33,18.33,0,0,0-5.48.79,13.09,13.09,0,0,0-4.43,2.32,11.06,11.06,0,0,0-3,3.85,12.33,12.33,0,0,0-1.1,5.34,13.24,13.24,0,0,0,.51,3.68,9.3,9.3,0,0,0,1.56,3.15,7.87,7.87,0,0,0,2.6,2.22,7.49,7.49,0,0,0,3.61.84,12.19,12.19,0,0,0,2.87-.36,6.35,6.35,0,0,0,2.55-1.25l.14-2.86-8.79-.14.44-11q5.46-.18,10.92-.31c3.63-.09,7.3-.2,11-.35Z"/><path class="cls-4" d="M618.5,234l-18.16,2.35-2.2-8.28h-8.35L588,236.39l-18.67-1.83,14.57-48.78,20.36-1ZM596.83,216.9,594,204.16l-2.71,12.74Z"/><path class="cls-4" d="M665.45,234l-18.16,2.35-2.2-8.28h-8.35l-1.83,8.28-18.68-1.83,14.58-48.78,20.36-1ZM643.77,216.9,641,204.16l-2.71,12.74Z"/><path class="cls-4" d="M709.14,201.89a25,25,0,0,1-.49,5.18,15.64,15.64,0,0,1-1.56,4.27,15.26,15.26,0,0,1-2.75,3.59,25.07,25.07,0,0,1-4.06,3.15L709,233.6l-16.48,3.23-5.64-15.6-4.55.14-.65,15.24H665.93q.18-8.36.35-16.63t.38-16.63c.05-2.8.1-5.59.15-8.35s.14-5.54.29-8.35a50.23,50.23,0,0,1,5-1.57,48.45,48.45,0,0,1,5-1c1.68-.23,3.37-.39,5.09-.48s3.49-.12,5.3-.12a28.27,28.27,0,0,1,8.07,1.15,20.92,20.92,0,0,1,6.9,3.46,17.36,17.36,0,0,1,4.82,5.75A16.94,16.94,0,0,1,709.14,201.89Zm-16.4,1.17a9.06,9.06,0,0,0-.43-2.82,6.21,6.21,0,0,0-1.24-2.21,5.7,5.7,0,0,0-2.05-1.47,7.29,7.29,0,0,0-2.88-.53,11,11,0,0,0-1.42.09,8.63,8.63,0,0,0-1.36.28L682.77,210h.88a13.31,13.31,0,0,0,3.21-.4,9.75,9.75,0,0,0,2.93-1.25,6.94,6.94,0,0,0,2.12-2.16A5.82,5.82,0,0,0,692.74,203.06Z"/><path class="cls-4" d="M753.16,208.11a29.74,29.74,0,0,1-1.32,9.2,24.05,24.05,0,0,1-3.68,7.19,23.15,23.15,0,0,1-5.62,5.33,32.33,32.33,0,0,1-7.14,3.61,42.86,42.86,0,0,1-8.26,2.07,60.2,60.2,0,0,1-9,.66c-1.15,0-2.27,0-3.37-.1s-2.22-.15-3.37-.27l1-47.68a46,46,0,0,1,8.29-1.81,67.51,67.51,0,0,1,8.48-.53,30.2,30.2,0,0,1,9.63,1.46,21.47,21.47,0,0,1,7.58,4.3,19.55,19.55,0,0,1,5,7A24.06,24.06,0,0,1,753.16,208.11Zm-24.9,14.07a11.83,11.83,0,0,0,7.14-3.83,10.79,10.79,0,0,0,2-3.37,11.14,11.14,0,0,0,.71-4,16.71,16.71,0,0,0-.43-3.9,8.75,8.75,0,0,0-1.43-3.15,7,7,0,0,0-2.6-2.12,9.65,9.65,0,0,0-4-.86Z"/><path class="cls-4" d="M768,229.65a7.36,7.36,0,0,1-.62,3,8.14,8.14,0,0,1-1.67,2.44,7.83,7.83,0,0,1-2.43,1.64,7.61,7.61,0,0,1-6,0,7.88,7.88,0,0,1-2.44-1.64,8.08,8.08,0,0,1-1.65-2.44,7.51,7.51,0,0,1-.6-3,7.65,7.65,0,0,1,.6-3,7.91,7.91,0,0,1,1.65-2.48,8.11,8.11,0,0,1,2.44-1.66,7.39,7.39,0,0,1,6,0,8.07,8.07,0,0,1,2.43,1.66,8,8,0,0,1,1.67,2.48A7.5,7.5,0,0,1,768,229.65Z"/><path class="cls-4" d="M811.94,208.11a29.74,29.74,0,0,1-1.32,9.2,24.29,24.29,0,0,1-3.68,7.19,23.33,23.33,0,0,1-5.62,5.33,32.62,32.62,0,0,1-7.15,3.61,42.75,42.75,0,0,1-8.25,2.07,60.29,60.29,0,0,1-9,.66c-1.15,0-2.27,0-3.37-.1s-2.22-.15-3.37-.27l1-47.68a46.13,46.13,0,0,1,8.3-1.81,67.39,67.39,0,0,1,8.48-.53,30.2,30.2,0,0,1,9.63,1.46,21.55,21.55,0,0,1,7.58,4.3,19.55,19.55,0,0,1,5,7A24.24,24.24,0,0,1,811.94,208.11ZM787,222.18a11.83,11.83,0,0,0,7.14-3.83,10.82,10.82,0,0,0,2-3.37,11.36,11.36,0,0,0,.71-4,16.18,16.18,0,0,0-.44-3.9,8.58,8.58,0,0,0-1.43-3.15,6.82,6.82,0,0,0-2.6-2.12,9.56,9.56,0,0,0-4-.86Z"/><path class="cls-4" d="M859.21,189.88,843,209.14l14.87,25.2-17,3-11.13-15.09-.59,14.36-15.23.58,1.17-52.44,17.07.95-1.32,15.09,10.62-15.31Z"/><path class="cls-5" d="M17.93,404.59a6,6,0,0,0,3.71,5.52,7.15,7.15,0,0,0,1.7.41c.45,0,1.5,0,2.35,0l5.3,0,21.19-.06c14.13,0,28.25-.23,42.38-.33s28.26-.35,42.38-.54l21.2-.33,21.19-.43q84.77-1.72,169.53-5.22c113-4.57,226-11.55,339.07-18.66,56.51-3.55,113-7.08,169.53-10.25,28.26-1.52,56.51-3.18,84.77-4.52l21.19-1,10.6-.49,1.32-.06c.06,0,.81,0,.3,0-.87,0-1.75,0-2.62.08A36.38,36.38,0,0,0,939.28,404c0,1.3,0,0,0,.1l0-.66-.06-1.32-.12-2.65-.45-10.6-.87-21.19q-6.9-169.53-6.78-339.07a45,45,0,0,0,7.62,25,45,45,0,0,0,20.12,16.5,44.54,44.54,0,0,0,12.88,3.22c1.08.11,2.17.18,3.25.2,1.66,0,.79,0,.68,0h-6.62l-21.19-.06-42.38-.35c-14.13-.1-28.26-.38-42.39-.56s-28.25-.49-42.38-.78Q735.77,70,651,66.53C538,62,425,55,311.93,48c-56.51-3.52-113-7-169.54-10.19L100,35.46,78.82,34.32l-21.19-1-21.19-1-10.6-.48-1.32-.06-.57,0a.83.83,0,0,0,.22,0,3.73,3.73,0,0,0,.84-.32,2.67,2.67,0,0,0,1.12-1.19,2.51,2.51,0,0,0,.25-1.5c0-.16,0,.34,0,.47l0,.66-.06,1.33-.12,2.65-.45,10.59-.87,21.2Q17.92,235.06,17.93,404.59Zm-6,0L11.49,65.53l0-21.2,0-10.59V28.38a12.5,12.5,0,0,1,7.89-11.44,12.37,12.37,0,0,1,3.59-.85l.92,0h2l10.6,0,21.19-.07,84.76-.28,169.54-.55L651,14l169.53-.22,84.77-.1,42.38-.06,21.19,0h5.3c.94,0,1.51,0,3.23.07a15.08,15.08,0,0,1,8,3.32,16.25,16.25,0,0,1,2.95,3.25,15.94,15.94,0,0,1,1.88,4,15.75,15.75,0,0,1,.65,4.35l-.42,339.07,0,21.19,0,10.6,0,5.39a15,15,0,0,1-.69,4.19,15.26,15.26,0,0,1-1.9,3.81A14.52,14.52,0,0,1,977.11,419l-1.06.05h-2l-10.6,0-21.19-.07-84.77-.28-169.53-.56L348.86,417l-169.53-.22-84.77-.11-42.38-.05-21.19,0h-5.3c-.91,0-1.64,0-2.94-.06a12.79,12.79,0,0,1-3.43-.86,13.26,13.26,0,0,1-3-1.82A13,13,0,0,1,14,411.26a11.92,11.92,0,0,1-2-6.67Z"/><image class="cls-2" width="200" height="103" transform="translate(759 296)" xlink:href="forside_titel2.png"/><path class="cls-6" d="M803.4,320.61c-.11,1.74-.21,3.47-.31,5.17s-.21,3.44-.36,5.18l-11.8.61-.28,3.51H799l-.61,8.63L790,344l-.28,4.06h11.8q-.16,3.06-.35,6.08t-.32,6.05l-24,.56.89-40.13Z"/><path class="cls-6" d="M842.2,320.83l-2,37.74-14.59,1.34-7.79-20.21-1.23,20.59H804.07l1-39.46,13.92-.67,9.63,20,.44-18.93Z"/><path class="cls-6" d="M873.87,320.94l-.28,11.8-8.29.34-2.12,26.38-11.74.61.06-26.38-8.3.44.34-13.13Z"/><path class="cls-6" d="M901.76,320.61c-.11,1.74-.21,3.47-.31,5.17s-.21,3.44-.36,5.18l-11.8.61-.28,3.51h8.3l-.62,8.63-8.35.28-.27,4.06h11.8q-.17,3.06-.35,6.08t-.32,6.05l-24,.56.89-40.13Z"/><path class="cls-6" d="M935.33,333.91a19,19,0,0,1-.38,3.94,12,12,0,0,1-1.18,3.24,11.74,11.74,0,0,1-2.09,2.73,18.47,18.47,0,0,1-3.09,2.39l6.62,11.8-12.52,2.45-4.29-11.85-3.45.11-.5,11.57h-12c.1-4.23.18-8.44.27-12.63s.18-8.41.29-12.64c0-2.13.07-4.24.11-6.34s.11-4.21.22-6.35a35.8,35.8,0,0,1,3.84-1.19,34,34,0,0,1,3.8-.74q1.9-.27,3.87-.36c1.31-.07,2.65-.1,4-.1a21.35,21.35,0,0,1,6.14.88,15.8,15.8,0,0,1,5.25,2.63,13.07,13.07,0,0,1,3.66,4.37A12.84,12.84,0,0,1,935.33,333.91Zm-12.47.89a6.91,6.91,0,0,0-.32-2.14,4.91,4.91,0,0,0-.95-1.69,4.43,4.43,0,0,0-1.56-1.11,5.44,5.44,0,0,0-2.18-.4,7.68,7.68,0,0,0-1.09.07,6.07,6.07,0,0,0-1,.21l-.44,10.35H916a9.89,9.89,0,0,0,2.44-.31,7.42,7.42,0,0,0,2.23-.94,5.39,5.39,0,0,0,1.61-1.65A4.37,4.37,0,0,0,922.86,334.8Z"/></g></g></svg>
