<svg id="Layer_1" data-name="Layer 1" xmlns="http://www.w3.org/2000/svg" xmlns:xlink="http://www.w3.org/1999/xlink" width="7200" height="400" viewBox="0 0 7200 400"><defs><style>.cls-1{fill:none;}.cls-2{fill:#c69c6d;}.cls-3{fill:#00009f;}.cls-4{fill:red;}.cls-5{clip-path:url(#clip-path);}.cls-6{clip-path:url(#clip-path-2);}.cls-7{clip-path:url(#clip-path-3);}.cls-8{clip-path:url(#clip-path-4);}.cls-9{clip-path:url(#clip-path-5);}.cls-10{clip-path:url(#clip-path-6);}.cls-11{clip-path:url(#clip-path-7);}.cls-12{clip-path:url(#clip-path-8);}.cls-13{clip-path:url(#clip-path-9);}.cls-14{clip-path:url(#clip-path-10);}.cls-15{clip-path:url(#clip-path-11);}.cls-16{clip-path:url(#clip-path-12);}.cls-17{clip-path:url(#clip-path-13);}.cls-18{clip-path:url(#clip-path-14);}.cls-19{clip-path:url(#clip-path-15);}.cls-20{clip-path:url(#clip-path-16);}.cls-21{clip-path:url(#clip-path-17);}.cls-22{clip-path:url(#clip-path-18);}</style><clipPath id="clip-path"><rect class="cls-1" x="148.54" y="50.58" width="101" height="101" rx="37.47"/></clipPath><clipPath id="clip-path-2"><rect class="cls-1" x="548.54" y="50.58" width="101" height="101" rx="37.47"/></clipPath><clipPath id="clip-path-3"><rect class="cls-1" x="948.54" y="50.58" width="101" height="101" rx="37.47"/></clipPath><clipPath id="clip-path-4"><rect class="cls-1" x="1362.54" y="50.58" width="101" height="101" rx="37.47"/></clipPath><clipPath id="clip-path-5"><rect class="cls-1" x="1748.54" y="50.58" width="101" height="101" rx="37.47"/></clipPath><clipPath id="clip-path-6"><rect class="cls-1" x="2148.54" y="50.58" width="101" height="101" rx="37.47"/></clipPath><clipPath id="clip-path-7"><rect class="cls-1" x="2548.54" y="50.58" width="101" height="101" rx="37.47"/></clipPath><clipPath id="clip-path-8"><rect class="cls-1" x="2962.54" y="50.58" width="101" height="101" rx="37.47"/></clipPath><clipPath id="clip-path-9"><rect class="cls-1" x="3348.54" y="50.58" width="101" height="101" rx="37.47"/></clipPath><clipPath id="clip-path-10"><rect class="cls-1" x="3762.54" y="50.58" width="101" height="101" rx="37.47"/></clipPath><clipPath id="clip-path-11"><rect class="cls-1" x="4148.54" y="50.58" width="101" height="101" rx="37.47"/></clipPath><clipPath id="clip-path-12"><rect class="cls-1" x="4548.54" y="50.58" width="101" height="101" rx="37.47"/></clipPath><clipPath id="clip-path-13"><rect class="cls-1" x="4948.54" y="50.58" width="101" height="101" rx="37.47"/></clipPath><clipPath id="clip-path-14"><rect class="cls-1" x="5362.54" y="50.58" width="101" height="101" rx="37.47"/></clipPath><clipPath id="clip-path-15"><rect class="cls-1" x="5748.54" y="50.58" width="101" height="101" rx="37.47"/></clipPath><clipPath id="clip-path-16"><rect class="cls-1" x="6162.54" y="50.58" width="101" height="101" rx="37.47"/></clipPath><clipPath id="clip-path-17"><rect class="cls-1" x="6548.54" y="50.58" width="101" height="101" rx="37.47"/></clipPath><clipPath id="clip-path-18"><rect class="cls-1" x="7063.44" y="95.05" width="101" height="101" rx="37.47" transform="translate(2591.74 -5348) rotate(49.37)"/></clipPath><image id="image" width="500" height="616" xlink:href="../Documents/kea/eksamen/grafik/Vietnam.jpg"/></defs><title>mig_walk</title><rect class="cls-2" x="6166.72" y="159.89" width="31" height="97.68" rx="15.5" transform="translate(2810.31 -4977.18) rotate(55.03)"/><rect class="cls-2" x="5366.72" y="159.89" width="31" height="97.68" rx="15.5" transform="translate(2468.78 -4321.58) rotate(55.03)"/><rect class="cls-2" x="4552.72" y="159.89" width="31" height="97.68" rx="15.5" transform="translate(2121.27 -3654.52) rotate(55.03)"/><rect class="cls-2" x="3766.72" y="159.89" width="31" height="97.68" rx="15.5" transform="translate(1785.72 -3010.4) rotate(55.03)"/><rect class="cls-2" x="2966.72" y="159.89" width="31" height="97.68" rx="15.5" transform="translate(1444.19 -2354.8) rotate(55.03)"/><rect class="cls-2" x="2152.72" y="159.89" width="31" height="97.68" rx="15.5" transform="translate(1096.69 -1687.73) rotate(55.03)"/><rect class="cls-2" x="1366.72" y="159.89" width="31" height="97.68" rx="15.5" transform="translate(761.14 -1043.61) rotate(55.03)"/><rect class="cls-2" x="552.72" y="159.89" width="31" height="97.68" rx="15.5" transform="translate(413.63 -376.55) rotate(55.03)"/><path class="cls-3" d="M170.72,258.94h0a20.79,20.79,0,0,1,20.79,20.79v57.91a19.44,19.44,0,0,1-19.44,19.44h0a19.44,19.44,0,0,1-19.44-19.44V277A18.08,18.08,0,0,1,170.72,258.94Z" transform="translate(177.06 -44.77) rotate(30)"/><rect class="cls-1" x="0.46" y="-0.58" width="400" height="400"/><rect class="cls-2" x="218.14" y="163.26" width="31" height="90.63" rx="15.5" transform="translate(-77.54 244.01) rotate(-48.25)"/><path class="cls-4" d="M174.19,144.77h48.52a17.62,17.62,0,0,1,17.62,17.62v91.66a41.53,41.53,0,0,1-41.53,41.53h0a41.53,41.53,0,0,1-41.53-41.53V161.69A16.92,16.92,0,0,1,174.19,144.77Z"/><path class="cls-3" d="M220.58,258.94h0A19.44,19.44,0,0,1,240,278.38v57.91a20.79,20.79,0,0,1-20.79,20.79h0A18.08,18.08,0,0,1,201.14,339V278.38a19.44,19.44,0,0,1,19.44-19.44Z" transform="translate(565.61 464.47) rotate(150)"/><g class="cls-5"><use transform="translate(-132 -162) scale(1.28)" xlink:href="#image"/></g><rect class="cls-2" x="152.72" y="159.89" width="31" height="97.68" rx="15.5" transform="translate(242.87 -48.75) rotate(55.03)"/><path class="cls-3" d="M620.58,258.94h0A19.44,19.44,0,0,1,640,278.38v57.91a20.79,20.79,0,0,1-20.79,20.79h0A18.08,18.08,0,0,1,601.14,339V278.38A19.44,19.44,0,0,1,620.58,258.94Z" transform="translate(1312.02 264.47) rotate(150)"/><rect class="cls-1" x="400.46" y="-0.58" width="400" height="400"/><path class="cls-4" d="M574.19,144.77h48.52a17.62,17.62,0,0,1,17.62,17.62v91.66a41.53,41.53,0,0,1-41.53,41.53h0a41.53,41.53,0,0,1-41.53-41.53V161.69a16.92,16.92,0,0,1,16.92-16.92Z"/><g class="cls-6"><use transform="translate(268 -162) scale(1.28)" xlink:href="#image"/></g><path class="cls-3" d="M570.72,258.94h0a20.79,20.79,0,0,1,20.79,20.79v57.91a19.44,19.44,0,0,1-19.44,19.44h0a19.44,19.44,0,0,1-19.44-19.44V277a18.08,18.08,0,0,1,18.08-18.08Z" transform="matrix(0.87, 0.5, -0.5, 0.87, 230.65, -244.77)"/><path class="cls-3" d="M970.72,258.94h0a20.79,20.79,0,0,1,20.79,20.79v57.91a19.44,19.44,0,0,1-19.44,19.44h0a19.44,19.44,0,0,1-19.44-19.44V277a18.08,18.08,0,0,1,18.08-18.08Z" transform="translate(284.24 -444.77) rotate(30)"/><rect class="cls-1" x="800.46" y="-0.58" width="400" height="400"/><rect class="cls-2" x="1018.14" y="163.26" width="31" height="90.63" rx="15.5" transform="translate(189.79 840.9) rotate(-48.25)"/><path class="cls-4" d="M974.19,144.77h48.52a17.62,17.62,0,0,1,17.62,17.62v91.66a41.53,41.53,0,0,1-41.53,41.53h0a41.53,41.53,0,0,1-41.53-41.53V161.69A16.92,16.92,0,0,1,974.19,144.77Z"/><path class="cls-3" d="M1020.58,258.94h0A19.44,19.44,0,0,1,1040,278.38v57.91a20.79,20.79,0,0,1-20.79,20.79h0A18.08,18.08,0,0,1,1001.14,339V278.38a19.44,19.44,0,0,1,19.44-19.44Z" transform="translate(2058.43 64.47) rotate(150)"/><g class="cls-7"><use transform="translate(668 -162) scale(1.28)" xlink:href="#image"/></g><rect class="cls-2" x="952.72" y="159.89" width="31" height="97.68" rx="15.5" transform="translate(584.4 -704.34) rotate(55.03)"/><path class="cls-3" d="M1434.58,258.94h0A19.44,19.44,0,0,1,1454,278.38v57.91a20.79,20.79,0,0,1-20.79,20.79h0A18.08,18.08,0,0,1,1415.14,339V278.38a19.44,19.44,0,0,1,19.44-19.44Z" transform="translate(2830.97 -142.53) rotate(150)"/><rect class="cls-1" x="1200.46" y="-0.58" width="400" height="400"/><path class="cls-4" d="M1388.19,144.77h48.52a17.62,17.62,0,0,1,17.62,17.62v91.66a41.53,41.53,0,0,1-41.53,41.53h0a41.53,41.53,0,0,1-41.53-41.53V161.69a16.92,16.92,0,0,1,16.92-16.92Z"/><g class="cls-8"><use transform="translate(1082 -162) scale(1.28)" xlink:href="#image"/></g><path class="cls-3" d="M1384.72,258.94h0a20.79,20.79,0,0,1,20.79,20.79v57.91a19.44,19.44,0,0,1-19.44,19.44h0a19.44,19.44,0,0,1-19.44-19.44V277a18.08,18.08,0,0,1,18.08-18.08Z" transform="translate(339.71 -651.77) rotate(30)"/><path class="cls-3" d="M1770.72,258.94h0a20.79,20.79,0,0,1,20.79,20.79v57.91a19.44,19.44,0,0,1-19.44,19.44h0a19.44,19.44,0,0,1-19.44-19.44V277a18.08,18.08,0,0,1,18.08-18.08Z" transform="translate(391.42 -844.77) rotate(30)"/><rect class="cls-1" x="1600.46" y="-0.58" width="400" height="400"/><rect class="cls-2" x="1818.14" y="163.26" width="31" height="90.63" rx="15.5" transform="translate(457.13 1437.78) rotate(-48.25)"/><path class="cls-4" d="M1774.19,144.77h48.52a17.62,17.62,0,0,1,17.62,17.62v91.66a41.53,41.53,0,0,1-41.53,41.53h0a41.53,41.53,0,0,1-41.53-41.53V161.69A16.92,16.92,0,0,1,1774.19,144.77Z"/><path class="cls-3" d="M1820.58,258.94h0A19.44,19.44,0,0,1,1840,278.38v57.91a20.79,20.79,0,0,1-20.79,20.79h0A18.08,18.08,0,0,1,1801.14,339V278.38a19.44,19.44,0,0,1,19.44-19.44Z" transform="translate(3551.25 -335.53) rotate(150)"/><g class="cls-9"><use transform="translate(1468 -162) scale(1.28)" xlink:href="#image"/></g><rect class="cls-2" x="1752.72" y="159.89" width="31" height="97.68" rx="15.5" transform="translate(925.93 -1359.94) rotate(55.03)"/><path class="cls-3" d="M2220.58,258.94h0A19.44,19.44,0,0,1,2240,278.38v57.91a20.79,20.79,0,0,1-20.79,20.79h0A18.08,18.08,0,0,1,2201.14,339V278.38A19.44,19.44,0,0,1,2220.58,258.94Z" transform="translate(4297.66 -535.53) rotate(150)"/><rect class="cls-1" x="2000.46" y="-0.58" width="400" height="400"/><path class="cls-4" d="M2174.19,144.77h48.52a17.62,17.62,0,0,1,17.62,17.62v91.66a41.53,41.53,0,0,1-41.53,41.53h0a41.53,41.53,0,0,1-41.53-41.53V161.69A16.92,16.92,0,0,1,2174.19,144.77Z"/><g class="cls-10"><use transform="translate(1868 -162) scale(1.28)" xlink:href="#image"/></g><path class="cls-3" d="M2170.72,258.94h0a20.79,20.79,0,0,1,20.79,20.79v57.91a19.44,19.44,0,0,1-19.44,19.44h0a19.44,19.44,0,0,1-19.44-19.44V277A18.08,18.08,0,0,1,2170.72,258.94Z" transform="matrix(0.87, 0.5, -0.5, 0.87, 445.01, -1044.77)"/><path class="cls-3" d="M2570.72,258.94h0a20.79,20.79,0,0,1,20.79,20.79v57.91a19.44,19.44,0,0,1-19.44,19.44h0a19.44,19.44,0,0,1-19.44-19.44V277a18.08,18.08,0,0,1,18.08-18.08Z" transform="translate(498.6 -1244.77) rotate(30)"/><rect class="cls-1" x="2400.46" y="-0.58" width="400" height="400"/><rect class="cls-2" x="2618.14" y="163.26" width="31" height="90.63" rx="15.5" transform="translate(724.46 2034.66) rotate(-48.25)"/><path class="cls-4" d="M2574.19,144.77h48.52a17.62,17.62,0,0,1,17.62,17.62v91.66a41.53,41.53,0,0,1-41.53,41.53h0a41.53,41.53,0,0,1-41.53-41.53V161.69A16.92,16.92,0,0,1,2574.19,144.77Z"/><path class="cls-3" d="M2620.58,258.94h0A19.44,19.44,0,0,1,2640,278.38v57.91a20.79,20.79,0,0,1-20.79,20.79h0A18.08,18.08,0,0,1,2601.14,339V278.38a19.44,19.44,0,0,1,19.44-19.44Z" transform="translate(5044.07 -735.53) rotate(150)"/><g class="cls-11"><use transform="translate(2268 -162) scale(1.28)" xlink:href="#image"/></g><rect class="cls-2" x="2552.72" y="159.89" width="31" height="97.68" rx="15.5" transform="translate(1267.45 -2015.53) rotate(55.03)"/><path class="cls-3" d="M3034.58,258.94h0A19.44,19.44,0,0,1,3054,278.38v57.91a20.79,20.79,0,0,1-20.79,20.79h0A18.08,18.08,0,0,1,3015.14,339V278.38A19.44,19.44,0,0,1,3034.58,258.94Z" transform="translate(5816.61 -942.53) rotate(150)"/><rect class="cls-1" x="2800.46" y="-0.58" width="400" height="400"/><path class="cls-4" d="M2988.19,144.77h48.52a17.62,17.62,0,0,1,17.62,17.62v91.66a41.53,41.53,0,0,1-41.53,41.53h0a41.53,41.53,0,0,1-41.53-41.53V161.69a16.92,16.92,0,0,1,16.92-16.92Z"/><g class="cls-12"><use transform="translate(2682 -162) scale(1.28)" xlink:href="#image"/></g><path class="cls-3" d="M2984.72,258.94h0a20.79,20.79,0,0,1,20.79,20.79v57.91a19.44,19.44,0,0,1-19.44,19.44h0a19.44,19.44,0,0,1-19.44-19.44V277a18.08,18.08,0,0,1,18.08-18.08Z" transform="matrix(0.87, 0.5, -0.5, 0.87, 554.06, -1451.77)"/><path class="cls-3" d="M3370.72,258.94h0a20.79,20.79,0,0,1,20.79,20.79v57.91a19.44,19.44,0,0,1-19.44,19.44h0a19.44,19.44,0,0,1-19.44-19.44V277a18.08,18.08,0,0,1,18.08-18.08Z" transform="matrix(0.87, 0.5, -0.5, 0.87, 605.78, -1644.77)"/><rect class="cls-1" x="3200.46" y="-0.58" width="400" height="400"/><rect class="cls-2" x="3418.14" y="163.26" width="31" height="90.63" rx="15.5" transform="matrix(0.67, -0.75, 0.75, 0.67, 991.8, 2631.54)"/><path class="cls-4" d="M3374.19,144.77h48.52a17.62,17.62,0,0,1,17.62,17.62v91.66a41.53,41.53,0,0,1-41.53,41.53h0a41.53,41.53,0,0,1-41.53-41.53V161.69A16.92,16.92,0,0,1,3374.19,144.77Z"/><path class="cls-3" d="M3420.58,258.94h0A19.44,19.44,0,0,1,3440,278.38v57.91a20.79,20.79,0,0,1-20.79,20.79h0A18.08,18.08,0,0,1,3401.14,339V278.38a19.44,19.44,0,0,1,19.44-19.44Z" transform="translate(6536.89 -1135.53) rotate(150)"/><g class="cls-13"><use transform="translate(3068 -162) scale(1.28)" xlink:href="#image"/></g><rect class="cls-2" x="3352.72" y="159.89" width="31" height="97.68" rx="15.5" transform="translate(1608.98 -2671.13) rotate(55.03)"/><path class="cls-3" d="M3834.58,258.94h0A19.44,19.44,0,0,1,3854,278.38v57.91a20.79,20.79,0,0,1-20.79,20.79h0A18.08,18.08,0,0,1,3815.14,339V278.38a19.44,19.44,0,0,1,19.44-19.44Z" transform="translate(7309.43 -1342.53) rotate(150)"/><rect class="cls-1" x="3600.46" y="-0.58" width="400" height="400"/><path class="cls-4" d="M3788.19,144.77h48.52a17.62,17.62,0,0,1,17.62,17.62v91.66a41.53,41.53,0,0,1-41.53,41.53h0a41.53,41.53,0,0,1-41.53-41.53V161.69A16.92,16.92,0,0,1,3788.19,144.77Z"/><g class="cls-14"><use transform="translate(3482 -162) scale(1.28)" xlink:href="#image"/></g><path class="cls-3" d="M3784.72,258.94h0a20.79,20.79,0,0,1,20.79,20.79v57.91a19.44,19.44,0,0,1-19.44,19.44h0a19.44,19.44,0,0,1-19.44-19.44V277a18.08,18.08,0,0,1,18.08-18.08Z" transform="matrix(0.87, 0.5, -0.5, 0.87, 661.24, -1851.77)"/><path class="cls-3" d="M4170.72,258.94h0a20.79,20.79,0,0,1,20.79,20.79v57.91a19.44,19.44,0,0,1-19.44,19.44h0a19.44,19.44,0,0,1-19.44-19.44V277a18.08,18.08,0,0,1,18.08-18.08Z" transform="matrix(0.87, 0.5, -0.5, 0.87, 712.96, -2044.77)"/><rect class="cls-1" x="4000.46" y="-0.58" width="400" height="400"/><rect class="cls-2" x="4218.14" y="163.26" width="31" height="90.63" rx="15.5" transform="translate(1259.13 3228.42) rotate(-48.25)"/><path class="cls-4" d="M4174.19,144.77h48.52a17.62,17.62,0,0,1,17.62,17.62v91.66a41.53,41.53,0,0,1-41.53,41.53h0a41.53,41.53,0,0,1-41.53-41.53V161.69a16.92,16.92,0,0,1,16.92-16.92Z"/><path class="cls-3" d="M4220.58,258.94h0A19.44,19.44,0,0,1,4240,278.38v57.91a20.79,20.79,0,0,1-20.79,20.79h0A18.08,18.08,0,0,1,4201.14,339V278.38a19.44,19.44,0,0,1,19.44-19.44Z" transform="translate(8029.71 -1535.53) rotate(150)"/><g class="cls-15"><use transform="translate(3868 -162) scale(1.28)" xlink:href="#image"/></g><rect class="cls-2" x="4152.72" y="159.89" width="31" height="97.68" rx="15.5" transform="translate(1950.51 -3326.72) rotate(55.03)"/><path class="cls-3" d="M4620.58,258.94h0A19.44,19.44,0,0,1,4640,278.38v57.91a20.79,20.79,0,0,1-20.79,20.79h0A18.08,18.08,0,0,1,4601.14,339V278.38a19.44,19.44,0,0,1,19.44-19.44Z" transform="translate(8776.12 -1735.53) rotate(150)"/><rect class="cls-1" x="4400.46" y="-0.58" width="400" height="400"/><path class="cls-4" d="M4574.19,144.77h48.52a17.62,17.62,0,0,1,17.62,17.62v91.66a41.53,41.53,0,0,1-41.53,41.53h0a41.53,41.53,0,0,1-41.53-41.53V161.69a16.92,16.92,0,0,1,16.92-16.92Z"/><g class="cls-16"><use transform="translate(4268 -162) scale(1.28)" xlink:href="#image"/></g><path class="cls-3" d="M4570.72,258.94h0a20.79,20.79,0,0,1,20.79,20.79v57.91a19.44,19.44,0,0,1-19.44,19.44h0a19.44,19.44,0,0,1-19.44-19.44V277a18.08,18.08,0,0,1,18.08-18.08Z" transform="matrix(0.87, 0.5, -0.5, 0.87, 766.55, -2244.77)"/><path class="cls-3" d="M4970.72,258.94h0a20.79,20.79,0,0,1,20.79,20.79v57.91a19.44,19.44,0,0,1-19.44,19.44h0a19.44,19.44,0,0,1-19.44-19.44V277a18.08,18.08,0,0,1,18.08-18.08Z" transform="matrix(0.87, 0.5, -0.5, 0.87, 820.14, -2444.77)"/><rect class="cls-1" x="4800.46" y="-0.58" width="400" height="400"/><rect class="cls-2" x="5018.14" y="163.26" width="31" height="90.63" rx="15.5" transform="translate(1526.47 3825.31) rotate(-48.25)"/><path class="cls-4" d="M4974.19,144.77h48.52a17.62,17.62,0,0,1,17.62,17.62v91.66a41.53,41.53,0,0,1-41.53,41.53h0a41.53,41.53,0,0,1-41.53-41.53V161.69a16.92,16.92,0,0,1,16.92-16.92Z"/><path class="cls-3" d="M5020.58,258.94h0A19.44,19.44,0,0,1,5040,278.38v57.91a20.79,20.79,0,0,1-20.79,20.79h0A18.08,18.08,0,0,1,5001.14,339V278.38a19.44,19.44,0,0,1,19.44-19.44Z" transform="translate(9522.53 -1935.53) rotate(150)"/><g class="cls-17"><use transform="translate(4668 -162) scale(1.28)" xlink:href="#image"/></g><rect class="cls-2" x="4952.72" y="159.89" width="31" height="97.68" rx="15.5" transform="translate(2292.04 -3982.31) rotate(55.03)"/><path class="cls-3" d="M5434.58,258.94h0A19.44,19.44,0,0,1,5454,278.38v57.91a20.79,20.79,0,0,1-20.79,20.79h0A18.08,18.08,0,0,1,5415.14,339V278.38A19.44,19.44,0,0,1,5434.58,258.94Z" transform="translate(10295.07 -2142.53) rotate(150)"/><rect class="cls-1" x="5200.46" y="-0.58" width="400" height="400"/><path class="cls-4" d="M5388.19,144.77h48.52a17.62,17.62,0,0,1,17.62,17.62v91.66a41.53,41.53,0,0,1-41.53,41.53h0a41.53,41.53,0,0,1-41.53-41.53V161.69A16.92,16.92,0,0,1,5388.19,144.77Z"/><g class="cls-18"><use transform="translate(5082 -162) scale(1.28)" xlink:href="#image"/></g><path class="cls-3" d="M5384.72,258.94h0a20.79,20.79,0,0,1,20.79,20.79v57.91a19.44,19.44,0,0,1-19.44,19.44h0a19.44,19.44,0,0,1-19.44-19.44V277a18.08,18.08,0,0,1,18.08-18.08Z" transform="translate(875.6 -2651.77) rotate(30)"/><path class="cls-3" d="M5770.72,258.94h0a20.79,20.79,0,0,1,20.79,20.79v57.91a19.44,19.44,0,0,1-19.44,19.44h0a19.44,19.44,0,0,1-19.44-19.44V277A18.08,18.08,0,0,1,5770.72,258.94Z" transform="translate(927.32 -2844.77) rotate(30)"/><rect class="cls-1" x="5600.46" y="-0.58" width="400" height="400"/><rect class="cls-2" x="5818.14" y="163.26" width="31" height="90.63" rx="15.5" transform="translate(1793.8 4422.19) rotate(-48.25)"/><path class="cls-4" d="M5774.19,144.77h48.52a17.62,17.62,0,0,1,17.62,17.62v91.66a41.53,41.53,0,0,1-41.53,41.53h0a41.53,41.53,0,0,1-41.53-41.53V161.69A16.92,16.92,0,0,1,5774.19,144.77Z"/><path class="cls-3" d="M5820.58,258.94h0A19.44,19.44,0,0,1,5840,278.38v57.91a20.79,20.79,0,0,1-20.79,20.79h0A18.08,18.08,0,0,1,5801.14,339V278.38a19.44,19.44,0,0,1,19.44-19.44Z" transform="translate(11015.36 -2335.53) rotate(150)"/><g class="cls-19"><use transform="translate(5468 -162) scale(1.28)" xlink:href="#image"/></g><rect class="cls-2" x="5752.72" y="159.89" width="31" height="97.68" rx="15.5" transform="translate(2633.57 -4637.91) rotate(55.03)"/><path class="cls-3" d="M6234.58,258.94h0A19.44,19.44,0,0,1,6254,278.38v57.91a20.79,20.79,0,0,1-20.79,20.79h0A18.08,18.08,0,0,1,6215.14,339V278.38a19.44,19.44,0,0,1,19.44-19.44Z" transform="translate(11787.89 -2542.53) rotate(150)"/><rect class="cls-1" x="6000.46" y="-0.58" width="400" height="400"/><path class="cls-4" d="M6188.19,144.77h48.52a17.62,17.62,0,0,1,17.62,17.62v91.66a41.53,41.53,0,0,1-41.53,41.53h0a41.53,41.53,0,0,1-41.53-41.53V161.69a16.92,16.92,0,0,1,16.92-16.92Z"/><g class="cls-20"><use transform="translate(5882 -162) scale(1.28)" xlink:href="#image"/></g><path class="cls-3" d="M6184.72,258.94h0a20.79,20.79,0,0,1,20.79,20.79v57.91a19.44,19.44,0,0,1-19.44,19.44h0a19.44,19.44,0,0,1-19.44-19.44V277a18.08,18.08,0,0,1,18.08-18.08Z" transform="translate(982.78 -3051.77) rotate(30)"/><path class="cls-3" d="M6614.58,258.94h0A19.44,19.44,0,0,1,6634,278.38v57.91a20.79,20.79,0,0,1-20.79,20.79h0A18.08,18.08,0,0,1,6595.14,339V278.38a19.44,19.44,0,0,1,19.44-19.44Z" transform="translate(13229.16 616.02) rotate(-180)"/><rect class="cls-1" x="6400.46" y="-0.58" width="400" height="400"/><path class="cls-4" d="M6576.19,144.77h48.52a17.62,17.62,0,0,1,17.62,17.62v91.66a41.53,41.53,0,0,1-41.53,41.53h0a41.53,41.53,0,0,1-41.53-41.53V161.69A16.92,16.92,0,0,1,6576.19,144.77Z"/><g class="cls-21"><use transform="translate(6268 -162) scale(1.28)" xlink:href="#image"/></g><rect class="cls-2" x="6587.72" y="160.89" width="31" height="97.68" rx="15.5"/><path class="cls-3" d="M6578.72,258.94h0a20.79,20.79,0,0,1,20.79,20.79v57.91a19.44,19.44,0,0,1-19.44,19.44h0a19.44,19.44,0,0,1-19.44-19.44V277a18.08,18.08,0,0,1,18.08-18.08Z"/><rect class="cls-1" x="6800.46" y="-0.58" width="400" height="400"/><path class="cls-3" d="M7014.58,258.94h0A19.44,19.44,0,0,1,7034,278.38v57.91a20.79,20.79,0,0,1-20.79,20.79h0A18.08,18.08,0,0,1,6995.14,339V278.38a19.44,19.44,0,0,1,19.44-19.44Z" transform="translate(14029.16 616.02) rotate(-180)"/><path class="cls-4" d="M6999.19,149.77h48.52a17.62,17.62,0,0,1,17.62,17.62v91.66a41.53,41.53,0,0,1-41.53,41.53h0a41.53,41.53,0,0,1-41.53-41.53V166.69A16.92,16.92,0,0,1,6999.19,149.77Z" transform="translate(2419.15 -5083.47) rotate(47.23)"/><g class="cls-22"><use transform="translate(7098.01 -277) rotate(49.37) scale(1.28)" xlink:href="#image"/></g><rect class="cls-2" x="7070.72" y="206.89" width="31" height="97.68" rx="15.5" transform="translate(404.69 2629.97) rotate(-21.63)"/><path class="cls-3" d="M6978.72,258.94h0a20.79,20.79,0,0,1,20.79,20.79v57.91a19.44,19.44,0,0,1-19.44,19.44h0a19.44,19.44,0,0,1-19.44-19.44V277A18.08,18.08,0,0,1,6978.72,258.94Z"/><rect class="cls-2" x="618.14" y="163.26" width="31" height="90.63" rx="15.5" transform="translate(56.13 542.46) rotate(-48.25)"/><rect class="cls-2" x="1432.14" y="163.26" width="31" height="90.63" rx="15.5" transform="translate(328.14 1149.78) rotate(-48.25)"/><rect class="cls-2" x="2218.14" y="163.26" width="31" height="90.63" rx="15.5" transform="translate(590.8 1736.22) rotate(-48.25)"/><rect class="cls-2" x="3032.14" y="163.26" width="31" height="90.63" rx="15.5" transform="translate(862.81 2343.55) rotate(-48.25)"/><rect class="cls-2" x="3832.14" y="163.26" width="31" height="90.63" rx="15.5" transform="translate(1130.14 2940.43) rotate(-48.25)"/><rect class="cls-2" x="4618.14" y="163.26" width="31" height="90.63" rx="15.5" transform="translate(1392.8 3526.86) rotate(-48.25)"/><rect class="cls-2" x="5432.14" y="163.26" width="31" height="90.63" rx="15.5" transform="translate(1664.81 4134.19) rotate(-48.25)"/><rect class="cls-2" x="6232.14" y="163.26" width="31" height="90.63" rx="15.5" transform="translate(1932.15 4731.07) rotate(-48.25)"/></svg>
