<svg id="Layer_1" data-name="Layer 1" xmlns="http://www.w3.org/2000/svg" width="2000" height="400" viewBox="0 0 2000 400"><defs><style>.cls-1{fill:#603813;}.cls-2{fill:#999;}.cls-3{fill:gray;}.cls-4{fill:#fff;}.cls-5{fill:red;}.cls-6{fill:#0067ff;}.cls-7{fill:none;}</style></defs><title>mus_sprite</title><path class="cls-1" d="M273.29,347.8h0a25.1,25.1,0,0,0,7.9-34.61v0a11.43,11.43,0,0,0-15.76-3.6l-23.18,14.57a11.44,11.44,0,0,0-3.6,15.76h0A25.13,25.13,0,0,0,273.29,347.8Z"/><ellipse class="cls-1" cx="288.01" cy="338.92" rx="7.67" ry="11.83" transform="translate(-155.3 302.92) rotate(-45)"/><ellipse class="cls-1" cx="261.33" cy="353.86" rx="7.61" ry="11.74" transform="translate(-177.58 383.27) rotate(-57.39)"/><ellipse class="cls-1" cx="277.01" cy="346.82" rx="8.94" ry="12.61" transform="translate(-166.55 330.25) rotate(-49.25)"/><path class="cls-1" d="M127.2,347.07h0a25.11,25.11,0,0,1-7.9-34.62v0a11.42,11.42,0,0,1,15.75-3.59l23.19,14.57a11.43,11.43,0,0,1,3.6,15.75h0A25.13,25.13,0,0,1,127.2,347.07Z"/><ellipse class="cls-1" cx="112.48" cy="338.19" rx="11.83" ry="7.67" transform="translate(-206.19 178.59) rotate(-45)"/><ellipse class="cls-1" cx="139.16" cy="353.13" rx="11.74" ry="7.61" transform="translate(-168.38 130.68) rotate(-32.61)"/><ellipse class="cls-1" cx="123.48" cy="346.09" rx="12.61" ry="8.94" transform="translate(-195.99 164.53) rotate(-40.75)"/><path class="cls-2" d="M237,340.94H159.72a57,57,0,0,1-57-57V228.26a99.33,99.33,0,0,1,99.33-99.33h0a92.17,92.17,0,0,1,92.18,92.17v62.6A57.24,57.24,0,0,1,237,340.94Z"/><path class="cls-1" d="M127.2,347.07h0a25.11,25.11,0,0,1-7.9-34.62v0a11.42,11.42,0,0,1,15.75-3.59l23.19,14.57a11.43,11.43,0,0,1,3.6,15.75h0A25.13,25.13,0,0,1,127.2,347.07Z"/><ellipse class="cls-1" cx="112.48" cy="338.19" rx="11.83" ry="7.67" transform="translate(-206.19 178.59) rotate(-45)"/><ellipse class="cls-1" cx="139.16" cy="353.13" rx="11.74" ry="7.61" transform="translate(-168.38 130.68) rotate(-32.61)"/><ellipse class="cls-1" cx="123.48" cy="346.09" rx="12.61" ry="8.94" transform="translate(-195.99 164.53) rotate(-40.75)"/><path class="cls-1" d="M273.29,347.8h0a25.1,25.1,0,0,0,7.9-34.61v0a11.43,11.43,0,0,0-15.76-3.6l-23.18,14.57a11.44,11.44,0,0,0-3.6,15.76h0A25.13,25.13,0,0,0,273.29,347.8Z"/><ellipse class="cls-1" cx="288.01" cy="338.92" rx="7.67" ry="11.83" transform="translate(-155.3 302.92) rotate(-45)"/><ellipse class="cls-1" cx="261.33" cy="353.86" rx="7.61" ry="11.74" transform="translate(-177.58 383.27) rotate(-57.39)"/><ellipse class="cls-1" cx="277.01" cy="346.82" rx="8.94" ry="12.61" transform="translate(-166.55 330.25) rotate(-49.25)"/><path class="cls-3" d="M236.52,340.94h-77a56.86,56.86,0,0,1-56.74-57V228.26c0-54.86,44.3-99.33,99-99.33h0c50.71,0,91.82,41.26,91.82,92.17v62.6A57.12,57.12,0,0,1,236.52,340.94Z"/><path class="cls-2" d="M238.89,340.94H164.1c-30.44,0-55.11-25.15-55.11-56.18V229.81c0-54.1,43-97.95,96.1-97.95h0c49.25,0,89.18,40.69,89.18,90.9v61.73C294.27,315.67,269.47,340.94,238.89,340.94Z"/><path class="cls-4" d="M214,320.06H186.34a51.56,51.56,0,0,1-51.57-51.56v-31a65.41,65.41,0,0,1,65.4-65.4h0a65.41,65.41,0,0,1,65.4,65.4v31A51.55,51.55,0,0,1,214,320.06Z"/><circle class="cls-2" cx="174.53" cy="49.1" r="21.97"/><circle class="cls-2" cx="108.99" cy="89.75" r="21.97"/><circle class="cls-4" cx="116.31" cy="96.34" r="9.52"/><circle class="cls-4" cx="179.29" cy="56.43" r="9.52"/><path class="cls-3" d="M250.89,96c15.69,13.21,49,56.29,42.56,65.76-6.63,9.71-10.36,18-50.84,13.58-16.08-1.75-38.19-4.14-66.77-10.9-32.26-7.63-62-18.34-63.53-47.62S136,61,169.49,59.32,226.88,75.76,250.89,96Z"/><path d="M233.7,127.1a15.64,15.64,0,0,1-15.66-15l-.21-5a10.68,10.68,0,0,1,10.23-11.09l10-.41h.44a10.63,10.63,0,0,1,10.65,10.23l.21,5a15.72,15.72,0,0,1-15.05,16.32Z"/><path d="M238.54,96h0a10.13,10.13,0,0,1,10.15,9.75l.21,5a15.19,15.19,0,0,1-14.57,15.8h-.63A15.14,15.14,0,0,1,218.54,112l-.21-5a10.16,10.16,0,0,1,9.75-10.57l10-.41h.42m0-1h-.46l-10.05.4A11.17,11.17,0,0,0,217.33,107l.21,5A16.18,16.18,0,0,0,233.7,127.6h.67a16.19,16.19,0,0,0,15.52-16.84l-.2-5A11.16,11.16,0,0,0,238.54,95Z"/><path d="M188.86,128.92a15.64,15.64,0,0,1-15.66-15l-.21-5a10.68,10.68,0,0,1,10.23-11.09l10-.4h.44a10.63,10.63,0,0,1,10.65,10.23l.21,5a15.7,15.7,0,0,1-15.05,16.32Z"/><path d="M193.7,97.84h0a10.13,10.13,0,0,1,10.15,9.75l.21,5a15.19,15.19,0,0,1-14.57,15.8h-.63a15.14,15.14,0,0,1-15.16-14.57l-.21-5a10.18,10.18,0,0,1,9.75-10.57l10-.4h.42m0-1h-.46l-10,.41a11.16,11.16,0,0,0-10.71,11.6l.21,5a16.18,16.18,0,0,0,16.16,15.53h.67a16.2,16.2,0,0,0,15.53-16.84l-.21-5A11.16,11.16,0,0,0,193.7,96.84Z"/><rect x="201.23" y="106.42" width="20.14" height="12" transform="translate(-4.39 8.67) rotate(-2.33)"/><path d="M114.56,126.31l-11.8-2.21C107.68,97.79,141.94,103,167,106.87c2.25.35,4.46.69,6.61,1l-1.73,11.87c-2.17-.31-4.41-.66-6.7-1C138.06,114.58,117.14,112.5,114.56,126.31Z"/><path class="cls-2" d="M88.57,228.87H87.41a41.09,41.09,0,0,1-32.47-17.14C44.72,197.9,44,190.31,44.12,180.3a82.57,82.57,0,0,0-2-19.87,18.5,18.5,0,1,1,36.26-7.35,119.31,119.31,0,0,1,2.7,27.59c0,1.37,0,3.07,0,3.55h0s.46,1.36,3.52,5.5c1.43,1.94,2.48,2.12,3.71,2.15,5.34.13,15.41-4.89,24.82-16.29a18.5,18.5,0,0,1,28.53,23.55C126.32,217.83,106.52,228.87,88.57,228.87Z"/><path class="cls-4" d="M278.45,195.37C298.92,218.77,319,249.94,320,264"/><path class="cls-2" d="M319.94,279.54a15.51,15.51,0,0,1-15.46-14.49c-.47-7.21-15.39-34-37.7-59.47a15.5,15.5,0,0,1,23.33-20.41C306.26,203.62,334,240.79,335.42,263A15.49,15.49,0,0,1,321,279.5C320.62,279.53,320.28,279.54,319.94,279.54Z"/><path class="cls-5" d="M84.74,116.58c0,18.93-11.75,30.29-30.68,30.29s-31.49-14.55-31.49-33.48S34.73,88.28,53.66,88.28C72.39,88.28,84.74,97.65,84.74,116.58Z"/><ellipse class="cls-5" cx="52.41" cy="87.18" rx="8.97" ry="3.3"/><ellipse class="cls-5" cx="52.23" cy="82.42" rx="15.38" ry="4.03"/><ellipse cx="52.05" cy="82.24" rx="9.34" ry="0.92"/><path class="cls-6" d="M27.9,146.28a2.93,2.93,0,1,1-5.77-1c.28-1.59,3.05-6,4.8-7.74C27.21,139.66,28.18,144.69,27.9,146.28Z"/><path class="cls-6" d="M39,154.43A2.93,2.93,0,1,1,33.32,156c-.44-1.55.14-6.69.93-9.05C35.44,148.77,38.52,152.87,39,154.43Z"/><ellipse class="cls-4" cx="75.3" cy="117.58" rx="2.2" ry="16.11"/><path class="cls-2" d="M288.19,304.59a7.83,7.83,0,0,1-2.27-.35,7.51,7.51,0,0,1-4.88-9.42c2.37-7.5,8.07-13.82,13.59-19.93,4.45-4.92,9-10,10.43-14.4,4.72-14.93.55-31.1-3.87-48.22-4.75-18.42-9.66-37.46-3.64-56.5,3.64-11.49,11.95-31.54,26.76-36.69,5-1.74,13-2.5,22.31,3.82a7.5,7.5,0,1,1-8.41,12.42c-4.54-3.07-7.29-2.65-9-2.07-6.11,2.13-12.77,12.49-17.38,27.05-4.72,14.93-.55,31.1,3.87,48.22,4.75,18.42,9.66,37.46,3.64,56.49-2.37,7.5-8.08,13.82-13.59,19.93-4.45,4.93-9,10-10.43,14.41A7.52,7.52,0,0,1,288.19,304.59Z"/><path d="M197.23,90.45a4,4,0,0,1-4-4c0-.6-3-3.14-8.91-3.14s-8.9,2.54-8.9,3.14a4,4,0,1,1-8,0c0-6.35,7.27-11.14,16.9-11.14s16.91,4.79,16.91,11.14A4,4,0,0,1,197.23,90.45Z"/><path d="M224.51,96.68a4,4,0,0,1-4-4c0-5.43,5.37-9.68,12.22-9.68S245,87.25,245,92.68a4,4,0,0,1-8,0c-.06-.39-1.49-1.68-4.23-1.68s-4.16,1.29-4.22,1.68A4,4,0,0,1,224.51,96.68Z"/><path class="cls-4" d="M214,320.06H186.34a51.56,51.56,0,0,1-51.57-51.56v-31a65.41,65.41,0,0,1,65.4-65.4h0a65.41,65.41,0,0,1,65.4,65.4v31A51.55,51.55,0,0,1,214,320.06Z"/><path class="cls-2" d="M252.9,93c15.76,12.22,49.13,52.16,42.57,61-6.73,9.08-10.54,16.79-51.34,12.91-16.21-1.54-38.5-3.65-67.29-9.8-32.5-6.93-62.39-16.75-63.82-44s24.2-52,58-53.81S228.79,74.29,252.9,93Z"/><circle class="cls-2" cx="174.53" cy="49.1" r="21.97"/><circle class="cls-2" cx="108.99" cy="89.75" r="21.97"/><circle class="cls-4" cx="116.31" cy="96.34" r="9.52"/><circle class="cls-4" cx="179.29" cy="56.43" r="9.52"/><circle cx="288.22" cy="158.4" r="11.4"/><path d="M288.22,147.5a10.9,10.9,0,1,1-10.9,10.9,10.91,10.91,0,0,1,10.9-10.9m0-1a11.9,11.9,0,1,0,11.9,11.9,11.9,11.9,0,0,0-11.9-11.9Z"/><path d="M233.7,127.1a15.64,15.64,0,0,1-15.66-15l-.21-5a10.68,10.68,0,0,1,10.23-11.09l10-.41h.44a10.63,10.63,0,0,1,10.65,10.23l.21,5a15.72,15.72,0,0,1-15.05,16.32Z"/><path d="M238.54,96h0a10.13,10.13,0,0,1,10.15,9.75l.21,5a15.19,15.19,0,0,1-14.57,15.8h-.63A15.14,15.14,0,0,1,218.54,112l-.21-5a10.16,10.16,0,0,1,9.75-10.57l10-.41h.42m0-1h-.46l-10.05.4A11.17,11.17,0,0,0,217.33,107l.21,5A16.18,16.18,0,0,0,233.7,127.6h.67a16.19,16.19,0,0,0,15.52-16.84l-.2-5A11.16,11.16,0,0,0,238.54,95Z"/><path d="M188.86,128.92a15.64,15.64,0,0,1-15.66-15l-.21-5a10.68,10.68,0,0,1,10.23-11.09l10-.4h.44a10.63,10.63,0,0,1,10.65,10.23l.21,5a15.7,15.7,0,0,1-15.05,16.32Z"/><path d="M193.7,97.84h0a10.13,10.13,0,0,1,10.15,9.75l.21,5a15.19,15.19,0,0,1-14.57,15.8h-.63a15.14,15.14,0,0,1-15.16-14.57l-.21-5a10.18,10.18,0,0,1,9.75-10.57l10-.4h.42m0-1h-.46l-10,.41a11.16,11.16,0,0,0-10.71,11.6l.21,5a16.18,16.18,0,0,0,16.16,15.53h.67a16.2,16.2,0,0,0,15.53-16.84l-.21-5A11.16,11.16,0,0,0,193.7,96.84Z"/><rect x="201.23" y="106.42" width="20.14" height="12" transform="translate(-4.39 8.67) rotate(-2.33)"/><path d="M114.56,126.31l-11.8-2.21C107.68,97.79,141.94,103,167,106.87c2.25.35,4.46.69,6.61,1l-1.73,11.87c-2.17-.31-4.41-.66-6.7-1C138.06,114.58,117.14,112.5,114.56,126.31Z"/><path class="cls-5" d="M84.74,116.58c0,18.93-11.75,30.29-30.68,30.29s-31.49-14.55-31.49-33.48S34.73,88.28,53.66,88.28C72.39,88.28,84.74,97.65,84.74,116.58Z"/><ellipse class="cls-5" cx="52.41" cy="87.18" rx="8.97" ry="3.3"/><ellipse class="cls-5" cx="52.23" cy="82.42" rx="15.38" ry="4.03"/><ellipse cx="52.05" cy="82.24" rx="9.34" ry="0.92"/><path class="cls-6" d="M27.9,146.28a2.93,2.93,0,1,1-5.77-1c.28-1.59,3.05-6,4.8-7.74C27.21,139.66,28.18,144.69,27.9,146.28Z"/><path class="cls-6" d="M39,154.43A2.93,2.93,0,1,1,33.32,156c-.44-1.55.14-6.69.93-9.05C35.44,148.77,38.52,152.87,39,154.43Z"/><ellipse class="cls-4" cx="75.3" cy="117.58" rx="2.2" ry="16.11"/><path class="cls-2" d="M288.19,304.59a7.83,7.83,0,0,1-2.27-.35,7.51,7.51,0,0,1-4.88-9.42c2.37-7.5,8.07-13.82,13.59-19.93,4.45-4.92,9-10,10.43-14.4,4.72-14.93.55-31.1-3.87-48.22-4.75-18.42-9.66-37.46-3.64-56.5,3.64-11.49,11.95-31.54,26.76-36.69,5-1.74,13-2.5,22.31,3.82a7.5,7.5,0,1,1-8.41,12.42c-4.54-3.07-7.29-2.65-9-2.07-6.11,2.13-12.77,12.49-17.38,27.05-4.72,14.93-.55,31.1,3.87,48.22,4.75,18.42,9.66,37.46,3.64,56.49-2.37,7.5-8.08,13.82-13.59,19.93-4.45,4.93-9,10-10.43,14.41A7.52,7.52,0,0,1,288.19,304.59Z"/><path d="M197.23,90.45a4,4,0,0,1-4-4c0-.6-3-3.14-8.91-3.14s-8.9,2.54-8.9,3.14a4,4,0,1,1-8,0c0-6.35,7.27-11.14,16.9-11.14s16.91,4.79,16.91,11.14A4,4,0,0,1,197.23,90.45Z"/><path d="M234.44,173.91a2.55,2.55,0,0,1-.72-.1,2.52,2.52,0,0,1-1.68-3.12,19.44,19.44,0,0,1,9.42-11.33,23.15,23.15,0,0,1,12.93-3.05c.41,0,.75,0,1,0a2.5,2.5,0,1,1,.3,5c-.37,0-.84,0-1.41,0A18.37,18.37,0,0,0,244,163.68c-3.74,2.17-6.07,4.93-7.13,8.45A2.5,2.5,0,0,1,234.44,173.91Z"/><path d="M245,179.5a1.42,1.42,0,0,1-.29,0,2.49,2.49,0,0,1-2.2-2.76,17,17,0,0,1,6.34-11.23,20.3,20.3,0,0,1,10.63-4.61c.33,0,.61-.09.82-.14a2.5,2.5,0,1,1,1.18,4.85c-.31.08-.72.15-1.22.23a15.43,15.43,0,0,0-8.18,3.49,12,12,0,0,0-4.6,8A2.5,2.5,0,0,1,245,179.5Z"/><path d="M278,137.66a2.5,2.5,0,0,1-2-4A19.44,19.44,0,0,1,289,126.54a23.17,23.17,0,0,1,13.14,1.93c.38.16.69.3.94.38a2.5,2.5,0,0,1-1.56,4.75c-.35-.11-.79-.3-1.32-.52a18.35,18.35,0,0,0-10.47-1.6c-4.28.63-7.46,2.34-9.74,5.23A2.53,2.53,0,0,1,278,137.66Z"/><path d="M285.8,146.76a2.5,2.5,0,0,1-2.2-3.68,17,17,0,0,1,10-8.1,20.29,20.29,0,0,1,11.58-.37c.33.08.6.14.82.17a2.5,2.5,0,1,1-.7,4.95c-.32,0-.72-.13-1.21-.24a15.47,15.47,0,0,0-8.89.23,12,12,0,0,0-7.22,5.72A2.51,2.51,0,0,1,285.8,146.76Z"/><path d="M224.51,96.68a4,4,0,0,1-4-4c0-5.43,5.37-9.68,12.22-9.68S245,87.25,245,92.68a4,4,0,0,1-8,0c-.06-.39-1.49-1.68-4.23-1.68s-4.16,1.29-4.22,1.68A4,4,0,0,1,224.51,96.68Z"/><path d="M133.42,83.72a9,9,0,0,1-4.84-1.42,10.58,10.58,0,0,1-4.69-6.75c-1.15-5.43,1.86-10,5.34-15.25a60.12,60.12,0,0,0,4.52-7.6,9,9,0,1,1,16.38,7.45,74.18,74.18,0,0,1-5.88,10.07c-.62.94-1.37,2.07-1.95,3a9,9,0,0,1-8.88,10.49Zm4.85-16.59h0Z"/><path d="M133.84,83.75a9,9,0,0,1-7-14.64c3.29-4.09,8.38-5.86,13.31-7.58,3.09-1.08,6.29-2.19,8.23-3.6A9,9,0,0,1,158.94,72.5c-4.09,3-8.76,4.59-12.88,6a38.64,38.64,0,0,0-5.47,2.18A9,9,0,0,1,133.84,83.75Z"/><path d="M133,83.71a9,9,0,0,1-8.86-7.52c-1.68-10.08,6.77-15,12.94-18.69a64.59,64.59,0,0,0,8.32-5.5,9,9,0,1,1,11.35,14,80.6,80.6,0,0,1-10.54,7c-1.39.82-3.17,1.87-4.24,2.64a9,9,0,0,1-7.48,7.94A9.45,9.45,0,0,1,133,83.71Z"/><path class="cls-1" d="M673.29,350.8h0a25.1,25.1,0,0,0,7.9-34.61v0a11.43,11.43,0,0,0-15.76-3.6l-23.18,14.57a11.44,11.44,0,0,0-3.6,15.76h0A25.13,25.13,0,0,0,673.29,350.8Z"/><ellipse class="cls-1" cx="688.01" cy="341.92" rx="7.67" ry="11.83" transform="translate(-40.26 586.64) rotate(-45)"/><ellipse class="cls-1" cx="661.33" cy="356.86" rx="7.61" ry="11.74" transform="translate(4.3 721.58) rotate(-57.39)"/><ellipse class="cls-1" cx="677.01" cy="349.82" rx="8.94" ry="12.61" transform="translate(-29.95 634.3) rotate(-49.25)"/><path class="cls-1" d="M527.2,350.07h0a25.11,25.11,0,0,1-7.9-34.62v0a11.42,11.42,0,0,1,15.75-3.59l23.19,14.57a11.43,11.43,0,0,1,3.6,15.75h0A25.13,25.13,0,0,1,527.2,350.07Z"/><ellipse class="cls-1" cx="512.48" cy="341.19" rx="11.83" ry="7.67" transform="translate(-91.15 462.31) rotate(-45)"/><ellipse class="cls-1" cx="539.16" cy="356.13" rx="11.74" ry="7.61" transform="translate(-106.93 346.74) rotate(-32.61)"/><ellipse class="cls-1" cx="523.48" cy="349.09" rx="12.61" ry="8.94" transform="translate(-100.96 426.38) rotate(-40.75)"/><path class="cls-2" d="M637,343.94H559.72a57,57,0,0,1-57-57V231.26a99.33,99.33,0,0,1,99.33-99.33h0a92.17,92.17,0,0,1,92.18,92.17v62.6A57.24,57.24,0,0,1,637,343.94Z"/><path class="cls-1" d="M527.2,350.07h0a25.11,25.11,0,0,1-7.9-34.62v0a11.42,11.42,0,0,1,15.75-3.59l23.19,14.57a11.43,11.43,0,0,1,3.6,15.75h0A25.13,25.13,0,0,1,527.2,350.07Z"/><ellipse class="cls-1" cx="512.48" cy="341.19" rx="11.83" ry="7.67" transform="translate(-91.15 462.31) rotate(-45)"/><ellipse class="cls-1" cx="539.16" cy="356.13" rx="11.74" ry="7.61" transform="translate(-106.93 346.74) rotate(-32.61)"/><ellipse class="cls-1" cx="523.48" cy="349.09" rx="12.61" ry="8.94" transform="translate(-100.96 426.38) rotate(-40.75)"/><path class="cls-1" d="M673.29,350.8h0a25.1,25.1,0,0,0,7.9-34.61v0a11.43,11.43,0,0,0-15.76-3.6l-23.18,14.57a11.44,11.44,0,0,0-3.6,15.76h0A25.13,25.13,0,0,0,673.29,350.8Z"/><ellipse class="cls-1" cx="688.01" cy="341.92" rx="7.67" ry="11.83" transform="translate(-40.26 586.64) rotate(-45)"/><ellipse class="cls-1" cx="661.33" cy="356.86" rx="7.61" ry="11.74" transform="translate(4.3 721.58) rotate(-57.39)"/><ellipse class="cls-1" cx="677.01" cy="349.82" rx="8.94" ry="12.61" transform="translate(-29.95 634.3) rotate(-49.25)"/><path class="cls-3" d="M636.52,343.94h-77a56.86,56.86,0,0,1-56.74-57V231.26c0-54.86,44.3-99.33,99-99.33h0c50.71,0,91.82,41.26,91.82,92.17v62.6A57.12,57.12,0,0,1,636.52,343.94Z"/><path class="cls-2" d="M638.89,343.94H564.1c-30.44,0-55.11-25.15-55.11-56.18V232.81c0-54.1,43-97.95,96.1-97.95h0c49.25,0,89.18,40.69,89.18,90.9v61.73C694.27,318.67,669.47,343.94,638.89,343.94Z"/><path class="cls-4" d="M614,323.06H586.34a51.56,51.56,0,0,1-51.57-51.56v-31a65.41,65.41,0,0,1,65.4-65.4h0a65.41,65.41,0,0,1,65.4,65.4v31A51.55,51.55,0,0,1,614,323.06Z"/><circle class="cls-2" cx="574.53" cy="52.1" r="21.97"/><circle class="cls-2" cx="508.99" cy="92.75" r="21.97"/><circle class="cls-4" cx="516.31" cy="99.34" r="9.52"/><circle class="cls-4" cx="579.29" cy="59.43" r="9.52"/><path class="cls-3" d="M650.89,99c15.69,13.21,49,56.29,42.56,65.76-6.63,9.71-10.36,18-50.84,13.58-16.08-1.75-38.19-4.14-66.77-10.9-32.26-7.63-62-18.34-63.53-47.62S536,64,569.49,62.32,626.88,78.76,650.89,99Z"/><path d="M633.7,130.1a15.64,15.64,0,0,1-15.66-15l-.21-5a10.68,10.68,0,0,1,10.23-11.09l10-.41h.44a10.63,10.63,0,0,1,10.65,10.23l.21,5a15.72,15.72,0,0,1-15,16.32Z"/><path d="M638.54,99h0a10.13,10.13,0,0,1,10.15,9.75l.21,5a15.19,15.19,0,0,1-14.57,15.8h-.63A15.14,15.14,0,0,1,618.54,115l-.21-5a10.18,10.18,0,0,1,9.75-10.57l10-.41h.42m0-1h-.46l-10.05.4A11.17,11.17,0,0,0,617.33,110l.21,5A16.18,16.18,0,0,0,633.7,130.6h.67a16.19,16.19,0,0,0,15.52-16.84l-.2-5A11.16,11.16,0,0,0,638.54,98Z"/><path d="M588.86,131.92a15.64,15.64,0,0,1-15.66-15l-.21-5a10.68,10.68,0,0,1,10.23-11.09l10-.4h.44a10.63,10.63,0,0,1,10.65,10.23l.21,5a15.7,15.7,0,0,1-15,16.32Z"/><path d="M593.7,100.84h0a10.13,10.13,0,0,1,10.15,9.75l.21,5a15.19,15.19,0,0,1-14.57,15.8h-.63a15.14,15.14,0,0,1-15.16-14.57l-.21-5a10.18,10.18,0,0,1,9.75-10.57l10-.4h.42m0-1h-.46l-10,.41a11.16,11.16,0,0,0-10.71,11.6l.21,5a16.18,16.18,0,0,0,16.16,15.53h.67a16.2,16.2,0,0,0,15.53-16.84l-.21-5A11.16,11.16,0,0,0,593.7,99.84Z"/><rect x="601.23" y="109.42" width="20.14" height="12" transform="translate(-4.18 24.92) rotate(-2.33)"/><path d="M514.56,129.31l-11.8-2.21c4.93-26.31,39.18-21.06,64.19-17.23,2.25.35,4.46.69,6.61,1l-1.73,11.87c-2.17-.31-4.41-.66-6.7-1C538.06,117.58,517.14,115.5,514.56,129.31Z"/><path class="cls-2" d="M468.26,233.86c-9.62,0-18.66-1.87-26.1-6.23-8.73-5.11-27.27-21.06-11.69-58.76.59-1.67,1.06-3,1.46-4.18,2.54-7.33,3.12-8.58,6.89-14.79,1.91-3.14,5.09-8.39,10.83-18.52a18.5,18.5,0,1,1,32.19,18.24c-6,10.62-9.38,16.16-11.38,19.47a27,27,0,0,0-3.57,7.72c-.46,1.31-1,2.89-1.7,4.85-.11.33-.24.67-.38,1-3.29,7.85-3.45,11.9-3.35,13.35,2.73,1.08,11.11,1.77,24.08-2.12,13.33-4,24-10.67,27.36-14.91a18.5,18.5,0,0,1,29.16,22.77C529.37,218,496.33,233.86,468.26,233.86Z"/><path class="cls-4" d="M678.45,198.37C698.92,221.77,719,252.94,720,267"/><path class="cls-2" d="M719.94,282.54a15.51,15.51,0,0,1-15.46-14.49c-.47-7.21-15.39-34-37.7-59.47a15.5,15.5,0,0,1,23.33-20.41C706.26,206.62,734,243.79,735.42,266A15.49,15.49,0,0,1,721,282.5C720.62,282.53,720.28,282.54,719.94,282.54Z"/><path class="cls-2" d="M688.19,307.59a7.83,7.83,0,0,1-2.27-.35,7.51,7.51,0,0,1-4.88-9.42c2.37-7.5,8.07-13.82,13.59-19.93,4.45-4.92,9-10,10.43-14.4,4.72-14.93.55-31.1-3.87-48.22-4.75-18.42-9.66-37.46-3.64-56.5,3.64-11.49,12-31.54,26.76-36.69,5-1.74,13-2.5,22.31,3.82a7.5,7.5,0,1,1-8.41,12.42c-4.53-3.07-7.3-2.65-9-2.07-6.11,2.13-12.77,12.49-17.38,27.05-4.72,14.93-.55,31.1,3.87,48.22,4.75,18.42,9.66,37.46,3.64,56.49-2.37,7.5-8.08,13.82-13.59,19.93-4.45,4.93-9,10-10.43,14.41A7.52,7.52,0,0,1,688.19,307.59Z"/><path d="M597.23,93.45a4,4,0,0,1-4-4c0-.6-3-3.14-8.91-3.14s-8.9,2.54-8.9,3.14a4,4,0,1,1-8,0c0-6.35,7.27-11.14,16.9-11.14s16.91,4.79,16.91,11.14A4,4,0,0,1,597.23,93.45Z"/><path d="M624.51,99.68a4,4,0,0,1-4-4c0-5.43,5.37-9.68,12.22-9.68S645,90.25,645,95.68a4,4,0,1,1-8,0c-.06-.39-1.49-1.68-4.23-1.68s-4.16,1.29-4.22,1.68A4,4,0,0,1,624.51,99.68Z"/><path class="cls-4" d="M614,323.06H586.34a51.56,51.56,0,0,1-51.57-51.56v-31a65.41,65.41,0,0,1,65.4-65.4h0a65.41,65.41,0,0,1,65.4,65.4v31A51.55,51.55,0,0,1,614,323.06Z"/><path class="cls-2" d="M652.9,96c15.76,12.22,49.13,52.16,42.57,61-6.73,9.08-10.54,16.79-51.34,12.91-16.21-1.54-38.5-3.65-67.29-9.8-32.5-6.93-62.39-16.75-63.82-44s24.2-52,58-53.81S628.79,77.29,652.9,96Z"/><circle class="cls-2" cx="574.53" cy="52.1" r="21.97"/><circle class="cls-2" cx="508.99" cy="92.75" r="21.97"/><circle class="cls-4" cx="516.31" cy="99.34" r="9.52"/><circle class="cls-4" cx="579.29" cy="59.43" r="9.52"/><circle cx="688.22" cy="161.4" r="11.4"/><path d="M688.22,150.5a10.9,10.9,0,1,1-10.9,10.9,10.91,10.91,0,0,1,10.9-10.9m0-1a11.9,11.9,0,1,0,11.9,11.9,11.9,11.9,0,0,0-11.9-11.9Z"/><path d="M633.7,130.1a15.64,15.64,0,0,1-15.66-15l-.21-5a10.68,10.68,0,0,1,10.23-11.09l10-.41h.44a10.63,10.63,0,0,1,10.65,10.23l.21,5a15.72,15.72,0,0,1-15,16.32Z"/><path d="M638.54,99h0a10.13,10.13,0,0,1,10.15,9.75l.21,5a15.19,15.19,0,0,1-14.57,15.8h-.63A15.14,15.14,0,0,1,618.54,115l-.21-5a10.18,10.18,0,0,1,9.75-10.57l10-.41h.42m0-1h-.46l-10.05.4A11.17,11.17,0,0,0,617.33,110l.21,5A16.18,16.18,0,0,0,633.7,130.6h.67a16.19,16.19,0,0,0,15.52-16.84l-.2-5A11.16,11.16,0,0,0,638.54,98Z"/><path d="M588.86,131.92a15.64,15.64,0,0,1-15.66-15l-.21-5a10.68,10.68,0,0,1,10.23-11.09l10-.4h.44a10.63,10.63,0,0,1,10.65,10.23l.21,5a15.7,15.7,0,0,1-15,16.32Z"/><path d="M593.7,100.84h0a10.13,10.13,0,0,1,10.15,9.75l.21,5a15.19,15.19,0,0,1-14.57,15.8h-.63a15.14,15.14,0,0,1-15.16-14.57l-.21-5a10.18,10.18,0,0,1,9.75-10.57l10-.4h.42m0-1h-.46l-10,.41a11.16,11.16,0,0,0-10.71,11.6l.21,5a16.18,16.18,0,0,0,16.16,15.53h.67a16.2,16.2,0,0,0,15.53-16.84l-.21-5A11.16,11.16,0,0,0,593.7,99.84Z"/><rect x="601.23" y="109.42" width="20.14" height="12" transform="translate(-4.18 24.92) rotate(-2.33)"/><path d="M514.56,129.31l-11.8-2.21c4.93-26.31,39.18-21.06,64.19-17.23,2.25.35,4.46.69,6.61,1l-1.73,11.87c-2.17-.31-4.41-.66-6.7-1C538.06,117.58,517.14,115.5,514.56,129.31Z"/><path class="cls-5" d="M513.74,122.58c0,18.93-11.75,30.29-30.68,30.29s-31.49-14.55-31.49-33.48,12.16-25.11,31.09-25.11C501.39,94.28,513.74,103.65,513.74,122.58Z"/><ellipse class="cls-5" cx="481.41" cy="93.18" rx="8.97" ry="3.3"/><ellipse class="cls-5" cx="481.23" cy="88.42" rx="15.38" ry="4.03"/><ellipse cx="481.05" cy="88.24" rx="9.34" ry="0.92"/><ellipse class="cls-4" cx="504.3" cy="123.58" rx="2.2" ry="16.11"/><path class="cls-5" d="M513.74,122.58c0,18.93-11.75,30.29-30.68,30.29s-31.49-14.55-31.49-33.48,12.16-25.11,31.09-25.11C501.39,94.28,513.74,103.65,513.74,122.58Z"/><ellipse class="cls-5" cx="481.41" cy="93.18" rx="8.97" ry="3.3"/><ellipse class="cls-5" cx="481.23" cy="88.42" rx="15.38" ry="4.03"/><ellipse cx="481.05" cy="88.24" rx="9.34" ry="0.92"/><path class="cls-6" d="M456.9,152.28a2.93,2.93,0,0,1-5.77-1c.28-1.59,3.05-6,4.8-7.74C456.21,145.66,457.18,150.69,456.9,152.28Z"/><path class="cls-6" d="M468,160.43a2.93,2.93,0,1,1-5.64,1.59c-.44-1.55.14-6.69.93-9.05C464.44,154.77,467.52,158.87,468,160.43Z"/><ellipse class="cls-4" cx="504.3" cy="123.58" rx="2.2" ry="16.11"/><path class="cls-2" d="M688.19,307.59a7.83,7.83,0,0,1-2.27-.35,7.51,7.51,0,0,1-4.88-9.42c2.37-7.5,8.07-13.82,13.59-19.93,4.45-4.92,9-10,10.43-14.4,4.72-14.93.55-31.1-3.87-48.22-4.75-18.42-9.66-37.46-3.64-56.5,3.64-11.49,12-31.54,26.76-36.69,5-1.74,13-2.5,22.31,3.82a7.5,7.5,0,1,1-8.41,12.42c-4.53-3.07-7.3-2.65-9-2.07-6.11,2.13-12.77,12.49-17.38,27.05-4.72,14.93-.55,31.1,3.87,48.22,4.75,18.42,9.66,37.46,3.64,56.49-2.37,7.5-8.08,13.82-13.59,19.93-4.45,4.93-9,10-10.43,14.41A7.52,7.52,0,0,1,688.19,307.59Z"/><path d="M597.23,93.45a4,4,0,0,1-4-4c0-.6-3-3.14-8.91-3.14s-8.9,2.54-8.9,3.14a4,4,0,1,1-8,0c0-6.35,7.27-11.14,16.9-11.14s16.91,4.79,16.91,11.14A4,4,0,0,1,597.23,93.45Z"/><path d="M634.44,176.91a2.55,2.55,0,0,1-.72-.1,2.52,2.52,0,0,1-1.68-3.12,19.44,19.44,0,0,1,9.42-11.33,23.15,23.15,0,0,1,12.93-3.05c.41,0,.75,0,1,0a2.5,2.5,0,1,1,.3,5c-.37,0-.84,0-1.41,0A18.37,18.37,0,0,0,644,166.68c-3.74,2.17-6.07,4.93-7.13,8.45A2.5,2.5,0,0,1,634.44,176.91Z"/><path d="M645,182.5a1.42,1.42,0,0,1-.29,0,2.49,2.49,0,0,1-2.2-2.76,17,17,0,0,1,6.34-11.23,20.3,20.3,0,0,1,10.63-4.61c.33,0,.61-.09.82-.14a2.5,2.5,0,1,1,1.18,4.85c-.31.08-.72.15-1.22.23a15.43,15.43,0,0,0-8.18,3.49,12,12,0,0,0-4.6,8A2.5,2.5,0,0,1,645,182.5Z"/><path d="M678,140.66a2.5,2.5,0,0,1-2-4A19.44,19.44,0,0,1,689,129.54a23.17,23.17,0,0,1,13.14,1.93c.38.16.69.3.94.38a2.5,2.5,0,0,1-1.56,4.75c-.35-.11-.79-.3-1.32-.52a18.44,18.44,0,0,0-10.47-1.6c-4.28.63-7.46,2.34-9.74,5.23A2.53,2.53,0,0,1,678,140.66Z"/><path d="M685.8,149.76a2.5,2.5,0,0,1-2.2-3.68,17,17,0,0,1,10-8.1,20.29,20.29,0,0,1,11.58-.37c.33.08.6.14.82.17a2.51,2.51,0,0,1,2.13,2.83,2.48,2.48,0,0,1-2.83,2.12c-.32,0-.72-.13-1.21-.24a15.47,15.47,0,0,0-8.89.23,12,12,0,0,0-7.22,5.72A2.51,2.51,0,0,1,685.8,149.76Z"/><path d="M624.51,99.68a4,4,0,0,1-4-4c0-5.43,5.37-9.68,12.22-9.68S645,90.25,645,95.68a4,4,0,1,1-8,0c-.06-.39-1.49-1.68-4.23-1.68s-4.16,1.29-4.22,1.68A4,4,0,0,1,624.51,99.68Z"/><path d="M533.42,86.72a9,9,0,0,1-4.84-1.42,10.58,10.58,0,0,1-4.69-6.75c-1.15-5.43,1.86-10,5.34-15.25a60.12,60.12,0,0,0,4.52-7.6,9,9,0,1,1,16.38,7.45,74.18,74.18,0,0,1-5.88,10.07c-.62.94-1.37,2.07-2,3a9,9,0,0,1-8.88,10.49Zm4.85-16.59h0Z"/><path d="M533.84,86.75a9,9,0,0,1-7-14.64c3.29-4.09,8.38-5.86,13.31-7.58,3.09-1.08,6.29-2.19,8.23-3.6A9,9,0,1,1,558.94,75.5c-4.09,3-8.76,4.59-12.88,6a38.64,38.64,0,0,0-5.47,2.18A9,9,0,0,1,533.84,86.75Z"/><path d="M533,86.71a9,9,0,0,1-8.86-7.52c-1.68-10.08,6.77-15,12.94-18.69a64.59,64.59,0,0,0,8.32-5.5,9,9,0,0,1,11.35,14,80.6,80.6,0,0,1-10.54,7c-1.39.82-3.17,1.87-4.24,2.64a9,9,0,0,1-7.48,7.94A9.45,9.45,0,0,1,533,86.71Z"/><path class="cls-1" d="M1073.29,348.8h0a25.1,25.1,0,0,0,7.9-34.61v0a11.43,11.43,0,0,0-15.76-3.6l-23.18,14.57a11.44,11.44,0,0,0-3.6,15.76h0A25.13,25.13,0,0,0,1073.29,348.8Z"/><ellipse class="cls-1" cx="1088.01" cy="339.92" rx="7.67" ry="11.83" transform="translate(78.31 868.9) rotate(-45)"/><ellipse class="cls-1" cx="1061.33" cy="354.86" rx="7.61" ry="11.74" transform="translate(190.41 1057.59) rotate(-57.39)"/><ellipse class="cls-1" cx="1077.01" cy="347.82" rx="8.94" ry="12.61" transform="translate(110.44 936.62) rotate(-49.25)"/><path class="cls-1" d="M927.2,348.07h0a25.11,25.11,0,0,1-7.9-34.62v0a11.42,11.42,0,0,1,15.75-3.59l23.19,14.57a11.43,11.43,0,0,1,3.6,15.75h0A25.13,25.13,0,0,1,927.2,348.07Z"/><ellipse class="cls-1" cx="912.48" cy="339.19" rx="11.83" ry="7.67" transform="translate(27.42 744.57) rotate(-45)"/><ellipse class="cls-1" cx="939.16" cy="354.13" rx="11.74" ry="7.61" transform="translate(-42.78 562) rotate(-32.61)"/><ellipse class="cls-1" cx="923.48" cy="347.09" rx="12.61" ry="8.94" transform="translate(-2.66 687.02) rotate(-40.75)"/><path class="cls-2" d="M1037,341.94H959.72a57,57,0,0,1-57-57V229.26a99.33,99.33,0,0,1,99.33-99.33h0a92.17,92.17,0,0,1,92.18,92.17v62.6A57.24,57.24,0,0,1,1037,341.94Z"/><path class="cls-1" d="M927.2,348.07h0a25.11,25.11,0,0,1-7.9-34.62v0a11.42,11.42,0,0,1,15.75-3.59l23.19,14.57a11.43,11.43,0,0,1,3.6,15.75h0A25.13,25.13,0,0,1,927.2,348.07Z"/><ellipse class="cls-1" cx="912.48" cy="339.19" rx="11.83" ry="7.67" transform="translate(27.42 744.57) rotate(-45)"/><ellipse class="cls-1" cx="939.16" cy="354.13" rx="11.74" ry="7.61" transform="translate(-42.78 562) rotate(-32.61)"/><ellipse class="cls-1" cx="923.48" cy="347.09" rx="12.61" ry="8.94" transform="translate(-2.66 687.02) rotate(-40.75)"/><path class="cls-1" d="M1073.29,348.8h0a25.1,25.1,0,0,0,7.9-34.61v0a11.43,11.43,0,0,0-15.76-3.6l-23.18,14.57a11.44,11.44,0,0,0-3.6,15.76h0A25.13,25.13,0,0,0,1073.29,348.8Z"/><ellipse class="cls-1" cx="1088.01" cy="339.92" rx="7.67" ry="11.83" transform="translate(78.31 868.9) rotate(-45)"/><ellipse class="cls-1" cx="1061.33" cy="354.86" rx="7.61" ry="11.74" transform="translate(190.41 1057.59) rotate(-57.39)"/><ellipse class="cls-1" cx="1077.01" cy="347.82" rx="8.94" ry="12.61" transform="translate(110.44 936.62) rotate(-49.25)"/><path class="cls-3" d="M1036.52,341.94h-77a56.86,56.86,0,0,1-56.74-57V229.26c0-54.86,44.3-99.33,99-99.33h0c50.71,0,91.82,41.26,91.82,92.17v62.6A57.12,57.12,0,0,1,1036.52,341.94Z"/><path class="cls-2" d="M1038.89,341.94H964.1c-30.44,0-55.11-25.15-55.11-56.18V230.81c0-54.1,43-97.95,96.1-97.95h0c49.25,0,89.18,40.69,89.18,90.9v61.73C1094.27,316.67,1069.47,341.94,1038.89,341.94Z"/><path class="cls-4" d="M1014,321.06H986.34a51.56,51.56,0,0,1-51.57-51.56v-31a65.41,65.41,0,0,1,65.4-65.4h0a65.41,65.41,0,0,1,65.4,65.4v31A51.55,51.55,0,0,1,1014,321.06Z"/><circle class="cls-2" cx="974.53" cy="50.1" r="21.97"/><circle class="cls-2" cx="908.99" cy="90.75" r="21.97"/><circle class="cls-4" cx="916.31" cy="97.34" r="9.52"/><circle class="cls-4" cx="979.29" cy="57.43" r="9.52"/><path class="cls-3" d="M1050.89,97c15.69,13.21,49,56.29,42.56,65.76-6.63,9.71-10.36,18-50.84,13.58-16.08-1.75-38.19-4.14-66.77-10.9-32.26-7.63-62-18.34-63.53-47.62S936,62,969.49,60.32,1026.88,76.76,1050.89,97Z"/><path d="M1033.7,128.1a15.64,15.64,0,0,1-15.66-15l-.21-5a10.68,10.68,0,0,1,10.23-11.09l10-.41h.44a10.63,10.63,0,0,1,10.65,10.23l.2,5a15.7,15.7,0,0,1-15,16.32Z"/><path d="M1038.54,97h0a10.13,10.13,0,0,1,10.15,9.75l.21,5a15.19,15.19,0,0,1-14.57,15.8h-.63A15.14,15.14,0,0,1,1018.54,113l-.21-5a10.18,10.18,0,0,1,9.75-10.57l10-.41h.42m0-1h-.46l-10,.4a11.17,11.17,0,0,0-10.7,11.61l.21,5a16.18,16.18,0,0,0,16.16,15.53h.67a16.19,16.19,0,0,0,15.52-16.84l-.2-5A11.16,11.16,0,0,0,1038.54,96Z"/><path d="M988.86,129.92a15.64,15.64,0,0,1-15.66-15l-.21-5a10.68,10.68,0,0,1,10.23-11.09l10-.4h.44a10.63,10.63,0,0,1,10.65,10.23l.21,5a15.7,15.7,0,0,1-15,16.32Z"/><path d="M993.7,98.84h0a10.13,10.13,0,0,1,10.15,9.75l.21,5a15.19,15.19,0,0,1-14.57,15.8h-.63a15.14,15.14,0,0,1-15.16-14.57l-.21-5a10.18,10.18,0,0,1,9.75-10.57l10-.4h.42m0-1h-.46l-10,.41a11.16,11.16,0,0,0-10.71,11.6l.21,5a16.18,16.18,0,0,0,16.16,15.53h.67a16.2,16.2,0,0,0,15.53-16.84l-.21-5A11.16,11.16,0,0,0,993.7,97.84Z"/><rect x="1001.23" y="107.42" width="20.14" height="12" transform="translate(-3.77 41.08) rotate(-2.32)"/><path d="M914.56,127.31l-11.8-2.21C907.69,98.79,941.94,104,967,107.87c2.25.35,4.46.69,6.61,1l-1.73,11.87c-2.17-.31-4.41-.66-6.7-1C938.06,115.58,917.14,113.5,914.56,127.31Z"/><path class="cls-2" d="M882.53,231.34a35.66,35.66,0,0,1-11.37-1.74c-11.86-4-19.27-14.1-19.83-27.08-1.21-28.08,19.51-60.5,51.56-80.68a18.51,18.51,0,0,1,19.72,31.32C904,164.88,892.68,180.84,889.33,193a57.06,57.06,0,0,0,23.89-16.46,18.5,18.5,0,1,1,28.53,23.55C927.87,217,903,231.34,882.53,231.34Z"/><path class="cls-4" d="M1078.45,196.37c20.47,23.4,40.58,54.57,41.5,68.67"/><path class="cls-2" d="M1119.94,280.54a15.51,15.51,0,0,1-15.46-14.49c-.47-7.21-15.39-34-37.7-59.47a15.5,15.5,0,1,1,23.33-20.41c16.15,18.45,43.85,55.61,45.31,77.85A15.49,15.49,0,0,1,1121,280.5C1120.62,280.53,1120.28,280.54,1119.94,280.54Z"/><path class="cls-2" d="M1088.19,305.59a7.83,7.83,0,0,1-2.27-.35,7.52,7.52,0,0,1-4.89-9.42c2.38-7.5,8.08-13.82,13.6-19.93,4.45-4.92,9-10,10.43-14.4,4.72-14.93.55-31.1-3.87-48.22-4.75-18.42-9.66-37.46-3.64-56.5,3.64-11.49,12-31.54,26.76-36.69,5-1.74,13-2.5,22.31,3.82a7.5,7.5,0,1,1-8.41,12.42c-4.54-3.07-7.3-2.65-9-2.07-6.11,2.13-12.77,12.49-17.38,27.05-4.72,14.93-.55,31.1,3.87,48.22,4.75,18.42,9.66,37.46,3.64,56.49-2.37,7.5-8.08,13.82-13.59,19.93-4.45,4.93-9,10-10.43,14.41A7.52,7.52,0,0,1,1088.19,305.59Z"/><path d="M997.23,91.45a4,4,0,0,1-4-4c0-.6-3-3.14-8.91-3.14s-8.9,2.54-8.9,3.14a4,4,0,0,1-8,0c0-6.35,7.27-11.14,16.9-11.14s16.91,4.79,16.91,11.14A4,4,0,0,1,997.23,91.45Z"/><path d="M1024.51,97.68a4,4,0,0,1-4-4c0-5.43,5.37-9.68,12.22-9.68S1045,88.25,1045,93.68a4,4,0,1,1-8,0c-.06-.39-1.49-1.68-4.23-1.68s-4.16,1.29-4.22,1.68A4,4,0,0,1,1024.51,97.68Z"/><path class="cls-4" d="M1014,321.06H986.34a51.56,51.56,0,0,1-51.57-51.56v-31a65.41,65.41,0,0,1,65.4-65.4h0a65.41,65.41,0,0,1,65.4,65.4v31A51.55,51.55,0,0,1,1014,321.06Z"/><path class="cls-2" d="M1052.9,94c15.76,12.22,49.13,52.16,42.57,61-6.73,9.08-10.54,16.79-51.34,12.91-16.21-1.54-38.5-3.65-67.29-9.8-32.5-6.93-62.39-16.75-63.82-44s24.2-52,58-53.81S1028.79,75.29,1052.9,94Z"/><circle class="cls-2" cx="974.53" cy="50.1" r="21.97"/><circle class="cls-2" cx="908.99" cy="90.75" r="21.97"/><circle class="cls-4" cx="916.31" cy="97.34" r="9.52"/><circle class="cls-4" cx="979.29" cy="57.43" r="9.52"/><circle cx="1088.22" cy="159.4" r="11.4"/><path d="M1088.22,148.5a10.9,10.9,0,1,1-10.9,10.9,10.91,10.91,0,0,1,10.9-10.9m0-1a11.9,11.9,0,1,0,11.9,11.9,11.9,11.9,0,0,0-11.9-11.9Z"/><path d="M1033.7,128.1a15.64,15.64,0,0,1-15.66-15l-.21-5a10.68,10.68,0,0,1,10.23-11.09l10-.41h.44a10.63,10.63,0,0,1,10.65,10.23l.2,5a15.7,15.7,0,0,1-15,16.32Z"/><path d="M1038.54,97h0a10.13,10.13,0,0,1,10.15,9.75l.21,5a15.19,15.19,0,0,1-14.57,15.8h-.63A15.14,15.14,0,0,1,1018.54,113l-.21-5a10.18,10.18,0,0,1,9.75-10.57l10-.41h.42m0-1h-.46l-10,.4a11.17,11.17,0,0,0-10.7,11.61l.21,5a16.18,16.18,0,0,0,16.16,15.53h.67a16.19,16.19,0,0,0,15.52-16.84l-.2-5A11.16,11.16,0,0,0,1038.54,96Z"/><path d="M988.86,129.92a15.64,15.64,0,0,1-15.66-15l-.21-5a10.68,10.68,0,0,1,10.23-11.09l10-.4h.44a10.63,10.63,0,0,1,10.65,10.23l.21,5a15.7,15.7,0,0,1-15,16.32Z"/><path d="M993.7,98.84h0a10.13,10.13,0,0,1,10.15,9.75l.21,5a15.19,15.19,0,0,1-14.57,15.8h-.63a15.14,15.14,0,0,1-15.16-14.57l-.21-5a10.18,10.18,0,0,1,9.75-10.57l10-.4h.42m0-1h-.46l-10,.41a11.16,11.16,0,0,0-10.71,11.6l.21,5a16.18,16.18,0,0,0,16.16,15.53h.67a16.2,16.2,0,0,0,15.53-16.84l-.21-5A11.16,11.16,0,0,0,993.7,97.84Z"/><rect x="1001.23" y="107.42" width="20.14" height="12" transform="translate(-3.77 41.08) rotate(-2.32)"/><path d="M914.56,127.31l-11.8-2.21C907.69,98.79,941.94,104,967,107.87c2.25.35,4.46.69,6.61,1l-1.73,11.87c-2.17-.31-4.41-.66-6.7-1C938.06,115.58,917.14,113.5,914.56,127.31Z"/><path class="cls-5" d="M980.74,131.58c0,18.93-11.75,30.29-30.68,30.29s-31.49-14.55-31.49-33.48,12.16-25.11,31.09-25.11C968.39,103.28,980.74,112.65,980.74,131.58Z"/><ellipse class="cls-5" cx="948.41" cy="102.18" rx="8.97" ry="3.3"/><ellipse class="cls-5" cx="948.23" cy="97.42" rx="15.38" ry="4.03"/><ellipse cx="948.05" cy="97.24" rx="9.34" ry="0.92"/><ellipse class="cls-4" cx="971.3" cy="132.58" rx="2.2" ry="16.11"/><path class="cls-5" d="M980.74,131.58c0,18.93-11.75,30.29-30.68,30.29s-31.49-14.55-31.49-33.48,12.16-25.11,31.09-25.11C968.39,103.28,980.74,112.65,980.74,131.58Z"/><ellipse class="cls-5" cx="948.41" cy="102.18" rx="8.97" ry="3.3"/><ellipse class="cls-5" cx="948.23" cy="97.42" rx="15.38" ry="4.03"/><ellipse cx="948.05" cy="97.24" rx="9.34" ry="0.92"/><path class="cls-6" d="M923.9,161.28a2.93,2.93,0,0,1-5.77-1c.28-1.59,3-6,4.8-7.74C923.21,154.66,924.18,159.69,923.9,161.28Z"/><path class="cls-6" d="M935,169.43a2.93,2.93,0,1,1-5.64,1.59c-.44-1.55.14-6.69.93-9.05C931.44,163.77,934.52,167.87,935,169.43Z"/><ellipse class="cls-4" cx="971.3" cy="132.58" rx="2.2" ry="16.11"/><path class="cls-2" d="M1088.19,305.59a7.83,7.83,0,0,1-2.27-.35,7.52,7.52,0,0,1-4.89-9.42c2.38-7.5,8.08-13.82,13.6-19.93,4.45-4.92,9-10,10.43-14.4,4.72-14.93.55-31.1-3.87-48.22-4.75-18.42-9.66-37.46-3.64-56.5,3.64-11.49,12-31.54,26.76-36.69,5-1.74,13-2.5,22.31,3.82a7.5,7.5,0,1,1-8.41,12.42c-4.54-3.07-7.3-2.65-9-2.07-6.11,2.13-12.77,12.49-17.38,27.05-4.72,14.93-.55,31.1,3.87,48.22,4.75,18.42,9.66,37.46,3.64,56.49-2.37,7.5-8.08,13.82-13.59,19.93-4.45,4.93-9,10-10.43,14.41A7.52,7.52,0,0,1,1088.19,305.59Z"/><path d="M997.23,91.45a4,4,0,0,1-4-4c0-.6-3-3.14-8.91-3.14s-8.9,2.54-8.9,3.14a4,4,0,0,1-8,0c0-6.35,7.27-11.14,16.9-11.14s16.91,4.79,16.91,11.14A4,4,0,0,1,997.23,91.45Z"/><path d="M1034.44,174.91a2.55,2.55,0,0,1-.72-.1,2.52,2.52,0,0,1-1.68-3.12,19.44,19.44,0,0,1,9.42-11.33,23.15,23.15,0,0,1,12.93-3.05c.41,0,.75,0,1,0a2.5,2.5,0,1,1,.3,5c-.36,0-.84,0-1.41,0a18.37,18.37,0,0,0-10.33,2.37c-3.74,2.17-6.07,4.93-7.13,8.45A2.5,2.5,0,0,1,1034.44,174.91Z"/><path d="M1045,180.5a1.42,1.42,0,0,1-.29,0,2.49,2.49,0,0,1-2.2-2.76,17,17,0,0,1,6.34-11.23,20.3,20.3,0,0,1,10.63-4.61c.33,0,.61-.09.82-.14a2.5,2.5,0,1,1,1.18,4.85c-.31.08-.72.15-1.22.23a15.43,15.43,0,0,0-8.18,3.49,12,12,0,0,0-4.6,8A2.5,2.5,0,0,1,1045,180.5Z"/><path d="M1078,138.66a2.5,2.5,0,0,1-2-4,19.44,19.44,0,0,1,12.93-7.07,23.28,23.28,0,0,1,13.15,1.93c.38.16.69.3.94.38a2.5,2.5,0,0,1-1.56,4.75c-.35-.11-.79-.3-1.32-.52a18.35,18.35,0,0,0-10.47-1.6c-4.28.63-7.46,2.34-9.74,5.23A2.53,2.53,0,0,1,1078,138.66Z"/><path d="M1085.8,147.76a2.5,2.5,0,0,1-2.2-3.68,17,17,0,0,1,10-8.1,20.26,20.26,0,0,1,11.57-.37c.33.08.6.14.82.17a2.5,2.5,0,1,1-.7,4.95c-.31,0-.72-.13-1.21-.24a15.47,15.47,0,0,0-8.89.23,12,12,0,0,0-7.22,5.72A2.51,2.51,0,0,1,1085.8,147.76Z"/><path d="M1024.51,97.68a4,4,0,0,1-4-4c0-5.43,5.37-9.68,12.22-9.68S1045,88.25,1045,93.68a4,4,0,1,1-8,0c-.06-.39-1.49-1.68-4.23-1.68s-4.16,1.29-4.22,1.68A4,4,0,0,1,1024.51,97.68Z"/><path d="M933.42,84.72a9,9,0,0,1-4.84-1.42,10.58,10.58,0,0,1-4.69-6.75c-1.15-5.43,1.86-10,5.34-15.25a60.12,60.12,0,0,0,4.52-7.6,9,9,0,1,1,16.38,7.45,74.18,74.18,0,0,1-5.88,10.07c-.62.94-1.37,2.07-2,3a9,9,0,0,1-8.88,10.49Zm4.85-16.59h0Z"/><path d="M933.84,84.75a9,9,0,0,1-7-14.64c3.29-4.09,8.38-5.86,13.31-7.58,3.09-1.08,6.29-2.19,8.23-3.6A9,9,0,1,1,958.94,73.5c-4.09,3-8.76,4.59-12.88,6a38.64,38.64,0,0,0-5.47,2.18A9,9,0,0,1,933.84,84.75Z"/><path d="M933,84.71a9,9,0,0,1-8.86-7.52c-1.68-10.08,6.77-15,12.94-18.69a64.59,64.59,0,0,0,8.32-5.5,9,9,0,0,1,11.35,14,80.6,80.6,0,0,1-10.54,7c-1.39.82-3.17,1.87-4.24,2.64a9,9,0,0,1-7.48,7.94A9.45,9.45,0,0,1,933,84.71Z"/><path class="cls-1" d="M1873.29,348.8h0a25.1,25.1,0,0,0,7.9-34.61v0a11.43,11.43,0,0,0-15.76-3.6l-23.18,14.57a11.44,11.44,0,0,0-3.6,15.76h0A25.13,25.13,0,0,0,1873.29,348.8Z"/><ellipse class="cls-1" cx="1888.01" cy="339.92" rx="7.67" ry="11.83" transform="translate(312.63 1434.58) rotate(-45)"/><ellipse class="cls-1" cx="1861.33" cy="354.86" rx="7.61" ry="11.74" transform="translate(559.24 1731.46) rotate(-57.39)"/><ellipse class="cls-1" cx="1877.01" cy="347.82" rx="8.94" ry="12.61" transform="translate(388.19 1542.63) rotate(-49.25)"/><path class="cls-1" d="M1727.2,348.07h0a25.11,25.11,0,0,1-7.9-34.62v0a11.42,11.42,0,0,1,15.75-3.59l23.19,14.57a11.43,11.43,0,0,1,3.6,15.75h0A25.13,25.13,0,0,1,1727.2,348.07Z"/><ellipse class="cls-1" cx="1712.48" cy="339.19" rx="11.83" ry="7.67" transform="translate(261.73 1310.25) rotate(-45)"/><ellipse class="cls-1" cx="1739.16" cy="354.13" rx="11.74" ry="7.61" transform="translate(83.35 993.17) rotate(-32.61)"/><ellipse class="cls-1" cx="1723.48" cy="347.09" rx="12.61" ry="8.94" transform="translate(191.32 1209.27) rotate(-40.75)"/><path class="cls-2" d="M1837,341.94h-77.31a57,57,0,0,1-57-57V229.26a99.33,99.33,0,0,1,99.33-99.33h0a92.17,92.17,0,0,1,92.18,92.17v62.6A57.24,57.24,0,0,1,1837,341.94Z"/><path class="cls-1" d="M1727.2,348.07h0a25.11,25.11,0,0,1-7.9-34.62v0a11.42,11.42,0,0,1,15.75-3.59l23.19,14.57a11.43,11.43,0,0,1,3.6,15.75h0A25.13,25.13,0,0,1,1727.2,348.07Z"/><ellipse class="cls-1" cx="1712.48" cy="339.19" rx="11.83" ry="7.67" transform="translate(261.73 1310.25) rotate(-45)"/><ellipse class="cls-1" cx="1739.16" cy="354.13" rx="11.74" ry="7.61" transform="translate(83.35 993.17) rotate(-32.61)"/><ellipse class="cls-1" cx="1723.48" cy="347.09" rx="12.61" ry="8.94" transform="translate(191.32 1209.27) rotate(-40.75)"/><path class="cls-1" d="M1873.29,348.8h0a25.1,25.1,0,0,0,7.9-34.61v0a11.43,11.43,0,0,0-15.76-3.6l-23.18,14.57a11.44,11.44,0,0,0-3.6,15.76h0A25.13,25.13,0,0,0,1873.29,348.8Z"/><ellipse class="cls-1" cx="1888.01" cy="339.92" rx="7.67" ry="11.83" transform="translate(312.63 1434.58) rotate(-45)"/><ellipse class="cls-1" cx="1861.33" cy="354.86" rx="7.61" ry="11.74" transform="translate(559.24 1731.46) rotate(-57.39)"/><ellipse class="cls-1" cx="1877.01" cy="347.82" rx="8.94" ry="12.61" transform="translate(388.19 1542.63) rotate(-49.25)"/><path class="cls-3" d="M1836.52,341.94h-77a56.86,56.86,0,0,1-56.74-57V229.26c0-54.86,44.3-99.33,99-99.33h0c50.71,0,91.82,41.26,91.82,92.17v62.6A57.12,57.12,0,0,1,1836.52,341.94Z"/><path class="cls-2" d="M1838.89,341.94H1764.1c-30.44,0-55.11-25.15-55.11-56.18V230.81c0-54.1,43-97.95,96.1-97.95h0c49.25,0,89.18,40.69,89.18,90.9v61.73C1894.27,316.67,1869.47,341.94,1838.89,341.94Z"/><path class="cls-4" d="M1814,321.06h-27.67a51.56,51.56,0,0,1-51.57-51.56v-31a65.41,65.41,0,0,1,65.4-65.4h0a65.41,65.41,0,0,1,65.4,65.4v31A51.55,51.55,0,0,1,1814,321.06Z"/><circle class="cls-2" cx="1774.53" cy="50.1" r="21.97"/><circle class="cls-2" cx="1708.99" cy="90.75" r="21.97"/><circle class="cls-4" cx="1716.31" cy="97.34" r="9.52"/><circle class="cls-4" cx="1779.29" cy="57.43" r="9.52"/><path class="cls-3" d="M1850.89,97c15.69,13.21,49,56.29,42.56,65.76-6.63,9.71-10.36,18-50.84,13.58-16.08-1.75-38.19-4.14-66.77-10.9-32.26-7.63-62-18.34-63.53-47.62S1736,62,1769.49,60.32,1826.88,76.76,1850.89,97Z"/><path d="M1833.7,128.1a15.64,15.64,0,0,1-15.66-15l-.21-5a10.68,10.68,0,0,1,10.23-11.09l10-.41h.44a10.63,10.63,0,0,1,10.65,10.23l.2,5a15.7,15.7,0,0,1-15,16.32Z"/><path d="M1838.54,97h0a10.13,10.13,0,0,1,10.15,9.75l.21,5a15.22,15.22,0,0,1-14.57,15.8h-.63A15.14,15.14,0,0,1,1818.54,113l-.21-5a10.18,10.18,0,0,1,9.75-10.57l10-.41h.42m0-1h-.46l-10,.4a11.17,11.17,0,0,0-10.7,11.61l.21,5a16.18,16.18,0,0,0,16.16,15.53h.67a16.19,16.19,0,0,0,15.52-16.84l-.2-5A11.16,11.16,0,0,0,1838.54,96Z"/><path d="M1788.86,129.92a15.64,15.64,0,0,1-15.66-15l-.21-5a10.68,10.68,0,0,1,10.23-11.09l10-.4h.44a10.63,10.63,0,0,1,10.65,10.23l.21,5a15.7,15.7,0,0,1-15,16.32Z"/><path d="M1793.7,98.84h0a10.13,10.13,0,0,1,10.15,9.75l.21,5a15.22,15.22,0,0,1-14.57,15.8h-.63a15.14,15.14,0,0,1-15.16-14.57l-.21-5a10.18,10.18,0,0,1,9.75-10.57l10-.4h.42m0-1h-.46l-10,.41a11.16,11.16,0,0,0-10.71,11.6l.21,5a16.18,16.18,0,0,0,16.16,15.53h.67a16.2,16.2,0,0,0,15.53-16.84l-.21-5a11.16,11.16,0,0,0-11.15-10.71Z"/><rect x="1801.23" y="107.42" width="20.14" height="12" transform="translate(-3.11 73.5) rotate(-2.32)"/><path d="M1714.56,127.31l-11.8-2.21c4.93-26.31,39.18-21.06,64.19-17.23,2.25.35,4.46.69,6.61,1l-1.73,11.87c-2.17-.31-4.41-.66-6.7-1C1738.06,115.58,1717.14,113.5,1714.56,127.31Z"/><path class="cls-2" d="M1722.16,212a18.94,18.94,0,0,1-9.39-2.5c-6.69-3.87-12-13-8-23.92,2.89-7.73,11.8-19.45,21.19-27.86,15.31-13.71,31.65-19.37,47.27-16.34,1.87.36,9.54.94,29.33-6.93,14.38-5.72,29.72-13.63,43.26-20.62,19-9.81,28.52-14.57,36.44-15.63a18.5,18.5,0,0,1,5.35,36.61c-3.72,1-15.41,7-24.83,11.91-38.32,19.76-72,35.73-96.59,31-5.64-1.09-14.22,5.65-20.32,12.3a18.39,18.39,0,0,1-4.16,10.17,59.13,59.13,0,0,1-5.62,6.06A20.61,20.61,0,0,1,1722.16,212Zm165-77.12h0Zm.59-.11Z"/><path class="cls-4" d="M1878.45,196.37c20.47,23.4,40.58,54.57,41.5,68.67"/><path class="cls-2" d="M1919.94,280.54a15.51,15.51,0,0,1-15.46-14.49c-.47-7.21-15.39-34-37.7-59.47a15.5,15.5,0,1,1,23.33-20.41c16.15,18.45,43.85,55.61,45.31,77.85A15.49,15.49,0,0,1,1921,280.5C1920.62,280.53,1920.28,280.54,1919.94,280.54Z"/><path class="cls-2" d="M1888.19,305.59a7.83,7.83,0,0,1-2.27-.35,7.52,7.52,0,0,1-4.89-9.42c2.38-7.5,8.08-13.82,13.6-19.93,4.45-4.92,9-10,10.43-14.4,4.72-14.93.55-31.1-3.87-48.22-4.75-18.42-9.66-37.46-3.64-56.5,3.64-11.49,12-31.54,26.76-36.69,5-1.74,13-2.5,22.31,3.82a7.5,7.5,0,1,1-8.41,12.42c-4.54-3.07-7.3-2.65-9-2.07-6.11,2.13-12.77,12.49-17.38,27.05-4.72,14.93-.55,31.1,3.87,48.22,4.75,18.42,9.66,37.46,3.64,56.49-2.37,7.5-8.08,13.82-13.59,19.93-4.45,4.93-9,10-10.43,14.41A7.52,7.52,0,0,1,1888.19,305.59Z"/><path d="M1797.23,91.45a4,4,0,0,1-4-4c0-.6-3-3.14-8.91-3.14s-8.9,2.54-8.9,3.14a4,4,0,1,1-8,0c0-6.35,7.27-11.14,16.9-11.14s16.91,4.79,16.91,11.14A4,4,0,0,1,1797.23,91.45Z"/><path d="M1824.51,97.68a4,4,0,0,1-4-4c0-5.43,5.37-9.68,12.22-9.68S1845,88.25,1845,93.68a4,4,0,1,1-8,0c-.06-.39-1.49-1.68-4.23-1.68s-4.16,1.29-4.22,1.68A4,4,0,0,1,1824.51,97.68Z"/><path class="cls-4" d="M1814,321.06h-27.67a51.56,51.56,0,0,1-51.57-51.56v-31a65.41,65.41,0,0,1,65.4-65.4h0a65.41,65.41,0,0,1,65.4,65.4v31A51.55,51.55,0,0,1,1814,321.06Z"/><path class="cls-2" d="M1852.9,94c15.76,12.22,49.13,52.16,42.57,61-6.73,9.08-10.54,16.79-51.34,12.91-16.21-1.54-38.5-3.65-67.29-9.8-32.5-6.93-62.39-16.75-63.82-44s24.2-52,58-53.81S1828.79,75.29,1852.9,94Z"/><circle class="cls-2" cx="1774.53" cy="50.1" r="21.97"/><circle class="cls-2" cx="1708.99" cy="90.75" r="21.97"/><circle class="cls-4" cx="1716.31" cy="97.34" r="9.52"/><circle class="cls-4" cx="1779.29" cy="57.43" r="9.52"/><circle cx="1888.22" cy="159.4" r="11.4"/><path d="M1888.22,148.5a10.9,10.9,0,1,1-10.9,10.9,10.91,10.91,0,0,1,10.9-10.9m0-1a11.9,11.9,0,1,0,11.9,11.9,11.9,11.9,0,0,0-11.9-11.9Z"/><path d="M1833.7,128.1a15.64,15.64,0,0,1-15.66-15l-.21-5a10.68,10.68,0,0,1,10.23-11.09l10-.41h.44a10.63,10.63,0,0,1,10.65,10.23l.2,5a15.7,15.7,0,0,1-15,16.32Z"/><path d="M1838.54,97h0a10.13,10.13,0,0,1,10.15,9.75l.21,5a15.22,15.22,0,0,1-14.57,15.8h-.63A15.14,15.14,0,0,1,1818.54,113l-.21-5a10.18,10.18,0,0,1,9.75-10.57l10-.41h.42m0-1h-.46l-10,.4a11.17,11.17,0,0,0-10.7,11.61l.21,5a16.18,16.18,0,0,0,16.16,15.53h.67a16.19,16.19,0,0,0,15.52-16.84l-.2-5A11.16,11.16,0,0,0,1838.54,96Z"/><path d="M1788.86,129.92a15.64,15.64,0,0,1-15.66-15l-.21-5a10.68,10.68,0,0,1,10.23-11.09l10-.4h.44a10.63,10.63,0,0,1,10.65,10.23l.21,5a15.7,15.7,0,0,1-15,16.32Z"/><path d="M1793.7,98.84h0a10.13,10.13,0,0,1,10.15,9.75l.21,5a15.22,15.22,0,0,1-14.57,15.8h-.63a15.14,15.14,0,0,1-15.16-14.57l-.21-5a10.18,10.18,0,0,1,9.75-10.57l10-.4h.42m0-1h-.46l-10,.41a11.16,11.16,0,0,0-10.71,11.6l.21,5a16.18,16.18,0,0,0,16.16,15.53h.67a16.2,16.2,0,0,0,15.53-16.84l-.21-5a11.16,11.16,0,0,0-11.15-10.71Z"/><rect x="1801.23" y="107.42" width="20.14" height="12" transform="translate(-3.11 73.5) rotate(-2.32)"/><path d="M1714.56,127.31l-11.8-2.21c4.93-26.31,39.18-21.06,64.19-17.23,2.25.35,4.46.69,6.61,1l-1.73,11.87c-2.17-.31-4.41-.66-6.7-1C1738.06,115.58,1717.14,113.5,1714.56,127.31Z"/><path class="cls-5" d="M1951.74,112.58c0,18.93-11.75,30.29-30.68,30.29s-31.49-14.55-31.49-33.48,12.16-25.11,31.09-25.11C1939.39,84.28,1951.74,93.65,1951.74,112.58Z"/><ellipse class="cls-5" cx="1919.41" cy="83.18" rx="8.97" ry="3.3"/><ellipse class="cls-5" cx="1919.23" cy="78.42" rx="15.38" ry="4.03"/><ellipse cx="1919.05" cy="78.24" rx="9.34" ry="0.92"/><ellipse class="cls-4" cx="1942.3" cy="113.58" rx="2.2" ry="16.11"/><path class="cls-5" d="M1951.74,112.58c0,18.93-11.75,30.29-30.68,30.29s-31.49-14.55-31.49-33.48,12.16-25.11,31.09-25.11C1939.39,84.28,1951.74,93.65,1951.74,112.58Z"/><ellipse class="cls-5" cx="1919.41" cy="83.18" rx="8.97" ry="3.3"/><ellipse class="cls-5" cx="1919.23" cy="78.42" rx="15.38" ry="4.03"/><ellipse cx="1919.05" cy="78.24" rx="9.34" ry="0.92"/><path class="cls-6" d="M1894.9,142.28a2.93,2.93,0,0,1-5.77-1c.28-1.59,3-6,4.8-7.74C1894.21,135.66,1895.18,140.69,1894.9,142.28Z"/><path class="cls-6" d="M1906,150.43a2.93,2.93,0,1,1-5.64,1.59c-.44-1.55.14-6.69.93-9.05C1902.44,144.77,1905.52,148.87,1906,150.43Z"/><ellipse class="cls-4" cx="1942.3" cy="113.58" rx="2.2" ry="16.11"/><path class="cls-2" d="M1888.19,305.59a7.83,7.83,0,0,1-2.27-.35,7.52,7.52,0,0,1-4.89-9.42c2.38-7.5,8.08-13.82,13.6-19.93,4.45-4.92,9-10,10.43-14.4,4.72-14.93.55-31.1-3.87-48.22-4.75-18.42-9.66-37.46-3.64-56.5,3.64-11.49,12-31.54,26.76-36.69,5-1.74,13-2.5,22.31,3.82a7.5,7.5,0,1,1-8.41,12.42c-4.54-3.07-7.3-2.65-9-2.07-6.11,2.13-12.77,12.49-17.38,27.05-4.72,14.93-.55,31.1,3.87,48.22,4.75,18.42,9.66,37.46,3.64,56.49-2.37,7.5-8.08,13.82-13.59,19.93-4.45,4.93-9,10-10.43,14.41A7.52,7.52,0,0,1,1888.19,305.59Z"/><path d="M1797.23,91.45a4,4,0,0,1-4-4c0-.6-3-3.14-8.91-3.14s-8.9,2.54-8.9,3.14a4,4,0,1,1-8,0c0-6.35,7.27-11.14,16.9-11.14s16.91,4.79,16.91,11.14A4,4,0,0,1,1797.23,91.45Z"/><path d="M1834.44,174.91a2.55,2.55,0,0,1-.72-.1,2.52,2.52,0,0,1-1.68-3.12,19.44,19.44,0,0,1,9.42-11.33,23.15,23.15,0,0,1,12.93-3.05c.41,0,.75,0,1,0a2.5,2.5,0,1,1,.3,5c-.36,0-.84,0-1.41,0a18.37,18.37,0,0,0-10.33,2.37c-3.74,2.17-6.07,4.93-7.13,8.45A2.5,2.5,0,0,1,1834.44,174.91Z"/><path d="M1845,180.5a1.42,1.42,0,0,1-.29,0,2.49,2.49,0,0,1-2.2-2.76,17,17,0,0,1,6.34-11.23,20.3,20.3,0,0,1,10.63-4.61c.33,0,.61-.09.82-.14a2.5,2.5,0,1,1,1.18,4.85c-.31.08-.72.15-1.22.23a15.43,15.43,0,0,0-8.18,3.49,12,12,0,0,0-4.6,8A2.5,2.5,0,0,1,1845,180.5Z"/><path d="M1878,138.66a2.5,2.5,0,0,1-2-4,19.44,19.44,0,0,1,12.93-7.07,23.28,23.28,0,0,1,13.15,1.93c.38.16.69.3.94.38a2.5,2.5,0,0,1-1.56,4.75c-.35-.11-.79-.3-1.32-.52a18.35,18.35,0,0,0-10.47-1.6c-4.28.63-7.46,2.34-9.74,5.23A2.53,2.53,0,0,1,1878,138.66Z"/><path d="M1885.8,147.76a2.5,2.5,0,0,1-2.2-3.68,17,17,0,0,1,10-8.1,20.26,20.26,0,0,1,11.57-.37c.33.08.6.14.82.17a2.5,2.5,0,1,1-.7,4.95c-.31,0-.72-.13-1.21-.24a15.47,15.47,0,0,0-8.89.23,12,12,0,0,0-7.22,5.72A2.51,2.51,0,0,1,1885.8,147.76Z"/><path d="M1824.51,97.68a4,4,0,0,1-4-4c0-5.43,5.37-9.68,12.22-9.68S1845,88.25,1845,93.68a4,4,0,1,1-8,0c-.06-.39-1.49-1.68-4.23-1.68s-4.16,1.29-4.22,1.68A4,4,0,0,1,1824.51,97.68Z"/><path d="M1733.42,84.72a9,9,0,0,1-4.84-1.42,10.58,10.58,0,0,1-4.69-6.75c-1.15-5.43,1.86-10,5.34-15.25a60.12,60.12,0,0,0,4.52-7.6,9,9,0,1,1,16.38,7.45,74.18,74.18,0,0,1-5.88,10.07c-.62.94-1.37,2.07-2,3a9,9,0,0,1-8.88,10.49Zm4.85-16.59h0Z"/><path d="M1733.84,84.75a9,9,0,0,1-7-14.64c3.29-4.09,8.38-5.86,13.31-7.58,3.09-1.08,6.29-2.19,8.23-3.6a9,9,0,1,1,10.57,14.57c-4.09,3-8.76,4.59-12.88,6a38.64,38.64,0,0,0-5.47,2.18A9,9,0,0,1,1733.84,84.75Z"/><path d="M1733,84.71a9,9,0,0,1-8.87-7.52c-1.67-10.08,6.78-15,12.95-18.69a64.59,64.59,0,0,0,8.32-5.5,9,9,0,0,1,11.35,14,80.6,80.6,0,0,1-10.54,7c-1.39.82-3.17,1.87-4.24,2.64a9,9,0,0,1-7.48,7.94A9.45,9.45,0,0,1,1733,84.71Z"/><path class="cls-1" d="M1473.29,348.8h0a25.1,25.1,0,0,0,7.9-34.61v0a11.43,11.43,0,0,0-15.76-3.6l-23.18,14.57a11.44,11.44,0,0,0-3.6,15.76h0A25.13,25.13,0,0,0,1473.29,348.8Z"/><ellipse class="cls-1" cx="1488.01" cy="339.92" rx="7.67" ry="11.83" transform="translate(195.47 1151.74) rotate(-45)"/><ellipse class="cls-1" cx="1461.33" cy="354.86" rx="7.61" ry="11.74" transform="translate(374.82 1394.53) rotate(-57.39)"/><ellipse class="cls-1" cx="1477.01" cy="347.82" rx="8.94" ry="12.61" transform="translate(249.32 1239.62) rotate(-49.25)"/><path class="cls-1" d="M1327.2,348.07h0a25.11,25.11,0,0,1-7.9-34.62v0a11.42,11.42,0,0,1,15.75-3.59l23.19,14.57a11.43,11.43,0,0,1,3.6,15.75h0A25.13,25.13,0,0,1,1327.2,348.07Z"/><ellipse class="cls-1" cx="1312.48" cy="339.19" rx="11.83" ry="7.67" transform="translate(144.58 1027.41) rotate(-45)"/><ellipse class="cls-1" cx="1339.16" cy="354.13" rx="11.74" ry="7.61" transform="translate(20.28 777.59) rotate(-32.61)"/><ellipse class="cls-1" cx="1323.48" cy="347.09" rx="12.61" ry="8.94" transform="translate(94.33 948.14) rotate(-40.75)"/><path class="cls-2" d="M1437,341.94h-77.31a57,57,0,0,1-57-57V229.26a99.33,99.33,0,0,1,99.33-99.33h0a92.17,92.17,0,0,1,92.18,92.17v62.6A57.24,57.24,0,0,1,1437,341.94Z"/><path class="cls-1" d="M1327.2,348.07h0a25.11,25.11,0,0,1-7.9-34.62v0a11.42,11.42,0,0,1,15.75-3.59l23.19,14.57a11.43,11.43,0,0,1,3.6,15.75h0A25.13,25.13,0,0,1,1327.2,348.07Z"/><ellipse class="cls-1" cx="1312.48" cy="339.19" rx="11.83" ry="7.67" transform="translate(144.58 1027.41) rotate(-45)"/><ellipse class="cls-1" cx="1339.16" cy="354.13" rx="11.74" ry="7.61" transform="translate(20.28 777.59) rotate(-32.61)"/><ellipse class="cls-1" cx="1323.48" cy="347.09" rx="12.61" ry="8.94" transform="translate(94.33 948.14) rotate(-40.75)"/><path class="cls-1" d="M1473.29,348.8h0a25.1,25.1,0,0,0,7.9-34.61v0a11.43,11.43,0,0,0-15.76-3.6l-23.18,14.57a11.44,11.44,0,0,0-3.6,15.76h0A25.13,25.13,0,0,0,1473.29,348.8Z"/><ellipse class="cls-1" cx="1488.01" cy="339.92" rx="7.67" ry="11.83" transform="translate(195.47 1151.74) rotate(-45)"/><ellipse class="cls-1" cx="1461.33" cy="354.86" rx="7.61" ry="11.74" transform="translate(374.82 1394.53) rotate(-57.39)"/><ellipse class="cls-1" cx="1477.01" cy="347.82" rx="8.94" ry="12.61" transform="translate(249.32 1239.62) rotate(-49.25)"/><path class="cls-3" d="M1436.52,341.94h-77a56.86,56.86,0,0,1-56.74-57V229.26c0-54.86,44.3-99.33,99-99.33h0c50.71,0,91.82,41.26,91.82,92.17v62.6A57.12,57.12,0,0,1,1436.52,341.94Z"/><path class="cls-2" d="M1438.89,341.94H1364.1c-30.44,0-55.11-25.15-55.11-56.18V230.81c0-54.1,43-97.95,96.1-97.95h0c49.25,0,89.18,40.69,89.18,90.9v61.73C1494.27,316.67,1469.47,341.94,1438.89,341.94Z"/><path class="cls-4" d="M1414,321.06h-27.67a51.56,51.56,0,0,1-51.57-51.56v-31a65.41,65.41,0,0,1,65.4-65.4h0a65.41,65.41,0,0,1,65.4,65.4v31A51.55,51.55,0,0,1,1414,321.06Z"/><circle class="cls-2" cx="1374.53" cy="50.1" r="21.97"/><circle class="cls-2" cx="1308.99" cy="90.75" r="21.97"/><circle class="cls-4" cx="1316.31" cy="97.34" r="9.52"/><circle class="cls-4" cx="1379.29" cy="57.43" r="9.52"/><path class="cls-3" d="M1450.89,97c15.69,13.21,49,56.29,42.56,65.76-6.63,9.71-10.36,18-50.84,13.58-16.08-1.75-38.19-4.14-66.77-10.9-32.26-7.63-62-18.34-63.53-47.62S1336,62,1369.49,60.32,1426.88,76.76,1450.89,97Z"/><path d="M1433.7,128.1a15.64,15.64,0,0,1-15.66-15l-.21-5a10.68,10.68,0,0,1,10.23-11.09l10-.41h.44a10.63,10.63,0,0,1,10.65,10.23l.2,5a15.7,15.7,0,0,1-15,16.32Z"/><path d="M1438.54,97h0a10.13,10.13,0,0,1,10.15,9.75l.21,5a15.22,15.22,0,0,1-14.57,15.8h-.63A15.14,15.14,0,0,1,1418.54,113l-.21-5a10.18,10.18,0,0,1,9.75-10.57l10-.41h.42m0-1h-.46l-10,.4a11.17,11.17,0,0,0-10.7,11.61l.21,5a16.18,16.18,0,0,0,16.16,15.53h.67a16.19,16.19,0,0,0,15.52-16.84l-.2-5A11.16,11.16,0,0,0,1438.54,96Z"/><path d="M1388.86,129.92a15.64,15.64,0,0,1-15.66-15l-.21-5a10.68,10.68,0,0,1,10.23-11.09l10-.4h.44a10.63,10.63,0,0,1,10.65,10.23l.21,5a15.7,15.7,0,0,1-15,16.32Z"/><path d="M1393.7,98.84h0a10.13,10.13,0,0,1,10.15,9.75l.21,5a15.22,15.22,0,0,1-14.57,15.8h-.63a15.14,15.14,0,0,1-15.16-14.57l-.21-5a10.18,10.18,0,0,1,9.75-10.57l10-.4h.42m0-1h-.46l-10,.41a11.16,11.16,0,0,0-10.71,11.6l.21,5a16.18,16.18,0,0,0,16.16,15.53h.67a16.2,16.2,0,0,0,15.53-16.84l-.21-5a11.16,11.16,0,0,0-11.15-10.71Z"/><rect x="1401.23" y="107.42" width="20.14" height="12" transform="translate(-3.44 57.29) rotate(-2.32)"/><path d="M1314.56,127.31l-11.8-2.21c4.93-26.31,39.18-21.06,64.19-17.23,2.25.35,4.46.69,6.61,1l-1.73,11.87c-2.17-.31-4.41-.66-6.7-1C1338.06,115.58,1317.14,113.5,1314.56,127.31Z"/><path class="cls-2" d="M1325.81,220.78a19.14,19.14,0,0,1-5.19-.75,18.49,18.49,0,0,1-13.3-15.22c-1.27-8.95,3.83-14.43,7.2-18.06.73-.79,1.7-1.8,2.89-3l1.81-2.17a18.38,18.38,0,0,1,4.77-4.11,184.74,184.74,0,0,1,26-19.69c23.63-14.67,54.46-28,97-41.87a18.5,18.5,0,0,1,11.48,35.18c-52.11,17-75.74,29.91-89,38.13a148.12,148.12,0,0,0-24.78,19.52c-1.25,1.47-2.38,2.77-3.35,3.84C1339.19,215,1334,220.78,1325.81,220.78Z"/><path class="cls-4" d="M1478.45,196.37c20.47,23.4,40.58,54.57,41.5,68.67"/><path class="cls-2" d="M1519.94,280.54a15.51,15.51,0,0,1-15.46-14.49c-.47-7.21-15.39-34-37.7-59.47a15.5,15.5,0,1,1,23.33-20.41c16.15,18.45,43.85,55.61,45.31,77.85A15.49,15.49,0,0,1,1521,280.5C1520.62,280.53,1520.28,280.54,1519.94,280.54Z"/><path class="cls-2" d="M1488.19,305.59a7.83,7.83,0,0,1-2.27-.35,7.52,7.52,0,0,1-4.89-9.42c2.38-7.5,8.08-13.82,13.6-19.93,4.45-4.92,9-10,10.43-14.4,4.72-14.93.55-31.1-3.87-48.22-4.75-18.42-9.66-37.46-3.64-56.5,3.64-11.49,12-31.54,26.76-36.69,5-1.74,13-2.5,22.31,3.82a7.5,7.5,0,1,1-8.41,12.42c-4.54-3.07-7.3-2.65-9-2.07-6.11,2.13-12.77,12.49-17.38,27.05-4.72,14.93-.55,31.1,3.87,48.22,4.75,18.42,9.66,37.46,3.64,56.49-2.37,7.5-8.08,13.82-13.59,19.93-4.45,4.93-9,10-10.43,14.41A7.52,7.52,0,0,1,1488.19,305.59Z"/><path d="M1397.23,91.45a4,4,0,0,1-4-4c0-.6-3-3.14-8.91-3.14s-8.9,2.54-8.9,3.14a4,4,0,1,1-8,0c0-6.35,7.27-11.14,16.9-11.14s16.91,4.79,16.91,11.14A4,4,0,0,1,1397.23,91.45Z"/><path d="M1424.51,97.68a4,4,0,0,1-4-4c0-5.43,5.37-9.68,12.22-9.68S1445,88.25,1445,93.68a4,4,0,1,1-8,0c-.06-.39-1.49-1.68-4.23-1.68s-4.16,1.29-4.22,1.68A4,4,0,0,1,1424.51,97.68Z"/><path class="cls-4" d="M1414,321.06h-27.67a51.56,51.56,0,0,1-51.57-51.56v-31a65.41,65.41,0,0,1,65.4-65.4h0a65.41,65.41,0,0,1,65.4,65.4v31A51.55,51.55,0,0,1,1414,321.06Z"/><path class="cls-2" d="M1452.9,94c15.76,12.22,49.13,52.16,42.57,61-6.73,9.08-10.54,16.79-51.34,12.91-16.21-1.54-38.5-3.65-67.29-9.8-32.5-6.93-62.39-16.75-63.82-44s24.2-52,58-53.81S1428.79,75.29,1452.9,94Z"/><circle class="cls-2" cx="1374.53" cy="50.1" r="21.97"/><circle class="cls-2" cx="1308.99" cy="90.75" r="21.97"/><circle class="cls-4" cx="1316.31" cy="97.34" r="9.52"/><circle class="cls-4" cx="1379.29" cy="57.43" r="9.52"/><circle cx="1488.22" cy="159.4" r="11.4"/><path d="M1488.22,148.5a10.9,10.9,0,1,1-10.9,10.9,10.91,10.91,0,0,1,10.9-10.9m0-1a11.9,11.9,0,1,0,11.9,11.9,11.9,11.9,0,0,0-11.9-11.9Z"/><path d="M1433.7,128.1a15.64,15.64,0,0,1-15.66-15l-.21-5a10.68,10.68,0,0,1,10.23-11.09l10-.41h.44a10.63,10.63,0,0,1,10.65,10.23l.2,5a15.7,15.7,0,0,1-15,16.32Z"/><path d="M1438.54,97h0a10.13,10.13,0,0,1,10.15,9.75l.21,5a15.22,15.22,0,0,1-14.57,15.8h-.63A15.14,15.14,0,0,1,1418.54,113l-.21-5a10.18,10.18,0,0,1,9.75-10.57l10-.41h.42m0-1h-.46l-10,.4a11.17,11.17,0,0,0-10.7,11.61l.21,5a16.18,16.18,0,0,0,16.16,15.53h.67a16.19,16.19,0,0,0,15.52-16.84l-.2-5A11.16,11.16,0,0,0,1438.54,96Z"/><path d="M1388.86,129.92a15.64,15.64,0,0,1-15.66-15l-.21-5a10.68,10.68,0,0,1,10.23-11.09l10-.4h.44a10.63,10.63,0,0,1,10.65,10.23l.21,5a15.7,15.7,0,0,1-15,16.32Z"/><path d="M1393.7,98.84h0a10.13,10.13,0,0,1,10.15,9.75l.21,5a15.22,15.22,0,0,1-14.57,15.8h-.63a15.14,15.14,0,0,1-15.16-14.57l-.21-5a10.18,10.18,0,0,1,9.75-10.57l10-.4h.42m0-1h-.46l-10,.41a11.16,11.16,0,0,0-10.71,11.6l.21,5a16.18,16.18,0,0,0,16.16,15.53h.67a16.2,16.2,0,0,0,15.53-16.84l-.21-5a11.16,11.16,0,0,0-11.15-10.71Z"/><rect x="1401.23" y="107.42" width="20.14" height="12" transform="translate(-3.44 57.29) rotate(-2.32)"/><path d="M1314.56,127.31l-11.8-2.21c4.93-26.31,39.18-21.06,64.19-17.23,2.25.35,4.46.69,6.61,1l-1.73,11.87c-2.17-.31-4.41-.66-6.7-1C1338.06,115.58,1317.14,113.5,1314.56,127.31Z"/><path class="cls-2" d="M1488.19,305.59a7.83,7.83,0,0,1-2.27-.35,7.52,7.52,0,0,1-4.89-9.42c2.38-7.5,8.08-13.82,13.6-19.93,4.45-4.92,9-10,10.43-14.4,4.72-14.93.55-31.1-3.87-48.22-4.75-18.42-9.66-37.46-3.64-56.5,3.64-11.49,12-31.54,26.76-36.69,5-1.74,13-2.5,22.31,3.82a7.5,7.5,0,1,1-8.41,12.42c-4.54-3.07-7.3-2.65-9-2.07-6.11,2.13-12.77,12.49-17.38,27.05-4.72,14.93-.55,31.1,3.87,48.22,4.75,18.42,9.66,37.46,3.64,56.49-2.37,7.5-8.08,13.82-13.59,19.93-4.45,4.93-9,10-10.43,14.41A7.52,7.52,0,0,1,1488.19,305.59Z"/><path d="M1397.23,91.45a4,4,0,0,1-4-4c0-.6-3-3.14-8.91-3.14s-8.9,2.54-8.9,3.14a4,4,0,1,1-8,0c0-6.35,7.27-11.14,16.9-11.14s16.91,4.79,16.91,11.14A4,4,0,0,1,1397.23,91.45Z"/><path d="M1434.44,174.91a2.55,2.55,0,0,1-.72-.1,2.52,2.52,0,0,1-1.68-3.12,19.44,19.44,0,0,1,9.42-11.33,23.15,23.15,0,0,1,12.93-3.05c.41,0,.75,0,1,0a2.5,2.5,0,1,1,.3,5c-.36,0-.84,0-1.41,0a18.37,18.37,0,0,0-10.33,2.37c-3.74,2.17-6.07,4.93-7.13,8.45A2.5,2.5,0,0,1,1434.44,174.91Z"/><path d="M1445,180.5a1.42,1.42,0,0,1-.29,0,2.49,2.49,0,0,1-2.2-2.76,17,17,0,0,1,6.34-11.23,20.3,20.3,0,0,1,10.63-4.61c.33,0,.61-.09.82-.14a2.5,2.5,0,1,1,1.18,4.85c-.31.08-.72.15-1.22.23a15.43,15.43,0,0,0-8.18,3.49,12,12,0,0,0-4.6,8A2.5,2.5,0,0,1,1445,180.5Z"/><path d="M1478,138.66a2.5,2.5,0,0,1-2-4,19.44,19.44,0,0,1,12.93-7.07,23.28,23.28,0,0,1,13.15,1.93c.38.16.69.3.94.38a2.5,2.5,0,0,1-1.56,4.75c-.35-.11-.79-.3-1.32-.52a18.35,18.35,0,0,0-10.47-1.6c-4.28.63-7.46,2.34-9.74,5.23A2.53,2.53,0,0,1,1478,138.66Z"/><path d="M1485.8,147.76a2.5,2.5,0,0,1-2.2-3.68,17,17,0,0,1,10-8.1,20.26,20.26,0,0,1,11.57-.37c.33.08.6.14.82.17a2.5,2.5,0,1,1-.7,4.95c-.31,0-.72-.13-1.21-.24a15.47,15.47,0,0,0-8.89.23,12,12,0,0,0-7.22,5.72A2.51,2.51,0,0,1,1485.8,147.76Z"/><path d="M1424.51,97.68a4,4,0,0,1-4-4c0-5.43,5.37-9.68,12.22-9.68S1445,88.25,1445,93.68a4,4,0,1,1-8,0c-.06-.39-1.49-1.68-4.23-1.68s-4.16,1.29-4.22,1.68A4,4,0,0,1,1424.51,97.68Z"/><path d="M1333.42,84.72a9,9,0,0,1-4.84-1.42,10.58,10.58,0,0,1-4.69-6.75c-1.15-5.43,1.86-10,5.34-15.25a60.12,60.12,0,0,0,4.52-7.6,9,9,0,1,1,16.38,7.45,74.18,74.18,0,0,1-5.88,10.07c-.62.94-1.37,2.07-2,3a9,9,0,0,1-8.88,10.49Zm4.85-16.59h0Z"/><path d="M1333.84,84.75a9,9,0,0,1-7-14.64c3.29-4.09,8.38-5.86,13.31-7.58,3.09-1.08,6.29-2.19,8.23-3.6a9,9,0,1,1,10.57,14.57c-4.09,3-8.76,4.59-12.88,6a38.64,38.64,0,0,0-5.47,2.18A9,9,0,0,1,1333.84,84.75Z"/><path d="M1333,84.71a9,9,0,0,1-8.87-7.52c-1.67-10.08,6.78-15,12.95-18.69a64.59,64.59,0,0,0,8.32-5.5,9,9,0,0,1,11.35,14,80.6,80.6,0,0,1-10.54,7c-1.39.82-3.17,1.87-4.24,2.64a9,9,0,0,1-7.48,7.94A9.45,9.45,0,0,1,1333,84.71Z"/><path class="cls-5" d="M1507.74,131.58c0,18.93-11.75,30.29-30.68,30.29s-31.49-14.55-31.49-33.48,12.16-25.11,31.09-25.11C1495.39,103.28,1507.74,112.65,1507.74,131.58Z"/><ellipse class="cls-5" cx="1475.41" cy="102.18" rx="8.97" ry="3.3"/><ellipse class="cls-5" cx="1475.23" cy="97.42" rx="15.38" ry="4.03"/><ellipse cx="1475.05" cy="97.24" rx="9.34" ry="0.92"/><ellipse class="cls-4" cx="1498.3" cy="132.58" rx="2.2" ry="16.11"/><ellipse class="cls-5" cx="1475.41" cy="102.18" rx="8.97" ry="3.3"/><ellipse class="cls-5" cx="1475.23" cy="97.42" rx="15.38" ry="4.03"/><ellipse cx="1475.05" cy="97.24" rx="9.34" ry="0.92"/><path class="cls-6" d="M1450.9,161.28a2.93,2.93,0,0,1-5.77-1c.28-1.59,3-6,4.8-7.74C1450.21,154.66,1451.18,159.69,1450.9,161.28Z"/><path class="cls-6" d="M1462,169.43a2.93,2.93,0,1,1-5.64,1.59c-.44-1.55.14-6.69.93-9.05C1458.44,163.77,1461.52,167.87,1462,169.43Z"/><ellipse class="cls-4" cx="1498.3" cy="132.58" rx="2.2" ry="16.11"/><rect class="cls-7" x="1" width="400" height="400"/><rect class="cls-7" x="400" width="400" height="400"/><rect class="cls-7" x="800" width="400" height="400"/><rect class="cls-7" x="1200" width="400" height="400"/><rect class="cls-7" x="1600" width="400" height="400"/></svg>
