<svg xmlns="http://www.w3.org/2000/svg" viewBox="0 0 412.67 200.07"><defs><style>.cls-1{fill:#72a9b7;}.cls-2{fill:#1d1d1b;}.cls-3,.cls-4{fill:none;stroke-miterlimit:10;stroke-width:2px;}.cls-3{stroke:#fff;}.cls-4{stroke:#fafafa;}.cls-5{fill:#fff;}</style></defs><title>spilltittel 1</title><g id="spilltittel_1" data-name="spilltittel 1"><path class="cls-1" d="M200.34,97.08C135,96,69.59,92.69,4.24,87.53Q8.9,50.74,13.58,13.94C72.7,9.28,131.87,6.26,191,5.3Q195.67,51.2,200.34,97.08Z"/><path class="cls-1" d="M408.79,177c-120,7.48-240,11.6-360,11.54q6.91-56,13.84-112c110.75,0,221.57,3.75,332.32,10.65Q401.87,132.14,408.79,177Z"/><path class="cls-2" d="M24.45,81.07c-2,0-2.93-.89-2.93-2.92V25.54c0-2,.9-2.92,2.93-2.92H51.81c13.64,0,20,5.27,20,16.56V64.51c0,11.29-6.33,16.56-20,16.56ZM40,65.73h9.67c2.59,0,3.81-1.22,3.81-4V42c0-2.68-1.22-3.9-3.81-3.9H40Z"/><path class="cls-2" d="M86.53,82c-2,.1-3-.74-3.07-2.77L80.79,26.68c-.1-2,.75-3,2.77-3.07l37.63-1.91c2-.1,3,.74,3.07,2.77l.48,9.49c.1,2-.75,3-2.78,3.06L99.59,38.16l.31,6.24,15.81-.8c2-.1,3,.75,3.07,2.77l.44,8.68c.1,2-.74,3-2.77,3.07l-15.81.8.35,7,22.38-1.13c2-.11,3,.74,3.07,2.77l.48,9.48c.1,2-.74,3-2.77,3.07Z"/><path class="cls-2" d="M141.66,78c-2,.13-3-.7-3.12-2.72l-3.61-52.49c-.14-2,.69-3,2.71-3.11l12.56-.87c2-.14,3,.69,3.11,2.72l2.76,40.09,11.1-.76,2-13.33c-.14-2,2.16-3.08,4.19-3.22l4.38-.3c2-.14,3,.69,3.12,2.72L185.6,72c.14,2-.69,3-2.72,3.12Z"/><path class="cls-3" d="M25.05,73.73c-1.41-.33-1.86-1.21-1.47-2.88L33.66,27.5c.39-1.67,1.18-2.26,2.6-1.94L55.33,30c9.51,2.21,12.92,7.59,10.76,16.89L61.23,67.76c-2.16,9.3-7.59,12.62-17.1,10.41ZM40,58.5l6.74,1.57c1.81.42,2.89-.38,3.42-2.66l3.78-16.26c.52-2.2-.1-3.4-1.91-3.83l-6.74-1.56Z"/><path class="cls-3" d="M90,75.74c-1.45-.07-2-.86-2-2.58l2.38-44.44c.09-1.72.77-2.44,2.22-2.36l26.92,1.44c1.45.08,2,.87,2,2.58l-.43,8c-.09,1.72-.77,2.44-2.22,2.36l-16-.85-.28,5.28,11.32.6c1.45.08,2,.87,2,2.58l-.4,7.34c-.09,1.72-.77,2.44-2.22,2.36l-11.31-.6-.32,5.89,16,.86c1.45.08,2,.87,2,2.58l-.43,8c-.09,1.72-.77,2.44-2.22,2.36Z"/><path class="cls-3" d="M150.25,74.81c-1.41.34-2.21-.25-2.61-1.94L137.28,29.25c-.4-1.68.05-2.57,1.46-2.9l8.76-2.08c1.42-.34,2.21.25,2.61,1.94L158,59.53l7.75-1.84-.54-11.4c-.4-1.68,1.08-2.81,2.49-3.15l3.06-.72c1.41-.34,2.21.25,2.61,1.93l7.09,20.72c.4,1.68,0,2.57-1.46,2.91Z"/><path class="cls-2" d="M398.69,168.94c-113.42,6.47-226.92,9.78-340.34,9.12q6.54-44.25,13.09-88.49C176.13,89,280.9,92,385.6,98Q392.14,133.47,398.69,168.94Z"/><path class="cls-4" d="M398.69,168.94c-113.42,6.47-226.92,9.78-340.34,9.12q6.54-44.25,13.09-88.49C176.13,89,280.9,92,385.6,98Q392.14,133.47,398.69,168.94Z"/><path class="cls-1" d="M80.45,161.53c-2-.08-2.88-1-2.8-3l2-52.57c.08-2,1-2.89,3-2.81l8.44.33a5.57,5.57,0,0,1,4.7,2.38l15,18.63.68-17.28c.08-2,1-2.89,3-2.81l12.17.48c2,.08,2.89,1,2.81,3l-2.06,52.57c-.08,2-1,2.89-3,2.81l-12.17-.48c-2-.08-2.89-1-2.81-3l.39-10L96.71,132.42l-1,26.78c-.08,2-1,2.88-3,2.8Z"/><path class="cls-1" d="M161.05,165.1c-20.29-.1-25.21-6.78-25.16-16.68l3-13.58L136,120.73c0-9.9,5-16.62,25.33-16.52s25.14,6.86,25.09,16.77l-3,14.08,2.88,13.6C186.26,158.57,181.35,165.2,161.05,165.1Zm.08-15.67c5.93,0,6.83-1.59,6.84-3.78L172.45,135l-4.37-11.19c0-2.11-.88-3.74-6.8-3.77s-6.83,1.59-6.84,3.71l-3,11.15,2.9,10.68C154.32,147.78,155.29,149.41,161.13,149.43Z"/><path class="cls-1" d="M219.92,161.91c-2-.17-2.83-1.14-2.66-3.16l4.44-52.42c.17-2,1.13-2.84,3.16-2.67L252.12,106c13.59,1.15,19.46,6.94,18.5,18.19l-2.13,25.24c-.95,11.24-7.71,16-21.3,14.82Zm16.75-14,9.63.81c2.59.22,3.9-.89,4.14-3.64l1.66-19.66c.23-2.67-.88-4-3.47-4.2l-9.63-.82Z"/><path class="cls-1" d="M285.18,165.24c-2,.16-3-.66-3.14-2.69l-4-52.46c-.15-2,.67-3,2.69-3.13l37.56-2.89c2-.15,3,.67,3.14,2.69l.73,9.48c.16,2-.67,3-2.69,3.13l-22.34,1.72.47,6.23,15.79-1.21c2-.16,3,.67,3.14,2.69l.66,8.66c.16,2-.66,3-2.69,3.14l-15.78,1.21.53,7,22.34-1.71c2-.16,3,.67,3.14,2.69l.73,9.47c.15,2-.67,3-2.69,3.14Z"/><path class="cls-1" d="M336,158.58c-2-.21-2.81-1.2-2.59-3.21l5.57-52.32c.21-2,1.19-2.81,3.21-2.6l12.52,1.34c2,.21,2.81,1.19,2.59,3.21L353,145l11.06,1.18,4.33-12.76c.21-2,1.19-2.82,3.21-2.6l5.84.62c2,.22,2.81,1.2,2.59,3.22l.23,25.74c-.21,2-1.2,2.81-3.22,2.6Z"/><path class="cls-2" d="M238.11,60.65c-.57,11.67-4.81,14.33-10.9,14l-17-.81c-6.09-.28-10.09-3.33-9.52-15s4.86-14.28,11-14l17,.8C234.73,46,238.68,49,238.11,60.65Zm-9.64-.46c.17-3.41-.8-4-2.15-4l-13.43-.64c-1.3-.06-2.32.41-2.49,3.82s.8,4,2.1,4l13.43.63C227.28,64.07,228.31,63.56,228.47,60.19Z"/><path class="cls-2" d="M237.9,41.14c0,1.21-.62,1.73-1.91,1.69l-33.46-1c-1.29,0-1.84-.59-1.81-1.8l-1.51-16.08c.22-7.24,5.8-10.41,10.91-10.25l2.37.07a6.39,6.39,0,0,1,5.81,3.89c.52-3.51,3.32-5.75,7.66-5.61l10.84,3.43c1.29,0,1.84.59,1.81,1.8v1.29c0,1.2-.63,1.72-1.92,1.68l-8,2.85c-1.55-.05-2.24.42-2.28,1.77l-.2,6.76,10.12.31c1.29,0,1.84.59,1.8,1.8ZM217.23,27.33l.11-3.62c0-1.69-1-2.16-2.36-2.2l-1.76-.06c-1.39,0-2.44.36-2.49,2.05l-.11,3.62Z"/><path class="cls-5" d="M407.64,70.33c.25-.16-.09-.42-.1-.5C407.21,70.21,407.72,70.41,407.64,70.33Z"/><polygon class="cls-5" points="404.42 74.14 404.38 73.95 404.08 74.73 404.42 74.14"/><path class="cls-5" d="M400.84,77c.79.28,1.22-1.13,2-1.44l.2,0-.07-.68C402.28,75.61,401.51,76.71,400.84,77Z"/><path class="cls-5" d="M398,77.32c.29.12-.26.52.5-.29h-.13A2.79,2.79,0,0,1,398,77.32Z"/><path class="cls-5" d="M398.34,77c.37-.32-.39,0,0,0Z"/><path class="cls-5" d="M396.71,78.56l.34-.59c-.21,0-.67.28-.58,0C396,78.54,396.25,78.58,396.71,78.56Z"/><path class="cls-5" d="M396.56,79.34l.2-.29C396.67,79,396.58,79.07,396.56,79.34Z"/><path class="cls-5" d="M397.16,78.44l-.4.61c.14,0,.29.21.2-.26C397,79,397,78.75,397.16,78.44Z"/><path class="cls-5" d="M397.54,78.28c.37-.1.79-.31.45.28C398.88,77.72,398.42,77.44,397.54,78.28Z"/><path class="cls-5" d="M401.12,77.72l.5-.14.17-.44C401.71,77.36,401,77.56,401.12,77.72Z"/><path class="cls-5" d="M393.39,80.75c.07.14.42.18.58.3l.26-.43C394,80.69,393.56,80.9,393.39,80.75Z"/><path class="cls-5" d="M394,81.05l-.38.64C394.09,81.32,394.11,81.16,394,81.05Z"/><polygon class="cls-5" points="396.97 80.03 397.53 78.88 396.8 80.17 396.97 80.03"/><polygon class="cls-5" points="391.29 82.41 391.38 81.89 391.16 82.74 391.29 82.41"/><path class="cls-5" d="M389.94,83.57c.05-.41-.62-.13-.49-.47a3.14,3.14,0,0,0-.66,1.21A1.82,1.82,0,0,1,389.94,83.57Z"/><path class="cls-5" d="M388.51,85a3.5,3.5,0,0,0,.28-.64A2,2,0,0,0,388.51,85Z"/><path class="cls-5" d="M392.61,82.38a.79.79,0,0,0-.71,0l.49.16Z"/><path class="cls-5" d="M392.4,82.55h0l-.48.35Z"/><path class="cls-5" d="M392.66,82.34l-.05,0S392.67,82.4,392.66,82.34Z"/><path class="cls-5" d="M395.3,80.88c-.18.44-.69,1.18.19,1C395.54,81.41,395,81.55,395.3,80.88Z"/><path class="cls-5" d="M393.26,82.54l.65-.39c-.09-.08-.29-.12-.21-.34Z"/><polygon class="cls-5" points="393.06 82.88 393.26 82.54 393.02 82.69 393.06 82.88"/><path class="cls-5" d="M389.76,84.47a2.43,2.43,0,0,1-.7.85,6.19,6.19,0,0,0,1.09-.71C390.11,84.47,390.1,84.17,389.76,84.47Z"/><path class="cls-5" d="M391.07,83.57l-.05.06C391.08,83.63,391.12,83.62,391.07,83.57Z"/><path class="cls-5" d="M386,87.77l.09,0,0-.07Z"/><path class="cls-5" d="M390.25,84.63a.76.76,0,0,0,.45-.56,4,4,0,0,1-.55.54C390.16,84.68,390.19,84.71,390.25,84.63Z"/><path class="cls-5" d="M387.78,85.79a3.37,3.37,0,0,0,.58-.16C388.15,85.63,387.76,85.67,387.78,85.79Z"/><path class="cls-5" d="M390.87,83.61s0,0,0,0S390.79,83.58,390.87,83.61Z"/><path class="cls-5" d="M390.87,83.61a1.72,1.72,0,0,0-.17.46,2.14,2.14,0,0,0,.32-.44Z"/><path class="cls-5" d="M386.8,90.65c-.21-.35.22-1.16,1.06-1.28.37-.68-.81-1.4-1.76-1.58.1.15.2.27-.23.91.33,0,1.59-.62,1.33,0-.63.77-.71.4-1.21.53.62.13-.52,1.34.1,1.77l.5-.74C386.68,90.38,386.55,90.72,386.8,90.65Z"/><path class="cls-5" d="M387.22,86.94l.21-.23a2.6,2.6,0,0,1-1.15.24c-.28.47-.27.65-.21.77l1.2-.89Z"/><path class="cls-5" d="M388.49,85.86c.09.48-.37,1.08.27,1.17.68-.58.26-.67.56-1.15-1.05,1,.17-.45-.79,0a4.24,4.24,0,0,1,.53-.57,7.13,7.13,0,0,1-.7.31h.05c.08,0,.12,0,0,0s0,0,0,0a.48.48,0,0,1,.05.17c-.38.19-.12,0-.05-.17l0-.06h0l-1,1.08A5.28,5.28,0,0,0,388.49,85.86Z"/><path class="cls-5" d="M395.47,83c-.06,0-.07,0-.1,0S395.33,83.13,395.47,83Z"/><path class="cls-5" d="M394.85,83.2c0-.12,0-.31.29-.48s.13.16.23.26c.09-.22.37-.69-.26-.45l-.05.11c-.54.24-1.46.29-1.41.18A2.88,2.88,0,0,0,394.85,83.2Z"/><path class="cls-5" d="M391.71,84.64l-.81.91.71-.09-.16-.15C392,85,391.75,84.83,391.71,84.64Z"/><polygon class="cls-5" points="385.77 87.69 385.61 87.23 385.47 88.17 385.77 87.69"/><polygon class="cls-5" points="384.59 88.7 384.38 88.36 384.21 88.8 384.59 88.7"/><path class="cls-5" d="M319.17,147.5l-.2.3A1.09,1.09,0,0,0,319.17,147.5Z"/><path class="cls-5" d="M321.18,145.92l-.08-.19C321.08,145.89,321.09,146,321.18,145.92Z"/><path class="cls-5" d="M354.81,112.66c-.63,0-1.44-.06-1.11.25l.39.24A1.43,1.43,0,0,1,354.81,112.66Z"/><path class="cls-5" d="M336,131.06h.2c0-.19,0-.37,0-.54C336.16,130.69,336.09,130.87,336,131.06Z"/><path class="cls-5" d="M336.86,132.69l-.7.2A2.75,2.75,0,0,0,336.86,132.69Z"/><path class="cls-5" d="M308.61,156.56l0,.6C309.07,156.76,308.71,156.76,308.61,156.56Z"/><path class="cls-5" d="M372.26,98.8a4,4,0,0,0-1,.49C371.8,99.15,372.37,99.17,372.26,98.8Z"/><path class="cls-5" d="M317.07,143.28c-.12.19-.13.32-.07.39C317.13,143.47,317.18,143.33,317.07,143.28Z"/><path class="cls-5" d="M370.24,100.09l.24-.07a3.48,3.48,0,0,1,.75-.73A1.2,1.2,0,0,0,370.24,100.09Z"/><path class="cls-5" d="M269,187.86l-.12,0C268.94,188,269,187.92,269,187.86Z"/><path class="cls-5" d="M254.83,193.65a5,5,0,0,1,.45-.4A1.48,1.48,0,0,0,254.83,193.65Z"/><path class="cls-5" d="M379.58,92.47c.24-.23,0-.07,0,0Z"/><path class="cls-5" d="M381.91,92.81a.26.26,0,0,0,0,.24A.36.36,0,0,1,381.91,92.81Z"/><path class="cls-5" d="M369.36,104.25l0,0C369.47,104.27,369.45,104.27,369.36,104.25Z"/><path class="cls-5" d="M380.1,92.32a1.92,1.92,0,0,0-.41.16A2.54,2.54,0,0,0,380.1,92.32Z"/><path class="cls-5" d="M379.92,92.2l.25-.15C380.15,92,380.1,92,379.92,92.2Z"/><path class="cls-5" d="M379.24,92.78a2.21,2.21,0,0,1,.45-.3c-.07,0-.11,0-.11,0Z"/><path class="cls-5" d="M289.39,170h-.08C289.16,170.4,289.26,170.28,289.39,170Z"/><path class="cls-5" d="M350.93,121.55a.06.06,0,0,0,0,0l0,0Z"/><path class="cls-5" d="M350.21,122.54c.05-.73.32-.86.69-1l-1.09-.73Z"/><path class="cls-5" d="M314.49,151.41l.9-.22c-.38,1.13-1.09,1.42-.14,1.35-.76-1.13,2.44-2.13,1.68-3.26l.61-.12c-.13.09-.1.16-.23.25,1.24-.16,0-1.26,1.19-2,.44-.22.83-.27.67.06l.63-.93c.25-.18.34.05.09.23l1.2-1.11v0a7.26,7.26,0,0,1,.37-1.17c.44-.1-.07.24.12.31l.49-.82c.51,0,.14.78-.38,1.13,1.51.53.37-.74,2.29-1.26l-.56.67c.91.26,1.25-.38,2.31-.6-.34-.06-2.27.26-1.71-.62a1.33,1.33,0,0,0,.83-.82c.31.37.63,0,1.12-.47l.37.53c.42-.58.18-.8.32-1.28a1.22,1.22,0,0,1,1.48,0c1-.7-1.16-.08-.09-1.09a5.29,5.29,0,0,0,2.09-2.19c.7-.29.15.38.46.36l.18-.8c.13-.09.19.07.22.14.3-.49-.36-.52.19-1.19-.26-.69,2-.29,2.33-1.57.32,0,.15.38.36.52a8.54,8.54,0,0,0,1.21-2.36l1.06-.31c-.88.09-.5-.94-.14-1.83a8.22,8.22,0,0,0-.84,0L336,130c.19,0,.23.24.23.58,0-.1.07-.19.09-.27.52-.11.56.33.51.82h-.61a1.64,1.64,0,0,0,.3,1.28,1,1,0,0,1,.23-.4c0,.13,0,.24.09.27s.09-.18.16-.44l.68.37-.12-.27,1.64-.74c.51-1.33.7-2.83,2.05-4.3-.06.72.45.74.82,1.24-.83-.18-1,1.17-1.9,1.7.46-.28.55,0,.51.19l1.05-1.6c.29.42.54,0,1-.08-.91-.56.64-1.37,1-2.08.25.24.32.62-.43,1.12,1.25,0,.26-1.73,1.43-1.84-.17.15-.29.18-.25.37.21-.56,1.34-1.16,1.29-.75l-.16.15c1.21-.83,3.48-2.79,3.12-3.59a5.74,5.74,0,0,1,.53,1.11l.25-3.87c.28.71,2.05,1.52,1.36,2.6a2.14,2.14,0,0,0,1.17-1c-.25.07-1.13-.45-.91-.7a6.69,6.69,0,0,0,2-.2c-.37.1-.78-1-.32-1.37,0,.19.75.86.66,1.08l.39-1.76c-.15.38.55.79,1,.84-.25-.08,1-.75,1.18-1.07l-.62.17c1.34-.86.23-2.21,1.49-3.15,0,.3.53,1.41,1.24,1-.07-.68-.47-3.18.34-4.39l.41.09.6-1A22.17,22.17,0,0,1,359,115c.63-.17.38.2,1.05-.38.44,0-.09.67-.28.84l1.74-1.14c-.49-.46.81-1.51.4-1.9l-1.32,2c-.49-.47-.18-2.3,1-3.12.46,0,.53,1.1.69,1.26,0-.3.81-1.22,1-1.17L363,112c.79-.32.48-1.53,1.65-1.64.29-.18,1.33,0,1.12-.31a5.25,5.25,0,0,1-2.55-2.71,11.25,11.25,0,0,1,2.38-.49c.81.12.25,1.64.94,1.75-.1-.16,0-.53.05-.66.38-.1.25.53.79,0-.32-.61,1.27-.93-.07-.67.47-.63.71-.4,1.39-1-.5-.16-.32-1.66.15-2.29.07.16.34.23.47.26,1.25-.92,2.09-1.2,3.22-2.1.21,0,.88-.23.83.18a1.43,1.43,0,0,1,.43-.81c1-.08-.72.69.23.83-.2-.34.56-1.14.9-1.73-.54-.36-1.22.82-1.56,1.41-.53-.65-.22-2,.71-3.28.81-.92.75.1.84-.13,1.85-1.29.57-2.35,2.41-3,.92,0,.7.81,1.07,1-.64.77-1.39.67-1.89,1.1l.8-.31a1.83,1.83,0,0,1-.93,1c.79,0,3-2.31,4.66-3,.13-.33.43-.81.09-.82l-.38.4c-.66,0,.43-1.12-.24-.84a4,4,0,0,1,1.7-2l.53.36c-.13-.13-.76.14-.87.47.17-.49,1.76-.35,1.63-1.27l-.83.12c.38-.7.69-1.78,1.53-2.21-.71-.21-.12.19-1.08,0,1,.34-1.86,1.45-.57,1.6-1-.22-1.12.46-2.24.46.14.14.48.1-.18.51a1.06,1.06,0,0,1,0,.25l0,0h0s0,0,0,0a.93.93,0,0,1,.5,0c0,.6-1,1.36-1.15,1.81-.42.21,0-.31-.32-.32l-.26.67c-.33-.31-1.42.18-.74-.7l-.77.59a2.7,2.7,0,0,0-1.54,1c-.42.21-.6,1.11-.5.59l-1,1.17-.08-.08c-1.21.9-1.95,2.52-3.8,3a4.33,4.33,0,0,1-1.38,1.27l-.37-.2c-.43.52-1.77.92-1.73,1.41-1.21-.37-2.61,1.8-3.62,2.37l.29.42a10.72,10.72,0,0,0-1.77,1.83l.33.31c-.43.82-1.89,1.11-2.9,2,0-.19.26-.37.51-.44-1.88.21-2.16,2.68-3.75,3a.94.94,0,0,1-.68.54.24.24,0,0,0,.06-.08.94.94,0,0,0-.12.09,5.29,5.29,0,0,0-.54.13,1.66,1.66,0,0,0,.48-.08,5,5,0,0,0-.76.84l-.44-.27-.06.07c-.43.12-.11.38.28.53a2,2,0,0,0-.24.57c-.75-.4-.68.88-1.55.51,0,.49-1.43,1.54-1.07,2.34-.08-.08-.21,0,0-.19a1.85,1.85,0,0,0-1,.87l-.53-.36-.27,1.28c-.71.09-1,.08-.86-.67-.69,1.48-.76,1-1.28,2.29l-.2-.34c-.34.29-.56,1.14-1,1.06-1.25,0-3.9,3-6.33,4,1.11.6-1.25.33-.77,1.1-.29-.12-.66,0-.49-.47-.84,1-1.8.89-2,2-.29-.12,0-.49-.24-.53-.05.11-.18.45-.39.4s0-.3.09-.52c-1,.87-.58,1.62-.15,2.3-.77.13-1,.38-1.05,1.09-.34-.06-.82,0-.23-.61-.39.26-2.46,1.48-2.1,2-.21,0-.53.37-.58.51a14.93,14.93,0,0,0-1.71,1.32l.29-.09c.17.85-.56.66-1.14,1.25l0-.07c-1.82.75-.47.72-2.32,1.39l.38.31c.51.92-1.67.56-2.27,1.55l.47,0c-.24.64-2.17-.06-2.71.21-.16,0,.07-.24.17-.4-1.6.5.23.61-.58,1.45-.38-.13-.32-.84-1-.4-.48,0-1.08,2.28-2.32,2.44.35,0,.69.11.39.6-.58.59-2.35.63-2.42,1.74a.29.29,0,0,1-.25-.07c-.36.56-1.38,1.56-1.39,2.15-1.5-.93-2.56,3.08-3.51,1.88L310.64,149l-.06-.15a2.47,2.47,0,0,0-1.26,1.82c-.28.1-.21-.15-.24-.22a4,4,0,0,0-2.42,2.6l-.43-.29c-.14.49-2.54,1-3.56,2.61a.35.35,0,0,1,0-.3c-1.2,1.71-4.6,1.93-4,3.79l-.75,1.18c1.42-1,.29.77,1,.56-.46.51-1.7.67-1.11.08H298c-.35-.93-1.86,1.07-2.23.54-2.59,2.14-5.48,3.78-8,5.73l.74.34-.88.65c-.33.05-.66-.2,0-.67-.58-.06-.81,1.1-.73,1.24-1.38.72-.06-1-.44-.76l-.47.44.17,0c-.22.56-.05.84-.81,1.4-.56.26-.52-.16-.72,0,0,0-.11,0-.3.21l-1.12.82.8.11c-.3.6-1,.79-.13.9-1.36-.2-4.26,2.95-4.9,3.06a5.22,5.22,0,0,1-1.93,2c.28-.07.81.34.06.85-.59-1.25-1.66.58-2.84.29.91.09-1.91,1.74-.54,1.8-.66.39-.35-.36-1-.25-1.07,1.53-3.3,2.22-4.93,3.75.09.16.55.14.34.64l-1.47,0c-.29.34.32,1.05-.69,1.07.18,0,.45.11.26.34-3.94,2.06-6.51,6.13-11,7.64.68-.11.39.17,0,.47.28-.13.27.34.46.49l-1.86.64c.15.73-1.52,1.28-1.28,1.9l.39-.46c-.14,1.07,1.89.61,2.4,1.43.15-1.21,2.59-.46,2.94-2.31.37,0,0,.41.26.48,0-.55.31-.89,1.06-1.26v.14c1.71-1.51,2.73-1.81,4.9-3.2l-.44-.25a2.07,2.07,0,0,1,.93-.33c0-1-1.24.94-1.28,0,1.17.3,3-2.42,4.11-1.88.67-.52-.53-.27.13-.79l.36.09-.07-.44a.92.92,0,0,1,1.1,0c-.12.06-.26.3-.36.4.79-.18,1.52-1.36,1.78-1.43l-.75.37c1.63-1.67,4.08-3.13,5.45-5l-.27-.06c1.07-1.4,1.22-.67,2.56-2l0,.08a2.56,2.56,0,0,1,.9-1.11c-.21.5,1-.16.71.45,1.16-1.5.49-.84.93-2.26l.45.12a1.79,1.79,0,0,1,.7-1.35c-.4.73.82.07.41.94,2.05-.6,1.77-2.47,3.21-2.11.07-1.37-1.68.62-1.42.13-.54,0,.1-1.06.65-1.37s1.65.36,2.87-.65c-.13.1-.09.16-.21.26.62-.17.68-1,1.51-1.12-.07-.74.76-.57.36-1.26l-1,1c.51-.67.53-1.88,1.87-2.37a2.29,2.29,0,0,1-.31.87c.46-.07.5-.6,1-.67.4.69-1.27,1.24-1.57,2.26.54,0,.94-1.49,1.13-.55-.19-1.24,1.3-.86,1.61-2.18l.24.41a2.07,2.07,0,0,1,.47-.74l-.05.83c.34-1,1.59-.69,2.06-1.43-1.35,1.1-.67-.2-1.46,0,1.28-1.84,1.74.19,3.47-1.49-.21.26-1.13.55-.87.06a3.43,3.43,0,0,1,1.38-.43c1.18-1.08-.5-.23-.15-.88.79.11.46-.67.89-1.26l.31.38c1.61-.9-.26-1.09,1.25-1.82l-.12,1,.56-.67.2.54a2.82,2.82,0,0,1,1.57-1.45c-.38-.13-.46-.76.16-1.27.6-.12.05.55.89-.22,0,.4,0,.87-.66.84.06.15,0,.39.05.54.67-.11,1.2-.87,1.52-1.13a.92.92,0,0,1-.42.19l.87-1.55c.32,0,.25.22.18.46.23-.25.27-.57.63-.91.14.39.42.68,0,1.26l1-1.32c.19.07.92-.14.85.1.83-.37,1.19-1.93,2.29-2.42a.7.7,0,0,1,.2-.43c.9-.61,2-.83,2.62-2.06l1,.09c.69-.76-1.32-.07-.18-1.33.79-.92.72.19,1.17.08.24-.64.59-1.85,1.8-2.09C315,151.06,314.73,151.16,314.49,151.41Zm9.51-8c-.12.23-.3.78-.62.66C323.25,143.44,323.58,143.51,324,143.38Zm14-12.74c0,.23-.3.35-.66.4A1.3,1.3,0,0,1,338,130.64ZM377,95s0,0,0,0C376.47,95.27,376.66,95.21,377,95Zm1-.53c.05-.12,0-.17-.08-.19,0,.14-.18.3-.42.45C377.65,94.82,377.82,94.8,378,94.51Zm-93.4,75.2.25,0C284.56,170.09,284.59,169.9,284.61,169.71Z"/><path class="cls-5" d="M336.77,132.49a.44.44,0,0,1-.25-.14C336.5,132.48,336.55,132.55,336.77,132.49Z"/><path class="cls-5" d="M308.62,156.45l0,0a.2.2,0,0,0,0,.09Z"/><path class="cls-5" d="M367.08,108.52a.94.94,0,0,1-.5.09C366.64,108.71,366.79,108.72,367.08,108.52Z"/><path class="cls-5" d="M382.11,90.17l-.48.54a1.12,1.12,0,0,1,.6-.28C382.15,90.35,381.94,90.31,382.11,90.17Z"/><path class="cls-5" d="M388.82,88.61c.05-.11.17-.15.21-.26l-.16-.15C388.53,88.49,388.4,88.82,388.82,88.61Z"/><path class="cls-5" d="M383.63,91c.3.28.56-.11.91-.48l-.07.06C384.23,90,383.93,90.52,383.63,91Z"/><path class="cls-5" d="M384.62,90.44a2,2,0,0,1,.35-.3C384.88,89.93,384.8,90.22,384.62,90.44Z"/><path class="cls-5" d="M379,93.41c.25-.07-.21-.5,0-.45C378.83,92.39,378.1,94.44,379,93.41Z"/><polygon class="cls-5" points="384.79 91.79 384.33 91.51 384.37 92 384.79 91.79"/><path class="cls-5" d="M381.47,94l.71-.39c-.06-.06,0-.16.06-.27C381.85,93.61,381.36,93.87,381.47,94Z"/><path class="cls-5" d="M382.24,93.32a1.3,1.3,0,0,0,.45-.47A2.94,2.94,0,0,0,382.24,93.32Z"/><polygon class="cls-5" points="384.03 92.59 383.78 92.66 383.31 92.98 384.03 92.59"/><path class="cls-5" d="M374.7,99.29l-.59.66c0,.19.29.12.5-.14S374.91,99.34,374.7,99.29Z"/><path class="cls-5" d="M377.62,98.71a.89.89,0,0,1-.54-.06l.37.5Z"/><path class="cls-5" d="M375.72,100.41c0,.19-.68,1.18.16.46C375.84,100.68,376.44,100,375.72,100.41Z"/><polygon class="cls-5" points="364.96 108.04 365.13 107.9 364.47 107.12 364.96 108.04"/><path class="cls-5" d="M357.44,117.2c1-.45-.2-.64.72-1,0-.34-.76.29-.69,0C357.14,116.77,356.79,116.86,357.44,117.2Z"/><path class="cls-5" d="M357.47,116.18a3.26,3.26,0,0,0,.15-.32A.91.91,0,0,0,357.47,116.18Z"/><polygon class="cls-5" points="252.59 194.75 251.93 195 252.48 195 252.59 194.75"/><path class="cls-5" d="M252.06,196.14l-.53-.41.06.71C251.69,196.32,251.88,196.1,252.06,196.14Z"/><path class="cls-5" d="M326.26,143.24l-.06-.15c-.18-.07-.31,0-.57.19Z"/><polygon class="cls-5" points="318.92 148.52 319.05 148.43 318.45 148.15 318.92 148.52"/><path class="cls-5" d="M313.48,153.84c.25-.17.45-.5.71-.68C313.73,153.67,313,153.32,313.48,153.84Z"/><path class="cls-5" d="M374.14,183.33c.16.27.42-.07.51-.08C374.26,182.88,374.06,183.4,374.14,183.33Z"/><polygon class="cls-5" points="370.25 179.69 370.44 179.66 369.64 179.3 370.25 179.69"/><path class="cls-5" d="M367.34,175.76c-.3.8,1.15,1.36,1.46,2.21l0,.21.69,0C368.75,177.36,367.62,176.48,367.34,175.76Z"/><path class="cls-5" d="M367,172.74c-.13.3-.53-.31.29.55a.76.76,0,0,1,0-.14A2.66,2.66,0,0,1,367,172.74Z"/><path class="cls-5" d="M367.3,173.15c.32.41,0-.41,0,0Z"/><path class="cls-5" d="M365.75,171.34l.61.4c0-.22-.29-.72-.06-.61C365.78,170.65,365.73,170.86,365.75,171.34Z"/><path class="cls-5" d="M365,171.13l.3.22C365.26,171.26,365.23,171.17,365,171.13Z"/><path class="cls-5" d="M365.87,171.82l-.62-.47c0,.15-.22.3.26.23C365.31,171.66,365.56,171.66,365.87,171.82Z"/><path class="cls-5" d="M366,172.22c.11.4.32.86-.28.46C366.6,173.66,366.89,173.21,366,172.22Z"/><path class="cls-5" d="M366.59,176l.14.53.45.21C367,176.64,366.75,175.84,366.59,176Z"/><path class="cls-5" d="M363.53,167.72c-.15.06-.19.43-.32.59l.44.29C363.58,168.34,363.37,167.89,363.53,167.72Z"/><path class="cls-5" d="M363.21,168.31l-.66-.45C362.93,168.42,363.1,168.44,363.21,168.31Z"/><polygon class="cls-5" points="364.24 171.51 365.42 172.17 364.1 171.32 364.24 171.51"/><polygon class="cls-5" points="361.83 165.41 362.37 165.54 361.49 165.25 361.83 165.41"/><path class="cls-5" d="M360.65,163.92c.42.08.14-.64.48-.48a3.67,3.67,0,0,0-1.23-.77A2.17,2.17,0,0,1,360.65,163.92Z"/><path class="cls-5" d="M359.24,162.33a3.69,3.69,0,0,0,.66.34A2.16,2.16,0,0,0,359.24,162.33Z"/><path class="cls-5" d="M361.85,166.79a.82.82,0,0,0,0-.73l-.17.49Z"/><path class="cls-5" d="M361.68,166.56h0l-.36-.53Z"/><path class="cls-5" d="M361.89,166.85l0-.06C361.84,166.84,361.83,166.86,361.89,166.85Z"/><path class="cls-5" d="M363.38,169.7c-.46-.21-1.21-.8-1,.14C362.83,169.91,362.69,169.38,363.38,169.7Z"/><path class="cls-5" d="M361.68,167.46l.4.7c.08-.08.13-.29.35-.19Z"/><polygon class="cls-5" points="361.34 167.23 361.69 167.46 361.54 167.2 361.34 167.23"/><path class="cls-5" d="M359.73,163.67a2.79,2.79,0,0,1-.87-.78,7.44,7.44,0,0,0,.72,1.18C359.72,164,360,164.05,359.73,163.67Z"/><path class="cls-5" d="M360.65,165.1l-.07,0C360.58,165.11,360.59,165.15,360.65,165.1Z"/><path class="cls-5" d="M356.36,159.52a.3.3,0,0,1,0,.1l.07,0Z"/><path class="cls-5" d="M359.56,164.17a.83.83,0,0,0,.57.51,4.66,4.66,0,0,1-.55-.61C359.51,164.08,359.48,164.1,359.56,164.17Z"/><path class="cls-5" d="M358.38,161.51a3.78,3.78,0,0,0,.16.62C358.55,161.91,358.51,161.5,358.38,161.51Z"/><path class="cls-5" d="M360.61,164.89s0,0,0,0C360.66,164.77,360.63,164.81,360.61,164.89Z"/><path class="cls-5" d="M360.61,164.89a1.8,1.8,0,0,0-.48-.21,2.93,2.93,0,0,0,.45.37A.45.45,0,0,1,360.61,164.89Z"/><path class="cls-5" d="M353.4,160.14c.36-.19,1.19.32,1.31,1.2.7.43,1.45-.75,1.63-1.72-.15.09-.28.18-.94-.31,0,.35.64,1.7,0,1.38-.78-.71-.39-.76-.53-1.3-.14.64-1.37-.63-1.81,0l.75.58C353.68,160,353.34,159.88,353.4,160.14Z"/><path class="cls-5" d="M357.2,160.85l.24.23a3,3,0,0,1-.24-1.22c-.48-.32-.66-.32-.79-.27l.91,1.32Z"/><path class="cls-5" d="M358.31,162.25c-.5.05-1.11-.46-1.2.2.59.74.68.32,1.17.66-1-1.16.46.21,0-.82a4.73,4.73,0,0,1,.59.6c-.12-.26-.23-.51-.32-.76v.05h0c0,.09,0,.13,0,0l0,0-.17,0c-.2-.41.05-.13.17,0l.06,0h0l-1.1-1.1A5.9,5.9,0,0,0,358.31,162.25Z"/><path class="cls-5" d="M361.18,169.73a.1.1,0,0,1,.05-.1C361.12,169.58,361.07,169.57,361.18,169.73Z"/><path class="cls-5" d="M361,169.07a.64.64,0,0,1,.49.34c.08.33-.17.12-.27.22.22.11.7.43.46-.24l-.11-.06c-.25-.58-.3-1.54-.18-1.49A2.83,2.83,0,0,0,361,169.07Z"/><path class="cls-5" d="M359.54,165.69l-.93-.9.09.74.16-.16C359.22,166,359.35,165.72,359.54,165.69Z"/><polygon class="cls-5" points="356.45 159.28 356.91 159.14 355.96 158.93 356.45 159.28"/><polygon class="cls-5" points="355.41 157.97 355.77 157.79 355.31 157.58 355.41 157.97"/><path class="cls-5" d="M295.45,85.56l-.32-.23A1.41,1.41,0,0,0,295.45,85.56Z"/><path class="cls-5" d="M297.05,87.76l.2-.06C297.08,87.66,297,87.67,297.05,87.76Z"/><path class="cls-5" d="M331,125.21c0-.66.07-1.49-.25-1.17l-.25.39A1.57,1.57,0,0,1,331,125.21Z"/><path class="cls-5" d="M312.22,104.3c0,.07,0,.14,0,.21l.56,0Z"/><path class="cls-5" d="M310.54,105.06l-.2-.75A3.13,3.13,0,0,0,310.54,105.06Z"/><path class="cls-5" d="M286.2,73.9l-.62-.09C286,74.36,286,74,286.2,73.9Z"/><path class="cls-5" d="M345.11,144.4a4,4,0,0,0-.49-1.11C344.76,143.9,344.74,144.49,345.11,144.4Z"/><path class="cls-5" d="M299.78,83.67c-.2-.13-.33-.16-.4-.1C299.58,83.72,299.72,83.78,299.78,83.67Z"/><path class="cls-5" d="M343.8,142.2c0,.09.05.17.07.26a3.8,3.8,0,0,1,.75.83A1.35,1.35,0,0,0,343.8,142.2Z"/><path class="cls-5" d="M254.3,30.39a.5.5,0,0,1,0-.13C254.21,30.29,254.24,30.34,254.3,30.39Z"/><path class="cls-5" d="M248.43,15.17a5,5,0,0,1,.42.5A1.77,1.77,0,0,0,248.43,15.17Z"/><path class="cls-5" d="M351.57,152.49c.23.27.07,0,0,0Z"/><path class="cls-5" d="M351.22,154.89a.3.3,0,0,0-.26,0A.34.34,0,0,1,351.22,154.89Z"/><path class="cls-5" d="M339.54,141l0,0C339.52,141.1,339.52,141.07,339.54,141Z"/><path class="cls-5" d="M351.73,153a2.79,2.79,0,0,0-.17-.44A2.88,2.88,0,0,0,351.73,153Z"/><path class="cls-5" d="M351.85,152.85c.06.11.1.2.15.28S352.1,153.06,351.85,152.85Z"/><path class="cls-5" d="M351.26,152.11a3.15,3.15,0,0,1,.3.48c0-.07,0-.11,0-.1Z"/><path class="cls-5" d="M272.48,52.9s0-.06,0-.09C272.11,52.63,272.23,52.74,272.48,52.9Z"/><path class="cls-5" d="M321.9,120.53l0,0a.17.17,0,0,1,0,0Z"/><path class="cls-5" d="M320.88,119.7c.76.12.89.4,1,.8l.75-1.09Z"/><path class="cls-5" d="M291.45,80.4l.22.95c-1.15-.48-1.44-1.24-1.38-.24,1.16-.71,2.18,2.7,3.34,2l.12.65c-.09-.15-.17-.12-.26-.26.16,1.3,1.3.09,2,1.39.22.47.27.88-.06.69l.95.72c.17.28-.06.35-.24.07l1.13,1.34h0a7.35,7.35,0,0,1,1.19.46c.11.48-.25-.09-.31.1l.84.58c-.05.53-.8.09-1.16-.47-.55,1.53.75.43,1.28,2.47l-.69-.63c-.26.93.38,1.33.61,2.44.06-.34-.26-2.37.64-1.73a1.51,1.51,0,0,0,.84.92c-.38.3,0,.67.48,1.21l-.55.34c.6.49.82.25,1.32.43a1.29,1.29,0,0,1-.07,1.54c.71,1.13.09-1.21,1.12,0A6,6,0,0,0,305,97.68c.29.75-.39.12-.38.46l.82.24c.09.14-.06.19-.14.22.5.35.54-.34,1.22.28.71-.22.29,2.12,1.6,2.54,0,.33-.39.13-.54.34A9.7,9.7,0,0,0,310,103.2l.31,1.11c-.09-.92,1-.45,1.88,0,0-.37,0-.68,0-.87l1.13.94c0,.2-.25.21-.6.19l.28.11c.11.55-.34.56-.85.48,0-.21,0-.43,0-.64-.52-.05-1.06-.06-1.31.22a1.19,1.19,0,0,1,.41.27c-.14,0-.25,0-.27.07s.17.12.44.21l-.38.68.28-.11.75,1.76c1.36.64,2.9.93,4.39,2.45-.73-.11-.75.42-1.26.76.18-.85-1.2-1.14-1.74-2.1.28.5,0,.58-.2.52l1.64,1.21c-.43.27-.06.56.08,1.09.57-.9,1.4.77,2.12,1.22-.24.24-.63.29-1.14-.53,0,1.3,1.76.4,1.87,1.63-.14-.19-.18-.32-.37-.29.57.26,1.18,1.48.76,1.4l-.15-.18c.84,1.33,2.84,3.83,3.66,3.51a4.83,4.83,0,0,1-1.14.47l4,.54c-.73.24-1.57,2-2.67,1.24a2.44,2.44,0,0,0,1,1.28c-.07-.27.47-1.14.73-.9a7.44,7.44,0,0,0,.19,2.15c-.1-.4,1.07-.74,1.4-.24-.19,0-.87.72-1.1.61l1.8.54c-.39-.18-.81.51-.86,1,.08-.26.76,1.05,1.08,1.31l-.17-.67c.88,1.46,2.27.4,3.23,1.79-.31,0-1.45.45-1.05,1.22.69,0,3.25-.27,4.5.66l-.1.43,1,.69a23.35,23.35,0,0,1-5-1c.17.66-.2.37.39,1.11,0,.46-.69-.13-.87-.35l1.16,1.9c.48-.48,1.55,1,1.95.55l-2-1.51c.48-.48,2.36,0,3.2,1.3,0,.48-1.14.48-1.3.64.31,0,1.24.93,1.2,1.14l-.69-.32c.32.85,1.57.61,1.68,1.83.18.32-.05,1.39.3,1.2a5,5,0,0,1,2.8-2.47,13.52,13.52,0,0,1,.49,2.52c-.13.84-1.69.14-1.8.85.16-.09.54,0,.68.11.1.4-.55.21,0,.82.63-.29,1,1.39.69,0,.64.54.4.78,1,1.52.17-.51,1.71-.21,2.35.32-.17.07-.24.35-.27.48.94,1.36,1.22,2.26,2.14,3.5-.05.22.23.93-.19.85a1.63,1.63,0,0,1,.83.51c.08,1.09-.7-.8-.85.19.35-.19,1.17.66,1.77,1.05.37-.53-.84-1.32-1.44-1.72.67-.51,2.09-.09,3.36,1,.94.9-.1.77.13.87,1.32,2,2.4.77,3.11,2.74,0,1-.84.67-1,1-.78-.72-.68-1.49-1.12-2.05l.32.85a2,2,0,0,1-1-1c0,.82,2.35,3.32,3.1,5.08.35.15.84.5.85.15l-.41-.42c0-.7,1.14.53.86-.19a4.57,4.57,0,0,1,2.09,1.91l-.37.53c.13-.12-.14-.8-.48-.94.5.21.36,1.87,1.3,1.79l-.12-.87c.72.45,1.82.84,2.26,1.75.21-.72-.19-.14,0-1.13-.35,1-1.48-2-1.64-.7.23-1.07-.46-1.21-.46-2.38-.14.15-.11.5-.52-.22a1.09,1.09,0,0,1-.25,0s0,0,0-.06a.07.07,0,0,0,0,.05c-.05,0-.06,0,0,0a.91.91,0,0,1,0,.52c-.61-.05-1.39-1.11-1.84-1.32-.22-.45.3,0,.32-.32l-.69-.32c.32-.32-.17-1.49.73-.72l-.61-.85a3.11,3.11,0,0,0-1-1.68c-.22-.45-1.14-.69-.61-.56l-1.19-1.14.08-.08c-.91-1.32-2.57-2.21-3-4.17a5,5,0,0,1-1.29-1.54l.2-.37c-.52-.48-.93-1.91-1.44-1.91.4-1.22-1.82-2.84-2.41-3.93l-.43.27a11.58,11.58,0,0,0-1.86-2l-.32.31c-.84-.5-1.13-2-2-3.16.2,0,.38.29.45.56-.2-2-2.73-2.44-3.06-4.12a1.11,1.11,0,0,1-.56-.75.21.21,0,0,0,.08.06l-.09-.13c0-.18-.07-.37-.13-.57a1.74,1.74,0,0,0,.08.5,6.15,6.15,0,0,0-.85-.84l.27-.44a.23.23,0,0,0-.07-.07c-.12-.46-.39-.15-.54.25a2.61,2.61,0,0,0-.58-.29c.41-.75-.91-.77-.53-1.65-.5,0-1.56-1.6-2.39-1.28.08-.08.05-.21.2,0a2.06,2.06,0,0,0-.89-1.11l.37-.54-1.3-.37c-.09-.74-.08-1.09.68-.85-1.51-.82-1-.85-2.34-1.49l.35-.19c-.29-.37-1.17-.66-1.08-1.09,0-1.3-3.05-4.28-4.12-6.89-.62,1.12-.34-1.33-1.13-.87.13-.3,0-.69.48-.48-1.05-1-.9-1.94-2.08-2.26.13-.29.5,0,.55-.21-.12-.06-.46-.22-.41-.43s.31,0,.53.13c-.88-1.11-1.65-.72-2.35-.33-.13-.8-.39-1.06-1.12-1.17.06-.35,0-.85.63-.2-.26-.42-1.5-2.66-2-2.32,0-.22-.38-.59-.52-.65a17.14,17.14,0,0,0-1.35-1.87l.1.3c-.88.11-.68-.63-1.28-1.28l.07,0c-.76-2-.73-.54-1.41-2.52l-.32.37c-.94.47-.57-1.78-1.58-2.48l0,.5c-.66-.3.07-2.26-.21-2.84,0-.17.25.09.42.2-.51-1.7-.64.2-1.49-.7.13-.39.86-.28.42-1,0-.5-2.33-1.29-2.49-2.59-.06.36-.12.71-.62.37-.6-.66-.64-2.51-1.77-2.66a.29.29,0,0,1,.07-.25c-.58-.41-1.6-1.55-2.2-1.61,1-1.49-3.15-2.89-1.91-3.79L294,76.56l.16,0a2.68,2.68,0,0,0-1.86-1.44c-.1-.31.15-.22.23-.24a4.57,4.57,0,0,0-2.66-2.71l.3-.43c-.5-.19-1.05-2.72-2.65-3.9a.37.37,0,0,1,.3,0c-1.74-1.37-1.95-4.93-3.87-4.48l-1.2-.87c1,1.55-.79.25-.58,1-.52-.51-.68-1.81-.07-1.16v.16c.95-.3-1.08-2-.54-2.36-2.18-2.86-3.86-6-5.83-8.71l-.36.75-.67-1c0-.35.21-.67.69,0,.07-.6-1.12-.92-1.26-.85-.74-1.49,1.07,0,.78-.41l-.45-.51,0,.17c-.57-.27-.85-.12-1.42-1-.27-.6.16-.53,0-.75,0,0,0-.11-.22-.32L272,46.39l-.11.82c-.62-.36-.81-1.14-.92-.2.21-1.41-3-4.65-3.12-5.33a6.09,6.09,0,0,1-2.06-2.15c.07.3-.35.82-.86,0,1.28-.51-.59-1.77-.29-3-.09.94-1.77-2.12-1.84-.7-.4-.71.37-.34.26-1-1.57-1.23-2.26-3.6-3.82-5.41-.17.08-.14.56-.66.3l0-1.53c-.35-.32-1.08.26-1.1-.79,0,.18-.12.46-.35.24-2.09-4.25-6.25-7.22-7.78-12,.11.71-.17.39-.47,0,.12.3-.36.25-.51.44l-.65-2c-.75.1-1.31-1.68-1.94-1.47l.47.44c-1.1-.23-.64,1.92-1.48,2.4,1.24.24.46,2.72,2.35,3.23,0,.39-.42-.05-.49.23.56.07.91.39,1.29,1.2l-.14,0c1.53,1.9,1.83,3,3.26,5.35l.25-.45a2.26,2.26,0,0,1,.33,1c1,.11-1-1.36,0-1.34-.31,1.21,2.47,3.35,1.91,4.43.53.73.28-.54.81.19l-.09.37.44,0a.93.93,0,0,1,0,1.14c-.06-.13-.3-.29-.41-.4.18.83,1.39,1.68,1.46,2l-.37-.81c1.7,1.82,3.19,4.48,5.1,6l.07-.28c1.42,1.22.68,1.32,2,2.82l-.09,0a2.86,2.86,0,0,1,1.14,1c-.52-.25.16,1.07-.47.71,1.54,1.32.86.58,2.31,1.13l-.12.47a2,2,0,0,1,1.38.82c-.75-.47-.07.85-1,.37.6,2.17,2.52,2,2.14,3.5,1.4.16-.63-1.8-.13-1.5,0-.57,1.1.18,1.41.77s-.38,1.7.65,3.05c-.1-.14-.17-.11-.26-.24.16.66,1,.78,1.14,1.66.76,0,.57.83,1.28.45l-1.07-1.13c.69.58,1.93.69,2.43,2.12a2.61,2.61,0,0,1-.89-.38c.06.47.61.56.68,1.05-.71.38-1.26-1.41-2.31-1.8,0,.56,1.52,1.09.55,1.22,1.28-.11.89,1.42,2.24,1.84l-.43.22A2.29,2.29,0,0,1,274,56l-.85-.11c1,.43.69,1.7,1.45,2.25-1.12-1.49.21-.68,0-1.52,1.88,1.46-.21,1.8,1.51,3.73-.26-.24-.55-1.22-.05-.92a3.86,3.86,0,0,1,.43,1.47c1.1,1.31.24-.5.9-.09-.11.81.69.53,1.29,1l-.39.29c.91,1.74,1.11-.19,1.86,1.44l-1-.2.68.63-.55.18a3.14,3.14,0,0,1,1.47,1.73c.14-.38.78-.42,1.3.26.12.64-.56,0,.22,1-.4,0-.89-.06-.85-.75-.16,0-.4,0-.56,0,.11.7.89,1.32,1.15,1.67a1.51,1.51,0,0,1-.19-.45l1.59,1c0,.33-.23.24-.47.15.25.25.58.32.92.72-.39.12-.7.39-1.29-.1l1.35,1.09c-.07.19.14,1-.1.88.37.89,2,1.39,2.47,2.56a.89.89,0,0,1,.43.24c.62,1,.85,2.1,2.11,2.89l-.1,1c.77.77.08-1.37,1.36-.09.94.88-.2.74-.09,1.21.66.3,1.9.75,2.14,2C291.81,81,291.71,80.66,291.45,80.4Zm8.19,10.49c-.23-.15-.79-.37-.67-.69C299.58,90.1,299.51,90.44,299.64,90.89Zm13,15.53c-.24-.06-.36-.34-.41-.72A1.49,1.49,0,0,1,312.64,106.42ZM349,149.62h0C348.72,149,348.78,149.25,349,149.62Zm.54,1.08c.13.06.17,0,.2-.07-.15,0-.32-.2-.47-.47C349.17,150.31,349.19,150.48,349.49,150.7ZM272.84,47.93l0,.27C272.45,47.86,272.64,47.9,272.84,47.93Z"/><path class="cls-5" d="M310.74,105a.46.46,0,0,1,.15-.25C310.76,104.7,310.68,104.75,310.74,105Z"/><path class="cls-5" d="M286.32,73.92s0,0,0,0l-.1,0Z"/><path class="cls-5" d="M335.17,138.3a1,1,0,0,1-.08-.53C335,137.83,335,138,335.17,138.3Z"/><path class="cls-5" d="M353.92,155.29l-.55-.54a1.17,1.17,0,0,1,.28.65C353.73,155.32,353.77,155.1,353.92,155.29Z"/><path class="cls-5" d="M355.49,162.4c.11,0,.14.18.26.24l.16-.16C355.61,162.11,355.27,162,355.49,162.4Z"/><path class="cls-5" d="M353.06,156.82c-.29.29.11.59.49,1,0,0-.05,0-.06-.07C354,157.51,353.55,157.16,353.06,156.82Z"/><path class="cls-5" d="M353.63,157.89a1.85,1.85,0,0,1,.3.39C354.15,158.19,353.85,158.09,353.63,157.89Z"/><path class="cls-5" d="M350.61,151.76c.07.26.51-.18.46,0C351.66,151.71,349.56,150.8,350.61,151.76Z"/><polygon class="cls-5" points="352.25 157.96 352.53 157.51 352.03 157.51 352.25 157.96"/><path class="cls-5" d="M350,154.35l.4.77c.05-.06.16,0,.27.08C350.39,154.77,350.12,154.24,350,154.35Z"/><path class="cls-5" d="M350.69,155.2a1.44,1.44,0,0,0,.48.5A4.31,4.31,0,0,0,350.69,155.2Z"/><polygon class="cls-5" points="351.43 157.11 351.36 156.85 351.03 156.34 351.43 157.11"/><path class="cls-5" d="M344.6,146.91l-.67-.67c-.19,0-.13.3.14.53S344.56,147.12,344.6,146.91Z"/><path class="cls-5" d="M345.19,150c-.07-.26,0-.34.06-.56l-.52.35Z"/><path class="cls-5" d="M343.45,147.89c-.2,0-1.21-.79-.47.14C343.17,148,343.84,148.67,343.45,147.89Z"/><polygon class="cls-5" points="335.68 136.13 335.83 136.31 336.62 135.68 335.68 136.13"/><path class="cls-5" d="M326.32,127.63c.46,1,.66-.17,1,.82.35.06-.29-.81,0-.72C326.77,127.35,326.67,127,326.32,127.63Z"/><path class="cls-5" d="M327.37,127.73a2,2,0,0,0,.33.18A1.42,1.42,0,0,0,327.37,127.73Z"/><polygon class="cls-5" points="247.32 12.75 247.06 12.05 247.06 12.62 247.32 12.75"/><path class="cls-5" d="M245.89,12.1l.43-.52h-.73C245.71,11.7,245.94,11.92,245.89,12.1Z"/><path class="cls-5" d="M299.77,93.26l.16-.05c.07-.19,0-.33-.2-.62Z"/><polygon class="cls-5" points="294.4 85.22 294.49 85.36 294.78 84.76 294.4 85.22"/><path class="cls-5" d="M289,79.17c.17.27.51.51.69.79C289.14,79.44,289.5,78.66,289,79.17Z"/></g></svg>
