<svg id="Layer_1" data-name="Layer 1" xmlns="http://www.w3.org/2000/svg" xmlns:xlink="http://www.w3.org/1999/xlink" width="1006" height="429" viewBox="0 0 1006 429"><defs><style>.cls-1{fill:#ff7c19;stroke:#000;stroke-miterlimit:10;stroke-width:2px;}.cls-2{fill:#2d12b2;filter:url(#AI_Shadow_1);}</style><filter id="AI_Shadow_1" name="AI_Shadow_1"><feGaussianBlur result="blur" stdDeviation="2" in="SourceAlpha"/><feOffset result="offsetBlurredAlpha" dx="4" dy="4" in="blur"/><feMerge><feMergeNode in="offsetBlurredAlpha"/><feMergeNode in="SourceGraphic"/></feMerge></filter></defs><title>tema3_titel</title><path class="cls-1" d="M422.26,184.82l-.37,15.53-10.91.44-2.79,34.72-15.45.8.07-34.71-10.91.58.44-17.28Z"/><path class="cls-1" d="M459,184.38q-.22,3.45-.4,6.82c-.13,2.24-.28,4.51-.48,6.81l-15.53.8-.36,4.62h10.91l-.81,11.35-11,.37-.37,5.34h15.53q-.22,4-.46,8t-.42,8l-31.57.73,1.18-52.81Z"/><path class="cls-1" d="M516.81,183.8l-3.37,53.76-16.7.73.15-28.34-7.54,22.85H482.9l-5.79-20.44L477,236.09l-16.92.52.73-50.61,18.83-.74,7.47,24.25,10-25.71Z"/><path class="cls-1" d="M565,234l-18.16,2.35-2.2-8.28h-8.35l-1.83,8.28-18.68-1.83,14.58-48.78,20.36-1ZM543.36,216.9l-2.78-12.74-2.71,12.74Z"/><path class="cls-1" d="M616.9,218.73a21,21,0,0,1-1.56,8.45,16.08,16.08,0,0,1-4.34,5.93,18.16,18.16,0,0,1-6.65,3.51,29.45,29.45,0,0,1-8.47,1.16,24.56,24.56,0,0,1-4.29-.4,35.67,35.67,0,0,1-4.36-1.1,38,38,0,0,1-4.19-1.65,37.57,37.57,0,0,1-3.79-2l1.39-14.72a27.41,27.41,0,0,0,3.11,1.81,34.75,34.75,0,0,0,3.58,1.54,27.77,27.77,0,0,0,3.73,1.08,17.33,17.33,0,0,0,3.64.4,12.76,12.76,0,0,0,2.11-.17,6.41,6.41,0,0,0,2-.6,3.94,3.94,0,0,0,1.45-1.24,3.63,3.63,0,0,0,.56-2.09,2,2,0,0,0-.73-1.5,6.64,6.64,0,0,0-1.76-1.19,10.76,10.76,0,0,0-2.12-.77,7.48,7.48,0,0,0-1.83-.28q-.51,0-1.23.06c-.48,0-1,.09-1.45.16a13.09,13.09,0,0,0-1.41.31,3.05,3.05,0,0,0-1,.5l.22-10.48c.42,0,.81.09,1.17.11s.76,0,1.17,0a17.73,17.73,0,0,0,2.79-.24,10.34,10.34,0,0,0,2.78-.84,5.89,5.89,0,0,0,2.14-1.67,4.16,4.16,0,0,0,.86-2.74,2.85,2.85,0,0,0-.66-2,4.17,4.17,0,0,0-1.63-1.15,7.71,7.71,0,0,0-2.1-.55,15.83,15.83,0,0,0-2.05-.15,17.31,17.31,0,0,0-5.84,1,15.07,15.07,0,0,0-5.07,3L579.91,187a24.42,24.42,0,0,1,7.67-4.2,27.16,27.16,0,0,1,8.66-1.44,25.15,25.15,0,0,1,7.64,1.15,19.38,19.38,0,0,1,6.42,3.41,16.53,16.53,0,0,1,4.44,5.55,16.88,16.88,0,0,1,1.64,7.61,9.31,9.31,0,0,1-.36,2.53,14.67,14.67,0,0,1-1,2.49,12.63,12.63,0,0,1-1.47,2.25,11.81,11.81,0,0,1-1.79,1.81A7.2,7.2,0,0,1,614.3,210a9.7,9.7,0,0,1,1.57,2.6,12.57,12.57,0,0,1,.81,3A24.12,24.12,0,0,1,616.9,218.73Z"/><path class="cls-1" d="M156.54,299.91a13.19,13.19,0,0,1-3.23,2.87,21.32,21.32,0,0,1-4.12,2,26.11,26.11,0,0,1-4.51,1.21,25.56,25.56,0,0,1-4.4.41,18.86,18.86,0,0,1-7.43-1.45,18,18,0,0,1-5.86-4,18.55,18.55,0,0,1-3.85-6,19.64,19.64,0,0,1-1.39-7.43,25.44,25.44,0,0,1,2.68-11.43,23.65,23.65,0,0,1,3.16-4.73,20.25,20.25,0,0,1,4.23-3.72A20.06,20.06,0,0,1,143,264.4c.8,0,1.65,0,2.56.1a24.74,24.74,0,0,1,2.71.33,19.09,19.09,0,0,1,2.63.66,11.34,11.34,0,0,1,2.34,1l-.78,10.63a14.24,14.24,0,0,0-3.21-.8,25.84,25.84,0,0,0-3.24-.2,12.32,12.32,0,0,0-4.17.68,10,10,0,0,0-3.36,2,9.17,9.17,0,0,0-2.27,3.12,9.82,9.82,0,0,0-.84,4.14,10,10,0,0,0,.39,2.8,7.15,7.15,0,0,0,1.19,2.39,6.07,6.07,0,0,0,2,1.69,5.63,5.63,0,0,0,2.74.64,8.89,8.89,0,0,0,2.19-.28,4.79,4.79,0,0,0,1.93-1l.11-2.17-6.67-.11.33-8.35c2.76-.09,5.53-.17,8.29-.23s5.55-.16,8.35-.27Z"/><path class="cls-1" d="M191.27,278.76a19.05,19.05,0,0,1-.37,3.94,12,12,0,0,1-1.19,3.24,11.69,11.69,0,0,1-2.08,2.73,19.33,19.33,0,0,1-3.09,2.39l6.62,11.8-12.52,2.45-4.29-11.85-3.45.11-.5,11.58h-12q.13-6.34.26-12.64c.09-4.19.18-8.4.3-12.63,0-2.14.07-4.25.11-6.35s.11-4.21.22-6.35a36.49,36.49,0,0,1,7.64-1.93q1.9-.27,3.87-.36c1.31-.07,2.65-.1,4-.1a21.35,21.35,0,0,1,6.14.88,15.85,15.85,0,0,1,5.24,2.63,13.17,13.17,0,0,1,3.66,4.37A12.84,12.84,0,0,1,191.27,278.76Zm-12.47.89a6.63,6.63,0,0,0-.32-2.14,4.75,4.75,0,0,0-.94-1.68,4.33,4.33,0,0,0-1.56-1.12,5.45,5.45,0,0,0-2.19-.4,7.64,7.64,0,0,0-1.08.07,5.7,5.7,0,0,0-1,.21l-.45,10.35h.67a9.76,9.76,0,0,0,2.43-.31,7.07,7.07,0,0,0,2.23-.94,5.39,5.39,0,0,0,1.62-1.64A4.51,4.51,0,0,0,178.8,279.65Z"/><path class="cls-1" d="M226.48,274.64c0,1.38-.07,2.89-.2,4.54s-.34,3.36-.64,5.12-.68,3.55-1.15,5.36a37.25,37.25,0,0,1-1.77,5.22,31.09,31.09,0,0,1-2.46,4.69,19,19,0,0,1-3.23,3.81,14.32,14.32,0,0,1-4.08,2.56,13,13,0,0,1-5,.93,14,14,0,0,1-5.61-1,12.65,12.65,0,0,1-4.07-2.81,15.11,15.11,0,0,1-2.79-4.12,25.61,25.61,0,0,1-1.69-5,37,37,0,0,1-.85-5.38c-.16-1.82-.24-3.58-.24-5.27a77.79,77.79,0,0,1,.39-7.78q.39-3.89,1.11-7.75l13,.5q-.75,4.36-1.3,8.78a73,73,0,0,0-.54,8.87c0,.31,0,.78,0,1.4s.08,1.32.16,2.09.18,1.56.32,2.37a13.44,13.44,0,0,0,.57,2.21,5.73,5.73,0,0,0,.87,1.64,1.52,1.52,0,0,0,1.21.64,1.85,1.85,0,0,0,1.45-.77,7.19,7.19,0,0,0,1.13-2,21.07,21.07,0,0,0,.85-2.95c.24-1.11.44-2.27.61-3.48s.3-2.41.4-3.62.19-2.33.25-3.37.11-1.95.13-2.75,0-1.39,0-1.78c0-1.45,0-2.89-.07-4.33s-.12-2.87-.21-4.3h13Q226.49,270.69,226.48,274.64Z"/><path class="cls-1" d="M266.56,265.68l-2,37.74L250,304.76l-7.79-20.21L241,305.15H228.43l1-39.47,13.91-.67,9.63,20,.45-18.92Z"/><path class="cls-1" d="M300.34,283.49a23,23,0,0,1-1,7,19.4,19.4,0,0,1-2.79,5.57,18.91,18.91,0,0,1-4.28,4.19,24.83,24.83,0,0,1-5.42,2.88,32.69,32.69,0,0,1-6.28,1.67,42.54,42.54,0,0,1-6.83.54c-.88,0-1.73,0-2.56-.07s-1.69-.12-2.56-.21l.78-37.35a35,35,0,0,1,6.3-1.38,51.91,51.91,0,0,1,6.44-.4,21.45,21.45,0,0,1,7.32,1.2,16.22,16.22,0,0,1,5.76,3.45,15.61,15.61,0,0,1,3.78,5.51A19.29,19.29,0,0,1,300.34,283.49Zm-11.41,1.78a10.64,10.64,0,0,0-.32-2.89,6.78,6.78,0,0,0-1.14-2.46,6,6,0,0,0-2-1.73,6.69,6.69,0,0,0-2.92-.71l-1.11,17.26a8,8,0,0,0,3-1.1,9.05,9.05,0,0,0,2.35-2.09,9.43,9.43,0,0,0,1.53-2.76,9.82,9.82,0,0,0,.6-3.13Z"/><path class="cls-1" d="M326.48,289.73l-1.17,12.35-23.43,1.84q.17-9.71.37-19.31t.52-19.32h14.47q-.64,6.09-1.23,12.18t-.83,12.26c.87,0,1.73,0,2.59,0h2.59q1.56,0,3.06,0Z"/><path class="cls-1" d="M374.68,265.46c-.11,1.74-.21,3.47-.3,5.17s-.22,3.44-.36,5.18l-11.8.61-.28,3.51h8.29l-.61,8.63-8.35.28L361,292.9h11.8q-.17,3.06-.35,6.08c-.12,2-.22,4-.32,6.06l-24,.55.22-6.9h-6.79L338.78,305,325,303.59l20.26-37.07Zm-25.49,24.71.28-9.68L345,290.17Z"/><path class="cls-1" d="M409.22,299.91a13,13,0,0,1-3.22,2.87,21.61,21.61,0,0,1-4.12,2,26.11,26.11,0,0,1-4.51,1.21,25.56,25.56,0,0,1-4.4.41,18.83,18.83,0,0,1-7.43-1.45,17.82,17.82,0,0,1-5.86-4,18.39,18.39,0,0,1-3.85-6,19.65,19.65,0,0,1-1.4-7.43,25.69,25.69,0,0,1,.7-5.95,25.39,25.39,0,0,1,2-5.48,23.24,23.24,0,0,1,3.16-4.73,20.25,20.25,0,0,1,4.23-3.72,20.06,20.06,0,0,1,11.19-3.28c.79,0,1.65,0,2.56.1a24.74,24.74,0,0,1,2.71.33,19.09,19.09,0,0,1,2.63.66,11.84,11.84,0,0,1,2.34,1l-.78,10.63a14.24,14.24,0,0,0-3.21-.8,25.88,25.88,0,0,0-3.25-.2,12.31,12.31,0,0,0-4.16.68,10,10,0,0,0-3.37,2,9.15,9.15,0,0,0-2.26,3.12,9.82,9.82,0,0,0-.84,4.14,10,10,0,0,0,.39,2.8,7.32,7.32,0,0,0,1.18,2.39,6.11,6.11,0,0,0,2,1.69,5.63,5.63,0,0,0,2.74.64,9,9,0,0,0,2.19-.28,4.79,4.79,0,0,0,1.93-1l.11-2.17-6.68-.11.34-8.35q4.14-.13,8.29-.23c2.76-.07,5.55-.16,8.35-.27Z"/><path class="cls-1" d="M444.93,299.91a13,13,0,0,1-3.23,2.87,21,21,0,0,1-4.12,2,26.77,26.77,0,0,1-8.9,1.62,18.83,18.83,0,0,1-7.43-1.45,17.82,17.82,0,0,1-5.86-4,18.58,18.58,0,0,1-3.86-6,19.84,19.84,0,0,1-1.39-7.43,25.62,25.62,0,0,1,2.69-11.43A22.83,22.83,0,0,1,416,271.4a20.07,20.07,0,0,1,9.4-6.14,20.61,20.61,0,0,1,6-.86c.79,0,1.65,0,2.56.1a24.74,24.74,0,0,1,2.71.33,19.09,19.09,0,0,1,2.63.66,11.84,11.84,0,0,1,2.34,1l-.78,10.63a14.19,14.19,0,0,0-3.22-.8,25.61,25.61,0,0,0-3.24-.2,12.31,12.31,0,0,0-4.16.68,10,10,0,0,0-3.37,2,9.31,9.31,0,0,0-2.27,3.12,10.54,10.54,0,0,0-.44,6.94,7.13,7.13,0,0,0,1.18,2.39,6.11,6.11,0,0,0,2,1.69,5.63,5.63,0,0,0,2.74.64,8.87,8.87,0,0,0,2.18-.28,4.77,4.77,0,0,0,1.94-1l.11-2.17-6.68-.11.33-8.35c2.77-.09,5.53-.17,8.3-.23s5.55-.16,8.35-.27Z"/><path class="cls-1" d="M473.4,265.46c-.11,1.74-.21,3.47-.3,5.17s-.22,3.44-.36,5.18l-11.8.61-.28,3.51H469l-.61,8.63-8.35.28-.28,4.06h11.8q-.17,3.06-.35,6.08c-.12,2-.22,4-.32,6.06l-24,.55.89-40.13Z"/><path class="cls-1" d="M512.2,265.68l-2,37.74-14.59,1.34-7.79-20.21-1.22,20.6H474.07l1-39.47L489,265l9.63,20,.45-18.92Z"/><path class="cls-1" d="M546,283.49a23,23,0,0,1-1,7,19.17,19.17,0,0,1-2.8,5.57,18.87,18.87,0,0,1-4.27,4.19,24.68,24.68,0,0,1-5.43,2.88,32.79,32.79,0,0,1-6.27,1.67,42.67,42.67,0,0,1-6.84.54c-.87,0-1.72,0-2.56-.07s-1.69-.12-2.56-.21l.78-37.35a35,35,0,0,1,6.3-1.38,52.06,52.06,0,0,1,6.45-.4,21.53,21.53,0,0,1,7.32,1.2,16.4,16.4,0,0,1,5.76,3.45,15.58,15.58,0,0,1,3.77,5.51A19.1,19.1,0,0,1,546,283.49Zm-11.41,1.78a11,11,0,0,0-.32-2.89,6.78,6.78,0,0,0-1.14-2.46,6,6,0,0,0-2-1.73,6.72,6.72,0,0,0-2.92-.71l-1.12,17.26a8,8,0,0,0,3-1.1,9.21,9.21,0,0,0,2.35-2.09,9.43,9.43,0,0,0,1.53-2.76,10.4,10.4,0,0,0,.6-3.13Z"/><path class="cls-1" d="M574,265.46c-.11,1.74-.22,3.47-.31,5.17s-.21,3.44-.36,5.18l-11.8.61-.28,3.51h8.29l-.61,8.63-8.35.28-.28,4.06h11.8Q572,296,571.78,299c-.12,2-.23,4-.32,6.06l-24,.55.89-40.13Z"/><path class="cls-1" d="M621.19,303.2,607.39,305l-1.67-6.29h-6.35L598,305l-14.19-1.39,11.07-37.07,15.48-.78Zm-16.47-13-2.12-9.68-2.06,9.68Z"/><path class="cls-1" d="M659.63,265.68l-2,37.74L643,304.76l-7.79-20.21L634,305.15H621.5l1-39.47,13.92-.67,9.63,20,.44-18.92Z"/><path class="cls-1" d="M676.91,266.4l-3.06,37.91-11.74.61V267.18Z"/><path class="cls-1" d="M721.86,265l-2.56,40.86-12.69.56.11-21.55L701,302.25h-4.9l-4.4-15.53-.05,18-12.86.39.55-38.47,14.31-.55,5.68,18.42L706.89,265Z"/><path class="cls-1" d="M758.52,303.2,744.71,305,743,298.69h-6.35L735.3,305l-14.19-1.39,11.08-37.07,15.47-.78Zm-16.48-13-2.12-9.68-2.06,9.68Z"/><path class="cls-1" d="M785.23,265.79l-.27,11.8-8.3.34-2.11,26.38-11.75.61.06-26.38-8.3.44.34-13.13Z"/><path class="cls-1" d="M801.79,266.4l-3.06,37.91-11.74.61V267.18Z"/><path class="cls-1" d="M837.7,285.94a20.21,20.21,0,0,1-.59,4.89,19.33,19.33,0,0,1-1.68,4.41,18.13,18.13,0,0,1-2.67,3.77,17,17,0,0,1-7.81,4.84,17,17,0,0,1-4.9.68,17.33,17.33,0,0,1-4.77-.64A18,18,0,0,1,811,302.1a17.21,17.21,0,0,1-3.57-2.78,17.47,17.47,0,0,1-2.73-3.62,18.33,18.33,0,0,1-1.75-4.28,17.74,17.74,0,0,1-.63-4.75,19.38,19.38,0,0,1,.59-4.75,18.82,18.82,0,0,1,1.68-4.38,18.59,18.59,0,0,1,2.66-3.79,17.71,17.71,0,0,1,3.49-3,16.84,16.84,0,0,1,4.19-1.94,15.84,15.84,0,0,1,4.76-.7,20.86,20.86,0,0,1,7.36,1.25,15.58,15.58,0,0,1,9.32,9.2A19.85,19.85,0,0,1,837.7,285.94Zm-12.36.73a7.92,7.92,0,0,0-.35-2.33,6.38,6.38,0,0,0-1-2,5.17,5.17,0,0,0-1.66-1.42,4.67,4.67,0,0,0-2.27-.54,5.3,5.3,0,0,0-4.1,1.76,5.6,5.6,0,0,0-1.13,1.92,7,7,0,0,0-.39,2.33,8.59,8.59,0,0,0,.33,2.34,7.09,7.09,0,0,0,1,2.11,5.25,5.25,0,0,0,1.65,1.53,4.45,4.45,0,0,0,2.3.59,5.3,5.3,0,0,0,2.35-.52,5.36,5.36,0,0,0,1.77-1.39,6.5,6.5,0,0,0,1.11-2A7.26,7.26,0,0,0,825.34,286.67Z"/><path class="cls-1" d="M877.5,265.68l-2,37.74-14.58,1.34-7.79-20.21-1.23,20.6H839.37l1-39.47,13.91-.67,9.64,20,.44-18.92Z"/><path class="cls-2" d="M17.93,404.59a6,6,0,0,0,3.71,5.52,7.15,7.15,0,0,0,1.7.41c.45,0,1.5,0,2.35,0l5.3,0,21.19-.06c14.13,0,28.25-.23,42.38-.33s28.26-.35,42.38-.54l21.2-.33,21.19-.43q84.77-1.72,169.53-5.22c113-4.57,226-11.55,339.07-18.66,56.51-3.55,113-7.08,169.53-10.25,28.26-1.52,56.51-3.18,84.77-4.52l21.19-1,10.6-.49,1.32-.06c.06,0,.81,0,.3,0-.87,0-1.75,0-2.62.08A36.38,36.38,0,0,0,939.28,404c0,1.3,0,0,0,.1l0-.66-.06-1.32-.12-2.65-.45-10.6-.87-21.19q-6.9-169.53-6.78-339.07a45,45,0,0,0,7.62,25,44.95,44.95,0,0,0,33,19.72c1.08.11,2.17.18,3.25.2,1.66,0,.79,0,.68,0h-6.62l-21.19-.06-42.38-.35c-14.13-.1-28.26-.38-42.39-.56s-28.25-.49-42.38-.78Q735.77,70,651,66.53C538,62,425,55,311.93,48c-56.51-3.52-113-7-169.53-10.19L100,35.46,78.82,34.32l-21.19-1-21.19-1-10.6-.48-1.32-.06-.57,0a.83.83,0,0,0,.22,0,3.73,3.73,0,0,0,.84-.32,2.67,2.67,0,0,0,1.12-1.19,2.51,2.51,0,0,0,.25-1.5c0-.16,0,.34,0,.47l0,.66-.06,1.33-.12,2.65-.45,10.59-.87,21.2Q17.92,235.06,17.93,404.59Zm-6,0L11.49,65.53l0-21.2,0-10.59V28.38a12.5,12.5,0,0,1,7.89-11.44,12.37,12.37,0,0,1,3.59-.85l.92,0h2l10.6,0,21.19-.07,84.77-.28,169.53-.55L651,14l169.53-.22,84.77-.1,42.38-.06,21.19,0h5.3c.94,0,1.51,0,3.23.07a15.08,15.08,0,0,1,8,3.32,16.25,16.25,0,0,1,2.95,3.25,15.94,15.94,0,0,1,1.88,4,15.75,15.75,0,0,1,.65,4.35l-.42,339.07,0,21.19,0,10.6,0,5.39a15,15,0,0,1-.69,4.19,15.26,15.26,0,0,1-1.9,3.81A14.52,14.52,0,0,1,977.11,419l-1.06.05h-2l-10.6,0-21.19-.07-84.77-.28-169.53-.56L348.86,417l-169.53-.22-84.77-.11-42.38-.05-21.19,0h-5.3c-.91,0-1.64,0-2.94-.06a12.79,12.79,0,0,1-3.43-.86,13.26,13.26,0,0,1-3-1.82A13,13,0,0,1,14,411.26a11.92,11.92,0,0,1-2-6.67Z"/></svg>
