<svg id="Layer_1" data-name="Layer 1" xmlns="http://www.w3.org/2000/svg" xmlns:xlink="http://www.w3.org/1999/xlink" width="1006" height="429" viewBox="0 0 1006 429"><defs><style>.cls-1{fill:#ff7c19;stroke:#000;stroke-miterlimit:10;stroke-width:2px;}.cls-2{fill:#2d12b2;filter:url(#AI_Shadow_1);}</style><filter id="AI_Shadow_1" name="AI_Shadow_1"><feGaussianBlur result="blur" stdDeviation="2" in="SourceAlpha"/><feOffset result="offsetBlurredAlpha" dx="4" dy="4" in="blur"/><feMerge><feMergeNode in="offsetBlurredAlpha"/><feMergeNode in="SourceGraphic"/></feMerge></filter></defs><title>tema4_titel</title><path class="cls-1" d="M421.83,184.82l-.36,15.53-10.92.44-2.78,34.72-15.45.8.07-34.71-10.91.58.44-17.28Z"/><path class="cls-1" d="M458.53,184.38q-.22,3.45-.4,6.82t-.48,6.81l-15.53.8-.36,4.62h10.91l-.81,11.35-11,.37-.37,5.34H456q-.23,4-.46,8t-.42,8l-31.57.73,1.17-52.81Z"/><path class="cls-1" d="M516.39,183.8,513,237.56l-16.7.73.15-28.34-7.55,22.85h-6.44l-5.79-20.44-.07,23.73-16.92.52.73-50.61,18.83-.74,7.47,24.25,10-25.71Z"/><path class="cls-1" d="M564.62,234l-18.16,2.35-2.2-8.28h-8.35l-1.83,8.28-18.68-1.84L530,185.78l20.36-1ZM542.94,216.9l-2.78-12.74-2.71,12.74Z"/><path class="cls-1" d="M617.28,219.61l-3.22.08-.66,15.82L596.85,237l.88-16.92-19.56.44,5.42-32.15h13.84l-4,22.41,4.84-.15,1.39-27.75h15.89L614.42,210l2.86-.15Z"/><path class="cls-1" d="M268.84,299.91a13,13,0,0,1-3.23,2.87,21,21,0,0,1-4.12,2A25.87,25.87,0,0,1,257,306a25.45,25.45,0,0,1-4.39.41,18.91,18.91,0,0,1-7.44-1.45,17.88,17.88,0,0,1-5.85-4,18.41,18.41,0,0,1-3.86-6,19.64,19.64,0,0,1-1.39-7.43,25.79,25.79,0,0,1,2.68-11.43,23.65,23.65,0,0,1,3.16-4.73,20,20,0,0,1,15.42-7c.8,0,1.65,0,2.56.1a24.92,24.92,0,0,1,2.72.33,19.45,19.45,0,0,1,2.63.66,11.84,11.84,0,0,1,2.34,1l-.78,10.63a14.19,14.19,0,0,0-3.22-.8,25.61,25.61,0,0,0-3.24-.2,12.27,12.27,0,0,0-4.16.68,10,10,0,0,0-3.37,2,9.17,9.17,0,0,0-2.27,3.12,10.54,10.54,0,0,0-.44,6.94,7.13,7.13,0,0,0,1.18,2.39,6.11,6.11,0,0,0,2,1.69,5.6,5.6,0,0,0,2.74.64,8.87,8.87,0,0,0,2.18-.28,4.83,4.83,0,0,0,1.94-1l.11-2.17-6.68-.11.33-8.35c2.77-.09,5.53-.17,8.3-.23s5.54-.16,8.35-.27Z"/><path class="cls-1" d="M303.57,278.76a19.05,19.05,0,0,1-.37,3.94,12,12,0,0,1-1.18,3.24,11.74,11.74,0,0,1-2.09,2.73,19.33,19.33,0,0,1-3.09,2.39l6.62,11.8-12.52,2.45-4.29-11.85-3.45.11-.5,11.58h-12q.13-6.34.27-12.64t.29-12.63c0-2.14.07-4.25.11-6.35s.11-4.21.22-6.35a35.8,35.8,0,0,1,3.84-1.19,36.38,36.38,0,0,1,3.8-.74q1.9-.27,3.87-.36c1.31-.07,2.65-.1,4-.1a21.35,21.35,0,0,1,6.14.88,15.9,15.9,0,0,1,5.25,2.63,13.17,13.17,0,0,1,3.66,4.37A13,13,0,0,1,303.57,278.76Zm-12.47.89a6.92,6.92,0,0,0-.31-2.14,4.77,4.77,0,0,0-1-1.68,4.33,4.33,0,0,0-1.56-1.12,5.44,5.44,0,0,0-2.18-.4,7.68,7.68,0,0,0-1.09.07,5.88,5.88,0,0,0-1,.21l-.45,10.35h.67a9.89,9.89,0,0,0,2.44-.31,7,7,0,0,0,2.22-.94,5.39,5.39,0,0,0,1.62-1.64A4.42,4.42,0,0,0,291.1,279.65Z"/><path class="cls-1" d="M338.78,274.64c0,1.38-.06,2.89-.19,4.54s-.35,3.36-.64,5.12-.69,3.55-1.16,5.36a37.25,37.25,0,0,1-1.77,5.22,30.21,30.21,0,0,1-2.46,4.69,18.71,18.71,0,0,1-3.23,3.81,14.19,14.19,0,0,1-4.08,2.56,13,13,0,0,1-5,.93,13.94,13.94,0,0,1-5.61-1,12.59,12.59,0,0,1-4.08-2.81,14.86,14.86,0,0,1-2.78-4.12,25.63,25.63,0,0,1-1.7-5,38.4,38.4,0,0,1-.85-5.38c-.16-1.82-.24-3.58-.24-5.27a77.79,77.79,0,0,1,.39-7.78q.39-3.89,1.12-7.75l13,.5q-.75,4.36-1.29,8.78a73,73,0,0,0-.55,8.87c0,.31,0,.78.05,1.4s.08,1.32.15,2.09.18,1.56.32,2.37a13.44,13.44,0,0,0,.57,2.21,5.5,5.5,0,0,0,.88,1.64,1.5,1.5,0,0,0,1.21.64,1.82,1.82,0,0,0,1.44-.77,7,7,0,0,0,1.13-2,19.8,19.8,0,0,0,.85-2.95c.24-1.11.45-2.27.61-3.48s.3-2.41.41-3.62.18-2.33.25-3.37.1-1.95.12-2.75,0-1.39,0-1.78c0-1.45,0-2.89-.07-4.33s-.12-2.87-.21-4.3h13Q338.78,270.69,338.78,274.64Z"/><path class="cls-1" d="M378.86,265.68l-2,37.74-14.59,1.34-7.79-20.21-1.23,20.6H340.73l1-39.47,13.92-.67,9.63,20,.44-18.92Z"/><path class="cls-1" d="M412.65,283.49a23.27,23.27,0,0,1-1,7,19.42,19.42,0,0,1-2.8,5.57,18.87,18.87,0,0,1-4.27,4.19,24.91,24.91,0,0,1-5.43,2.88,32.69,32.69,0,0,1-6.28,1.67,42.45,42.45,0,0,1-6.83.54c-.87,0-1.73,0-2.56-.07s-1.69-.12-2.56-.21l.78-37.35a35,35,0,0,1,6.3-1.38,52,52,0,0,1,6.45-.4,21.53,21.53,0,0,1,7.32,1.2,16.4,16.4,0,0,1,5.76,3.45,15.58,15.58,0,0,1,3.77,5.51A19.1,19.1,0,0,1,412.65,283.49Zm-11.41,1.78a11.49,11.49,0,0,0-.32-2.89,7.13,7.13,0,0,0-1.14-2.46,6,6,0,0,0-2-1.73,6.6,6.6,0,0,0-2.93-.71l-1.11,17.26a8.09,8.09,0,0,0,3-1.1,9.37,9.37,0,0,0,3.88-4.85,10.4,10.4,0,0,0,.6-3.13Z"/><path class="cls-1" d="M438.78,289.73l-1.17,12.35-23.43,1.84q.17-9.71.37-19.31t.52-19.32h14.47q-.65,6.09-1.22,12.18t-.84,12.26c.87,0,1.74,0,2.59,0h2.59q1.56,0,3.06,0Z"/><path class="cls-1" d="M487,265.46c-.11,1.74-.22,3.47-.31,5.17s-.21,3.44-.36,5.18l-11.8.61-.28,3.51h8.29l-.61,8.63-8.35.28-.28,4.06h11.8q-.16,3.06-.34,6.08c-.12,2-.23,4-.32,6.06l-24,.55.22-6.9h-6.79L451.08,305l-13.8-1.39,20.26-37.07Zm-25.5,24.71.28-9.68-4.45,9.68Z"/><path class="cls-1" d="M521.53,299.91a13.19,13.19,0,0,1-3.23,2.87,21.32,21.32,0,0,1-4.12,2,26.11,26.11,0,0,1-4.51,1.21,25.56,25.56,0,0,1-4.4.41,18.83,18.83,0,0,1-7.43-1.45,18,18,0,0,1-5.86-4,18.55,18.55,0,0,1-3.85-6,19.64,19.64,0,0,1-1.39-7.43,25.44,25.44,0,0,1,2.68-11.43,23.65,23.65,0,0,1,3.16-4.73,20.25,20.25,0,0,1,4.23-3.72A20.06,20.06,0,0,1,508,264.4c.8,0,1.65,0,2.56.1a24.74,24.74,0,0,1,2.71.33,19.09,19.09,0,0,1,2.63.66,11.34,11.34,0,0,1,2.34,1l-.78,10.63a14.24,14.24,0,0,0-3.21-.8,25.84,25.84,0,0,0-3.24-.2,12.32,12.32,0,0,0-4.17.68,10,10,0,0,0-3.36,2,9.17,9.17,0,0,0-2.27,3.12,9.82,9.82,0,0,0-.84,4.14,10,10,0,0,0,.39,2.8,7.15,7.15,0,0,0,1.19,2.39,6.07,6.07,0,0,0,2,1.69,5.63,5.63,0,0,0,2.74.64,8.89,8.89,0,0,0,2.19-.28,4.79,4.79,0,0,0,1.93-1l.11-2.17-6.68-.11.34-8.35c2.76-.09,5.53-.17,8.29-.23s5.55-.16,8.35-.27Z"/><path class="cls-1" d="M557.23,299.91a13,13,0,0,1-3.22,2.87,21.32,21.32,0,0,1-4.12,2,26.11,26.11,0,0,1-4.51,1.21,25.56,25.56,0,0,1-4.4.41,18.83,18.83,0,0,1-7.43-1.45,17.92,17.92,0,0,1-5.86-4,18.39,18.39,0,0,1-3.85-6,19.65,19.65,0,0,1-1.4-7.43,25.69,25.69,0,0,1,.7-5.95,25.39,25.39,0,0,1,2-5.48,23.24,23.24,0,0,1,3.16-4.73,20.25,20.25,0,0,1,4.23-3.72,20.06,20.06,0,0,1,11.19-3.28c.8,0,1.65,0,2.56.1a24.74,24.74,0,0,1,2.71.33,19.09,19.09,0,0,1,2.63.66,11.34,11.34,0,0,1,2.34,1l-.78,10.63a14.24,14.24,0,0,0-3.21-.8,25.88,25.88,0,0,0-3.25-.2,12.31,12.31,0,0,0-4.16.68,9.85,9.85,0,0,0-3.36,2,9,9,0,0,0-2.27,3.12,9.82,9.82,0,0,0-.84,4.14,10,10,0,0,0,.39,2.8,7.32,7.32,0,0,0,1.18,2.39,6.11,6.11,0,0,0,2,1.69,5.63,5.63,0,0,0,2.74.64,8.89,8.89,0,0,0,2.19-.28,4.79,4.79,0,0,0,1.93-1l.11-2.17-6.68-.11.34-8.35c2.76-.09,5.53-.17,8.29-.23s5.55-.16,8.35-.27Z"/><path class="cls-1" d="M585.71,265.46c-.11,1.74-.22,3.47-.31,5.17s-.21,3.44-.36,5.18l-11.8.61-.28,3.51h8.29l-.61,8.63-8.35.28L572,292.9h11.8q-.16,3.06-.34,6.08c-.12,2-.23,4-.32,6.06l-24,.55.89-40.13Z"/><path class="cls-1" d="M624.5,265.68l-2,37.74-14.58,1.34-7.8-20.21-1.22,20.6H586.38l1-39.47,13.91-.67,9.63,20,.45-18.92Z"/><path class="cls-1" d="M658.29,283.49a23,23,0,0,1-1,7,19.17,19.17,0,0,1-2.8,5.57,18.66,18.66,0,0,1-4.27,4.19,24.68,24.68,0,0,1-5.43,2.88,32.4,32.4,0,0,1-6.27,1.67,42.64,42.64,0,0,1-6.83.54c-.88,0-1.73,0-2.56-.07s-1.69-.12-2.57-.21l.78-37.35a35.12,35.12,0,0,1,6.31-1.38,51.91,51.91,0,0,1,6.44-.4,21.53,21.53,0,0,1,7.32,1.2,16.22,16.22,0,0,1,5.76,3.45,15.46,15.46,0,0,1,3.77,5.51A19.1,19.1,0,0,1,658.29,283.49Zm-11.41,1.78a11,11,0,0,0-.32-2.89,6.78,6.78,0,0,0-1.14-2.46,6,6,0,0,0-2-1.73,6.55,6.55,0,0,0-2.92-.71l-1.11,17.26a8,8,0,0,0,3-1.1,9.21,9.21,0,0,0,2.35-2.09,9.43,9.43,0,0,0,1.53-2.76,10.1,10.1,0,0,0,.6-3.13Z"/><path class="cls-1" d="M686.32,265.46c-.11,1.74-.21,3.47-.31,5.17s-.21,3.44-.36,5.18l-11.8.61-.28,3.51h8.3l-.62,8.63-8.35.28-.27,4.06h11.8q-.16,3.06-.35,6.08c-.12,2-.23,4-.32,6.06l-24,.55.89-40.13Z"/><path class="cls-1" d="M731.69,274.64c0,1.38-.07,2.89-.2,4.54s-.34,3.36-.64,5.12-.68,3.55-1.15,5.36a40,40,0,0,1-1.77,5.22,32,32,0,0,1-2.46,4.69,19,19,0,0,1-3.23,3.81,14.46,14.46,0,0,1-4.08,2.56,13,13,0,0,1-5,.93,14,14,0,0,1-5.61-1,12.8,12.8,0,0,1-4.08-2.81,15.08,15.08,0,0,1-2.78-4.12,26.32,26.32,0,0,1-1.7-5,38.38,38.38,0,0,1-.84-5.38c-.16-1.82-.24-3.58-.24-5.27a77.79,77.79,0,0,1,.39-7.78q.39-3.89,1.11-7.75l13,.5c-.5,2.91-.94,5.84-1.3,8.78a73,73,0,0,0-.54,8.87c0,.31,0,.78,0,1.4s.08,1.32.15,2.09.19,1.56.32,2.37a12.5,12.5,0,0,0,.58,2.21,5.73,5.73,0,0,0,.87,1.64,1.52,1.52,0,0,0,1.21.64,1.85,1.85,0,0,0,1.45-.77,7.19,7.19,0,0,0,1.13-2,22.52,22.52,0,0,0,.85-2.95c.24-1.11.44-2.27.61-3.48s.3-2.41.4-3.62.19-2.33.25-3.37.11-1.95.13-2.75,0-1.39,0-1.78c0-1.45,0-2.89-.06-4.33s-.12-2.87-.21-4.3h13Q731.7,270.69,731.69,274.64Z"/><path class="cls-1" d="M767.42,266.57l-10.85,18.87,9.24,16.42-11.63,3.62-5-11.35-5.9,11.41-12-4.35,10.24-16.14-9.35-17L744.88,265l4.56,11.19L754.29,265Z"/><path class="cls-2" d="M17.93,404.59a6,6,0,0,0,3.71,5.52,7.15,7.15,0,0,0,1.7.41c.45,0,1.5,0,2.35,0l5.3,0,21.19-.06c14.13,0,28.25-.23,42.38-.33s28.26-.35,42.38-.54l21.2-.33,21.19-.43q84.77-1.72,169.53-5.22c113-4.57,226-11.55,339.07-18.66,56.51-3.55,113-7.08,169.53-10.25,28.26-1.52,56.51-3.18,84.77-4.52l21.19-1,10.6-.49,1.32-.06c.06,0,.81,0,.3,0-.87,0-1.75,0-2.62.08A36.38,36.38,0,0,0,939.28,404c0,1.3,0,0,0,.1l0-.66-.06-1.32-.12-2.65-.45-10.6-.87-21.19q-6.9-169.53-6.78-339.07a45,45,0,0,0,7.62,25,44.95,44.95,0,0,0,33,19.72c1.08.11,2.17.18,3.25.2,1.66,0,.79,0,.68,0h-6.62l-21.19-.06-42.38-.35c-14.13-.1-28.26-.38-42.39-.56s-28.25-.49-42.38-.78Q735.77,70,651,66.53C538,62,425,55,311.93,48c-56.51-3.52-113-7-169.53-10.19L100,35.46,78.82,34.32l-21.19-1-21.19-1-10.6-.48-1.32-.06-.57,0a.83.83,0,0,0,.22,0,3.73,3.73,0,0,0,.84-.32,2.67,2.67,0,0,0,1.12-1.19,2.51,2.51,0,0,0,.25-1.5c0-.16,0,.34,0,.47l0,.66-.06,1.33-.12,2.65-.45,10.59-.87,21.2Q17.92,235.06,17.93,404.59Zm-6,0L11.49,65.53l0-21.2,0-10.59V28.38a12.5,12.5,0,0,1,7.89-11.44,12.37,12.37,0,0,1,3.59-.85l.92,0h2l10.6,0,21.19-.07,84.77-.28,169.53-.55L651,14l169.53-.22,84.77-.1,42.38-.06,21.19,0h5.3c.94,0,1.51,0,3.23.07a15.08,15.08,0,0,1,8,3.32,16.25,16.25,0,0,1,2.95,3.25,15.94,15.94,0,0,1,1.88,4,15.75,15.75,0,0,1,.65,4.35l-.42,339.07,0,21.19,0,10.6,0,5.39a15,15,0,0,1-.69,4.19,15.26,15.26,0,0,1-1.9,3.81A14.52,14.52,0,0,1,977.11,419l-1.06.05h-2l-10.6,0-21.19-.07-84.77-.28-169.53-.56L348.86,417l-169.53-.22-84.77-.11-42.38-.05-21.19,0h-5.3c-.91,0-1.64,0-2.94-.06a12.79,12.79,0,0,1-3.43-.86,13.26,13.26,0,0,1-3-1.82A13,13,0,0,1,14,411.26a11.92,11.92,0,0,1-2-6.67Z"/></svg>
