<svg id="Layer_1" data-name="Layer 1" xmlns="http://www.w3.org/2000/svg" xmlns:xlink="http://www.w3.org/1999/xlink" width="1006" height="314" viewBox="0 0 1006 314"><defs><style>.cls-1,.cls-2{fill:#00a99d;}.cls-2{filter:url(#AI_Shadow_1);}</style><filter id="AI_Shadow_1" name="AI_Shadow_1"><feGaussianBlur result="blur" stdDeviation="2" in="SourceAlpha"/><feOffset result="offsetBlurredAlpha" dx="4" dy="4" in="blur"/><feMerge><feMergeNode in="offsetBlurredAlpha"/><feMergeNode in="SourceGraphic"/></feMerge></filter></defs><title>tema2_titel copy</title><path class="cls-1" d="M423,102.82l-.37,15.53-10.91.44-2.78,34.72-15.46.8.08-34.71-10.92.58L383,102.9Z"/><path class="cls-1" d="M459.65,102.38q-.22,3.45-.41,6.82t-.47,6.81l-15.53.8-.37,4.62h10.92L453,132.78l-11,.37-.36,5.34h15.52q-.21,4-.45,8t-.42,8l-31.57.73,1.17-52.81Z"/><path class="cls-1" d="M517.51,101.8l-3.37,53.76-16.7.73.14-28.34L490,150.8H483.6l-5.79-20.44-.07,23.73-16.92.52.73-50.61,18.82-.74,7.47,24.25,10-25.71Z"/><path class="cls-1" d="M565.74,152l-18.17,2.35-2.19-8.28H537l-1.84,8.28-18.67-1.83,14.57-48.78,20.36-1ZM544.06,134.9l-2.79-12.74-2.71,12.74Z"/><path class="cls-1" d="M616.2,120.69a14.86,14.86,0,0,1-1.06,5.59,21.85,21.85,0,0,1-2.8,5,28.08,28.08,0,0,1-4,4.28,48.85,48.85,0,0,1-4.48,3.54h11.57l-.88,15.23-34.28-1.17V139.81q2-.66,4.08-1.59a40.78,40.78,0,0,0,4.22-2.14,31.27,31.27,0,0,0,3.91-2.71,21.49,21.49,0,0,0,3.26-3.28,15.14,15.14,0,0,0,2.24-3.87,12.12,12.12,0,0,0,.82-4.5,5.73,5.73,0,0,0-.49-2.45,5,5,0,0,0-1.38-1.78,5.7,5.7,0,0,0-2-1.06,8.57,8.57,0,0,0-2.47-.35,10.71,10.71,0,0,0-2.23.24A12.83,12.83,0,0,0,588,117a11.31,11.31,0,0,0-2.07,1.08,10.57,10.57,0,0,0-1.74,1.44L581,105.17a12.38,12.38,0,0,1,3.11-2.27,20.89,20.89,0,0,1,3.7-1.49,26.5,26.5,0,0,1,4-.82,31.43,31.43,0,0,1,4-.26,20.71,20.71,0,0,1,8.06,1.56,20.1,20.1,0,0,1,12.45,18.8Z"/><path class="cls-1" d="M192.73,217.91a13,13,0,0,1-3.23,2.87,21,21,0,0,1-4.12,2,26.77,26.77,0,0,1-8.9,1.62,18.83,18.83,0,0,1-7.43-1.45,17.67,17.67,0,0,1-5.86-4,18.58,18.58,0,0,1-3.86-6,19.84,19.84,0,0,1-1.39-7.43,25.62,25.62,0,0,1,2.69-11.43,22.83,22.83,0,0,1,3.16-4.73,20.07,20.07,0,0,1,9.4-6.14,20.61,20.61,0,0,1,6-.86c.79,0,1.65,0,2.56.1a24.74,24.74,0,0,1,2.71.33,19.09,19.09,0,0,1,2.63.66,11.84,11.84,0,0,1,2.34,1l-.78,10.63a14.19,14.19,0,0,0-3.22-.8,25.61,25.61,0,0,0-3.24-.2,12.31,12.31,0,0,0-4.16.68,10,10,0,0,0-3.37,2,9.15,9.15,0,0,0-2.26,3.12,9.82,9.82,0,0,0-.84,4.14,10,10,0,0,0,.39,2.8,7.13,7.13,0,0,0,1.18,2.39,6.11,6.11,0,0,0,2,1.69,5.63,5.63,0,0,0,2.74.64,8.81,8.81,0,0,0,2.18-.28,4.77,4.77,0,0,0,1.94-.95l.11-2.17-6.68-.11.33-8.35c2.77-.09,5.53-.17,8.3-.23s5.55-.16,8.35-.27Z"/><path class="cls-1" d="M227.47,196.76a19,19,0,0,1-.38,3.94,11.37,11.37,0,0,1-3.27,6,18.47,18.47,0,0,1-3.09,2.39l6.63,11.8-12.53,2.45-4.29-11.85-3.45.11-.5,11.58h-12q.13-6.35.26-12.64t.29-12.64q.06-3.19.11-6.34c0-2.1.11-4.21.23-6.35a34.46,34.46,0,0,1,3.84-1.19,35.4,35.4,0,0,1,3.8-.74c1.27-.18,2.56-.3,3.86-.36s2.65-.1,4-.1a21.28,21.28,0,0,1,6.13.88,15.8,15.8,0,0,1,5.25,2.63,13.17,13.17,0,0,1,3.66,4.37A12.84,12.84,0,0,1,227.47,196.76Zm-12.47.89a6.91,6.91,0,0,0-.32-2.14,4.77,4.77,0,0,0-1-1.68,4.33,4.33,0,0,0-1.56-1.12,5.44,5.44,0,0,0-2.18-.4,7.78,7.78,0,0,0-1.09.07,6.07,6.07,0,0,0-1,.21l-.44,10.35h.67a9.82,9.82,0,0,0,2.43-.31,7.07,7.07,0,0,0,2.23-.94,5.36,5.36,0,0,0,1.61-1.64A4.43,4.43,0,0,0,215,197.65Z"/><path class="cls-1" d="M262.67,192.64c0,1.38-.06,2.89-.19,4.54s-.34,3.36-.64,5.12-.68,3.55-1.16,5.36a38.56,38.56,0,0,1-1.76,5.22,31.13,31.13,0,0,1-2.47,4.69,18.67,18.67,0,0,1-3.22,3.81,14.46,14.46,0,0,1-4.08,2.56,13,13,0,0,1-5,.93,14,14,0,0,1-5.61-1,12.59,12.59,0,0,1-4.08-2.81,14.86,14.86,0,0,1-2.78-4.12,26.32,26.32,0,0,1-1.7-5,38.4,38.4,0,0,1-.85-5.38c-.16-1.82-.23-3.58-.23-5.27a77.79,77.79,0,0,1,.39-7.78q.39-3.88,1.11-7.75l13,.5q-.75,4.37-1.29,8.78a73,73,0,0,0-.54,8.87c0,.31,0,.78,0,1.4s.08,1.32.15,2.09.18,1.56.32,2.37a13.44,13.44,0,0,0,.57,2.21,5.74,5.74,0,0,0,.88,1.64,1.51,1.51,0,0,0,1.21.64,1.85,1.85,0,0,0,1.45-.77,7.44,7.44,0,0,0,1.13-2,21.13,21.13,0,0,0,.84-3c.24-1.11.45-2.27.62-3.48s.3-2.41.4-3.62.19-2.33.25-3.37.11-1.95.13-2.75,0-1.39,0-1.78c0-1.45,0-2.89-.07-4.33s-.11-2.87-.21-4.3h13Q262.67,188.69,262.67,192.64Z"/><path class="cls-1" d="M302.75,183.68l-2,37.74-14.59,1.34-7.79-20.21-1.22,20.6H264.62l1-39.47,13.92-.67,9.63,20,.45-18.92Z"/><path class="cls-1" d="M336.54,201.49a23,23,0,0,1-1,7,19.17,19.17,0,0,1-2.8,5.57,18.87,18.87,0,0,1-4.27,4.19,24.68,24.68,0,0,1-5.43,2.88,32.59,32.59,0,0,1-6.27,1.67,42.67,42.67,0,0,1-6.84.54c-.87,0-1.72,0-2.56-.07s-1.69-.12-2.56-.21l.78-37.35a34.93,34.93,0,0,1,6.31-1.38,51.79,51.79,0,0,1,6.44-.4,21.53,21.53,0,0,1,7.32,1.2,16.31,16.31,0,0,1,5.76,3.45,15.58,15.58,0,0,1,3.77,5.51A19.1,19.1,0,0,1,336.54,201.49Zm-11.41,1.78a11,11,0,0,0-.32-2.89,6.78,6.78,0,0,0-1.14-2.46,6,6,0,0,0-2-1.73,6.72,6.72,0,0,0-2.92-.71l-1.12,17.26a8,8,0,0,0,3-1.1,9.37,9.37,0,0,0,3.88-4.85,10.4,10.4,0,0,0,.6-3.13Z"/><path class="cls-1" d="M362.67,207.73l-1.16,12.35-23.44,1.84q.17-9.71.38-19.31t.51-19.32h14.47q-.63,6.09-1.22,12.18t-.83,12.26c.87,0,1.73.05,2.58.05h2.59l3.06,0Q361.13,207.73,362.67,207.73Z"/><path class="cls-1" d="M410.88,183.46c-.11,1.74-.21,3.47-.31,5.17s-.21,3.44-.36,5.18l-11.8.61-.28,3.51h8.3l-.62,8.63-8.35.28-.27,4.06H409q-.17,3.06-.35,6.08c-.12,2-.23,4-.32,6.06l-24,.55.22-6.9h-6.79L375,223l-13.81-1.39,20.26-37.07Zm-25.49,24.71.27-9.68-4.45,9.68Z"/><path class="cls-1" d="M445.42,217.91a13,13,0,0,1-3.23,2.87,21,21,0,0,1-4.12,2,25.87,25.87,0,0,1-4.51,1.21,25.45,25.45,0,0,1-4.39.41,18.91,18.91,0,0,1-7.44-1.45,17.73,17.73,0,0,1-5.85-4,18.41,18.41,0,0,1-3.86-6,19.64,19.64,0,0,1-1.39-7.43,25.79,25.79,0,0,1,2.68-11.43,23.65,23.65,0,0,1,3.16-4.73,20,20,0,0,1,15.42-7c.8,0,1.65,0,2.56.1a24.92,24.92,0,0,1,2.72.33,19.45,19.45,0,0,1,2.63.66,11.84,11.84,0,0,1,2.34,1l-.78,10.63a14.19,14.19,0,0,0-3.22-.8,25.61,25.61,0,0,0-3.24-.2,12.27,12.27,0,0,0-4.16.68,10,10,0,0,0-3.37,2,9.17,9.17,0,0,0-2.27,3.12,10.54,10.54,0,0,0-.44,6.94,7.13,7.13,0,0,0,1.18,2.39,6.11,6.11,0,0,0,2,1.69,5.6,5.6,0,0,0,2.74.64,8.87,8.87,0,0,0,2.18-.28,4.83,4.83,0,0,0,1.94-.95l.11-2.17-6.68-.11.33-8.35c2.77-.09,5.53-.17,8.3-.23s5.54-.16,8.35-.27Z"/><path class="cls-1" d="M481.13,217.91a13,13,0,0,1-3.23,2.87,21,21,0,0,1-4.12,2,26.11,26.11,0,0,1-4.51,1.21,25.47,25.47,0,0,1-4.4.41,18.86,18.86,0,0,1-7.43-1.45,17.87,17.87,0,0,1-5.86-4,18.55,18.55,0,0,1-3.85-6,19.64,19.64,0,0,1-1.39-7.43A25.44,25.44,0,0,1,449,194.13a23.65,23.65,0,0,1,3.16-4.73,20,20,0,0,1,9.41-6.14,20.54,20.54,0,0,1,6-.86c.8,0,1.65,0,2.56.1a24.92,24.92,0,0,1,2.72.33,19.45,19.45,0,0,1,2.63.66,11.49,11.49,0,0,1,2.33,1l-.78,10.63a14.24,14.24,0,0,0-3.21-.8,25.61,25.61,0,0,0-3.24-.2,12.27,12.27,0,0,0-4.16.68,9.9,9.9,0,0,0-3.37,2,9.17,9.17,0,0,0-2.27,3.12,9.81,9.81,0,0,0-.83,4.14,9.67,9.67,0,0,0,.39,2.8,7.13,7.13,0,0,0,1.18,2.39,6.18,6.18,0,0,0,2,1.69,5.67,5.67,0,0,0,2.75.64,8.87,8.87,0,0,0,2.18-.28,4.73,4.73,0,0,0,1.93-.95l.12-2.17-6.68-.11.33-8.35q4.16-.14,8.29-.23t8.35-.27Z"/><path class="cls-1" d="M509.6,183.46c-.11,1.74-.21,3.47-.31,5.17s-.21,3.44-.36,5.18l-11.8.61-.28,3.51h8.3l-.62,8.63-8.34.28-.28,4.06h11.8q-.16,3.06-.35,6.08c-.12,2-.23,4-.32,6.06l-24,.55.89-40.13Z"/><path class="cls-1" d="M548.4,183.68l-2,37.74-14.58,1.34L524,202.55l-1.23,20.6H510.27l1-39.47,13.92-.67,9.63,20,.44-18.92Z"/><path class="cls-1" d="M582.19,201.49a23,23,0,0,1-1,7,19.15,19.15,0,0,1-2.79,5.57,18.71,18.71,0,0,1-4.28,4.19,24.83,24.83,0,0,1-5.42,2.88,32.69,32.69,0,0,1-6.28,1.67,42.54,42.54,0,0,1-6.83.54c-.87,0-1.73,0-2.56-.07s-1.69-.12-2.56-.21l.78-37.35a35,35,0,0,1,6.3-1.38A51.91,51.91,0,0,1,564,184a21.45,21.45,0,0,1,7.32,1.2,16.22,16.22,0,0,1,5.76,3.45,15.48,15.48,0,0,1,3.78,5.51A19.1,19.1,0,0,1,582.19,201.49Zm-11.42,1.78a10.64,10.64,0,0,0-.32-2.89,6.78,6.78,0,0,0-1.14-2.46,6,6,0,0,0-2-1.73,6.77,6.77,0,0,0-2.93-.71l-1.11,17.26a8,8,0,0,0,3-1.1,9.26,9.26,0,0,0,2.36-2.09,9.77,9.77,0,0,0,1.53-2.76,10.09,10.09,0,0,0,.59-3.13Z"/><path class="cls-1" d="M610.21,183.46c-.11,1.74-.21,3.47-.3,5.17s-.22,3.44-.37,5.18l-11.8.61-.27,3.51h8.29l-.61,8.63-8.35.28-.28,4.06h11.8Q608.16,214,608,217c-.12,2-.22,4-.32,6.06l-24,.55.89-40.13Z"/><path class="cls-1" d="M637.32,184.4l-3.06,37.91-11.75.61V185.18Z"/><path class="cls-1" d="M677.09,183.68l-2,37.74-14.58,1.34-7.8-20.21-1.22,20.6H639l1-39.47,13.91-.67,9.63,20,.45-18.92Z"/><path class="cls-1" d="M710.88,201.49a23,23,0,0,1-1,7,19.17,19.17,0,0,1-2.8,5.57,18.66,18.66,0,0,1-4.27,4.19,24.68,24.68,0,0,1-5.43,2.88,32.59,32.59,0,0,1-6.27,1.67,42.67,42.67,0,0,1-6.84.54c-.87,0-1.72,0-2.56-.07s-1.69-.12-2.56-.21l.78-37.35a34.93,34.93,0,0,1,6.31-1.38,51.91,51.91,0,0,1,6.44-.4,21.53,21.53,0,0,1,7.32,1.2,16.22,16.22,0,0,1,5.76,3.45,15.58,15.58,0,0,1,3.77,5.51A19.1,19.1,0,0,1,710.88,201.49Zm-11.41,1.78a11,11,0,0,0-.32-2.89,6.78,6.78,0,0,0-1.14-2.46,6,6,0,0,0-2-1.73,6.72,6.72,0,0,0-2.92-.71L692,212.74a8,8,0,0,0,3-1.1,9.37,9.37,0,0,0,3.88-4.85,10.4,10.4,0,0,0,.6-3.13Z"/><path class="cls-1" d="M745.59,223.59l-13.92.67-.11-12.86h-6.4l-.39,12.19H712.3l1.06-39.13,13.25.61-.84,20H732l.06-21.49,12.69.33Z"/><path class="cls-1" d="M782.63,203.94a20.21,20.21,0,0,1-.58,4.89,18.73,18.73,0,0,1-1.69,4.41,18.13,18.13,0,0,1-2.67,3.77,17.14,17.14,0,0,1-3.53,2.94,17.31,17.31,0,0,1-4.27,1.9,17.07,17.07,0,0,1-4.9.68,17.46,17.46,0,0,1-4.78-.64A17.89,17.89,0,0,1,756,220.1a17.27,17.27,0,0,1-3.58-2.78,17.78,17.78,0,0,1-2.72-3.62,18.46,18.46,0,0,1-1.76-4.27,17.86,17.86,0,0,1-.62-4.76,19.41,19.41,0,0,1,2.26-9.13,19,19,0,0,1,2.66-3.79,17.77,17.77,0,0,1,3.5-3,16.61,16.61,0,0,1,4.18-1.94,15.89,15.89,0,0,1,4.76-.7,20.91,20.91,0,0,1,7.37,1.25,15.65,15.65,0,0,1,9.32,9.2A20.05,20.05,0,0,1,782.63,203.94Zm-12.35.73a7.92,7.92,0,0,0-.35-2.33,6.4,6.4,0,0,0-1-2,5.13,5.13,0,0,0-1.65-1.42,4.67,4.67,0,0,0-2.27-.54,5.34,5.34,0,0,0-4.11,1.76,5.77,5.77,0,0,0-1.13,1.92,6.94,6.94,0,0,0-.38,2.33,8.59,8.59,0,0,0,.33,2.34,7.07,7.07,0,0,0,1,2.11,5.39,5.39,0,0,0,1.66,1.53,4.41,4.41,0,0,0,2.29.59,5.2,5.2,0,0,0,4.12-1.91,6.52,6.52,0,0,0,1.12-2A7.26,7.26,0,0,0,770.28,204.67Z"/><path class="cls-1" d="M809.05,207.73l-1.17,12.35-23.44,1.84q.16-9.71.38-19.31t.51-19.32h14.48q-.64,6.09-1.23,12.18t-.83,12.26c.87,0,1.73.05,2.58.05h2.59l3.06,0C807,207.74,808,207.73,809.05,207.73Z"/><path class="cls-1" d="M841.89,201.49a23.27,23.27,0,0,1-1,7,19.42,19.42,0,0,1-2.8,5.57,18.87,18.87,0,0,1-4.27,4.19,25.14,25.14,0,0,1-5.43,2.88,32.69,32.69,0,0,1-6.28,1.67,42.45,42.45,0,0,1-6.83.54c-.87,0-1.73,0-2.56-.07s-1.69-.12-2.56-.21l.78-37.35a35,35,0,0,1,6.3-1.38,52,52,0,0,1,6.45-.4,21.43,21.43,0,0,1,7.31,1.2,16.35,16.35,0,0,1,5.77,3.45,15.58,15.58,0,0,1,3.77,5.51A19.1,19.1,0,0,1,841.89,201.49Zm-11.41,1.78a11.49,11.49,0,0,0-.32-2.89,7.13,7.13,0,0,0-1.14-2.46,6,6,0,0,0-2-1.73,6.73,6.73,0,0,0-2.93-.71L823,212.74a8,8,0,0,0,3-1.1,9.33,9.33,0,0,0,3.89-4.85,10.4,10.4,0,0,0,.6-3.13Z"/><path class="cls-2" d="M17.93,287.5a6.05,6.05,0,0,0,3.16,5.25,6.14,6.14,0,0,0,1.5.55,6.51,6.51,0,0,0,.79.13c.29,0,.46,0,.93,0h4.83l19.35-.06c12.9,0,25.8-.23,38.7-.33s25.79-.35,38.69-.54l19.35-.33,19.35-.43Q242,290,319.36,286.53C422.55,282,525.74,275,628.93,267.86c51.59-3.54,103.19-7.07,154.78-10.24,25.8-1.52,51.6-3.19,77.39-4.52s51.6-2.67,77.4-3.81l19.34-.83,9.68-.39,4.83-.19,2.42-.1.61,0c.07,0,.69,0,.32,0a39.34,39.34,0,0,0-5.29.33,40.09,40.09,0,0,0-34.64,36c-.09.88-.14,1.77-.16,2.66,0,1.41,0,.29,0,.34l0-1.21-.17-4.84-.66-19.34c-.48-12.9-.8-25.8-1.18-38.7s-.66-25.8-.95-38.7q-1.68-77.39-1.65-154.78a44.74,44.74,0,0,0,1.61,11.92,45.35,45.35,0,0,0,4.77,11.15A44.76,44.76,0,0,0,954.51,69a44.34,44.34,0,0,0,11.35,4.29,42.26,42.26,0,0,0,6,1c1,.1,2,.16,3,.18,1.49,0,.94,0,.74,0h-4.84l-19.34-.07L912.67,74c-12.9-.09-25.8-.38-38.7-.55s-25.79-.5-38.69-.78q-77.4-1.75-154.78-5.24C577.31,62.87,474.12,55.93,370.93,48.87c-51.6-3.53-103.19-7-154.78-10.19l-38.7-2.31L158.1,35.23l-19.35-1c-12.9-.72-25.79-1.36-38.69-2S74.26,31,61.36,30.38L23.82,28.79a.84.84,0,0,0-.93.33,1.13,1.13,0,0,0-.16.27.19.19,0,0,1,0,.08,2.24,2.24,0,0,0,0,.46l0,1.21L22.46,36,21.8,55.32c-.47,12.9-.82,25.8-1.18,38.7l-.53,19.35-.43,19.35Q18,210.11,17.93,287.5Zm-6,0-.22-154.78-.11-77.4,0-19.34V31.14c0-.85,0-1.47,0-2.7a12.06,12.06,0,0,1,.72-3.24,12.36,12.36,0,0,1,9.86-7.95,13.11,13.11,0,0,1,1.66-.13h8.48l9.67,0,19.35,0L370.93,16,680.5,14.94l154.78-.22,77.39-.11,38.7,0,19.34,0h4.84c.28,0,1.13,0,1.75.06a16.5,16.5,0,0,1,2,.32,15.71,15.71,0,0,1,3.77,1.41,15.16,15.16,0,0,1,5.73,5.51,15,15,0,0,1,2.13,7.67l-.2,154.78-.11,77.4,0,19.34v4.84c0,.88,0,1.37-.06,2.9A14.62,14.62,0,0,1,978,302a14.25,14.25,0,0,1-2,.15H957.84l-19.34,0L628.93,301l-309.57-1.07-154.78-.22-77.39-.11-38.7-.06-19.35,0H24.31c-.35,0-1,0-1.49-.06a12.25,12.25,0,0,1-1.59-.26,12.49,12.49,0,0,1-3-1.13,12,12,0,0,1-6.28-10.57Z"/></svg>