<svg id="Layer_1" data-name="Layer 1" xmlns="http://www.w3.org/2000/svg" xmlns:xlink="http://www.w3.org/1999/xlink" width="1006" height="429" viewBox="0 0 1006 429"><defs><style>.cls-1{fill:#ff7c19;stroke:#000;stroke-miterlimit:10;stroke-width:2px;}.cls-2{fill:#2d12b2;filter:url(#AI_Shadow_1);}</style><filter id="AI_Shadow_1" name="AI_Shadow_1"><feGaussianBlur result="blur" stdDeviation="2" in="SourceAlpha"/><feOffset result="offsetBlurredAlpha" dx="4" dy="4" in="blur"/><feMerge><feMergeNode in="offsetBlurredAlpha"/><feMergeNode in="SourceGraphic"/></feMerge></filter></defs><title>tema1_titel</title><path class="cls-1" d="M427.49,184.82l-.36,15.53-10.92.44-2.78,34.72-15.45.8.07-34.71-10.91.58.43-17.28Z"/><path class="cls-1" d="M464.19,184.38c-.15,2.3-.28,4.57-.41,6.82s-.28,4.51-.47,6.81l-15.53.8-.37,4.62h10.92l-.81,11.35-11,.37-.36,5.34H461.7q-.22,4-.46,8t-.42,8l-31.57.73,1.17-52.81Z"/><path class="cls-1" d="M522.05,183.8l-3.37,53.76-16.7.73.15-28.34-7.55,22.85h-6.44l-5.79-20.44-.07,23.73-16.92.52.73-50.61,18.82-.74,7.47,24.25,10-25.71Z"/><path class="cls-1" d="M570.28,234l-18.17,2.35-2.19-8.28h-8.35l-1.83,8.28-18.68-1.83,14.57-48.78,20.37-1ZM548.6,216.9l-2.79-12.74L543.1,216.9Z"/><path class="cls-1" d="M611.29,184.53l-2.12,52.08-16-.74.88-34.64-5.86,4-5.49-12.53,11.94-8.93Z"/><path class="cls-1" d="M155.42,299.91a12.83,12.83,0,0,1-3.23,2.87,21.24,21.24,0,0,1-4.11,2,26.11,26.11,0,0,1-4.51,1.21,25.56,25.56,0,0,1-4.4.41,18.83,18.83,0,0,1-7.43-1.45,17.67,17.67,0,0,1-5.86-4,18.58,18.58,0,0,1-3.86-6,19.84,19.84,0,0,1-1.39-7.43,25.69,25.69,0,0,1,.7-5.95,25.39,25.39,0,0,1,2-5.48,22.83,22.83,0,0,1,3.16-4.73,20.25,20.25,0,0,1,4.23-3.72,20.06,20.06,0,0,1,11.19-3.28c.79,0,1.65,0,2.56.1a24.74,24.74,0,0,1,2.71.33,19.09,19.09,0,0,1,2.63.66,11.84,11.84,0,0,1,2.34,1l-.78,10.63a14.24,14.24,0,0,0-3.21-.8,25.88,25.88,0,0,0-3.25-.2,12.31,12.31,0,0,0-4.16.68,10,10,0,0,0-3.37,2,9.15,9.15,0,0,0-2.26,3.12,9.82,9.82,0,0,0-.84,4.14,10,10,0,0,0,.39,2.8,7.13,7.13,0,0,0,1.18,2.39,6.11,6.11,0,0,0,2,1.69,5.63,5.63,0,0,0,2.74.64,9,9,0,0,0,2.19-.28,4.79,4.79,0,0,0,1.93-1l.11-2.17-6.68-.11.34-8.35q4.14-.13,8.29-.23c2.76-.07,5.55-.16,8.35-.27Z"/><path class="cls-1" d="M190.16,278.76a19,19,0,0,1-.38,3.94,11.37,11.37,0,0,1-3.27,6,18.47,18.47,0,0,1-3.09,2.39l6.63,11.8-12.53,2.45-4.28-11.85-3.46.11-.5,11.58h-12q.13-6.34.26-12.64t.29-12.63c0-2.14.08-4.25.11-6.35s.12-4.21.23-6.35a35.12,35.12,0,0,1,3.84-1.19,35.88,35.88,0,0,1,3.8-.74c1.27-.18,2.56-.3,3.86-.36s2.65-.1,4-.1a21.28,21.28,0,0,1,6.13.88,15.8,15.8,0,0,1,5.25,2.63,13.17,13.17,0,0,1,3.66,4.37A12.84,12.84,0,0,1,190.16,278.76Zm-12.47.89a6.91,6.91,0,0,0-.32-2.14,4.62,4.62,0,0,0-1-1.68,4.25,4.25,0,0,0-1.56-1.12,5.44,5.44,0,0,0-2.18-.4,7.88,7.88,0,0,0-1.09.07,6.07,6.07,0,0,0-1,.21l-.44,10.35h.67a9.82,9.82,0,0,0,2.43-.31,7.07,7.07,0,0,0,2.23-.94,5.25,5.25,0,0,0,1.61-1.64A4.43,4.43,0,0,0,177.69,279.65Z"/><path class="cls-1" d="M225.37,274.64c0,1.38-.07,2.89-.2,4.54s-.34,3.36-.64,5.12-.68,3.55-1.15,5.36a40,40,0,0,1-1.77,5.22,32,32,0,0,1-2.46,4.69,19,19,0,0,1-3.23,3.81,14.46,14.46,0,0,1-4.08,2.56,13,13,0,0,1-5,.93,14,14,0,0,1-5.61-1,12.59,12.59,0,0,1-4.08-2.81,14.86,14.86,0,0,1-2.78-4.12,26.32,26.32,0,0,1-1.7-5,38.4,38.4,0,0,1-.85-5.38c-.15-1.82-.23-3.58-.23-5.27a77.79,77.79,0,0,1,.39-7.78q.39-3.89,1.11-7.75l13,.5q-.77,4.36-1.3,8.78a73,73,0,0,0-.54,8.87c0,.31,0,.78,0,1.4s.08,1.32.15,2.09.18,1.56.32,2.37a13.44,13.44,0,0,0,.57,2.21,5.74,5.74,0,0,0,.88,1.64,1.51,1.51,0,0,0,1.21.64,1.85,1.85,0,0,0,1.45-.77,7.19,7.19,0,0,0,1.13-2,21.13,21.13,0,0,0,.84-2.95c.25-1.11.45-2.27.62-3.48s.3-2.41.4-3.62.19-2.33.25-3.37.11-1.95.13-2.75,0-1.39,0-1.78c0-1.45,0-2.89-.07-4.33s-.11-2.87-.2-4.3h13C225.25,269.41,225.37,272,225.37,274.64Z"/><path class="cls-1" d="M265.44,265.68l-2,37.74-14.58,1.34-7.8-20.21-1.22,20.6H227.31l1-39.47,13.91-.67,9.63,20,.45-18.92Z"/><path class="cls-1" d="M299.23,283.49a23,23,0,0,1-1,7,19.17,19.17,0,0,1-2.8,5.57,18.66,18.66,0,0,1-4.27,4.19,24.68,24.68,0,0,1-5.43,2.88,32.59,32.59,0,0,1-6.27,1.67,42.67,42.67,0,0,1-6.84.54c-.87,0-1.72,0-2.56-.07s-1.68-.12-2.56-.21l.78-37.35a34.93,34.93,0,0,1,6.31-1.38A51.91,51.91,0,0,1,281,266a21.53,21.53,0,0,1,7.32,1.2,16.22,16.22,0,0,1,5.76,3.45,15.58,15.58,0,0,1,3.77,5.51A19.1,19.1,0,0,1,299.23,283.49Zm-11.41,1.78a11,11,0,0,0-.32-2.89,6.78,6.78,0,0,0-1.14-2.46,6,6,0,0,0-2-1.73,6.72,6.72,0,0,0-2.92-.71l-1.11,17.26a8,8,0,0,0,3-1.1,9.37,9.37,0,0,0,3.88-4.85,10.4,10.4,0,0,0,.6-3.13Z"/><path class="cls-1" d="M325.37,289.73l-1.17,12.35-23.44,1.84q.17-9.71.38-19.31t.51-19.32h14.48q-.64,6.09-1.23,12.18t-.83,12.26c.87,0,1.73,0,2.58,0h2.59l3.06,0C323.31,289.74,324.33,289.73,325.37,289.73Z"/><path class="cls-1" d="M373.57,265.46c-.11,1.74-.21,3.47-.31,5.17s-.21,3.44-.36,5.18l-11.8.61-.28,3.51h8.3l-.61,8.63-8.35.28-.28,4.06h11.8q-.17,3.06-.35,6.08c-.12,2-.23,4-.32,6.06l-24,.55.22-6.9h-6.79L337.67,305l-13.81-1.39,20.26-37.07Zm-25.49,24.71.27-9.68-4.45,9.68Z"/><path class="cls-1" d="M408.11,299.91a13,13,0,0,1-3.23,2.87,21,21,0,0,1-4.12,2,25.87,25.87,0,0,1-4.51,1.21,25.45,25.45,0,0,1-4.39.41,18.83,18.83,0,0,1-7.43-1.45,17.67,17.67,0,0,1-5.86-4,18.41,18.41,0,0,1-3.86-6,19.64,19.64,0,0,1-1.39-7.43,25.16,25.16,0,0,1,.7-5.95,24.87,24.87,0,0,1,2-5.48,22.83,22.83,0,0,1,3.16-4.73,20.07,20.07,0,0,1,9.4-6.14,20.59,20.59,0,0,1,6-.86c.8,0,1.66,0,2.56.1a24.92,24.92,0,0,1,2.72.33,19.45,19.45,0,0,1,2.63.66,11.84,11.84,0,0,1,2.34,1l-.78,10.63a14.19,14.19,0,0,0-3.22-.8,25.61,25.61,0,0,0-3.24-.2,12.27,12.27,0,0,0-4.16.68,10,10,0,0,0-3.37,2,9.31,9.31,0,0,0-2.27,3.12,10.54,10.54,0,0,0-.44,6.94,7.13,7.13,0,0,0,1.18,2.39,6.11,6.11,0,0,0,2,1.69,5.6,5.6,0,0,0,2.74.64,8.87,8.87,0,0,0,2.18-.28,4.83,4.83,0,0,0,1.94-1l.11-2.17-6.68-.11.33-8.35c2.77-.09,5.53-.17,8.3-.23s5.54-.16,8.35-.27Z"/><path class="cls-1" d="M443.82,299.91a13,13,0,0,1-3.23,2.87,21,21,0,0,1-4.12,2A25.87,25.87,0,0,1,432,306a25.47,25.47,0,0,1-4.4.41,18.86,18.86,0,0,1-7.43-1.45,17.87,17.87,0,0,1-5.86-4,18.55,18.55,0,0,1-3.85-6,19.64,19.64,0,0,1-1.39-7.43,25.44,25.44,0,0,1,2.68-11.43,23.65,23.65,0,0,1,3.16-4.73,20,20,0,0,1,9.41-6.14,20.54,20.54,0,0,1,6-.86c.8,0,1.65,0,2.56.1a24.92,24.92,0,0,1,2.72.33,19.45,19.45,0,0,1,2.63.66,11.49,11.49,0,0,1,2.33,1l-.77,10.63a14.32,14.32,0,0,0-3.22-.8,25.61,25.61,0,0,0-3.24-.2,12.27,12.27,0,0,0-4.16.68,10,10,0,0,0-3.37,2,9.17,9.17,0,0,0-2.27,3.12,9.81,9.81,0,0,0-.83,4.14,10,10,0,0,0,.39,2.8,7.13,7.13,0,0,0,1.18,2.39,6.11,6.11,0,0,0,2,1.69,5.6,5.6,0,0,0,2.74.64,8.87,8.87,0,0,0,2.18-.28,4.83,4.83,0,0,0,1.94-1l.11-2.17-6.68-.11.33-8.35c2.77-.09,5.53-.17,8.3-.23s5.54-.16,8.34-.27Z"/><path class="cls-1" d="M472.29,265.46c-.11,1.74-.21,3.47-.31,5.17s-.21,3.44-.36,5.18l-11.8.61-.28,3.51h8.3l-.61,8.63-8.35.28-.28,4.06h11.8q-.16,3.06-.35,6.08c-.12,2-.23,4-.32,6.06l-24,.55.89-40.13Z"/><path class="cls-1" d="M511.09,265.68l-2,37.74-14.58,1.34-7.79-20.21-1.23,20.6H473l1-39.47,13.92-.67,9.63,20,.44-18.92Z"/><path class="cls-1" d="M544.88,283.49a23.27,23.27,0,0,1-1,7,19.42,19.42,0,0,1-2.8,5.57,18.87,18.87,0,0,1-4.27,4.19,25.14,25.14,0,0,1-5.43,2.88,32.69,32.69,0,0,1-6.28,1.67,42.54,42.54,0,0,1-6.83.54c-.87,0-1.73,0-2.56-.07s-1.69-.12-2.56-.21l.78-37.35a35,35,0,0,1,6.3-1.38,51.91,51.91,0,0,1,6.44-.4,21.45,21.45,0,0,1,7.32,1.2,16.35,16.35,0,0,1,5.77,3.45,15.58,15.58,0,0,1,3.77,5.51A19.1,19.1,0,0,1,544.88,283.49Zm-11.41,1.78a11.49,11.49,0,0,0-.32-2.89,7,7,0,0,0-1.15-2.46,5.92,5.92,0,0,0-2-1.73,6.73,6.73,0,0,0-2.93-.71L526,294.74a8,8,0,0,0,3-1.1,9.33,9.33,0,0,0,3.89-4.85,10.4,10.4,0,0,0,.6-3.13Z"/><path class="cls-1" d="M572.9,265.46c-.11,1.74-.21,3.47-.3,5.17s-.22,3.44-.36,5.18l-11.8.61-.28,3.51h8.29l-.61,8.63-8.35.28-.28,4.06H571q-.16,3.06-.35,6.08c-.12,2-.22,4-.32,6.06l-24,.55.89-40.13Z"/><path class="cls-1" d="M635.19,267l-6.51,38.58-15.81.33-3.39-20-3.4,18.53-15.81.56-6.57-38,13.81-1.22,2.78,23.1,3.73-23.1h10.85l4.35,23.38,2.22-23.38Z"/><path class="cls-1" d="M662.8,265.46c-.11,1.74-.21,3.47-.3,5.17s-.22,3.44-.37,5.18l-11.8.61-.28,3.51h8.3l-.61,8.63-8.35.28-.28,4.06h11.8q-.17,3.06-.35,6.08c-.12,2-.23,4-.32,6.06l-24,.55.89-40.13Z"/><path class="cls-1" d="M696.14,295.68a8.63,8.63,0,0,1-.85,4A8.72,8.72,0,0,1,693,302.5a12.28,12.28,0,0,1-3.27,1.91,22.63,22.63,0,0,1-3.86,1.15,28.79,28.79,0,0,1-4,.56c-1.35.09-2.6.14-3.77.14s-2.34,0-3.58-.13a35.65,35.65,0,0,1-3.69-.43,29.48,29.48,0,0,1-3.61-.82,20.26,20.26,0,0,1-3.37-1.29l-.06-35.85a34.83,34.83,0,0,1,3.32-1.16c1.16-.34,2.36-.63,3.57-.86s2.43-.41,3.63-.53,2.38-.18,3.51-.18a33.65,33.65,0,0,1,4,.25,22.4,22.4,0,0,1,3.89.84,17,17,0,0,1,3.48,1.52,11.38,11.38,0,0,1,2.82,2.29,10,10,0,0,1,1.89,3.17,11.7,11.7,0,0,1,.69,4.18,9.25,9.25,0,0,1-.45,2.92,7.91,7.91,0,0,1-3.31,4.3,8.81,8.81,0,0,1-2.7,1.13,12.13,12.13,0,0,1,3.3,1.39,9.7,9.7,0,0,1,4.14,5.18A10.57,10.57,0,0,1,696.14,295.68Zm-18.09-6.79a7.31,7.31,0,0,0-1.56.17l-.11,6.35.82.15a5.52,5.52,0,0,0,.8.07,6.77,6.77,0,0,0,1.28-.13,3.74,3.74,0,0,0,1.31-.5,3.24,3.24,0,0,0,1-1,3.17,3.17,0,0,0,.41-1.7,3.31,3.31,0,0,0-.41-1.73,3.19,3.19,0,0,0-1-1,3.39,3.39,0,0,0-1.28-.5A6.69,6.69,0,0,0,678.05,288.89Zm4-9.07a2.71,2.71,0,0,0-.34-1.38,3,3,0,0,0-.82-.93,3.4,3.4,0,0,0-1.06-.53,3.73,3.73,0,0,0-1-.17,3.65,3.65,0,0,0-1.09.17,9.88,9.88,0,0,0-1,.39l-.17,6.18a15,15,0,0,0,1.59-.11,6.72,6.72,0,0,0,1.82-.49,3.89,3.89,0,0,0,1.49-1.11A3.07,3.07,0,0,0,682,279.82Z"/><path class="cls-1" d="M729.15,283.49a23,23,0,0,1-1,7,19.17,19.17,0,0,1-2.8,5.57,18.66,18.66,0,0,1-4.27,4.19,24.68,24.68,0,0,1-5.43,2.88,32.4,32.4,0,0,1-6.27,1.67,42.64,42.64,0,0,1-6.83.54c-.88,0-1.73,0-2.57-.07s-1.68-.12-2.56-.21l.78-37.35a35.12,35.12,0,0,1,6.31-1.38A51.91,51.91,0,0,1,711,266a21.53,21.53,0,0,1,7.32,1.2,16.22,16.22,0,0,1,5.76,3.45,15.46,15.46,0,0,1,3.77,5.51A19.1,19.1,0,0,1,729.15,283.49Zm-11.41,1.78a11,11,0,0,0-.32-2.89,6.78,6.78,0,0,0-1.14-2.46,6,6,0,0,0-2-1.73,6.69,6.69,0,0,0-2.92-.71l-1.11,17.26a8,8,0,0,0,3-1.1,9.37,9.37,0,0,0,3.88-4.85,10.1,10.1,0,0,0,.6-3.13Z"/><path class="cls-1" d="M757.18,265.46c-.11,1.74-.21,3.47-.31,5.17s-.21,3.44-.36,5.18l-11.8.61-.28,3.51h8.3l-.62,8.63-8.35.28-.27,4.06h11.8q-.16,3.06-.35,6.08c-.12,2-.23,4-.32,6.06l-24,.55.89-40.13Z"/><path class="cls-1" d="M786.63,290.79a15.7,15.7,0,0,1-1.33,6.66,13.37,13.37,0,0,1-3.61,4.75,15.83,15.83,0,0,1-5.38,2.84,22.38,22.38,0,0,1-6.61.94,14,14,0,0,1-3-.36,34.07,34.07,0,0,1-3.3-.91c-1.11-.36-2.18-.75-3.21-1.16s-2-.82-2.74-1.19l1.22-11.46a19.77,19.77,0,0,0,5.25,2.15,22.4,22.4,0,0,0,5.66.74c.35,0,.78,0,1.28,0a6.2,6.2,0,0,0,1.44-.25,3,3,0,0,0,1.15-.63,1.48,1.48,0,0,0,.47-1.19,1.32,1.32,0,0,0-.33-.91,2.52,2.52,0,0,0-.86-.61,5.27,5.27,0,0,0-1.2-.36,10.28,10.28,0,0,0-1.31-.18c-.42,0-.82-.06-1.19-.06h-.89a11.15,11.15,0,0,1-4.36-.83,10,10,0,0,1-3.37-2.33,10.5,10.5,0,0,1-2.18-3.53,12.41,12.41,0,0,1-.78-4.44,12.86,12.86,0,0,1,1.32-5.89,13.72,13.72,0,0,1,3.53-4.42,16,16,0,0,1,5.08-2.8,18.3,18.3,0,0,1,5.93-1c.91,0,1.85,0,2.81.1a27.83,27.83,0,0,1,5.68,1,16.66,16.66,0,0,1,2.59,1l-1.06,11.3a35.38,35.38,0,0,0-4-1.07,20.37,20.37,0,0,0-4-.43h-.93c-.38,0-.78,0-1.19.09a11.59,11.59,0,0,0-1.27.21,5.45,5.45,0,0,0-1.14.37,2.24,2.24,0,0,0-.81.63,1.35,1.35,0,0,0-.28.92,1.33,1.33,0,0,0,.46,1,3,3,0,0,0,1.12.58,7.26,7.26,0,0,0,1.5.29c.55.06,1.09.09,1.63.1h1.5a7.73,7.73,0,0,1,1.14,0,11.3,11.3,0,0,1,4,.95,9.34,9.34,0,0,1,3,2.14,9.16,9.16,0,0,1,1.89,3.19A12,12,0,0,1,786.63,290.79Z"/><path class="cls-1" d="M803.41,266.4l-3.06,37.91-11.75.61V267.18Z"/><path class="cls-1" d="M838.64,299.91a13,13,0,0,1-3.23,2.87,21.24,21.24,0,0,1-4.11,2,26.11,26.11,0,0,1-4.51,1.21,25.56,25.56,0,0,1-4.4.41A18.83,18.83,0,0,1,815,305a17.67,17.67,0,0,1-5.86-4,18.58,18.58,0,0,1-3.86-6,19.84,19.84,0,0,1-1.39-7.43,25.62,25.62,0,0,1,2.69-11.43,22.83,22.83,0,0,1,3.16-4.73,20.25,20.25,0,0,1,4.23-3.72,20,20,0,0,1,11.19-3.28c.79,0,1.65,0,2.56.1a24.74,24.74,0,0,1,2.71.33,19.09,19.09,0,0,1,2.63.66,11.84,11.84,0,0,1,2.34,1l-.78,10.63a14.19,14.19,0,0,0-3.22-.8,25.61,25.61,0,0,0-3.24-.2,12.31,12.31,0,0,0-4.16.68,10,10,0,0,0-3.37,2,9.15,9.15,0,0,0-2.26,3.12,9.82,9.82,0,0,0-.84,4.14,10,10,0,0,0,.39,2.8,7.13,7.13,0,0,0,1.18,2.39,6.11,6.11,0,0,0,2,1.69,5.63,5.63,0,0,0,2.74.64,9,9,0,0,0,2.19-.28,4.79,4.79,0,0,0,1.93-1l.11-2.17-6.68-.11.34-8.35q4.14-.13,8.29-.23c2.76-.07,5.55-.16,8.35-.27Z"/><path class="cls-1" d="M878.61,265.68l-2,37.74L862,304.76l-7.79-20.21L853,305.15H840.48l1-39.47L855.4,265l9.63,20,.44-18.92Z"/><path class="cls-2" d="M17.93,404.59a6,6,0,0,0,3.71,5.52,7.15,7.15,0,0,0,1.7.41c.45,0,1.5,0,2.35,0l5.3,0,21.19-.06c14.13,0,28.25-.23,42.38-.33s28.26-.35,42.38-.54l21.2-.33,21.19-.43q84.77-1.72,169.53-5.22c113-4.57,226-11.55,339.07-18.66,56.51-3.55,113-7.08,169.53-10.25,28.26-1.52,56.51-3.18,84.77-4.52l21.19-1,10.6-.49,1.32-.06c.06,0,.81,0,.3,0-.87,0-1.75,0-2.62.08A36.38,36.38,0,0,0,939.28,404c0,1.3,0,0,0,.1l0-.66-.06-1.32-.12-2.65-.45-10.6-.87-21.19q-6.9-169.53-6.78-339.07a45,45,0,0,0,7.62,25,45,45,0,0,0,20.12,16.5,44.54,44.54,0,0,0,12.88,3.22c1.08.11,2.17.18,3.25.2,1.66,0,.79,0,.68,0h-6.62l-21.19-.06-42.38-.35c-14.13-.1-28.26-.38-42.39-.56s-28.25-.49-42.38-.78Q735.77,70,651,66.53C538,62,425,55,311.93,48c-56.51-3.52-113-7-169.54-10.19L100,35.46,78.82,34.32l-21.19-1-21.19-1-10.6-.48-1.32-.06-.57,0a.83.83,0,0,0,.22,0,3.73,3.73,0,0,0,.84-.32,2.67,2.67,0,0,0,1.12-1.19,2.51,2.51,0,0,0,.25-1.5c0-.16,0,.34,0,.47l0,.66-.06,1.33-.12,2.65-.45,10.59-.87,21.2Q17.92,235.06,17.93,404.59Zm-6,0L11.49,65.53l0-21.2,0-10.59V28.38a12.5,12.5,0,0,1,7.89-11.44,12.37,12.37,0,0,1,3.59-.85l.92,0h2l10.6,0,21.19-.07,84.76-.28,169.54-.55L651,14l169.53-.22,84.77-.1,42.38-.06,21.19,0h5.3c.94,0,1.51,0,3.23.07a15.08,15.08,0,0,1,8,3.32,16.25,16.25,0,0,1,2.95,3.25,15.94,15.94,0,0,1,1.88,4,15.75,15.75,0,0,1,.65,4.35l-.42,339.07,0,21.19,0,10.6,0,5.39a15,15,0,0,1-.69,4.19,15.26,15.26,0,0,1-1.9,3.81A14.52,14.52,0,0,1,977.11,419l-1.06.05h-2l-10.6,0-21.19-.07-84.77-.28-169.53-.56L348.86,417l-169.53-.22-84.77-.11-42.38-.05-21.19,0h-5.3c-.91,0-1.64,0-2.94-.06a12.79,12.79,0,0,1-3.43-.86,13.26,13.26,0,0,1-3-1.82A13,13,0,0,1,14,411.26a11.92,11.92,0,0,1-2-6.67Z"/></svg>
