<svg id="Layer_1" data-name="Layer 1" xmlns="http://www.w3.org/2000/svg" xmlns:xlink="http://www.w3.org/1999/xlink" width="1006" height="429" viewBox="0 0 1006 429"><defs><style>.cls-1{fill:#ff7c19;stroke:#000;stroke-miterlimit:10;stroke-width:2px;}.cls-2{fill:#2d12b2;filter:url(#AI_Shadow_1);}</style><filter id="AI_Shadow_1" name="AI_Shadow_1"><feGaussianBlur result="blur" stdDeviation="2" in="SourceAlpha"/><feOffset result="offsetBlurredAlpha" dx="4" dy="4" in="blur"/><feMerge><feMergeNode in="offsetBlurredAlpha"/><feMergeNode in="SourceGraphic"/></feMerge></filter></defs><title>tema2_titel</title><path class="cls-1" d="M423,184.82l-.37,15.53-10.91.44-2.78,34.72-15.46.8.08-34.71-10.92.58L383,184.9Z"/><path class="cls-1" d="M459.65,184.38q-.22,3.45-.41,6.82t-.47,6.81l-15.53.8-.37,4.62h10.92L453,214.78l-11,.37-.36,5.34h15.52q-.21,4-.45,8t-.42,8l-31.57.73,1.17-52.81Z"/><path class="cls-1" d="M517.51,183.8l-3.37,53.76-16.7.73.14-28.34L490,232.8H483.6l-5.79-20.44-.07,23.73-16.92.52.73-50.61,18.82-.74,7.47,24.25,10-25.71Z"/><path class="cls-1" d="M565.74,234l-18.17,2.35-2.19-8.28H537l-1.84,8.28-18.67-1.83,14.57-48.78,20.36-1ZM544.06,216.9l-2.79-12.74-2.71,12.74Z"/><path class="cls-1" d="M616.2,202.69a14.86,14.86,0,0,1-1.06,5.59,21.85,21.85,0,0,1-2.8,5,28.08,28.08,0,0,1-4,4.28,48.85,48.85,0,0,1-4.48,3.54h11.57l-.88,15.23-34.28-1.17V221.81q2-.66,4.08-1.59a40.78,40.78,0,0,0,4.22-2.14,31.27,31.27,0,0,0,3.91-2.71,21.49,21.49,0,0,0,3.26-3.28,15.14,15.14,0,0,0,2.24-3.87,12.12,12.12,0,0,0,.82-4.5,5.73,5.73,0,0,0-.49-2.45,5,5,0,0,0-1.38-1.78,5.7,5.7,0,0,0-2-1.06,8.57,8.57,0,0,0-2.47-.35,10.71,10.71,0,0,0-2.23.24A12.83,12.83,0,0,0,588,199a11.31,11.31,0,0,0-2.07,1.08,10.57,10.57,0,0,0-1.74,1.44L581,187.17a12.38,12.38,0,0,1,3.11-2.27,20.89,20.89,0,0,1,3.7-1.49,26.5,26.5,0,0,1,4-.82,31.43,31.43,0,0,1,4-.26,20.71,20.71,0,0,1,8.06,1.56,20.1,20.1,0,0,1,12.45,18.8Z"/><path class="cls-1" d="M192.73,299.91a13,13,0,0,1-3.23,2.87,21,21,0,0,1-4.12,2,26.77,26.77,0,0,1-8.9,1.62,18.83,18.83,0,0,1-7.43-1.45,17.67,17.67,0,0,1-5.86-4,18.58,18.58,0,0,1-3.86-6,19.84,19.84,0,0,1-1.39-7.43,25.62,25.62,0,0,1,2.69-11.43,22.83,22.83,0,0,1,3.16-4.73,20.07,20.07,0,0,1,9.4-6.14,20.61,20.61,0,0,1,6-.86c.79,0,1.65,0,2.56.1a24.74,24.74,0,0,1,2.71.33,19.09,19.09,0,0,1,2.63.66,11.84,11.84,0,0,1,2.34,1l-.78,10.63a14.19,14.19,0,0,0-3.22-.8,25.61,25.61,0,0,0-3.24-.2,12.31,12.31,0,0,0-4.16.68,10,10,0,0,0-3.37,2,9.15,9.15,0,0,0-2.26,3.12,9.82,9.82,0,0,0-.84,4.14,10,10,0,0,0,.39,2.8,7.13,7.13,0,0,0,1.18,2.39,6.11,6.11,0,0,0,2,1.69,5.63,5.63,0,0,0,2.74.64,8.81,8.81,0,0,0,2.18-.28,4.77,4.77,0,0,0,1.94-1l.11-2.17-6.68-.11.33-8.35c2.77-.09,5.53-.17,8.3-.23s5.55-.16,8.35-.27Z"/><path class="cls-1" d="M227.47,278.76a19,19,0,0,1-.38,3.94,11.37,11.37,0,0,1-3.27,6,18.47,18.47,0,0,1-3.09,2.39l6.63,11.8-12.53,2.45-4.29-11.85-3.45.11-.5,11.58h-12q.13-6.34.26-12.64t.29-12.63c0-2.14.08-4.25.11-6.35s.11-4.21.23-6.35a34.46,34.46,0,0,1,3.84-1.19,35.4,35.4,0,0,1,3.8-.74c1.27-.18,2.56-.3,3.86-.36s2.65-.1,4-.1a21.28,21.28,0,0,1,6.13.88,15.8,15.8,0,0,1,5.25,2.63,13.17,13.17,0,0,1,3.66,4.37A12.84,12.84,0,0,1,227.47,278.76Zm-12.47.89a6.91,6.91,0,0,0-.32-2.14,4.77,4.77,0,0,0-1-1.68,4.33,4.33,0,0,0-1.56-1.12,5.44,5.44,0,0,0-2.18-.4,7.78,7.78,0,0,0-1.09.07,6.07,6.07,0,0,0-1,.21l-.44,10.35h.67a9.82,9.82,0,0,0,2.43-.31,7.07,7.07,0,0,0,2.23-.94,5.36,5.36,0,0,0,1.61-1.64A4.43,4.43,0,0,0,215,279.65Z"/><path class="cls-1" d="M262.67,274.64c0,1.38-.06,2.89-.19,4.54s-.34,3.36-.64,5.12-.68,3.55-1.16,5.36a38.56,38.56,0,0,1-1.76,5.22,31.13,31.13,0,0,1-2.47,4.69,18.67,18.67,0,0,1-3.22,3.81,14.46,14.46,0,0,1-4.08,2.56,13,13,0,0,1-5,.93,14,14,0,0,1-5.61-1,12.59,12.59,0,0,1-4.08-2.81,14.86,14.86,0,0,1-2.78-4.12,26.32,26.32,0,0,1-1.7-5,38.4,38.4,0,0,1-.85-5.38c-.16-1.82-.23-3.58-.23-5.27a77.79,77.79,0,0,1,.39-7.78q.39-3.89,1.11-7.75l13,.5q-.75,4.36-1.29,8.78a73,73,0,0,0-.54,8.87c0,.31,0,.78,0,1.4s.08,1.32.15,2.09.18,1.56.32,2.37a13.44,13.44,0,0,0,.57,2.21,5.74,5.74,0,0,0,.88,1.64,1.51,1.51,0,0,0,1.21.64,1.85,1.85,0,0,0,1.45-.77,7.44,7.44,0,0,0,1.13-2,21.13,21.13,0,0,0,.84-2.95c.24-1.11.45-2.27.62-3.48s.3-2.41.4-3.62.19-2.33.25-3.37.11-1.95.13-2.75,0-1.39,0-1.78c0-1.45,0-2.89-.07-4.33s-.11-2.87-.21-4.3h13Q262.67,270.69,262.67,274.64Z"/><path class="cls-1" d="M302.75,265.68l-2,37.74-14.59,1.34-7.79-20.21-1.22,20.6H264.62l1-39.47,13.92-.67,9.63,20,.45-18.92Z"/><path class="cls-1" d="M336.54,283.49a23,23,0,0,1-1,7,19.17,19.17,0,0,1-2.8,5.57,18.87,18.87,0,0,1-4.27,4.19,24.68,24.68,0,0,1-5.43,2.88,32.59,32.59,0,0,1-6.27,1.67,42.67,42.67,0,0,1-6.84.54c-.87,0-1.72,0-2.56-.07s-1.69-.12-2.56-.21l.78-37.35a34.93,34.93,0,0,1,6.31-1.38,51.79,51.79,0,0,1,6.44-.4,21.53,21.53,0,0,1,7.32,1.2,16.31,16.31,0,0,1,5.76,3.45,15.58,15.58,0,0,1,3.77,5.51A19.1,19.1,0,0,1,336.54,283.49Zm-11.41,1.78a11,11,0,0,0-.32-2.89,6.78,6.78,0,0,0-1.14-2.46,6,6,0,0,0-2-1.73,6.72,6.72,0,0,0-2.92-.71l-1.12,17.26a8,8,0,0,0,3-1.1,9.37,9.37,0,0,0,3.88-4.85,10.4,10.4,0,0,0,.6-3.13Z"/><path class="cls-1" d="M362.67,289.73l-1.16,12.35-23.44,1.84q.17-9.71.38-19.31t.51-19.32h14.47q-.63,6.09-1.22,12.18t-.83,12.26c.87,0,1.73,0,2.58,0h2.59l3.06,0Q361.13,289.73,362.67,289.73Z"/><path class="cls-1" d="M410.88,265.46c-.11,1.74-.21,3.47-.31,5.17s-.21,3.44-.36,5.18l-11.8.61-.28,3.51h8.3l-.62,8.63-8.35.28-.27,4.06H409q-.17,3.06-.35,6.08c-.12,2-.23,4-.32,6.06l-24,.55.22-6.9h-6.79L375,305l-13.81-1.39,20.26-37.07Zm-25.49,24.71.27-9.68-4.45,9.68Z"/><path class="cls-1" d="M445.42,299.91a13,13,0,0,1-3.23,2.87,21,21,0,0,1-4.12,2,25.87,25.87,0,0,1-4.51,1.21,25.45,25.45,0,0,1-4.39.41,18.91,18.91,0,0,1-7.44-1.45,17.73,17.73,0,0,1-5.85-4,18.41,18.41,0,0,1-3.86-6,19.64,19.64,0,0,1-1.39-7.43,25.79,25.79,0,0,1,2.68-11.43,23.65,23.65,0,0,1,3.16-4.73,20,20,0,0,1,15.42-7c.8,0,1.65,0,2.56.1a24.92,24.92,0,0,1,2.72.33,19.45,19.45,0,0,1,2.63.66,11.84,11.84,0,0,1,2.34,1l-.78,10.63a14.19,14.19,0,0,0-3.22-.8,25.61,25.61,0,0,0-3.24-.2,12.27,12.27,0,0,0-4.16.68,10,10,0,0,0-3.37,2,9.17,9.17,0,0,0-2.27,3.12,10.54,10.54,0,0,0-.44,6.94,7.13,7.13,0,0,0,1.18,2.39,6.11,6.11,0,0,0,2,1.69,5.6,5.6,0,0,0,2.74.64,8.87,8.87,0,0,0,2.18-.28,4.83,4.83,0,0,0,1.94-1l.11-2.17-6.68-.11.33-8.35c2.77-.09,5.53-.17,8.3-.23s5.54-.16,8.35-.27Z"/><path class="cls-1" d="M481.13,299.91a13,13,0,0,1-3.23,2.87,21,21,0,0,1-4.12,2,26.11,26.11,0,0,1-4.51,1.21,25.47,25.47,0,0,1-4.4.41,18.86,18.86,0,0,1-7.43-1.45,17.87,17.87,0,0,1-5.86-4,18.55,18.55,0,0,1-3.85-6,19.64,19.64,0,0,1-1.39-7.43A25.44,25.44,0,0,1,449,276.13a23.65,23.65,0,0,1,3.16-4.73,20,20,0,0,1,9.41-6.14,20.54,20.54,0,0,1,6-.86c.8,0,1.65,0,2.56.1a24.92,24.92,0,0,1,2.72.33,19.45,19.45,0,0,1,2.63.66,11.49,11.49,0,0,1,2.33,1l-.78,10.63a14.24,14.24,0,0,0-3.21-.8,25.61,25.61,0,0,0-3.24-.2,12.27,12.27,0,0,0-4.16.68,9.9,9.9,0,0,0-3.37,2,9.17,9.17,0,0,0-2.27,3.12,9.81,9.81,0,0,0-.83,4.14,9.67,9.67,0,0,0,.39,2.8,7.13,7.13,0,0,0,1.18,2.39,6.18,6.18,0,0,0,2,1.69,5.67,5.67,0,0,0,2.75.64,8.87,8.87,0,0,0,2.18-.28,4.73,4.73,0,0,0,1.93-1l.12-2.17-6.68-.11.33-8.35q4.16-.13,8.29-.23t8.35-.27Z"/><path class="cls-1" d="M509.6,265.46c-.11,1.74-.21,3.47-.31,5.17s-.21,3.44-.36,5.18l-11.8.61-.28,3.51h8.3l-.62,8.63-8.34.28-.28,4.06h11.8q-.16,3.06-.35,6.08c-.12,2-.23,4-.32,6.06l-24,.55.89-40.13Z"/><path class="cls-1" d="M548.4,265.68l-2,37.74-14.58,1.34L524,284.55l-1.23,20.6H510.27l1-39.47,13.92-.67,9.63,20,.44-18.92Z"/><path class="cls-1" d="M582.19,283.49a23,23,0,0,1-1,7,19.15,19.15,0,0,1-2.79,5.57,18.71,18.71,0,0,1-4.28,4.19,24.83,24.83,0,0,1-5.42,2.88,32.69,32.69,0,0,1-6.28,1.67,42.54,42.54,0,0,1-6.83.54c-.87,0-1.73,0-2.56-.07s-1.69-.12-2.56-.21l.78-37.35a35,35,0,0,1,6.3-1.38A51.91,51.91,0,0,1,564,266a21.45,21.45,0,0,1,7.32,1.2,16.22,16.22,0,0,1,5.76,3.45,15.48,15.48,0,0,1,3.78,5.51A19.1,19.1,0,0,1,582.19,283.49Zm-11.42,1.78a10.64,10.64,0,0,0-.32-2.89,6.78,6.78,0,0,0-1.14-2.46,6,6,0,0,0-2-1.73,6.77,6.77,0,0,0-2.93-.71l-1.11,17.26a8,8,0,0,0,3-1.1,9.26,9.26,0,0,0,2.36-2.09,9.77,9.77,0,0,0,1.53-2.76,10.09,10.09,0,0,0,.59-3.13Z"/><path class="cls-1" d="M610.21,265.46c-.11,1.74-.21,3.47-.3,5.17s-.22,3.44-.37,5.18l-11.8.61-.27,3.51h8.29l-.61,8.63-8.35.28-.28,4.06h11.8Q608.16,296,608,299c-.12,2-.22,4-.32,6.06l-24,.55.89-40.13Z"/><path class="cls-1" d="M637.32,266.4l-3.06,37.91-11.75.61V267.18Z"/><path class="cls-1" d="M677.09,265.68l-2,37.74-14.58,1.34-7.8-20.21-1.22,20.6H639l1-39.47,13.91-.67,9.63,20,.45-18.92Z"/><path class="cls-1" d="M710.88,283.49a23,23,0,0,1-1,7,19.17,19.17,0,0,1-2.8,5.57,18.66,18.66,0,0,1-4.27,4.19,24.68,24.68,0,0,1-5.43,2.88,32.59,32.59,0,0,1-6.27,1.67,42.67,42.67,0,0,1-6.84.54c-.87,0-1.72,0-2.56-.07s-1.69-.12-2.56-.21l.78-37.35a34.93,34.93,0,0,1,6.31-1.38,51.91,51.91,0,0,1,6.44-.4,21.53,21.53,0,0,1,7.32,1.2,16.22,16.22,0,0,1,5.76,3.45,15.58,15.58,0,0,1,3.77,5.51A19.1,19.1,0,0,1,710.88,283.49Zm-11.41,1.78a11,11,0,0,0-.32-2.89,6.78,6.78,0,0,0-1.14-2.46,6,6,0,0,0-2-1.73,6.72,6.72,0,0,0-2.92-.71L692,294.74a8,8,0,0,0,3-1.1,9.37,9.37,0,0,0,3.88-4.85,10.4,10.4,0,0,0,.6-3.13Z"/><path class="cls-1" d="M745.59,305.59l-13.92.67-.11-12.86h-6.4l-.39,12.19H712.3l1.06-39.13,13.25.61-.84,20H732l.06-21.49,12.69.33Z"/><path class="cls-1" d="M782.63,285.94a20.21,20.21,0,0,1-.58,4.89,18.73,18.73,0,0,1-1.69,4.41,18.13,18.13,0,0,1-2.67,3.77,17.14,17.14,0,0,1-3.53,2.94,17.31,17.31,0,0,1-4.27,1.9,17.07,17.07,0,0,1-4.9.68,17.46,17.46,0,0,1-4.78-.64A17.89,17.89,0,0,1,756,302.1a17.27,17.27,0,0,1-3.58-2.78,17.78,17.78,0,0,1-2.72-3.62,18.46,18.46,0,0,1-1.76-4.27,17.86,17.86,0,0,1-.62-4.76,19.41,19.41,0,0,1,2.26-9.13,19,19,0,0,1,2.66-3.79,17.77,17.77,0,0,1,3.5-3,16.61,16.61,0,0,1,4.18-1.94,15.89,15.89,0,0,1,4.76-.7,20.91,20.91,0,0,1,7.37,1.25,15.65,15.65,0,0,1,9.32,9.2A20.05,20.05,0,0,1,782.63,285.94Zm-12.35.73a7.92,7.92,0,0,0-.35-2.33,6.4,6.4,0,0,0-1-2,5.13,5.13,0,0,0-1.65-1.42,4.67,4.67,0,0,0-2.27-.54,5.34,5.34,0,0,0-4.11,1.76,5.77,5.77,0,0,0-1.13,1.92,6.94,6.94,0,0,0-.38,2.33,8.59,8.59,0,0,0,.33,2.34,7.07,7.07,0,0,0,1,2.11,5.39,5.39,0,0,0,1.66,1.53,4.41,4.41,0,0,0,2.29.59,5.2,5.2,0,0,0,4.12-1.91,6.52,6.52,0,0,0,1.12-2A7.26,7.26,0,0,0,770.28,286.67Z"/><path class="cls-1" d="M809.05,289.73l-1.17,12.35-23.44,1.84q.16-9.71.38-19.31t.51-19.32h14.48q-.64,6.09-1.23,12.18t-.83,12.26c.87,0,1.73,0,2.58,0h2.59l3.06,0C807,289.74,808,289.73,809.05,289.73Z"/><path class="cls-1" d="M841.89,283.49a23.27,23.27,0,0,1-1,7,19.42,19.42,0,0,1-2.8,5.57,18.87,18.87,0,0,1-4.27,4.19,25.14,25.14,0,0,1-5.43,2.88,32.69,32.69,0,0,1-6.28,1.67,42.45,42.45,0,0,1-6.83.54c-.87,0-1.73,0-2.56-.07s-1.69-.12-2.56-.21l.78-37.35a35,35,0,0,1,6.3-1.38,52,52,0,0,1,6.45-.4,21.43,21.43,0,0,1,7.31,1.2,16.35,16.35,0,0,1,5.77,3.45,15.58,15.58,0,0,1,3.77,5.51A19.1,19.1,0,0,1,841.89,283.49Zm-11.41,1.78a11.49,11.49,0,0,0-.32-2.89,7.13,7.13,0,0,0-1.14-2.46,6,6,0,0,0-2-1.73,6.73,6.73,0,0,0-2.93-.71L823,294.74a8,8,0,0,0,3-1.1,9.33,9.33,0,0,0,3.89-4.85,10.4,10.4,0,0,0,.6-3.13Z"/><path class="cls-2" d="M17.93,404.59a6,6,0,0,0,3.71,5.52,7.15,7.15,0,0,0,1.7.41c.45,0,1.5,0,2.35,0l5.3,0,21.19-.06c14.13,0,28.25-.23,42.38-.33s28.26-.35,42.38-.54l21.2-.33,21.19-.43q84.77-1.72,169.53-5.22c113-4.57,226-11.55,339.07-18.66,56.51-3.55,113-7.08,169.53-10.25,28.26-1.52,56.51-3.18,84.77-4.52l21.19-1,10.6-.49,1.32-.06c.06,0,.81,0,.3,0-.87,0-1.75,0-2.62.08A36.38,36.38,0,0,0,939.28,404c0,1.3,0,0,0,.1l0-.66-.06-1.32-.12-2.65-.45-10.6-.87-21.19q-6.9-169.53-6.78-339.07a45,45,0,0,0,7.62,25,44.95,44.95,0,0,0,33,19.72c1.08.11,2.17.18,3.25.2,1.66,0,.79,0,.68,0h-6.62l-21.19-.06-42.38-.35c-14.13-.1-28.26-.38-42.39-.56s-28.25-.49-42.38-.78Q735.77,70,651,66.53C538,62,425,55,311.93,48c-56.51-3.52-113-7-169.53-10.19L100,35.46,78.82,34.32l-21.19-1-21.19-1-10.6-.48-1.32-.06-.57,0a.83.83,0,0,0,.22,0,3.73,3.73,0,0,0,.84-.32,2.67,2.67,0,0,0,1.12-1.19,2.51,2.51,0,0,0,.25-1.5c0-.16,0,.34,0,.47l0,.66-.06,1.33-.12,2.65-.45,10.59-.87,21.2Q17.92,235.06,17.93,404.59Zm-6,0L11.49,65.53l0-21.2,0-10.59V28.38a12.5,12.5,0,0,1,7.89-11.44,12.37,12.37,0,0,1,3.59-.85l.92,0h2l10.6,0,21.19-.07,84.77-.28,169.53-.55L651,14l169.53-.22,84.77-.1,42.38-.06,21.19,0h5.3c.94,0,1.51,0,3.23.07a15.08,15.08,0,0,1,8,3.32,16.25,16.25,0,0,1,2.95,3.25,15.94,15.94,0,0,1,1.88,4,15.75,15.75,0,0,1,.65,4.35l-.42,339.07,0,21.19,0,10.6,0,5.39a15,15,0,0,1-.69,4.19,15.26,15.26,0,0,1-1.9,3.81A14.52,14.52,0,0,1,977.11,419l-1.06.05h-2l-10.6,0-21.19-.07-84.77-.28-169.53-.56L348.86,417l-169.53-.22-84.77-.11-42.38-.05-21.19,0h-5.3c-.91,0-1.64,0-2.94-.06a12.79,12.79,0,0,1-3.43-.86,13.26,13.26,0,0,1-3-1.82A13,13,0,0,1,14,411.26a11.92,11.92,0,0,1-2-6.67Z"/></svg>
