<?xml version="1.0" standalone="no"?>
<!DOCTYPE svg PUBLIC "-//W3C//DTD SVG 20010904//EN"
 "http://www.w3.org/TR/2001/REC-SVG-20010904/DTD/svg10.dtd">
<svg version="1.0" xmlns="http://www.w3.org/2000/svg"
 width="512.000000pt" height="512.000000pt" viewBox="0 0 512.000000 512.000000"
 preserveAspectRatio="xMidYMid meet">
<metadata>
Created by potrace 1.11, written by Peter Selinger 2001-2013
</metadata>
<g transform="translate(0.000000,512.000000) scale(0.100000,-0.100000)"
fill="#000000" stroke="none">
<path d="M2248 4555 c-2 -2 -20 -6 -41 -9 -114 -18 -286 -119 -415 -245 -46
-45 -86 -81 -88 -81 -3 0 -4 51 -3 113 l3 112 -90 -2 c-49 0 -152 -4 -229 -7
-77 -3 -196 -8 -265 -11 -69 -3 -170 -7 -225 -10 -99 -5 -405 -17 -477 -19
-31 -1 -38 -5 -38 -21 -1 -11 -3 -139 -5 -285 -4 -247 -10 -434 -20 -640 -3
-47 -7 -137 -10 -200 -6 -114 -9 -169 -20 -345 -10 -156 -16 -238 -20 -290 -2
-27 -7 -88 -10 -135 -3 -47 -7 -105 -10 -130 -2 -25 -7 -79 -10 -120 -6 -84
-13 -163 -20 -230 -3 -25 -7 -72 -10 -105 -3 -33 -7 -89 -10 -125 -3 -36 -8
-81 -10 -100 -3 -19 -7 -66 -11 -105 -3 -38 -7 -86 -9 -105 -13 -138 -17 -178
-20 -200 -2 -14 -7 -59 -10 -100 -11 -127 -13 -152 -21 -230 -4 -41 -8 -100
-8 -130 l-1 -55 692 0 c380 0 694 2 696 5 6 5 14 241 32 900 3 107 7 258 10
335 3 77 7 221 10 320 16 543 22 705 31 775 12 103 16 128 30 191 38 169 101
258 175 247 56 -8 111 -219 136 -528 15 -180 8 -737 -12 -960 -2 -25 -7 -83
-10 -130 -4 -47 -8 -96 -10 -110 -4 -24 -13 -117 -20 -190 -2 -19 -6 -60 -10
-90 -3 -30 -8 -74 -10 -98 -3 -23 -7 -55 -9 -70 -3 -15 -7 -54 -11 -87 -3 -33
-8 -71 -10 -85 -2 -14 -6 -52 -10 -85 -4 -32 -8 -66 -10 -75 -2 -8 -6 -44 -10
-80 -3 -36 -9 -73 -12 -83 -5 -18 4 -18 179 -13 100 3 239 8 308 11 69 3 175
7 235 10 61 2 196 7 300 11 163 5 236 9 292 13 6 1 11 9 11 19 -1 17 10 200
18 297 2 28 6 95 9 150 3 55 7 138 10 185 26 416 30 667 24 1410 -2 221 2 279
25 385 18 78 56 153 99 193 31 29 90 44 111 28 32 -25 74 -152 91 -276 27
-204 37 -361 36 -570 0 -217 -9 -421 -26 -620 -3 -36 -7 -88 -10 -116 -2 -28
-7 -78 -10 -110 -4 -32 -8 -75 -10 -94 -5 -55 -16 -153 -20 -180 -2 -14 -6
-50 -10 -80 -3 -30 -10 -91 -16 -135 -5 -44 -12 -97 -14 -117 -8 -64 -14 -108
-30 -232 -14 -111 -13 -142 3 -132 4 2 88 7 187 11 99 4 209 9 245 10 36 2
119 6 185 9 66 3 170 8 230 11 61 3 155 7 210 10 55 3 156 7 225 11 69 3 126
7 126 7 1 1 5 45 9 97 3 52 8 109 10 125 2 17 6 71 10 120 3 50 8 110 10 135
2 25 7 95 10 155 4 61 9 130 10 155 30 467 25 1181 -9 1470 -11 88 -46 301
-58 345 -5 22 -12 48 -13 57 -10 48 -51 184 -81 264 -137 370 -416 620 -746
670 -18 3 -85 7 -148 9 -287 9 -490 -75 -731 -303 l-92 -88 -35 69 c-52 104
-146 199 -246 247 -73 35 -103 45 -201 65 -32 7 -271 15 -277 10z"/>
</g>
</svg>
